#N canvas 43 77 794 300 10;
#X obj 100 -73 sel 1 -1 0;
#X obj 100 -33 metro;
#X msg 159 -54 0;
#X obj 159 -33 metro;
#X msg 100 -53 1;
#X msg 129 -53 1;
#X msg 100 20 inc;
#X msg 157 20 dec;
#X obj 100 39 counter 0 0 255;
#X obj 100 -94 change;
#X obj 178 59 sel 255 0;
#X msg 178 79 0;
#X msg 203 79 0;
#X msg 229 79 1;
#X obj 100 -4 spigot;
#X obj 159 -4 spigot;
#X obj 229 39 loadbang;
#X obj 100 -132 bondo;
#X obj 100 -113 *;
#X obj 100 -196 inlet;
#X obj 99 64 outlet;
#X obj -33 -56 pow;
#X floatatom -34 -113 5 0 0 0 - - -;
#X obj -8 -129 metro;
#X obj -8 -166 tgl 15 0 empty empty empty 17 7 0 10 -262144 -1 -1 0
1;
#N canvas 0 0 450 300 (subpatch) 0;
#X array papapapapa 32 float 3;
#A 0 17699.8 16376.4 15112.1 13906.1 12757.7 11666.2 10630.6 9650.32
8724.41 7852.04 7032.35 6264.44 5547.37 4880.19 4261.92 3691.52 3167.94
2690.07 2256.77 1866.81 1518.94 1211.83 944.052 714.109 520.383 361.127
234.423 138.141 69.8584 26.7228 5.16941 0;
#X coords 0 20000 32 0 50 40 1;
#X restore -31 19 graph;
#X msg -8 -106 dec;
#X obj -8 -150 sel 0;
#X obj -33 -94 * 2;
#X obj -8 -56 expr abs($f1-32);
#X obj -8 -80 counter 0 0 32;
#X msg 22 -106 set 32;
#X obj 299 -73 sel 1 -1 0;
#X obj 299 -33 metro;
#X msg 358 -54 0;
#X obj 358 -33 metro;
#X msg 299 -53 1;
#X msg 328 -53 1;
#X msg 299 20 inc;
#X msg 356 20 dec;
#X obj 299 39 counter 0 0 255;
#X obj 299 -94 change;
#X obj 377 59 sel 255 0;
#X msg 377 79 0;
#X msg 402 79 0;
#X msg 428 79 1;
#X obj 299 -4 spigot;
#X obj 358 -4 spigot;
#X obj 428 39 loadbang;
#X obj 299 -132 bondo;
#X obj 299 -113 *;
#X obj 299 -196 inlet;
#X obj 298 64 outlet;
#X obj 500 -71 sel 1 -1 0;
#X obj 500 -31 metro;
#X msg 559 -52 0;
#X obj 559 -31 metro;
#X msg 500 -51 1;
#X msg 529 -51 1;
#X msg 500 22 inc;
#X msg 557 22 dec;
#X obj 500 41 counter 0 0 255;
#X obj 500 -92 change;
#X obj 578 61 sel 255 0;
#X msg 578 81 0;
#X msg 603 81 0;
#X msg 629 81 1;
#X obj 500 -2 spigot;
#X obj 559 -2 spigot;
#X obj 629 41 loadbang;
#X obj 500 -130 bondo;
#X obj 500 -111 *;
#X obj 500 -175 expr if($f1<73&&$f1>67 \, 0 \, 1) \; abs($f1-70) \;
if($f1<70 \, 1 \, -1) \;;
#X obj 500 -194 inlet;
#X obj 499 66 outlet;
#X obj 299 -177 expr if($f1<50&&$f1>55 \, 0 \, 1) \; abs($f1-52) \;
if($f1<52 \, 1 \, -1) \;;
#X obj 100 -177 expr if($f1<71&&$f1>66 \, 0 \, 1) \; abs($f1-68) \;
if($f1<68 \, 1 \, -1) \;;
#X obj -33 -36 tabwrite papapapapa;
#X obj 180 -112 tabread papapapapa;
#X obj 350 -102 tabread papapapapa;
#X obj 580 -112 tabread papapapapa;
#X obj 572 -73 / 2500;
#X obj 371 -75 / 2500;
#X obj 172 -75 / 2500;
#X connect 0 0 4 0;
#X connect 0 1 5 0;
#X connect 0 2 2 0;
#X connect 1 0 14 0;
#X connect 2 0 3 0;
#X connect 2 0 1 0;
#X connect 3 0 15 0;
#X connect 4 0 1 0;
#X connect 5 0 3 0;
#X connect 6 0 8 0;
#X connect 7 0 8 0;
#X connect 8 0 10 0;
#X connect 8 0 20 0;
#X connect 9 0 0 0;
#X connect 10 0 11 0;
#X connect 10 1 12 0;
#X connect 10 2 13 0;
#X connect 11 0 14 1;
#X connect 12 0 15 1;
#X connect 13 0 15 1;
#X connect 13 0 14 1;
#X connect 14 0 6 0;
#X connect 15 0 7 0;
#X connect 16 0 13 0;
#X connect 17 0 18 0;
#X connect 17 1 18 1;
#X connect 18 0 9 0;
#X connect 19 0 76 0;
#X connect 21 0 77 0;
#X connect 22 0 21 1;
#X connect 23 0 26 0;
#X connect 24 0 23 0;
#X connect 26 0 30 0;
#X connect 27 0 24 0;
#X connect 27 0 31 0;
#X connect 28 0 21 0;
#X connect 29 0 77 1;
#X connect 30 0 27 0;
#X connect 30 0 28 0;
#X connect 30 0 29 0;
#X connect 31 0 30 0;
#X connect 32 0 36 0;
#X connect 32 1 37 0;
#X connect 32 2 34 0;
#X connect 33 0 46 0;
#X connect 34 0 35 0;
#X connect 34 0 33 0;
#X connect 35 0 47 0;
#X connect 36 0 33 0;
#X connect 37 0 35 0;
#X connect 38 0 40 0;
#X connect 39 0 40 0;
#X connect 40 0 42 0;
#X connect 40 0 52 0;
#X connect 41 0 32 0;
#X connect 42 0 43 0;
#X connect 42 1 44 0;
#X connect 42 2 45 0;
#X connect 43 0 46 1;
#X connect 44 0 47 1;
#X connect 45 0 47 1;
#X connect 45 0 46 1;
#X connect 46 0 38 0;
#X connect 47 0 39 0;
#X connect 48 0 45 0;
#X connect 49 0 50 0;
#X connect 49 1 50 1;
#X connect 50 0 41 0;
#X connect 51 0 75 0;
#X connect 53 0 57 0;
#X connect 53 1 58 0;
#X connect 53 2 55 0;
#X connect 54 0 67 0;
#X connect 55 0 56 0;
#X connect 55 0 54 0;
#X connect 56 0 68 0;
#X connect 57 0 54 0;
#X connect 58 0 56 0;
#X connect 59 0 61 0;
#X connect 60 0 61 0;
#X connect 61 0 63 0;
#X connect 61 0 74 0;
#X connect 62 0 53 0;
#X connect 63 0 64 0;
#X connect 63 1 65 0;
#X connect 63 2 66 0;
#X connect 64 0 67 1;
#X connect 65 0 68 1;
#X connect 66 0 68 1;
#X connect 66 0 67 1;
#X connect 67 0 59 0;
#X connect 68 0 60 0;
#X connect 69 0 66 0;
#X connect 70 0 71 0;
#X connect 70 1 71 1;
#X connect 71 0 62 0;
#X connect 72 0 70 0;
#X connect 72 1 80 0;
#X connect 72 2 70 1;
#X connect 73 0 72 0;
#X connect 75 0 49 0;
#X connect 75 1 79 0;
#X connect 75 2 49 1;
#X connect 76 0 17 0;
#X connect 76 1 78 0;
#X connect 76 2 17 1;
#X connect 78 0 83 0;
#X connect 79 0 82 0;
#X connect 80 0 81 0;
#X connect 81 0 56 1;
#X connect 81 0 54 1;
#X connect 82 0 35 1;
#X connect 82 0 33 1;
#X connect 83 0 3 1;
#X connect 83 0 1 1;
