#N canvas 0 0 450 300 10;
#X obj 51 117 soundfiler;
#X obj 51 60 openpanel;
#X msg 51 98 read -resize /home/juan/pd-externals/dc/MelodiHI3-3.wav
t3;
#X obj 51 213 phasor~;
#X obj 51 232 *~;
#X obj 218 119 sel 1 0;
#X msg 90 194 0;
#X msg 59 194 0;
#X obj 51 137 f;
#X obj 51 175 /;
#X obj 51 156 bondo;
#X obj 51 40 inlet;
#X obj 218 78 inlet;
#X obj 136 47 inlet;
#X obj 285 57 inlet;
#X obj 360 48 inlet;
#X obj 52 272 outlet~;
#X msg 51 79 set read -resize \$1 t3;
#X obj 51 251 tabread4~;
#X obj 285 145 unpack s s;
#X symbolatom 342 170 10 0 0 0 - - array;
#X obj 132 187 r array;
#X msg 130 218 set \$1;
#X connect 0 0 4 1;
#X connect 1 0 17 0;
#X connect 2 0 0 0;
#X connect 3 0 4 0;
#X connect 4 0 18 0;
#X connect 5 0 6 0;
#X connect 5 0 8 0;
#X connect 5 1 7 0;
#X connect 6 0 3 1;
#X connect 7 0 3 0;
#X connect 8 0 10 0;
#X connect 9 0 3 0;
#X connect 10 0 9 0;
#X connect 10 1 9 1;
#X connect 11 0 1 0;
#X connect 12 0 5 0;
#X connect 13 0 8 1;
#X connect 14 0 10 1;
#X connect 15 0 19 0;
#X connect 15 0 17 0;
#X connect 17 0 2 0;
#X connect 18 0 16 0;
#X connect 19 1 20 0;
#X connect 21 0 22 0;
#X connect 22 0 18 0;
