#N canvas 530 257 499 332 10;
#X obj -2138 -1969 tabread4~ bajo1;
#X obj -2138 -1988 line~;
#X obj -2138 -1949 *~;
#X obj -1979 -2062 line~;
#X obj -1979 -2119 sel 1 0;
#X msg -1979 -2100 0 \, 0.5 20;
#X msg -2057 -2102 set /home/juan/pd-externals/samples/bajo/tono-1.wav
;
#X obj -2138 -2140 unpack s s s s;
#X msg -2057 -2121 set set \$1;
#X obj -2138 -2107 soundfiler;
#X msg -2138 -2007 0 \, 171844 3896.69;
#X msg -2138 -2026 set 0 \, addcomma \, add2 \$1 \$2;
#X obj -2138 -2064 bondo;
#X obj -2138 -2045 pack;
#X obj -2111 -2083 expr ($f1*1000)/44100;
#X msg -2138 -2172 read -resize /home/juan/pd-externals/samples/bajo/tono-1.wav
bajo1;
#X obj -2138 -2208 inlet;
#X obj -2138 -1930 outlet~;
#X msg -1960 -2081 0.5 \, 0 100;
#X obj -1979 -2138 inlet;
#X obj -2075 -2200 bang;
#X obj -2029 -2201 del 10;
#X connect 0 0 2 0;
#X connect 1 0 0 0;
#X connect 2 0 17 0;
#X connect 3 0 2 1;
#X connect 4 0 5 0;
#X connect 4 0 6 0;
#X connect 4 0 10 0;
#X connect 4 1 18 0;
#X connect 5 0 3 0;
#X connect 6 0 0 0;
#X connect 7 3 8 0;
#X connect 8 0 6 0;
#X connect 9 0 14 0;
#X connect 9 0 12 0;
#X connect 10 0 1 0;
#X connect 11 0 10 0;
#X connect 12 0 13 0;
#X connect 12 1 13 1;
#X connect 13 0 11 0;
#X connect 14 0 12 1;
#X connect 15 0 9 0;
#X connect 15 0 7 0;
#X connect 16 0 15 0;
#X connect 16 0 7 0;
#X connect 16 0 20 0;
#X connect 18 0 3 0;
#X connect 19 0 4 0;
#X connect 20 0 21 0;
#X connect 21 0 15 0;
