#N canvas 471 231 348 240 10;
#X obj 73 147 sidewinder;
#X obj 53 106 hradio 15 1 0 13 empty empty empty 0 -8 0 10 -262144
-1 -1 12;
#N canvas 553 190 450 577 fa 0;
#X obj 51 175 soundfiler;
#X obj 51 74 openpanel;
#X obj 50 44 bng 15 250 50 0 empty empty empty 17 7 0 10 -262144 -1
-1;
#X msg 53 122 read -resize /home/juan/pd-externals/samples/bajo/tono-02.wav
bajo2;
#X obj 109 444 tabread4~ bajo1;
#X obj 113 393 line~;
#X obj 127 515 dac~;
#X msg 111 357 0 \, 177285 4020.07;
#X obj 111 266 bondo;
#X obj 111 287 pack;
#X obj 130 484 *~;
#X obj 235 459 line~;
#X obj 315 282 sel 1 0;
#X obj 118 213 expr ($f1*1000)/44100;
#X obj 200 495 table bajo2;
#X msg 53 97 set read -resize \$1 bajo2;
#X obj 312 259 r sb2;
#X msg 291 325 set bajo2;
#X msg 314 424 0.5 \, 0 30;
#X msg 236 415 0 \, 0.5 40;
#X msg 113 309 set 0 \, addcomma \, add2 \$1 \$2;
#X connect 0 0 13 0;
#X connect 0 0 8 0;
#X connect 1 0 15 0;
#X connect 2 0 1 0;
#X connect 3 0 0 0;
#X connect 4 0 10 0;
#X connect 5 0 4 0;
#X connect 7 0 5 0;
#X connect 8 0 9 0;
#X connect 8 1 9 1;
#X connect 9 0 20 0;
#X connect 10 0 6 0;
#X connect 10 0 6 1;
#X connect 11 0 10 1;
#X connect 12 0 19 0;
#X connect 12 0 7 0;
#X connect 12 0 17 0;
#X connect 12 1 18 0;
#X connect 13 0 8 1;
#X connect 15 0 3 0;
#X connect 16 0 12 0;
#X connect 17 0 4 0;
#X connect 18 0 11 0;
#X connect 19 0 11 0;
#X connect 20 0 7 0;
#X restore 39 16 pd fa;
#N canvas 555 213 450 610 fa# 0;
#X obj 61 185 soundfiler;
#X obj 61 84 openpanel;
#X obj 60 54 bng 15 250 50 0 empty empty empty 17 7 0 10 -262144 -1
-1;
#X msg 63 132 read -resize /home/juan/pd-externals/samples/bajo/tono-03.wav
bajo3;
#X obj 123 403 line~;
#X obj 137 525 dac~;
#X msg 121 367 0 \, 177319 4020.84;
#X obj 121 276 bondo;
#X obj 121 297 pack;
#X obj 140 494 *~;
#X obj 245 469 line~;
#X obj 325 292 sel 1 0;
#X obj 128 223 expr ($f1*1000)/44100;
#X msg 324 434 0.5 \, 0 30;
#X msg 246 425 0 \, 0.5 40;
#X msg 123 319 set 0 \, addcomma \, add2 \$1 \$2;
#X msg 63 107 set read -resize \$1 bajo3;
#X obj 119 454 tabread4~ bajo3;
#X msg 301 335 set bajo3;
#X obj 210 505 table bajo3;
#X obj 322 269 r sb3;
#X connect 0 0 12 0;
#X connect 0 0 7 0;
#X connect 1 0 16 0;
#X connect 2 0 1 0;
#X connect 3 0 0 0;
#X connect 4 0 17 0;
#X connect 6 0 4 0;
#X connect 7 0 8 0;
#X connect 7 1 8 1;
#X connect 8 0 15 0;
#X connect 9 0 5 0;
#X connect 9 0 5 1;
#X connect 10 0 9 1;
#X connect 11 0 14 0;
#X connect 11 0 6 0;
#X connect 11 0 18 0;
#X connect 11 1 13 0;
#X connect 12 0 7 1;
#X connect 13 0 10 0;
#X connect 14 0 10 0;
#X connect 15 0 6 0;
#X connect 16 0 3 0;
#X connect 17 0 9 0;
#X connect 18 0 17 0;
#X connect 20 0 11 0;
#X restore 78 16 pd fa#;
#N canvas 155 143 450 602 sol 0;
#X obj 71 195 soundfiler;
#X obj 71 94 openpanel;
#X obj 70 64 bng 15 250 50 0 empty empty empty 17 7 0 10 -262144 -1
-1;
#X msg 73 142 read -resize /home/juan/pd-externals/samples/bajo/tono-04.wav
bajo4;
#X obj 129 464 tabread4~ bajo1;
#X obj 133 413 line~;
#X obj 147 535 dac~;
#X msg 131 377 0 \, 175759 3985.47;
#X obj 131 286 bondo;
#X obj 131 307 pack;
#X obj 150 504 *~;
#X obj 255 479 line~;
#X obj 335 302 sel 1 0;
#X obj 138 233 expr ($f1*1000)/44100;
#X msg 334 444 0.5 \, 0 30;
#X msg 256 435 0 \, 0.5 40;
#X msg 133 329 set 0 \, addcomma \, add2 \$1 \$2;
#X obj 332 279 r sb4;
#X msg 311 345 set bajo4;
#X msg 73 117 set read -resize \$1 bajo4;
#X obj 220 515 table bajo4;
#X connect 0 0 13 0;
#X connect 0 0 8 0;
#X connect 1 0 19 0;
#X connect 2 0 1 0;
#X connect 3 0 0 0;
#X connect 4 0 10 0;
#X connect 5 0 4 0;
#X connect 7 0 5 0;
#X connect 8 0 9 0;
#X connect 8 1 9 1;
#X connect 9 0 16 0;
#X connect 10 0 6 0;
#X connect 10 0 6 1;
#X connect 11 0 10 1;
#X connect 12 0 15 0;
#X connect 12 0 7 0;
#X connect 12 0 18 0;
#X connect 12 1 14 0;
#X connect 13 0 8 1;
#X connect 14 0 11 0;
#X connect 15 0 11 0;
#X connect 16 0 7 0;
#X connect 17 0 12 0;
#X connect 18 0 4 0;
#X connect 19 0 3 0;
#X restore 127 18 pd sol;
#N canvas 447 267 450 482 sol# 0;
#X obj 81 205 soundfiler;
#X obj 81 104 openpanel;
#X obj 80 74 bng 15 250 50 0 empty empty empty 17 7 0 10 -262144 -1
-1;
#X msg 83 152 read -resize /home/juan/pd-externals/samples/bajo/tono-05.wav
bajo5;
#X obj 139 474 tabread4~ bajo1;
#X obj 143 423 line~;
#X obj 157 545 dac~;
#X msg 141 387 0 \, 181200 4108.84;
#X obj 141 296 bondo;
#X obj 141 317 pack;
#X obj 160 514 *~;
#X obj 265 489 line~;
#X obj 345 312 sel 1 0;
#X obj 148 243 expr ($f1*1000)/44100;
#X msg 344 454 0.5 \, 0 30;
#X msg 266 445 0 \, 0.5 40;
#X msg 143 339 set 0 \, addcomma \, add2 \$1 \$2;
#X msg 83 127 set read -resize \$1 bajo5;
#X obj 230 525 table bajo5;
#X obj 342 290 r sb5;
#X msg 321 355 set bajo5;
#X connect 0 0 13 0;
#X connect 0 0 8 0;
#X connect 1 0 17 0;
#X connect 2 0 1 0;
#X connect 3 0 0 0;
#X connect 4 0 10 0;
#X connect 5 0 4 0;
#X connect 7 0 5 0;
#X connect 8 0 9 0;
#X connect 8 1 9 1;
#X connect 9 0 16 0;
#X connect 10 0 6 0;
#X connect 10 0 6 1;
#X connect 11 0 10 1;
#X connect 12 0 15 0;
#X connect 12 0 7 0;
#X connect 12 0 20 0;
#X connect 12 1 14 0;
#X connect 13 0 8 1;
#X connect 14 0 11 0;
#X connect 15 0 11 0;
#X connect 16 0 7 0;
#X connect 17 0 3 0;
#X connect 19 0 12 0;
#X connect 20 0 4 0;
#X restore 174 17 pd sol#;
#N canvas 113 167 450 604 la 0;
#X obj 91 215 soundfiler;
#X obj 91 114 openpanel;
#X obj 90 84 bng 15 250 50 0 empty empty empty 17 7 0 10 -262144 -1
-1;
#X msg 93 162 read -resize /home/juan/pd-externals/samples/bajo/tono-06.wav
bajo6;
#X obj 149 484 tabread4~ bajo1;
#X obj 153 433 line~;
#X obj 167 555 dac~;
#X msg 151 397 0 \, 175427 3977.94;
#X obj 151 306 bondo;
#X obj 151 327 pack;
#X obj 170 524 *~;
#X obj 275 499 line~;
#X obj 355 322 sel 1 0;
#X obj 158 253 expr ($f1*1000)/44100;
#X msg 354 464 0.5 \, 0 30;
#X msg 276 455 0 \, 0.5 40;
#X msg 153 349 set 0 \, addcomma \, add2 \$1 \$2;
#X msg 93 137 set read -resize \$1 bajo6;
#X obj 352 299 r sb6;
#X msg 331 365 set bajo6;
#X obj 240 535 table bajo6;
#X connect 0 0 13 0;
#X connect 0 0 8 0;
#X connect 1 0 17 0;
#X connect 2 0 1 0;
#X connect 3 0 0 0;
#X connect 4 0 10 0;
#X connect 5 0 4 0;
#X connect 7 0 5 0;
#X connect 8 0 9 0;
#X connect 8 1 9 1;
#X connect 9 0 16 0;
#X connect 10 0 6 0;
#X connect 10 0 6 1;
#X connect 11 0 10 1;
#X connect 12 0 15 0;
#X connect 12 0 7 0;
#X connect 12 0 19 0;
#X connect 12 1 14 0;
#X connect 13 0 8 1;
#X connect 14 0 11 0;
#X connect 15 0 11 0;
#X connect 16 0 7 0;
#X connect 17 0 3 0;
#X connect 18 0 12 0;
#X connect 19 0 4 0;
#X restore 39 47 pd la;
#N canvas 1 92 450 471 la# 0;
#X obj 101 225 soundfiler;
#X obj 101 124 openpanel;
#X obj 100 94 bng 15 250 50 0 empty empty empty 17 7 0 10 -262144 -1
-1;
#X msg 103 172 read -resize /home/juan/pd-externals/samples/bajo/tono-07.wav
bajo7;
#X obj 159 494 tabread4~ bajo1;
#X obj 163 443 line~;
#X obj 177 565 dac~;
#X msg 161 407 0 \, 177085 4015.53;
#X obj 161 316 bondo;
#X obj 161 337 pack;
#X obj 180 534 *~;
#X obj 285 509 line~;
#X obj 365 332 sel 1 0;
#X obj 168 263 expr ($f1*1000)/44100;
#X msg 364 474 0.5 \, 0 30;
#X msg 286 465 0 \, 0.5 40;
#X msg 163 359 set 0 \, addcomma \, add2 \$1 \$2;
#X msg 103 147 set read -resize \$1 bajo7;
#X obj 362 309 r sb7;
#X msg 341 375 set bajo7;
#X obj 250 545 table bajo7;
#X connect 0 0 13 0;
#X connect 0 0 8 0;
#X connect 1 0 17 0;
#X connect 2 0 1 0;
#X connect 3 0 0 0;
#X connect 4 0 10 0;
#X connect 5 0 4 0;
#X connect 7 0 5 0;
#X connect 8 0 9 0;
#X connect 8 1 9 1;
#X connect 9 0 16 0;
#X connect 10 0 6 0;
#X connect 10 0 6 1;
#X connect 11 0 10 1;
#X connect 12 0 15 0;
#X connect 12 0 7 0;
#X connect 12 0 19 0;
#X connect 12 1 14 0;
#X connect 13 0 8 1;
#X connect 14 0 11 0;
#X connect 15 0 11 0;
#X connect 16 0 7 0;
#X connect 17 0 3 0;
#X connect 18 0 12 0;
#X connect 19 0 4 0;
#X restore 81 46 pd la#;
#N canvas 1 98 450 471 si 0;
#X obj 101 225 soundfiler;
#X obj 101 124 openpanel;
#X obj 100 94 bng 15 250 50 0 empty empty empty 17 7 0 10 -262144 -1
-1;
#X msg 103 172 read -resize /home/juan/pd-externals/samples/bajo/tono-08.wav
bajo8;
#X obj 159 494 tabread4~ bajo1;
#X obj 163 443 line~;
#X obj 177 565 dac~;
#X msg 161 407 0 \, 170716 3871.11;
#X obj 161 316 bondo;
#X obj 161 337 pack;
#X obj 180 534 *~;
#X obj 285 509 line~;
#X obj 365 332 sel 1 0;
#X obj 168 263 expr ($f1*1000)/44100;
#X msg 364 474 0.5 \, 0 30;
#X msg 286 465 0 \, 0.5 40;
#X msg 163 359 set 0 \, addcomma \, add2 \$1 \$2;
#X msg 103 147 set read -resize \$1 bajo8;
#X obj 362 309 r sb8;
#X msg 341 375 set bajo8;
#X obj 250 545 table bajo8;
#X connect 0 0 13 0;
#X connect 0 0 8 0;
#X connect 1 0 17 0;
#X connect 2 0 1 0;
#X connect 3 0 0 0;
#X connect 4 0 10 0;
#X connect 5 0 4 0;
#X connect 7 0 5 0;
#X connect 8 0 9 0;
#X connect 8 1 9 1;
#X connect 9 0 16 0;
#X connect 10 0 6 0;
#X connect 10 0 6 1;
#X connect 11 0 10 1;
#X connect 12 0 15 0;
#X connect 12 0 7 0;
#X connect 12 0 19 0;
#X connect 12 1 14 0;
#X connect 13 0 8 1;
#X connect 14 0 11 0;
#X connect 15 0 11 0;
#X connect 16 0 7 0;
#X connect 17 0 3 0;
#X connect 18 0 12 0;
#X connect 19 0 4 0;
#X restore 132 45 pd si;
#N canvas 1 104 745 690 do 0;
#X obj 101 225 soundfiler;
#X obj 101 124 openpanel;
#X obj 100 94 bng 15 250 50 0 empty empty empty 17 7 0 10 -262144 -1
-1;
#X msg 103 172 read -resize /home/juan/pd-externals/samples/bajo/tono-09.wav
bajo9;
#X obj 159 494 tabread4~ bajo1;
#X obj 163 443 line~;
#X obj 177 565 dac~;
#X msg 161 407 0 \, 170186 3859.09;
#X obj 161 316 bondo;
#X obj 161 337 pack;
#X obj 180 534 *~;
#X obj 285 509 line~;
#X obj 365 332 sel 1 0;
#X obj 168 263 expr ($f1*1000)/44100;
#X msg 364 474 0.5 \, 0 30;
#X msg 286 465 0 \, 0.5 40;
#X msg 163 359 set 0 \, addcomma \, add2 \$1 \$2;
#X msg 103 147 set read -resize \$1 bajo9;
#X obj 362 309 r sb9;
#X obj 250 545 table bajo9;
#X msg 341 375 set bajo9;
#X connect 0 0 13 0;
#X connect 0 0 8 0;
#X connect 1 0 17 0;
#X connect 2 0 1 0;
#X connect 3 0 0 0;
#X connect 4 0 10 0;
#X connect 5 0 4 0;
#X connect 7 0 5 0;
#X connect 8 0 9 0;
#X connect 8 1 9 1;
#X connect 9 0 16 0;
#X connect 10 0 6 0;
#X connect 10 0 6 1;
#X connect 11 0 10 1;
#X connect 12 0 15 0;
#X connect 12 0 7 0;
#X connect 12 0 20 0;
#X connect 12 1 14 0;
#X connect 13 0 8 1;
#X connect 14 0 11 0;
#X connect 15 0 11 0;
#X connect 16 0 7 0;
#X connect 17 0 3 0;
#X connect 18 0 12 0;
#X connect 20 0 4 0;
#X restore 180 46 pd do;
#N canvas 346 143 745 690 do# 0;
#X obj 101 225 soundfiler;
#X obj 101 124 openpanel;
#X obj 100 94 bng 15 250 50 0 empty empty empty 17 7 0 10 -262144 -1
-1;
#X msg 103 172 read -resize /home/juan/pd-externals/samples/bajo/tono-10.wav
bajo10;
#X obj 159 494 tabread4~ bajo1;
#X obj 163 443 line~;
#X obj 177 565 dac~;
#X msg 161 407 0 \, 179342 4066.71;
#X obj 161 316 bondo;
#X obj 161 337 pack;
#X obj 180 534 *~;
#X obj 285 509 line~;
#X obj 365 332 sel 1 0;
#X obj 168 263 expr ($f1*1000)/44100;
#X msg 364 474 0.5 \, 0 30;
#X msg 286 465 0 \, 0.5 40;
#X msg 163 359 set 0 \, addcomma \, add2 \$1 \$2;
#X msg 103 147 set read -resize \$1 bajo10;
#X obj 362 309 r sb10;
#X msg 341 375 set bajo10;
#X obj 250 545 table bajo10;
#X connect 0 0 13 0;
#X connect 0 0 8 0;
#X connect 1 0 17 0;
#X connect 2 0 1 0;
#X connect 3 0 0 0;
#X connect 4 0 10 0;
#X connect 5 0 4 0;
#X connect 7 0 5 0;
#X connect 8 0 9 0;
#X connect 8 1 9 1;
#X connect 9 0 16 0;
#X connect 10 0 6 0;
#X connect 10 0 6 1;
#X connect 11 0 10 1;
#X connect 12 0 15 0;
#X connect 12 0 7 0;
#X connect 12 0 19 0;
#X connect 12 1 14 0;
#X connect 13 0 8 1;
#X connect 14 0 11 0;
#X connect 15 0 11 0;
#X connect 16 0 7 0;
#X connect 17 0 3 0;
#X connect 18 0 12 0;
#X connect 19 0 4 0;
#X restore 37 76 pd do#;
#N canvas 50 165 745 690 re 0;
#X obj 101 225 soundfiler;
#X obj 101 124 openpanel;
#X obj 100 94 bng 15 250 50 0 empty empty empty 17 7 0 10 -262144 -1
-1;
#X msg 103 172 read -resize /home/juan/pd-externals/samples/bajo/tono-11.wav
bajo11;
#X obj 159 494 tabread4~ bajo1;
#X obj 163 443 line~;
#X obj 177 565 dac~;
#X msg 161 407 0 \, 178314 4043.4;
#X obj 161 316 bondo;
#X obj 161 337 pack;
#X obj 180 534 *~;
#X obj 285 509 line~;
#X obj 365 332 sel 1 0;
#X obj 168 263 expr ($f1*1000)/44100;
#X msg 364 474 0.5 \, 0 30;
#X msg 286 465 0 \, 0.5 40;
#X msg 163 359 set 0 \, addcomma \, add2 \$1 \$2;
#X msg 103 147 set read -resize \$1 bajo11;
#X obj 362 309 r sb11;
#X obj 250 545 table bajo11;
#X msg 341 375 set bajo11;
#X connect 0 0 13 0;
#X connect 0 0 8 0;
#X connect 1 0 17 0;
#X connect 2 0 1 0;
#X connect 3 0 0 0;
#X connect 4 0 10 0;
#X connect 5 0 4 0;
#X connect 7 0 5 0;
#X connect 8 0 9 0;
#X connect 8 1 9 1;
#X connect 9 0 16 0;
#X connect 10 0 6 0;
#X connect 10 0 6 1;
#X connect 11 0 10 1;
#X connect 12 0 15 0;
#X connect 12 0 7 0;
#X connect 12 0 20 0;
#X connect 12 1 14 0;
#X connect 13 0 8 1;
#X connect 14 0 11 0;
#X connect 15 0 11 0;
#X connect 16 0 7 0;
#X connect 17 0 3 0;
#X connect 18 0 12 0;
#X connect 20 0 4 0;
#X restore 84 75 pd re;
#N canvas 1 86 745 681 re# 0;
#X obj 101 225 soundfiler;
#X obj 101 124 openpanel;
#X obj 100 94 bng 15 250 50 0 empty empty empty 17 7 0 10 -262144 -1
-1;
#X msg 103 172 read -resize /home/juan/pd-externals/samples/bajo/tono-12.wav
bajo12;
#X obj 159 494 tabread4~ bajo1;
#X obj 163 443 line~;
#X obj 177 565 dac~;
#X msg 161 407 0 \, 169257 3838.03;
#X obj 161 316 bondo;
#X obj 161 337 pack;
#X obj 180 534 *~;
#X obj 285 509 line~;
#X obj 365 332 sel 1 0;
#X obj 168 263 expr ($f1*1000)/44100;
#X msg 364 474 0.5 \, 0 30;
#X msg 286 465 0 \, 0.5 40;
#X msg 163 359 set 0 \, addcomma \, add2 \$1 \$2;
#X msg 103 147 set read -resize \$1 bajo12;
#X obj 362 309 r sb12;
#X msg 341 375 set bajo12;
#X obj 250 545 table bajo12;
#X connect 0 0 13 0;
#X connect 0 0 8 0;
#X connect 1 0 17 0;
#X connect 2 0 1 0;
#X connect 3 0 0 0;
#X connect 4 0 10 0;
#X connect 5 0 4 0;
#X connect 7 0 5 0;
#X connect 8 0 9 0;
#X connect 8 1 9 1;
#X connect 9 0 16 0;
#X connect 10 0 6 0;
#X connect 10 0 6 1;
#X connect 11 0 10 1;
#X connect 12 0 15 0;
#X connect 12 0 7 0;
#X connect 12 0 19 0;
#X connect 12 1 14 0;
#X connect 13 0 8 1;
#X connect 14 0 11 0;
#X connect 15 0 11 0;
#X connect 16 0 7 0;
#X connect 17 0 3 0;
#X connect 18 0 12 0;
#X connect 19 0 4 0;
#X restore 132 77 pd re#;
#N canvas 78 133 745 690 mi 0;
#X obj 101 225 soundfiler;
#X obj 101 124 openpanel;
#X obj 100 94 bng 15 250 50 0 empty empty empty 17 7 0 10 -262144 -1
-1;
#X msg 103 172 read -resize /home/juan/pd-externals/samples/bajo/tono-13.wav
bajo13;
#X obj 159 494 tabread4~ bajo1;
#X obj 163 443 line~;
#X obj 177 565 dac~;
#X msg 161 407 0 \, 176755 4008.05;
#X obj 161 316 bondo;
#X obj 161 337 pack;
#X obj 180 534 *~;
#X obj 285 509 line~;
#X obj 365 332 sel 1 0;
#X obj 168 263 expr ($f1*1000)/44100;
#X msg 364 474 0.5 \, 0 30;
#X msg 286 465 0 \, 0.5 40;
#X msg 163 359 set 0 \, addcomma \, add2 \$1 \$2;
#X msg 103 147 set read -resize \$1 bajo13;
#X obj 362 309 r sb13;
#X msg 341 375 set bajo13;
#X obj 250 545 table bajo13;
#X connect 0 0 13 0;
#X connect 0 0 8 0;
#X connect 1 0 17 0;
#X connect 2 0 1 0;
#X connect 3 0 0 0;
#X connect 4 0 10 0;
#X connect 5 0 4 0;
#X connect 7 0 5 0;
#X connect 8 0 9 0;
#X connect 8 1 9 1;
#X connect 9 0 16 0;
#X connect 10 0 6 0;
#X connect 10 0 6 1;
#X connect 11 0 10 1;
#X connect 12 0 15 0;
#X connect 12 0 7 0;
#X connect 12 0 19 0;
#X connect 12 1 14 0;
#X connect 13 0 8 1;
#X connect 14 0 11 0;
#X connect 15 0 11 0;
#X connect 16 0 7 0;
#X connect 17 0 3 0;
#X connect 18 0 12 0;
#X connect 19 0 4 0;
#X restore 184 75 pd mi;
#N canvas 596 186 450 581 mi1 1;
#X obj 75 188 soundfiler;
#X obj 75 87 openpanel;
#X obj 74 57 bng 15 250 50 0 empty empty empty 17 7 0 10 -262144 -1
-1;
#X msg 77 135 read -resize /home/juan/pd-externals/samples/bajo/tono-01.wav
bajo1;
#X msg 77 110 set read -resize \$1 bajo1;
#X obj 133 457 tabread4~ bajo1;
#X obj 137 406 line~;
#X obj 151 528 dac~;
#X msg 135 370 0 \, 171844 3896.69;
#X msg 137 323 set 0 \, addcomma \, add2 \$1 \$2;
#X obj 135 279 bondo;
#X obj 135 300 pack;
#X obj 154 497 *~;
#X obj 259 472 line~;
#X obj 336 272 r sb1;
#X obj 339 295 sel 1 0;
#X msg 259 428 0 \, 0.5 20;
#X msg 315 338 set bajo1;
#X obj 202 522 table bajo1;
#X msg 338 437 0.5 \, 0 100;
#X obj 142 226 expr ($f1*1000)/44100;
#X obj 276 93 loadbang;
#X obj 400 366 bng 15 250 50 0 empty empty empty 17 7 0 10 -262144
-1 -1;
#X obj 266 502;
#X connect 0 0 10 0;
#X connect 0 0 20 0;
#X connect 1 0 4 0;
#X connect 2 0 1 0;
#X connect 3 0 0 0;
#X connect 4 0 3 0;
#X connect 5 0 12 0;
#X connect 6 0 5 0;
#X connect 8 0 6 0;
#X connect 9 0 8 0;
#X connect 10 0 11 0;
#X connect 10 1 11 1;
#X connect 11 0 9 0;
#X connect 12 0 7 0;
#X connect 12 0 7 1;
#X connect 13 0 12 1;
#X connect 14 0 15 0;
#X connect 15 0 16 0;
#X connect 15 0 8 0;
#X connect 15 0 17 0;
#X connect 15 0 22 0;
#X connect 15 1 19 0;
#X connect 16 0 13 0;
#X connect 17 0 5 0;
#X connect 19 0 13 0;
#X connect 20 0 10 1;
#X connect 21 0 3 0;
#X restore 36 -8 pd mi1;
#X connect 1 0 0 0;
