#N canvas 546 116 722 638 10;
#X obj -1379 -1375 openpanel;
#X obj -1379 -1392 bng 15 250 50 0 empty empty empty 17 7 0 10 -262144
-1 -1;
#X obj -1339 -919 dac~;
#X obj -1185 -957 table bajo1;
#X obj -1352 -1356 hradio 15 1 0 12 empty empty empty 0 -8 0 10 -262144
-1 -1 0;
#X obj -1379 -1233 route 0 1 2 3 4 5 6 7 8 9 10 11;
#X obj -1379 -1282 bng 15 250 50 0 empty empty empty 17 7 0 10 -262144
-1 -1;
#X obj -1379 -1339 bondo;
#X obj -1379 -1320 pack s f;
#X msg -1379 -1301 set \$2 set read -resize \$1 bajo\$2;
#X obj -1379 -1195 bajomodulo;
#X obj -1322 -1214 r Mb1;
#X obj -1307 -1195 r Mb2;
#X obj -1292 -1176 r Mb3;
#X obj -1277 -1157 r Mb4;
#X obj -1262 -1138 r Mb5;
#X obj -1247 -1119 r Mb6;
#X obj -1232 -1100 r Mb7;
#X obj -1217 -1081 r Mb8;
#X obj -1200 -1214 r Mb9;
#X obj -1185 -1195 r Mb10;
#X obj -1170 -1176 r Mb11;
#X obj -1155 -1157 r Mb12;
#X obj -1379 -1044 *~;
#X floatatom -1174 -1060 5 0 0 0 - - -;
#X obj -1114 -1200 table escala;
#X text -1038 -992 f;
#N canvas 128 129 450 614 escalibur 0;
#X obj -1016 -674 tabwrite escala;
#X msg -1016 -693 \$2 \$1;
#X msg -1016 -725 0 0 \, 1 1 \, 2 3 \, 3 5 \, 4 7 \, 5 8 \, 6 10 \,
7 12 \, 8 13 \, 9 15 \, 10 17 \, 11 19;
#X msg -1016 -758 0 1 \, 1 2 \, 2 4 \, 3 6 \, 4 8 \, 5 9 \, 6 11 \,
7 13 \, 8 14 \, 9 16 \, 10 18 \, 11 20;
#X msg -1016 -791 0 0 \, 1 2 \, 2 3 \, 3 5 \, 4 7 \, 5 9 \, 6 10 \,
7 12 \, 8 14 \, 9 15 \, 10 17 \, 11 19;
#X msg -1016 -824 0 1 \, 1 3 \, 2 4 \, 3 6 \, 4 8 \, 5 10 \, 6 11 \,
7 13 \, 8 15 \, 9 16 \, 10 18 \, 11 20;
#X msg -1016 -857 0 0 \, 1 2 \, 2 4 \, 3 5 \, 4 7 \, 5 9 \, 6 11 \,
7 12 \, 8 14 \, 9 16 \, 10 17 \, 11 19;
#X msg -1016 -890 0 0 \, 1 1 \, 2 3 \, 3 5 \, 4 6 \, 5 8 \, 6 10 \,
7 12 \, 8 13 \, 9 15 \, 10 17 \, 11 18;
#X msg -1016 -923 0 1 \, 1 2 \, 2 4 \, 3 6 \, 4 7 \, 5 9 \, 6 11 \,
7 13 \, 8 14 \, 9 16 \, 10 18 \, 11 19;
#X msg -1016 -955 0 0 \, 1 2 \, 2 3 \, 3 5 \, 4 7 \, 5 8 \, 6 10 \,
7 12 \, 8 14 \, 9 15 \, 10 17 \, 11 19;
#X msg -1016 -990 0 1 \, 1 3 \, 2 4 \, 3 6 \, 4 8 \, 5 9 \, 6 11 \,
7 13 \, 8 15 \, 9 16 \, 10 18 \, 11 20;
#X msg -1016 -1023 0 0 \, 1 2 \, 2 4 \, 3 5 \, 4 7 \, 5 9 \, 6 10 \,
7 12 \, 8 14 \, 9 16 \, 10 17 \, 11 19;
#X msg -1016 -1057 0 1 \, 1 3 \, 2 5 \, 3 6 \, 4 8 \, 5 10 \, 6 11
\, 7 13 \, 8 15 \, 9 17 \, 10 18 \, 11 20;
#X msg -1016 -1089 0 0 \, 1 2 \, 2 4 \, 3 6 \, 4 7 \, 5 9 \, 6 11 \,
7 12 \, 8 14 \, 9 16 \, 10 18 \, 11 19;
#X obj -1016 -1127 inlet;
#X obj -1016 -1108 sel 0 1 2 3 4 5 6 7 8 9 10 11;
#X connect 1 0 0 0;
#X connect 2 0 1 0;
#X connect 3 0 1 0;
#X connect 4 0 1 0;
#X connect 5 0 1 0;
#X connect 6 0 1 0;
#X connect 7 0 1 0;
#X connect 8 0 1 0;
#X connect 9 0 1 0;
#X connect 10 0 1 0;
#X connect 11 0 1 0;
#X connect 12 0 1 0;
#X connect 13 0 1 0;
#X connect 14 0 15 0;
#X connect 15 0 2 0;
#X connect 15 1 3 0;
#X connect 15 2 4 0;
#X connect 15 3 5 0;
#X connect 15 4 6 0;
#X connect 15 5 7 0;
#X connect 15 6 8 0;
#X connect 15 7 9 0;
#X connect 15 8 10 0;
#X connect 15 9 11 0;
#X connect 15 10 12 0;
#X connect 15 11 13 0;
#X restore -833 -1323 pd escalibur;
#X obj -900 -1381 hradio 15 1 0 12 empty empty empty 0 -8 0 10 -262144
-1 -1 1;
#X msg -1379 -1265 \$1 set read -resize /home/juan/pd-externals/samples/bajo/tono-\$2.wav
bajo\$3;
#X obj -990 -1278 pack f f f;
#X obj -984 -1347 tabread escala;
#X obj -970 -1308 + 1;
#X obj -934 -1310 + 1;
#X obj -1125 -1342 != 11;
#X obj -1125 -1297 sel 1 0;
#X msg -1003 -1214 jam 0;
#X floatatom -1167 -1323 5 0 0 0 - - -;
#X obj -1073 -1361 + 1;
#X obj -1041 -1362 i;
#X floatatom -1073 -1335 5 0 0 0 - - -;
#X obj -1078 -1394 bng 15 250 50 0 empty empty empty 17 7 0 10 -262144
-1 -1;
#X obj -997 -1379 t f f f;
#X msg -1067 -1309 -1;
#X obj -1364 -1176 bajomodulo;
#X obj -1349 -1157 bajomodulo;
#X obj -1334 -1138 bajomodulo;
#X obj -1319 -1119 bajomodulo;
#X obj -1304 -1100 bajomodulo;
#X obj -1289 -1081 bajomodulo;
#X obj -1274 -1062 bajomodulo;
#X obj -1257 -1195 bajomodulo;
#X obj -1242 -1176 bajomodulo;
#X obj -1227 -1157 bajomodulo;
#X obj -1212 -1138 bajomodulo;
#X obj -910 -1080 maxfire;
#X obj -853 -867 table bajo12;
#X obj -943 -869 table bajo11;
#X obj -979 -894 table bajo10;
#X obj -982 -917 table bajo9;
#X obj -990 -950 table bajo8;
#X obj -1007 -981 table bajo7;
#X obj -1021 -1012 table bajo6;
#X obj -1037 -1038 table bajo5;
#X obj -1048 -1070 table bajo4;
#X obj -1052 -1098 table bajo3;
#X obj -1122 -899 table bajo2;
#X obj -974 -1247 print;
#X connect 0 0 7 0;
#X connect 1 0 0 0;
#X connect 4 0 1 0;
#X connect 4 0 7 1;
#X connect 5 0 10 0;
#X connect 5 1 44 0;
#X connect 5 2 45 0;
#X connect 5 3 46 0;
#X connect 5 4 47 0;
#X connect 5 5 48 0;
#X connect 5 6 49 0;
#X connect 5 7 50 0;
#X connect 5 8 51 0;
#X connect 5 9 52 0;
#X connect 5 10 53 0;
#X connect 5 11 54 0;
#X connect 6 0 29 0;
#X connect 7 0 8 0;
#X connect 7 1 8 1;
#X connect 8 0 9 0;
#X connect 9 0 29 0;
#X connect 9 0 6 0;
#X connect 10 0 23 0;
#X connect 11 0 10 1;
#X connect 12 0 44 1;
#X connect 13 0 45 1;
#X connect 14 0 46 1;
#X connect 15 0 47 1;
#X connect 16 0 48 1;
#X connect 17 0 49 1;
#X connect 18 0 50 1;
#X connect 19 0 51 1;
#X connect 20 0 52 1;
#X connect 21 0 53 1;
#X connect 22 0 54 1;
#X connect 23 0 2 0;
#X connect 23 0 2 1;
#X connect 24 0 23 1;
#X connect 28 0 27 0;
#X connect 28 0 41 0;
#X connect 29 0 5 0;
#X connect 30 0 29 0;
#X connect 30 0 67 0;
#X connect 31 0 32 0;
#X connect 32 0 30 1;
#X connect 33 0 30 2;
#X connect 34 0 35 0;
#X connect 35 0 39 0;
#X connect 35 1 43 0;
#X connect 38 0 39 1;
#X connect 38 0 40 0;
#X connect 38 0 34 0;
#X connect 39 0 38 0;
#X connect 40 0 42 0;
#X connect 41 0 39 0;
#X connect 42 0 30 0;
#X connect 42 1 31 0;
#X connect 42 2 33 0;
#X connect 43 0 39 1;
#X connect 44 0 23 0;
#X connect 45 0 23 0;
#X connect 46 0 23 0;
#X connect 47 0 23 0;
#X connect 48 0 23 0;
#X connect 49 0 23 0;
#X connect 50 0 23 0;
#X connect 51 0 23 0;
#X connect 52 0 23 0;
#X connect 53 0 23 0;
#X connect 54 0 23 0;
