#N canvas 414 350 665 339 10;
#X obj 36 125 bng 15 250 50 0 empty empty empty 17 7 0 10 -262144 -1
-1;
#X obj 43 144 bng 15 250 50 0 empty empty empty 17 7 0 10 -262144 -1
-1;
#X obj 49 161 bng 15 250 50 0 empty empty empty 17 7 0 10 -262144 -1
-1;
#X obj 55 180 bng 15 250 50 0 empty empty empty 17 7 0 10 -262144 -1
-1;
#X obj 17 129 vradio 15 1 0 4 empty empty empty 0 -8 0 10 -262144 -1
-1 3;
#X obj 114 132 bng 15 250 50 0 empty empty empty 17 7 0 10 -262144
-1 -1;
#X obj 121 151 bng 15 250 50 0 empty empty empty 17 7 0 10 -262144
-1 -1;
#X obj 127 168 bng 15 250 50 0 empty empty empty 17 7 0 10 -262144
-1 -1;
#X obj 133 187 bng 15 250 50 0 empty empty empty 17 7 0 10 -262144
-1 -1;
#X obj 95 136 vradio 15 1 0 4 empty empty empty 0 -8 0 10 -262144 -1
-1 3;
#X obj 188 130 bng 15 250 50 0 empty empty empty 17 7 0 10 -262144
-1 -1;
#X obj 195 149 bng 15 250 50 0 empty empty empty 17 7 0 10 -262144
-1 -1;
#X obj 201 166 bng 15 250 50 0 empty empty empty 17 7 0 10 -262144
-1 -1;
#X obj 207 185 bng 15 250 50 0 empty empty empty 17 7 0 10 -262144
-1 -1;
#X obj 169 134 vradio 15 1 0 4 empty empty empty 0 -8 0 10 -262144
-1 -1 3;
#X obj 247 129 bng 15 250 50 0 empty empty empty 17 7 0 10 -262144
-1 -1;
#X obj 254 148 bng 15 250 50 0 empty empty empty 17 7 0 10 -262144
-1 -1;
#X obj 260 165 bng 15 250 50 0 empty empty empty 17 7 0 10 -262144
-1 -1;
#X obj 266 184 bng 15 250 50 0 empty empty empty 17 7 0 10 -262144
-1 -1;
#X obj 228 133 vradio 15 1 0 4 empty empty empty 0 -8 0 10 -262144
-1 -1 3;
#X obj 320 126 bng 15 250 50 0 empty empty empty 17 7 0 10 -262144
-1 -1;
#X obj 327 145 bng 15 250 50 0 empty empty empty 17 7 0 10 -262144
-1 -1;
#X obj 333 162 bng 15 250 50 0 empty empty empty 17 7 0 10 -262144
-1 -1;
#X obj 339 181 bng 15 250 50 0 empty empty empty 17 7 0 10 -262144
-1 -1;
#X obj 301 130 vradio 15 1 0 4 empty empty empty 0 -8 0 10 -262144
-1 -1 3;
#X obj 509 123 bng 15 250 50 0 empty empty empty 17 7 0 10 -262144
-1 -1;
#X obj 516 142 bng 15 250 50 0 empty empty empty 17 7 0 10 -262144
-1 -1;
#X obj 522 159 bng 15 250 50 0 empty empty empty 17 7 0 10 -262144
-1 -1;
#X obj 528 178 bng 15 250 50 0 empty empty empty 17 7 0 10 -262144
-1 -1;
#X obj 490 127 vradio 15 1 0 4 empty empty empty 0 -8 0 10 -262144
-1 -1 3;
#X obj 384 125 bng 15 250 50 0 empty empty empty 17 7 0 10 -262144
-1 -1;
#X obj 391 144 bng 15 250 50 0 empty empty empty 17 7 0 10 -262144
-1 -1;
#X obj 397 161 bng 15 250 50 0 empty empty empty 17 7 0 10 -262144
-1 -1;
#X obj 403 180 bng 15 250 50 0 empty empty empty 17 7 0 10 -262144
-1 -1;
#X obj 365 129 vradio 15 1 0 4 empty empty empty 0 -8 0 10 -262144
-1 -1 3;
#X obj 443 124 bng 15 250 50 0 empty empty empty 17 7 0 10 -262144
-1 -1;
#X obj 450 143 bng 15 250 50 0 empty empty empty 17 7 0 10 -262144
-1 -1;
#X obj 456 160 bng 15 250 50 0 empty empty empty 17 7 0 10 -262144
-1 -1;
#X obj 462 179 bng 15 250 50 0 empty empty empty 17 7 0 10 -262144
-1 -1;
#X obj 424 128 vradio 15 1 0 4 empty empty empty 0 -8 0 10 -262144
-1 -1 3;
#X obj 15 62 vradio 15 1 0 4 empty empty empty 0 -8 0 10 -262144 -1
-1 3;
#X obj 58 200 spigot;
#X obj 142 200 spigot;
#X obj 216 198 spigot;
#X obj 275 197 spigot;
#X obj 348 194 spigot;
#X obj 412 193 spigot;
#X obj 476 192 spigot;
#X obj 537 191 spigot;
#X obj 605 159 < 1;
#X obj 31 10 sel 1;
#X obj 66 10 sel 1;
#X obj 96 10 sel 1;
#X obj 133 10 sel 1;
#X msg 30 31 0;
#X msg 65 33 1;
#X msg 95 34 2;
#X msg 134 32 3;
#X obj 318 12 loadbang;
#X msg 317 45 3;
#X msg 605 132 0;
#X obj 71 90 r 2p9;
#X obj 151 92 r 2p10;
#X obj 225 90 r 2p11;
#X obj 284 89 r 2p12;
#X obj 357 86 r 2p13;
#X obj 421 85 r 2p14;
#X obj 480 84 r 2p15;
#X obj 546 83 r 2p16;
#N canvas 65 252 1020 565 lector 0;
#X obj 90 193 soundfiler;
#X obj 68 56 openpanel;
#X obj 359 321 line~;
#X obj 358 367 outlet~;
#X obj 87 228 / 44100;
#X obj 87 253 * 1000;
#X obj 360 232 pack f f;
#X obj 360 207 bondo;
#X msg 359 291 3.66797e+06 80863.2;
#X obj 282 213 sel 1 0;
#X msg 288 290 0;
#X msg 360 262 set \$1 \$2;
#X obj 288 317 t b;
#X obj 96 314 bondo;
#X obj 119 298 *;
#X obj 100 349 +;
#X obj 117 31 inlet;
#X obj 445 19 inlet;
#X obj 285 43 openpanel;
#X obj 247 87 t b;
#X obj 288 20 inlet;
#X obj 528 7 openpanel;
#X obj 490 59 t b;
#X obj 346 19 inlet;
#X obj 21 -27 inlet;
#X obj 25 26 sel 0 1 2 3;
#X obj 406 19 inlet;
#X obj 555 130 openpanel;
#X obj 517 182 t b;
#X obj 30 108 t b;
#X obj 101 274 / 2;
#X obj 63 -5 pipe 1;
#X msg 68 132 read -resize /home/juan/Pd/samples/sonidos/efectos/alarma.wav
l0;
#X msg 287 92 read -resize /home/juan/Pd/samples/sonidos/tips/ahora.wav
l1;
#X msg 530 65 read -resize /home/juan/Pd/samples/sonidos/voces/ahorita.wav
l2;
#X msg 557 187 read -resize /home/juan/Pd/samples/sonidos/voces/martirio.wav
l3;
#X obj 552 353 table l0;
#X obj 607 353 table l1;
#X obj 662 353 table l2;
#X obj 717 353 table l3;
#X msg 70 87 set read -resize \$1 l0;
#X msg 287 66 set read -resize \$1 l1;
#X msg 530 38 set read -resize \$1 l2;
#X msg 557 161 set read -resize \$1 l3;
#X msg 529 286 set l1;
#X msg 484 285 set l0;
#X msg 581 287 set l2;
#X msg 634 287 set l3;
#X obj 358 344 tabread4~ l0;
#X floatatom 227 329 5 0 0 0 - - -;
#X obj 175 235 r Mex;
#X obj 159 269 expr ($f1)/255;
#X obj 305 363 print;
#X floatatom 216 238 5 0 0 0 - - -;
#X connect 0 0 7 0;
#X connect 0 0 4 0;
#X connect 1 0 40 0;
#X connect 2 0 48 0;
#X connect 4 0 5 0;
#X connect 5 0 13 0;
#X connect 5 0 30 0;
#X connect 6 0 11 0;
#X connect 7 0 6 0;
#X connect 7 1 6 1;
#X connect 8 0 2 0;
#X connect 9 0 10 0;
#X connect 10 0 2 0;
#X connect 10 0 12 0;
#X connect 11 0 8 0;
#X connect 12 0 8 0;
#X connect 13 0 15 0;
#X connect 13 1 15 1;
#X connect 14 0 13 1;
#X connect 15 0 7 1;
#X connect 16 0 1 0;
#X connect 17 0 9 0;
#X connect 18 0 41 0;
#X connect 19 0 33 0;
#X connect 20 0 18 0;
#X connect 21 0 42 0;
#X connect 22 0 34 0;
#X connect 23 0 21 0;
#X connect 24 0 25 0;
#X connect 24 0 31 0;
#X connect 25 0 32 0;
#X connect 25 0 45 0;
#X connect 25 1 33 0;
#X connect 25 1 44 0;
#X connect 25 2 34 0;
#X connect 25 2 46 0;
#X connect 25 3 35 0;
#X connect 25 3 47 0;
#X connect 26 0 27 0;
#X connect 27 0 43 0;
#X connect 28 0 35 0;
#X connect 29 0 32 0;
#X connect 30 0 14 1;
#X connect 31 0 25 0;
#X connect 32 0 0 0;
#X connect 33 0 0 0;
#X connect 34 0 0 0;
#X connect 35 0 0 0;
#X connect 40 0 32 0;
#X connect 40 0 29 0;
#X connect 41 0 33 0;
#X connect 41 0 19 0;
#X connect 42 0 34 0;
#X connect 42 0 22 0;
#X connect 43 0 35 0;
#X connect 43 0 28 0;
#X connect 44 0 48 0;
#X connect 45 0 48 0;
#X connect 46 0 48 0;
#X connect 47 0 48 0;
#X connect 48 0 3 0;
#X connect 50 0 49 0;
#X connect 50 0 51 0;
#X connect 51 0 14 0;
#X connect 53 0 51 0;
#X restore 20 221 pd lector;
#N canvas 440 263 450 300 lector1 0;
#X obj 90 193 soundfiler;
#X obj 68 56 openpanel;
#X obj 359 321 line~;
#X obj 358 367 outlet~;
#X obj 87 228 / 44100;
#X obj 87 253 * 1000;
#X obj 360 232 pack f f;
#X obj 360 207 bondo;
#X msg 359 291 3.1744e+06 71981.9;
#X obj 278 275 sel 1 0;
#X msg 285 311 0;
#X msg 360 262 set \$1 \$2;
#X obj 318 284 t b;
#X obj 96 314 bondo;
#X obj 119 298 *;
#X obj 100 349 +;
#X obj 117 31 inlet;
#X obj 445 19 inlet;
#X obj 285 43 openpanel;
#X obj 247 87 t b;
#X obj 288 20 inlet;
#X obj 528 7 openpanel;
#X obj 490 59 t b;
#X obj 346 19 inlet;
#X obj 21 -27 inlet;
#X obj 25 26 sel 0 1 2 3;
#X obj 406 19 inlet;
#X obj 555 130 openpanel;
#X obj 517 182 t b;
#X obj 30 108 t b;
#X obj 101 274 / 2;
#X obj 63 -5 pipe 1;
#X msg 68 132 read -resize /home/juan/Pd/samples/sonidos/efectos/birdrooster.aiff
l4;
#X msg 287 92 read -resize /home/juan/Pd/samples/sonidos/tips/atencion.wav
l5;
#X msg 530 65 read -resize /home/juan/Pd/samples/sonidos/voces/azótame.wav
l6;
#X msg 557 187 read -resize /home/juan/Pd/samples/sonidos/voces/martirio1.wav
l7;
#X obj 552 348 table l4;
#X obj 605 353 table l5;
#X obj 666 356 table l6;
#X obj 726 358 table l7;
#X msg 70 87 set read -resize \$1 l4;
#X msg 287 66 set read -resize \$1 l5;
#X msg 532 39 set read -resize \$1 l6;
#X msg 557 161 set read -resize \$1 l7;
#X obj 358 344 tabread4~ l4;
#X msg 484 285 set l4;
#X msg 529 286 set l5;
#X msg 581 287 set l6;
#X msg 634 287 set l7;
#X obj 201 241 expr ($f1)/512;
#X obj 217 207 r Mex;
#X connect 0 0 7 0;
#X connect 0 0 4 0;
#X connect 1 0 40 0;
#X connect 2 0 44 0;
#X connect 4 0 5 0;
#X connect 5 0 13 0;
#X connect 5 0 30 0;
#X connect 6 0 11 0;
#X connect 7 0 6 0;
#X connect 7 1 6 1;
#X connect 8 0 2 0;
#X connect 9 0 10 0;
#X connect 10 0 2 0;
#X connect 10 0 12 0;
#X connect 11 0 8 0;
#X connect 12 0 8 0;
#X connect 13 0 15 0;
#X connect 13 1 15 1;
#X connect 14 0 13 1;
#X connect 15 0 7 1;
#X connect 16 0 1 0;
#X connect 17 0 9 0;
#X connect 18 0 41 0;
#X connect 19 0 33 0;
#X connect 20 0 18 0;
#X connect 21 0 42 0;
#X connect 22 0 34 0;
#X connect 23 0 21 0;
#X connect 24 0 25 0;
#X connect 24 0 31 0;
#X connect 25 0 32 0;
#X connect 25 0 45 0;
#X connect 25 1 33 0;
#X connect 25 1 46 0;
#X connect 25 2 34 0;
#X connect 25 2 47 0;
#X connect 25 3 35 0;
#X connect 25 3 48 0;
#X connect 26 0 27 0;
#X connect 27 0 43 0;
#X connect 28 0 35 0;
#X connect 29 0 32 0;
#X connect 30 0 14 1;
#X connect 31 0 25 0;
#X connect 32 0 0 0;
#X connect 33 0 0 0;
#X connect 34 0 0 0;
#X connect 35 0 0 0;
#X connect 40 0 32 0;
#X connect 40 0 29 0;
#X connect 41 0 33 0;
#X connect 41 0 19 0;
#X connect 42 0 34 0;
#X connect 42 0 22 0;
#X connect 43 0 35 0;
#X connect 43 0 28 0;
#X connect 44 0 3 0;
#X connect 45 0 44 0;
#X connect 46 0 44 0;
#X connect 47 0 44 0;
#X connect 48 0 44 0;
#X connect 49 0 14 0;
#X connect 50 0 49 0;
#X restore 88 222 pd lector1;
#N canvas 1 93 450 300 lector2 0;
#X obj 90 193 soundfiler;
#X obj 68 56 openpanel;
#X obj 359 321 line~;
#X obj 358 367 outlet~;
#X obj 87 228 / 44100;
#X obj 87 253 * 1000;
#X obj 360 232 pack f f;
#X obj 360 207 bondo;
#X msg 359 291 30134 683.311;
#X obj 278 275 sel 1 0;
#X msg 285 311 0;
#X msg 360 262 set \$1 \$2;
#X obj 318 284 t b;
#X obj 96 314 bondo;
#X obj 119 298 *;
#X obj 100 349 +;
#X obj 117 31 inlet;
#X obj 445 19 inlet;
#X obj 285 43 openpanel;
#X obj 247 87 t b;
#X obj 288 20 inlet;
#X obj 528 7 openpanel;
#X obj 490 59 t b;
#X obj 346 19 inlet;
#X obj 21 -27 inlet;
#X obj 25 26 sel 0 1 2 3;
#X obj 406 19 inlet;
#X obj 555 130 openpanel;
#X obj 517 182 t b;
#X obj 30 108 t b;
#X obj 101 274 / 2;
#X obj 63 -5 pipe 1;
#X msg 68 132 read -resize /home/juan/Pd/samples/sonidos/efectos/casquillos.wav
l8;
#X msg 287 92 read -resize /home/juan/Pd/samples/sonidos/tips/desdeCaricuao.wav
l9;
#X msg 530 65 read -resize /home/juan/Pd/samples/sonidos/voces/blanco.wav
l10;
#X msg 557 187 read -resize /home/juan/Pd/samples/sonidos/voces/negro.wav
l11;
#X obj 552 348 table l8;
#X obj 605 353 table l9;
#X obj 666 356 table l10;
#X obj 726 358 table l11;
#X msg 484 285 set l8;
#X msg 529 286 set l9;
#X msg 581 287 set l10;
#X msg 634 287 set l11;
#X msg 70 87 set read -resize \$1 l8;
#X msg 287 66 set read -resize \$1 l9;
#X msg 532 39 set read -resize \$1 l10;
#X msg 557 161 set read -resize \$1 l11;
#X obj 358 344 tabread4~ l8;
#X obj 179 289 expr ($f1)/512;
#X obj 195 255 r Mex;
#X connect 0 0 7 0;
#X connect 0 0 4 0;
#X connect 1 0 44 0;
#X connect 2 0 48 0;
#X connect 4 0 5 0;
#X connect 5 0 13 0;
#X connect 5 0 30 0;
#X connect 6 0 11 0;
#X connect 7 0 6 0;
#X connect 7 1 6 1;
#X connect 8 0 2 0;
#X connect 9 0 10 0;
#X connect 10 0 2 0;
#X connect 10 0 12 0;
#X connect 11 0 8 0;
#X connect 12 0 8 0;
#X connect 13 0 15 0;
#X connect 13 1 15 1;
#X connect 14 0 13 1;
#X connect 15 0 7 1;
#X connect 16 0 1 0;
#X connect 17 0 9 0;
#X connect 18 0 45 0;
#X connect 19 0 33 0;
#X connect 20 0 18 0;
#X connect 21 0 46 0;
#X connect 22 0 34 0;
#X connect 23 0 21 0;
#X connect 24 0 25 0;
#X connect 24 0 31 0;
#X connect 25 0 32 0;
#X connect 25 0 40 0;
#X connect 25 1 33 0;
#X connect 25 1 41 0;
#X connect 25 2 34 0;
#X connect 25 2 42 0;
#X connect 25 3 35 0;
#X connect 25 3 43 0;
#X connect 26 0 27 0;
#X connect 27 0 47 0;
#X connect 28 0 35 0;
#X connect 29 0 32 0;
#X connect 30 0 14 1;
#X connect 31 0 25 0;
#X connect 32 0 0 0;
#X connect 33 0 0 0;
#X connect 34 0 0 0;
#X connect 35 0 0 0;
#X connect 40 0 48 0;
#X connect 41 0 48 0;
#X connect 42 0 48 0;
#X connect 43 0 48 0;
#X connect 44 0 32 0;
#X connect 44 0 29 0;
#X connect 45 0 33 0;
#X connect 45 0 19 0;
#X connect 46 0 34 0;
#X connect 46 0 22 0;
#X connect 47 0 35 0;
#X connect 47 0 28 0;
#X connect 48 0 3 0;
#X connect 49 0 14 0;
#X connect 50 0 49 0;
#X restore 167 222 pd lector2;
#N canvas 1 93 450 300 lector3 0;
#X obj 90 193 soundfiler;
#X obj 68 56 openpanel;
#X obj 359 321 line~;
#X obj 358 367 outlet~;
#X obj 87 228 / 44100;
#X obj 87 253 * 1000;
#X obj 360 232 pack f f;
#X obj 360 207 bondo;
#X msg 359 291 75335 1708.28;
#X obj 278 275 sel 1 0;
#X msg 285 311 0;
#X msg 360 262 set \$1 \$2;
#X obj 318 284 t b;
#X obj 96 314 bondo;
#X obj 119 298 *;
#X obj 100 349 +;
#X obj 117 31 inlet;
#X obj 445 19 inlet;
#X obj 285 43 openpanel;
#X obj 247 87 t b;
#X obj 288 20 inlet;
#X obj 528 7 openpanel;
#X obj 490 59 t b;
#X obj 346 19 inlet;
#X obj 21 -27 inlet;
#X obj 25 26 sel 0 1 2 3;
#X obj 406 19 inlet;
#X obj 555 130 openpanel;
#X obj 517 182 t b;
#X obj 30 108 t b;
#X obj 101 274 / 2;
#X obj 63 -5 pipe 1;
#X msg 68 132 read -resize /home/juan/Pd/samples/sonidos/efectos/childrencheer.aiff
l12;
#X msg 287 92 read -resize /home/juan/Pd/samples/sonidos/tips/DJuanPablo.wav
l13;
#X msg 530 65 read -resize /home/juan/Pd/samples/sonidos/voces/blancosciviles.wav
l14;
#X msg 557 187 read -resize /home/juan/Pd/samples/sonidos/voces/negrochavizta.wav
l15;
#X obj 552 348 table l12;
#X obj 605 353 table l13;
#X obj 666 356 table l14;
#X obj 726 358 table l15;
#X obj 358 344 tabread4~ l12;
#X msg 484 285 set l12;
#X msg 529 286 set l13;
#X msg 581 287 set l14;
#X msg 634 287 set l15;
#X msg 70 87 set read -resize \$1 l12;
#X msg 287 66 set read -resize \$1 l13;
#X msg 532 39 set read -resize \$1 l14;
#X msg 557 161 set read -resize \$1 l15;
#X obj 213 239 expr ($f1)/512;
#X obj 231 205 r Mex;
#X connect 0 0 7 0;
#X connect 0 0 4 0;
#X connect 1 0 45 0;
#X connect 2 0 40 0;
#X connect 4 0 5 0;
#X connect 5 0 13 0;
#X connect 5 0 30 0;
#X connect 6 0 11 0;
#X connect 7 0 6 0;
#X connect 7 1 6 1;
#X connect 8 0 2 0;
#X connect 9 0 10 0;
#X connect 10 0 2 0;
#X connect 10 0 12 0;
#X connect 11 0 8 0;
#X connect 12 0 8 0;
#X connect 13 0 15 0;
#X connect 13 1 15 1;
#X connect 14 0 13 1;
#X connect 15 0 7 1;
#X connect 16 0 1 0;
#X connect 17 0 9 0;
#X connect 18 0 46 0;
#X connect 19 0 33 0;
#X connect 20 0 18 0;
#X connect 21 0 47 0;
#X connect 22 0 34 0;
#X connect 23 0 21 0;
#X connect 24 0 25 0;
#X connect 24 0 31 0;
#X connect 25 0 32 0;
#X connect 25 0 41 0;
#X connect 25 1 33 0;
#X connect 25 1 42 0;
#X connect 25 2 34 0;
#X connect 25 2 43 0;
#X connect 25 3 35 0;
#X connect 25 3 44 0;
#X connect 26 0 27 0;
#X connect 27 0 48 0;
#X connect 28 0 35 0;
#X connect 29 0 32 0;
#X connect 30 0 14 1;
#X connect 31 0 25 0;
#X connect 32 0 0 0;
#X connect 33 0 0 0;
#X connect 34 0 0 0;
#X connect 35 0 0 0;
#X connect 40 0 3 0;
#X connect 41 0 40 0;
#X connect 42 0 40 0;
#X connect 43 0 40 0;
#X connect 44 0 40 0;
#X connect 45 0 32 0;
#X connect 45 0 29 0;
#X connect 46 0 33 0;
#X connect 46 0 19 0;
#X connect 47 0 34 0;
#X connect 47 0 22 0;
#X connect 48 0 35 0;
#X connect 48 0 28 0;
#X connect 49 0 14 0;
#X connect 50 0 49 0;
#X restore 235 221 pd lector3;
#N canvas 1 101 1049 494 lector4 0;
#X obj 90 193 soundfiler;
#X obj 68 56 openpanel;
#X obj 359 321 line~;
#X obj 358 367 outlet~;
#X obj 87 228 / 44100;
#X obj 87 253 * 1000;
#X obj 360 232 pack f f;
#X obj 360 207 bondo;
#X msg 359 291 38835 880.612;
#X obj 278 275 sel 1 0;
#X msg 285 311 0;
#X msg 360 262 set \$1 \$2;
#X obj 318 284 t b;
#X obj 96 314 bondo;
#X obj 119 298 *;
#X obj 100 349 +;
#X obj 117 31 inlet;
#X obj 445 19 inlet;
#X obj 285 43 openpanel;
#X obj 247 87 t b;
#X obj 288 20 inlet;
#X obj 528 7 openpanel;
#X obj 490 59 t b;
#X obj 346 19 inlet;
#X obj 21 -27 inlet;
#X obj 25 26 sel 0 1 2 3;
#X obj 406 19 inlet;
#X obj 555 130 openpanel;
#X obj 517 182 t b;
#X obj 30 108 t b;
#X obj 101 274 / 2;
#X obj 63 -5 pipe 1;
#X msg 68 132 read -resize /home/juan/Pd/samples/sonidos/efectos/corneta.wav
l16;
#X msg 287 92 read -resize /home/juan/Pd/samples/sonidos/tips/laRazon.wav
l17;
#X msg 530 65 read -resize /home/juan/Pd/samples/sonidos/voces/bueno.wav
l18;
#X msg 557 187 read -resize /home/juan/Pd/samples/sonidos/voces/no!cartoon2.aiff
l19;
#X obj 543 354 table l16;
#X obj 607 335 table l17;
#X obj 669 378 table l18;
#X obj 726 358 table l19;
#X msg 70 87 set read -resize \$1 l16;
#X msg 287 66 set read -resize \$1 l17;
#X msg 530 38 set read -resize \$1 l18;
#X msg 557 161 set read -resize \$1 l19;
#X obj 358 344 tabread4~ l16;
#X msg 484 285 set l16;
#X msg 529 286 set l17;
#X msg 581 287 set l18;
#X msg 634 287 set l19;
#X obj 215 275 r sex;
#X obj 199 309 expr ($f1)/512;
#X connect 0 0 7 0;
#X connect 0 0 4 0;
#X connect 1 0 40 0;
#X connect 2 0 44 0;
#X connect 4 0 5 0;
#X connect 5 0 13 0;
#X connect 5 0 30 0;
#X connect 6 0 11 0;
#X connect 7 0 6 0;
#X connect 7 1 6 1;
#X connect 8 0 2 0;
#X connect 9 0 10 0;
#X connect 10 0 2 0;
#X connect 10 0 12 0;
#X connect 11 0 8 0;
#X connect 12 0 8 0;
#X connect 13 0 15 0;
#X connect 13 1 15 1;
#X connect 14 0 13 1;
#X connect 15 0 7 1;
#X connect 16 0 1 0;
#X connect 17 0 9 0;
#X connect 18 0 41 0;
#X connect 19 0 33 0;
#X connect 20 0 18 0;
#X connect 21 0 42 0;
#X connect 22 0 34 0;
#X connect 23 0 21 0;
#X connect 24 0 25 0;
#X connect 24 0 31 0;
#X connect 25 0 32 0;
#X connect 25 0 45 0;
#X connect 25 1 33 0;
#X connect 25 1 46 0;
#X connect 25 2 34 0;
#X connect 25 2 47 0;
#X connect 25 3 35 0;
#X connect 25 3 48 0;
#X connect 26 0 27 0;
#X connect 27 0 43 0;
#X connect 28 0 35 0;
#X connect 29 0 32 0;
#X connect 30 0 14 1;
#X connect 31 0 25 0;
#X connect 32 0 0 0;
#X connect 33 0 0 0;
#X connect 34 0 0 0;
#X connect 35 0 0 0;
#X connect 40 0 32 0;
#X connect 40 0 29 0;
#X connect 41 0 33 0;
#X connect 41 0 19 0;
#X connect 42 0 34 0;
#X connect 42 0 22 0;
#X connect 43 0 35 0;
#X connect 43 0 28 0;
#X connect 44 0 3 0;
#X connect 45 0 44 0;
#X connect 46 0 44 0;
#X connect 47 0 44 0;
#X connect 48 0 44 0;
#X connect 49 0 50 0;
#X connect 50 0 14 0;
#X restore 303 222 pd lector4;
#N canvas 1 86 450 300 lector5 0;
#X obj 90 193 soundfiler;
#X obj 68 56 openpanel;
#X obj 359 321 line~;
#X obj 358 367 outlet~;
#X obj 87 228 / 44100;
#X obj 87 253 * 1000;
#X obj 360 232 pack f f;
#X obj 360 207 bondo;
#X msg 359 291 37453 849.274;
#X obj 278 275 sel 1 0;
#X msg 285 311 0;
#X msg 360 262 set \$1 \$2;
#X obj 318 284 t b;
#X obj 96 314 bondo;
#X obj 119 298 *;
#X obj 100 349 +;
#X obj 117 31 inlet;
#X obj 445 19 inlet;
#X obj 285 43 openpanel;
#X obj 247 87 t b;
#X obj 288 20 inlet;
#X obj 528 7 openpanel;
#X obj 490 59 t b;
#X obj 346 19 inlet;
#X obj 21 -27 inlet;
#X obj 25 26 sel 0 1 2 3;
#X obj 406 19 inlet;
#X obj 555 130 openpanel;
#X obj 517 182 t b;
#X obj 30 108 t b;
#X obj 101 274 / 2;
#X obj 63 -5 pipe 1;
#X msg 68 132 read -resize /home/juan/Pd/samples/sonidos/efectos/cornetaBarco.wav
l20;
#X msg 287 92 read -resize /home/juan/Pd/samples/sonidos/tips/lasLacras.wav
l21;
#X msg 530 65 read -resize /home/juan/Pd/samples/sonidos/voces/chavizta.wav
l22;
#X msg 557 187 read -resize /home/juan/Pd/samples/sonidos/voces/popote.wav
l23;
#X obj 543 354 table l20;
#X obj 607 335 table l21;
#X obj 669 378 table l22;
#X obj 726 358 table l23;
#X msg 484 285 set l20;
#X msg 529 286 set l21;
#X msg 581 287 set l22;
#X msg 634 287 set l23;
#X msg 70 87 set read -resize \$1 l20;
#X msg 287 66 set read -resize \$1 l21;
#X msg 530 38 set read -resize \$1 l22;
#X msg 557 161 set read -resize \$1 l23;
#X obj 358 344 tabread4~ l20;
#X obj 216 223 r sex;
#X obj 200 257 expr ($f1)/512;
#X connect 0 0 7 0;
#X connect 0 0 4 0;
#X connect 1 0 44 0;
#X connect 2 0 48 0;
#X connect 4 0 5 0;
#X connect 5 0 13 0;
#X connect 5 0 30 0;
#X connect 6 0 11 0;
#X connect 7 0 6 0;
#X connect 7 1 6 1;
#X connect 8 0 2 0;
#X connect 9 0 10 0;
#X connect 10 0 2 0;
#X connect 10 0 12 0;
#X connect 11 0 8 0;
#X connect 12 0 8 0;
#X connect 13 0 15 0;
#X connect 13 1 15 1;
#X connect 14 0 13 1;
#X connect 15 0 7 1;
#X connect 16 0 1 0;
#X connect 17 0 9 0;
#X connect 18 0 45 0;
#X connect 19 0 33 0;
#X connect 20 0 18 0;
#X connect 21 0 46 0;
#X connect 22 0 34 0;
#X connect 23 0 21 0;
#X connect 24 0 25 0;
#X connect 24 0 31 0;
#X connect 25 0 32 0;
#X connect 25 0 40 0;
#X connect 25 1 33 0;
#X connect 25 1 41 0;
#X connect 25 2 34 0;
#X connect 25 2 42 0;
#X connect 25 3 35 0;
#X connect 25 3 43 0;
#X connect 26 0 27 0;
#X connect 27 0 47 0;
#X connect 28 0 35 0;
#X connect 29 0 32 0;
#X connect 30 0 14 1;
#X connect 31 0 25 0;
#X connect 32 0 0 0;
#X connect 33 0 0 0;
#X connect 34 0 0 0;
#X connect 35 0 0 0;
#X connect 40 0 48 0;
#X connect 41 0 48 0;
#X connect 42 0 48 0;
#X connect 43 0 48 0;
#X connect 44 0 32 0;
#X connect 44 0 29 0;
#X connect 45 0 33 0;
#X connect 45 0 19 0;
#X connect 46 0 34 0;
#X connect 46 0 22 0;
#X connect 47 0 35 0;
#X connect 47 0 28 0;
#X connect 48 0 3 0;
#X connect 49 0 50 0;
#X connect 50 0 14 0;
#X restore 370 222 pd lector5;
#N canvas 1 86 450 300 lector6 0;
#X obj 90 193 soundfiler;
#X obj 68 56 openpanel;
#X obj 359 321 line~;
#X obj 358 367 outlet~;
#X obj 87 228 / 44100;
#X obj 87 253 * 1000;
#X obj 360 232 pack f f;
#X obj 360 207 bondo;
#X msg 359 291 44340 1005.44;
#X obj 278 275 sel 1 0;
#X msg 285 311 0;
#X msg 360 262 set \$1 \$2;
#X obj 318 284 t b;
#X obj 96 314 bondo;
#X obj 119 298 *;
#X obj 100 349 +;
#X obj 117 31 inlet;
#X obj 445 19 inlet;
#X obj 285 43 openpanel;
#X obj 247 87 t b;
#X obj 288 20 inlet;
#X obj 528 7 openpanel;
#X obj 490 59 t b;
#X obj 346 19 inlet;
#X obj 21 -27 inlet;
#X obj 25 26 sel 0 1 2 3;
#X obj 406 19 inlet;
#X obj 555 130 openpanel;
#X obj 517 182 t b;
#X obj 30 108 t b;
#X obj 101 274 / 2;
#X obj 63 -5 pipe 1;
#X msg 68 132 read -resize /home/juan/Pd/samples/sonidos/efectos/cowmooexternal.aiff
l24;
#X msg 287 92 read -resize /home/juan/Pd/samples/sonidos/tips/raptor.wav
l25;
#X msg 530 65 read -resize /home/juan/Pd/samples/sonidos/voces/empújamelo.wav
l26;
#X msg 557 187 read -resize /home/juan/Pd/samples/sonidos/voces/porunpitillo.wav
l27;
#X obj 358 344 tabread4~ l20;
#X obj 543 354 table l24;
#X obj 607 335 table l25;
#X obj 669 378 table l26;
#X obj 726 358 table l27;
#X msg 484 285 set l24;
#X msg 529 286 set l25;
#X msg 581 287 set l26;
#X msg 634 287 set l27;
#X msg 70 87 set read -resize \$1 l24;
#X msg 287 66 set read -resize \$1 l25;
#X msg 530 38 set read -resize \$1 l26;
#X msg 557 161 set read -resize \$1 l27;
#X obj 211 229 r sex;
#X obj 195 263 expr ($f1)/512;
#X connect 0 0 7 0;
#X connect 0 0 4 0;
#X connect 1 0 45 0;
#X connect 2 0 36 0;
#X connect 4 0 5 0;
#X connect 5 0 13 0;
#X connect 5 0 30 0;
#X connect 6 0 11 0;
#X connect 7 0 6 0;
#X connect 7 1 6 1;
#X connect 8 0 2 0;
#X connect 9 0 10 0;
#X connect 10 0 2 0;
#X connect 10 0 12 0;
#X connect 11 0 8 0;
#X connect 12 0 8 0;
#X connect 13 0 15 0;
#X connect 13 1 15 1;
#X connect 14 0 13 1;
#X connect 15 0 7 1;
#X connect 16 0 1 0;
#X connect 17 0 9 0;
#X connect 18 0 46 0;
#X connect 19 0 33 0;
#X connect 20 0 18 0;
#X connect 21 0 47 0;
#X connect 22 0 34 0;
#X connect 23 0 21 0;
#X connect 24 0 25 0;
#X connect 24 0 31 0;
#X connect 25 0 32 0;
#X connect 25 0 41 0;
#X connect 25 1 33 0;
#X connect 25 1 42 0;
#X connect 25 2 34 0;
#X connect 25 2 43 0;
#X connect 25 3 35 0;
#X connect 25 3 44 0;
#X connect 26 0 27 0;
#X connect 27 0 48 0;
#X connect 28 0 35 0;
#X connect 29 0 32 0;
#X connect 30 0 14 1;
#X connect 31 0 25 0;
#X connect 32 0 0 0;
#X connect 33 0 0 0;
#X connect 34 0 0 0;
#X connect 35 0 0 0;
#X connect 36 0 3 0;
#X connect 41 0 36 0;
#X connect 42 0 36 0;
#X connect 43 0 36 0;
#X connect 44 0 36 0;
#X connect 45 0 32 0;
#X connect 45 0 29 0;
#X connect 46 0 33 0;
#X connect 46 0 19 0;
#X connect 47 0 34 0;
#X connect 47 0 22 0;
#X connect 48 0 35 0;
#X connect 48 0 28 0;
#X connect 49 0 50 0;
#X connect 50 0 14 0;
#X restore 439 221 pd lector6;
#N canvas 1 86 450 300 lector7 0;
#X obj 90 193 soundfiler;
#X obj 68 56 openpanel;
#X obj 359 321 line~;
#X obj 358 367 outlet~;
#X obj 87 228 / 44100;
#X obj 87 253 * 1000;
#X obj 360 232 pack f f;
#X obj 360 207 bondo;
#X msg 359 291 55533 1259.25;
#X obj 278 275 sel 1 0;
#X msg 285 311 0;
#X msg 360 262 set \$1 \$2;
#X obj 318 284 t b;
#X obj 96 314 bondo;
#X obj 119 298 *;
#X obj 100 349 +;
#X obj 117 31 inlet;
#X obj 445 19 inlet;
#X obj 285 43 openpanel;
#X obj 247 87 t b;
#X obj 288 20 inlet;
#X obj 528 7 openpanel;
#X obj 490 59 t b;
#X obj 346 19 inlet;
#X obj 21 -27 inlet;
#X obj 25 26 sel 0 1 2 3;
#X obj 406 19 inlet;
#X obj 555 130 openpanel;
#X obj 517 182 t b;
#X obj 30 108 t b;
#X obj 101 274 / 2;
#X obj 63 -5 pipe 1;
#X msg 68 132 read -resize /home/juan/Pd/samples/sonidos/efectos/gunhandload3.aiff
l28;
#X msg 287 92 read -resize /home/juan/Pd/samples/sonidos/efectos/tigerroar.aiff
l29;
#X msg 530 65 read -resize /home/juan/Pd/samples/sonidos/voces/hamburguesa.wav
l30;
#X msg 557 187 read -resize /home/juan/Pd/samples/sonidos/voces/puebloyfuerza.wav
l31;
#X obj 543 354 table l28;
#X obj 358 344 tabread4~ l28;
#X obj 607 335 table l29;
#X obj 669 378 table l30;
#X obj 726 358 table l31;
#X msg 70 87 set read -resize \$1 l28;
#X msg 287 66 set read -resize \$1 l29;
#X msg 530 38 set read -resize \$1 l30;
#X msg 557 161 set read -resize \$1 l31;
#X msg 484 285 set l28;
#X msg 529 286 set l29;
#X msg 581 287 set l30;
#X msg 634 287 set l31;
#X obj 216 211 r sex;
#X obj 200 245 expr ($f1)/512;
#X connect 0 0 7 0;
#X connect 0 0 4 0;
#X connect 1 0 41 0;
#X connect 2 0 37 0;
#X connect 4 0 5 0;
#X connect 5 0 13 0;
#X connect 5 0 30 0;
#X connect 6 0 11 0;
#X connect 7 0 6 0;
#X connect 7 1 6 1;
#X connect 8 0 2 0;
#X connect 9 0 10 0;
#X connect 10 0 2 0;
#X connect 10 0 12 0;
#X connect 11 0 8 0;
#X connect 12 0 8 0;
#X connect 13 0 15 0;
#X connect 13 1 15 1;
#X connect 14 0 13 1;
#X connect 15 0 7 1;
#X connect 16 0 1 0;
#X connect 17 0 9 0;
#X connect 18 0 42 0;
#X connect 19 0 33 0;
#X connect 20 0 18 0;
#X connect 21 0 43 0;
#X connect 22 0 34 0;
#X connect 23 0 21 0;
#X connect 24 0 25 0;
#X connect 24 0 31 0;
#X connect 25 0 32 0;
#X connect 25 0 45 0;
#X connect 25 1 33 0;
#X connect 25 1 46 0;
#X connect 25 2 34 0;
#X connect 25 2 47 0;
#X connect 25 3 35 0;
#X connect 25 3 48 0;
#X connect 26 0 27 0;
#X connect 27 0 44 0;
#X connect 28 0 35 0;
#X connect 29 0 32 0;
#X connect 30 0 14 1;
#X connect 31 0 25 0;
#X connect 32 0 0 0;
#X connect 33 0 0 0;
#X connect 34 0 0 0;
#X connect 35 0 0 0;
#X connect 37 0 3 0;
#X connect 41 0 32 0;
#X connect 41 0 29 0;
#X connect 42 0 33 0;
#X connect 42 0 19 0;
#X connect 43 0 34 0;
#X connect 43 0 22 0;
#X connect 44 0 35 0;
#X connect 44 0 28 0;
#X connect 45 0 37 0;
#X connect 46 0 37 0;
#X connect 47 0 37 0;
#X connect 48 0 37 0;
#X connect 49 0 50 0;
#X connect 50 0 14 0;
#X restore 507 219 pd lector7;
#X obj 606 98 loadbang;
#X obj 272 302 outlet~;
#X obj 535 16 inlet;
#X obj 271 276 *~;
#X connect 0 0 69 1;
#X connect 1 0 69 2;
#X connect 2 0 69 3;
#X connect 3 0 69 4;
#X connect 4 0 69 0;
#X connect 5 0 70 1;
#X connect 6 0 70 2;
#X connect 7 0 70 3;
#X connect 8 0 70 4;
#X connect 9 0 70 0;
#X connect 10 0 71 1;
#X connect 11 0 71 2;
#X connect 12 0 71 3;
#X connect 13 0 71 4;
#X connect 14 0 71 0;
#X connect 15 0 72 1;
#X connect 16 0 72 2;
#X connect 17 0 72 3;
#X connect 18 0 72 4;
#X connect 19 0 72 0;
#X connect 20 0 73 1;
#X connect 21 0 73 2;
#X connect 22 0 73 3;
#X connect 23 0 73 4;
#X connect 24 0 73 0;
#X connect 25 0 76 1;
#X connect 26 0 76 2;
#X connect 27 0 76 3;
#X connect 28 0 76 4;
#X connect 29 0 76 0;
#X connect 30 0 74 1;
#X connect 31 0 74 2;
#X connect 32 0 74 3;
#X connect 33 0 74 4;
#X connect 34 0 74 0;
#X connect 35 0 75 1;
#X connect 36 0 75 2;
#X connect 37 0 75 3;
#X connect 38 0 75 4;
#X connect 39 0 75 0;
#X connect 40 0 4 0;
#X connect 40 0 9 0;
#X connect 40 0 14 0;
#X connect 40 0 19 0;
#X connect 40 0 39 0;
#X connect 40 0 29 0;
#X connect 40 0 24 0;
#X connect 40 0 34 0;
#X connect 41 0 69 5;
#X connect 42 0 70 5;
#X connect 43 0 71 5;
#X connect 44 0 72 5;
#X connect 45 0 73 5;
#X connect 46 0 74 5;
#X connect 47 0 75 5;
#X connect 48 0 76 5;
#X connect 49 0 48 1;
#X connect 49 0 47 1;
#X connect 49 0 46 1;
#X connect 49 0 45 1;
#X connect 49 0 44 1;
#X connect 49 0 43 1;
#X connect 49 0 42 1;
#X connect 49 0 41 1;
#X connect 50 0 54 0;
#X connect 51 0 55 0;
#X connect 52 0 56 0;
#X connect 53 0 57 0;
#X connect 54 0 40 0;
#X connect 55 0 40 0;
#X connect 56 0 40 0;
#X connect 57 0 40 0;
#X connect 58 0 59 0;
#X connect 59 0 40 0;
#X connect 60 0 49 0;
#X connect 61 0 41 0;
#X connect 62 0 42 0;
#X connect 63 0 43 0;
#X connect 64 0 44 0;
#X connect 65 0 45 0;
#X connect 66 0 46 0;
#X connect 67 0 47 0;
#X connect 68 0 48 0;
#X connect 69 0 80 0;
#X connect 70 0 80 0;
#X connect 71 0 80 0;
#X connect 72 0 80 0;
#X connect 73 0 80 0;
#X connect 74 0 80 0;
#X connect 75 0 80 0;
#X connect 76 0 80 0;
#X connect 77 0 60 0;
#X connect 79 0 80 1;
#X connect 80 0 78 0;
