#N canvas 1 138 631 350 10;
#X obj 155 171 *~;
#X obj 233 155 line~;
#X obj 153 133 line~;
#X obj 153 192 *~ 1;
#X obj 155 211 lop~ 300;
#X obj 154 152 osc~;
#X obj 153 86 bang;
#X obj 167 40 inlet;
#X obj 156 248 outlet~;
#X msg 220 111 0.5;
#X obj 115 167 +~ 7;
#X obj 115 218 osc~;
#X obj 114 145 ftom~;
#X obj 115 189 mtof~;
#X obj 255 47 inlet;
#X floatatom 115 116 5 0 0 0 - - -;
#X msg 154 113 50 \, 0 300;
#X msg 233 135 0.4 0 300;
#X connect 0 0 3 0;
#X connect 1 0 0 1;
#X connect 2 0 5 0;
#X connect 2 0 12 0;
#X connect 3 0 4 0;
#X connect 4 0 8 0;
#X connect 5 0 0 0;
#X connect 6 0 16 0;
#X connect 6 0 17 0;
#X connect 6 0 9 0;
#X connect 7 0 6 0;
#X connect 9 0 5 1;
#X connect 9 0 11 1;
#X connect 10 0 13 0;
#X connect 11 0 0 0;
#X connect 12 0 10 0;
#X connect 13 0 11 0;
#X connect 14 0 10 1;
#X connect 15 0 10 1;
#X connect 16 0 2 0;
#X connect 17 0 1 0;
