#N canvas 387 247 688 462 10;
#X obj 102 150 *~;
#X obj 194 131 *~;
#X obj 127 213 *~;
#X obj 267 111 line~;
#X obj 134 126 line~;
#X obj 101 70 line~;
#X obj 310 49 bng 15 250 50 0 empty empty empty 17 7 0 10 -262144 -1
-1;
#X msg 188 51 0.25;
#X obj 229 168 line~;
#X obj 218 81 pink~;
#X msg 230 141 1 50 \, 1 0 50 \, 0 1000;
#X msg 268 86 1 \, 0 100;
#X obj 32 53 mtof;
#X msg 114 -4 set \$1;
#X msg 109 28 61.7354;
#X msg 169 1 set \$1 120;
#X msg 168 29 30.8677 120;
#X obj 211 25 bng 15 250 50 0 empty empty empty 17 7 0 10 -262144 -1
-1;
#X obj 56 76 * 2;
#X obj 218 106 bp~ 212 2;
#X obj 115 261 bp~ 6300 2.6;
#X obj 78 316 outlet~;
#X obj 31 24 inlet;
#X obj 312 21 inlet;
#X msg 135 99 0 \, 1 100;
#X obj 94 100 osc~;
#X connect 0 0 2 0;
#X connect 1 0 2 0;
#X connect 2 0 20 0;
#X connect 3 0 1 1;
#X connect 4 0 0 1;
#X connect 5 0 25 0;
#X connect 6 0 24 0;
#X connect 6 0 11 0;
#X connect 6 0 7 0;
#X connect 6 0 10 0;
#X connect 6 0 14 0;
#X connect 7 0 25 1;
#X connect 8 0 2 1;
#X connect 9 0 19 0;
#X connect 10 0 8 0;
#X connect 11 0 3 0;
#X connect 12 0 18 0;
#X connect 12 0 15 0;
#X connect 13 0 14 0;
#X connect 14 0 5 0;
#X connect 14 0 17 0;
#X connect 15 0 16 0;
#X connect 16 0 5 0;
#X connect 17 0 16 0;
#X connect 18 0 13 0;
#X connect 19 0 1 0;
#X connect 20 0 21 0;
#X connect 22 0 12 0;
#X connect 23 0 6 0;
#X connect 24 0 4 0;
#X connect 25 0 0 0;
