#N canvas 675 147 450 358 10;
#X obj 256 41 adc~;
#X obj 250 94 fiddle~;
#X obj 260 116 bng 15 250 50 0 empty empty empty 17 7 0 10 -262144
-1 -1;
#X obj 260 170 sel 0 1 2 3 4;
#X msg 332 111 set open \$1 \, 1;
#X obj 336 90 openpanel;
#X obj 340 70 bng 15 250 50 0 empty empty empty 17 7 0 10 -262144 -1
-1;
#X msg 174 197 open /home/juan/Escritorio/a-01.wav \, 1;
#X obj 91 262 dac~;
#X obj 39 178 readsf~ 2;
#X msg 213 219 open /home/juan/Escritorio/a-02.wav \, 1;
#X msg 161 242 open /home/juan/Escritorio/a-03.wav \, 1;
#X msg 200 263 open /home/juan/Escritorio/a-04.wav \, 1;
#X msg 195 288 open /home/juan/Escritorio/a-05.wav \, 1;
#X obj 324 145 counter 1 0 4;
#X obj 129 159 bombotonal;
#X obj 119 198 *~ 0.5;
#X obj 133 135 + 30;
#X obj 149 56 random 2;
#X obj 145 105 * 7;
#X obj 229 141 random 5;
#X connect 0 0 1 0;
#X connect 0 1 1 0;
#X connect 1 1 2 0;
#X connect 2 0 18 0;
#X connect 2 0 14 0;
#X connect 3 0 7 0;
#X connect 3 1 10 0;
#X connect 3 2 11 0;
#X connect 3 3 12 0;
#X connect 3 4 13 0;
#X connect 4 0 7 0;
#X connect 5 0 4 0;
#X connect 6 0 5 0;
#X connect 7 0 9 0;
#X connect 9 0 8 0;
#X connect 9 1 8 1;
#X connect 10 0 9 0;
#X connect 11 0 9 0;
#X connect 12 0 9 0;
#X connect 13 0 9 0;
#X connect 14 0 3 0;
#X connect 15 0 16 0;
#X connect 16 0 8 1;
#X connect 16 0 8 0;
#X connect 17 0 15 0;
#X connect 18 0 19 0;
#X connect 19 0 17 0;
#X connect 20 0 3 0;
