#N canvas 507 181 858 528 10;
#X obj 94 417 gemwin;
#X msg 94 369 create \, 1;
#X msg 93 344 0 \, destroy;
#X obj 37 -24 tgl 15 0 empty empty empty 17 7 0 10 -262144 -1 -1 0
1;
#X obj 37 -4 gemhead;
#X msg 44 385 reset;
#X msg 86 85 draw line;
#X msg 154 85 draw fill;
#X msg 224 84 draw point;
#X floatatom 97 197 5 0 0 0 - - -;
#X obj 23 125 gemlist;
#X obj 22 104 until;
#X obj 36 42 route gem_state;
#X obj 36 62 route float;
#X obj 36 21 t a a;
#X obj 22 206 scale 0.5;
#X floatatom 74 178 5 0 0 0 - - -;
#X obj 124 286 rotateXYZ;
#X obj 223 147 metro;
#X obj 223 125 tgl 15 0 empty empty empty 17 7 0 10 -262144 -1 -1 1
1;
#X floatatom 249 125 5 0 0 0 - - -;
#X obj 187 173 counter 0 0 360;
#X floatatom 218 284 5 0 0 0 - - -;
#X obj 32 153 color 0.5 0 0;
#X obj 139 216 line;
#X obj 203 199 pack;
#X msg 202 227 \$1 \$2;
#X obj 108 139 pack 0 0 0;
#X obj 130 108 tgl 15 0 empty empty empty 17 7 0 10 -262144 -1 -1 1
1;
#X obj 107 107 tgl 15 0 empty empty empty 17 7 0 10 -262144 -1 -1 1
1;
#X obj 162 108 tgl 15 0 empty empty empty 17 7 0 10 -262144 -1 -1 0
1;
#X obj 193 127 bng 15 250 50 0 empty empty empty 17 7 0 10 -262144
-1 -1;
#X obj 154 266 +;
#X floatatom 169 245 5 0 0 0 - - -;
#X obj 194 270 +;
#X floatatom 209 249 5 0 0 0 - - -;
#X obj 33 249 rectangle;
#X obj 319 0 tgl 15 0 empty empty empty 17 7 0 10 -262144 -1 -1 0 -1
;
#X obj 319 20 gemhead;
#X msg 368 109 draw line;
#X msg 436 109 draw fill;
#X msg 506 108 draw point;
#X floatatom 379 221 5 0 0 0 - - -;
#X obj 305 149 gemlist;
#X obj 304 128 until;
#X obj 318 66 route gem_state;
#X obj 318 86 route float;
#X obj 318 45 t a a;
#X obj 304 230 scale 0.5;
#X floatatom 356 202 5 0 0 0 - - -;
#X obj 406 310 rotateXYZ;
#X obj 505 171 metro;
#X obj 505 149 tgl 15 0 empty empty empty 17 7 0 10 -262144 -1 -1 1
1;
#X floatatom 531 149 5 0 0 0 - - -;
#X obj 469 197 counter 0 0 360;
#X floatatom 500 308 5 0 0 0 - - -;
#X obj 314 177 color 0.5 0 0;
#X obj 421 240 line;
#X obj 485 223 pack;
#X msg 484 251 \$1 \$2;
#X obj 390 163 pack 0 0 0;
#X obj 412 132 tgl 15 0 empty empty empty 17 7 0 10 -262144 -1 -1 1
1;
#X obj 389 131 tgl 15 0 empty empty empty 17 7 0 10 -262144 -1 -1 0
1;
#X obj 444 132 tgl 15 0 empty empty empty 17 7 0 10 -262144 -1 -1 1
1;
#X obj 475 151 bng 15 250 50 0 empty empty empty 17 7 0 10 -262144
-1 -1;
#X obj 436 290 +;
#X floatatom 451 269 5 0 0 0 - - -;
#X obj 476 294 +;
#X floatatom 491 273 5 0 0 0 - - -;
#X msg 304 108 20;
#X obj 315 273 circle;
#X msg 22 84 30;
#X obj 587 21 tgl 15 0 empty empty empty 17 7 0 10 -262144 -1 -1 -1
-1;
#X obj 587 41 gemhead;
#X msg 636 130 draw line;
#X msg 704 130 draw fill;
#X msg 774 129 draw point;
#X floatatom 647 242 5 0 0 0 - - -;
#X obj 573 170 gemlist;
#X obj 572 149 until;
#X obj 586 87 route gem_state;
#X obj 586 107 route float;
#X obj 586 66 t a a;
#X obj 572 251 scale 0.5;
#X floatatom 624 223 5 0 0 0 - - -;
#X obj 674 331 rotateXYZ;
#X obj 773 192 metro;
#X obj 773 170 tgl 15 0 empty empty empty 17 7 0 10 -262144 -1 -1 1
1;
#X floatatom 799 170 5 0 0 0 - - -;
#X obj 737 218 counter 0 0 360;
#X floatatom 768 329 5 0 0 0 - - -;
#X obj 582 198 color 0.5 0 0;
#X obj 689 261 line;
#X obj 753 244 pack;
#X msg 752 272 \$1 \$2;
#X obj 658 184 pack 0 0 0;
#X obj 680 153 tgl 15 0 empty empty empty 17 7 0 10 -262144 -1 -1 0
1;
#X obj 657 152 tgl 15 0 empty empty empty 17 7 0 10 -262144 -1 -1 1
1;
#X obj 712 153 tgl 15 0 empty empty empty 17 7 0 10 -262144 -1 -1 1
1;
#X obj 743 172 bng 15 250 50 0 empty empty empty 17 7 0 10 -262144
-1 -1;
#X obj 704 311 +;
#X floatatom 719 290 5 0 0 0 - - -;
#X obj 744 315 +;
#X floatatom 759 294 5 0 0 0 - - -;
#X msg 572 129 20;
#X obj 397 -17 sel 0 1 2;
#X obj 397 -61 metro 400;
#X obj 397 -85 tgl 15 0 empty empty empty 17 7 0 10 -262144 -1 -1 1
1;
#X obj 400 -39 counter 0 0 2;
#X floatatom 444 -85 5 0 0 0 - - -;
#X obj 583 294 cube;
#X obj 314 304 rectangle;
#X connect 1 0 0 0;
#X connect 2 0 0 0;
#X connect 3 0 4 0;
#X connect 4 0 14 0;
#X connect 5 0 0 0;
#X connect 6 0 36 0;
#X connect 7 0 36 0;
#X connect 8 0 36 0;
#X connect 9 0 36 1;
#X connect 10 0 23 0;
#X connect 11 0 10 0;
#X connect 12 0 13 0;
#X connect 13 1 71 0;
#X connect 14 0 12 0;
#X connect 14 1 10 1;
#X connect 15 0 17 0;
#X connect 16 0 15 1;
#X connect 17 0 36 0;
#X connect 18 0 21 0;
#X connect 19 0 18 0;
#X connect 20 0 18 1;
#X connect 20 0 25 1;
#X connect 21 0 25 0;
#X connect 23 0 15 0;
#X connect 24 0 17 1;
#X connect 24 0 32 0;
#X connect 25 0 26 0;
#X connect 26 0 24 0;
#X connect 27 0 23 1;
#X connect 28 0 27 1;
#X connect 28 0 31 0;
#X connect 29 0 27 0;
#X connect 30 0 27 2;
#X connect 30 0 31 0;
#X connect 31 0 27 0;
#X connect 32 0 17 2;
#X connect 33 0 32 1;
#X connect 34 0 17 3;
#X connect 35 0 34 1;
#X connect 37 0 38 0;
#X connect 38 0 47 0;
#X connect 39 0 70 0;
#X connect 39 0 111 0;
#X connect 40 0 70 0;
#X connect 41 0 70 0;
#X connect 42 0 70 1;
#X connect 43 0 56 0;
#X connect 44 0 43 0;
#X connect 45 0 46 0;
#X connect 46 1 69 0;
#X connect 47 0 45 0;
#X connect 47 1 43 1;
#X connect 48 0 50 0;
#X connect 49 0 48 1;
#X connect 50 0 70 0;
#X connect 51 0 54 0;
#X connect 52 0 51 0;
#X connect 53 0 51 1;
#X connect 53 0 58 1;
#X connect 54 0 58 0;
#X connect 56 0 48 0;
#X connect 57 0 50 1;
#X connect 57 0 65 0;
#X connect 58 0 59 0;
#X connect 59 0 57 0;
#X connect 60 0 56 1;
#X connect 61 0 60 1;
#X connect 61 0 64 0;
#X connect 62 0 60 0;
#X connect 63 0 60 2;
#X connect 63 0 64 0;
#X connect 64 0 60 0;
#X connect 65 0 50 2;
#X connect 66 0 65 1;
#X connect 67 0 50 3;
#X connect 68 0 67 1;
#X connect 69 0 44 0;
#X connect 70 0 111 0;
#X connect 71 0 11 0;
#X connect 72 0 73 0;
#X connect 73 0 82 0;
#X connect 74 0 110 0;
#X connect 75 0 110 0;
#X connect 76 0 110 0;
#X connect 77 0 110 1;
#X connect 78 0 91 0;
#X connect 79 0 78 0;
#X connect 80 0 81 0;
#X connect 81 1 104 0;
#X connect 82 0 80 0;
#X connect 82 1 78 1;
#X connect 83 0 85 0;
#X connect 84 0 83 1;
#X connect 85 0 110 0;
#X connect 86 0 89 0;
#X connect 87 0 86 0;
#X connect 88 0 86 1;
#X connect 88 0 93 1;
#X connect 89 0 93 0;
#X connect 91 0 83 0;
#X connect 92 0 85 1;
#X connect 92 0 100 0;
#X connect 93 0 94 0;
#X connect 94 0 92 0;
#X connect 95 0 91 1;
#X connect 96 0 95 1;
#X connect 96 0 99 0;
#X connect 97 0 95 0;
#X connect 98 0 95 2;
#X connect 98 0 99 0;
#X connect 99 0 95 0;
#X connect 100 0 85 2;
#X connect 101 0 100 1;
#X connect 102 0 85 3;
#X connect 103 0 102 1;
#X connect 104 0 79 0;
#X connect 105 0 3 0;
#X connect 105 1 37 0;
#X connect 105 2 72 0;
#X connect 106 0 108 0;
#X connect 107 0 106 0;
#X connect 108 0 105 0;
#X connect 109 0 106 1;
