#N canvas 113 240 450 500 10;
#X obj 99 124 env~;
#X obj 99 144 moses;
#X obj 99 165 bang;
#X msg 99 188 1;
#X obj 140 186 expr (($f1 - $f3)/$f2) - $f1 + $f3;
#X obj 141 230 + 100;
#X obj 143 253 dbtorms;
#X floatatom 140 277 9 0 0 0 - - -;
#X obj 96 388 *~;
#X obj 112 362 line~;
#X obj 65 58 inlet~;
#X obj 101 434 outlet~;
#X obj 134 59 inlet;
#X obj 246 98 inlet;
#X obj 378 109 inlet;
#X msg 96 205 \$1 20;
#X obj 138 91 unpack 0 0 0 0;
#X obj 140 318 pack;
#X msg 142 341 \$1 \$2;
#X obj 141 297 bondo;
#X connect 0 0 1 0;
#X connect 1 0 2 0;
#X connect 1 1 4 0;
#X connect 2 0 3 0;
#X connect 3 0 15 0;
#X connect 4 0 5 0;
#X connect 5 0 6 0;
#X connect 6 0 7 0;
#X connect 7 0 19 0;
#X connect 8 0 11 0;
#X connect 9 0 8 1;
#X connect 10 0 0 0;
#X connect 10 0 8 0;
#X connect 12 0 16 0;
#X connect 13 0 4 1;
#X connect 14 0 4 2;
#X connect 15 0 9 0;
#X connect 16 0 1 1;
#X connect 16 1 4 1;
#X connect 16 2 4 2;
#X connect 16 3 19 1;
#X connect 17 0 18 0;
#X connect 18 0 9 0;
#X connect 19 0 17 0;
#X connect 19 1 17 1;
