#N canvas 164 207 785 622 10;
#X obj 99 124 env~;
#X obj 99 144 moses;
#X obj 99 165 bang;
#X msg 99 188 1;
#X obj 140 186 expr (($f1 - $f3)/$f2) - $f1 + $f3;
#X obj 141 230 + 100;
#X obj 143 253 dbtorms;
#X floatatom 140 277 9 0 0 0 - - -, f 9;
#X obj 96 388 *~;
#X obj 116 334 line~;
#X obj 65 58 inlet~;
#X obj 101 434 outlet~;
#X obj 169 -38 inlet;
#X obj 281 1 inlet;
#X obj 413 12 inlet;
#X msg 96 205 \$1 20;
#X obj 173 -6 unpack 0 0 0;
#X obj 361 109 env~;
#X obj 361 129 moses;
#X obj 361 150 bang;
#X msg 361 173 1;
#X obj 402 171 expr (($f1 - $f3)/$f2) - $f1 + $f3;
#X obj 403 215 + 100;
#X obj 405 238 dbtorms;
#X floatatom 402 262 9 0 0 0 - - -, f 9;
#X obj 358 373 *~;
#X obj 378 319 line~;
#X obj 96 4 inlet~;
#X obj 363 419 outlet~;
#X msg 358 190 \$1 20;
#X msg 142 310 \$1 20;
#X msg 404 295 \$1 20;
#X connect 0 0 1 0;
#X connect 1 0 2 0;
#X connect 1 1 4 0;
#X connect 2 0 3 0;
#X connect 3 0 15 0;
#X connect 4 0 5 0;
#X connect 5 0 6 0;
#X connect 6 0 7 0;
#X connect 7 0 30 0;
#X connect 8 0 11 0;
#X connect 9 0 8 1;
#X connect 10 0 0 0;
#X connect 10 0 8 0;
#X connect 12 0 16 0;
#X connect 13 0 4 1;
#X connect 13 0 21 1;
#X connect 14 0 4 2;
#X connect 14 0 21 2;
#X connect 15 0 9 0;
#X connect 16 0 1 1;
#X connect 16 0 18 1;
#X connect 16 1 4 1;
#X connect 16 1 21 1;
#X connect 16 2 4 2;
#X connect 16 2 21 2;
#X connect 17 0 18 0;
#X connect 18 0 19 0;
#X connect 18 1 21 0;
#X connect 19 0 20 0;
#X connect 20 0 29 0;
#X connect 21 0 22 0;
#X connect 22 0 23 0;
#X connect 23 0 24 0;
#X connect 24 0 31 0;
#X connect 25 0 28 0;
#X connect 26 0 25 1;
#X connect 27 0 17 0;
#X connect 27 0 25 0;
#X connect 29 0 26 0;
#X connect 30 0 9 0;
#X connect 31 0 26 0;
