#N canvas 483 122 450 300 10;
#X obj 35 92 ctlin;
#X obj 37 133 pack;
#X obj 37 186 s cm1;
#X obj 50 206 s cm2;
#X obj 63 226 s cm3;
#X obj 76 246 s cm4;
#X obj 90 186 s cm5;
#X obj 103 206 s cm6;
#X obj 116 226 s cm7;
#X obj 129 246 s cm8;
#X obj 143 186 s cm9;
#X obj 156 206 s cm10;
#X obj 169 226 s cm11;
#X obj 182 246 s cm12;
#X obj 196 186 s cm13;
#X obj 209 206 s cm14;
#X obj 222 226 s cm15;
#X obj 236 246 s cm16;
#X obj 249 187 s cm17;
#X obj 263 207 s cm18;
#X obj 275 227 s cm19;
#X obj 289 247 s cm20;
#X obj 302 187 s cm21;
#X obj 315 207 s cm22;
#X obj 328 227 s cm23;
#X obj 342 247 s cm24;
#X obj 355 187 s cm25;
#X obj 369 207 s cm26;
#X obj 35 111 != 0;
#X obj 37 152 route 1 14 15 16 17 18 19 20 21 22 23 24 25 26 27 28
29 30 31 80 81 82 83 85 86 87;
#X floatatom 67 123 5 0 0 0 - - -;
#X connect 0 0 28 0;
#X connect 0 1 1 0;
#X connect 0 2 30 0;
#X connect 1 0 29 0;
#X connect 28 0 1 1;
#X connect 29 0 2 0;
#X connect 29 1 3 0;
#X connect 29 2 4 0;
#X connect 29 3 5 0;
#X connect 29 4 6 0;
#X connect 29 5 7 0;
#X connect 29 6 8 0;
#X connect 29 7 9 0;
#X connect 29 8 10 0;
#X connect 29 9 11 0;
#X connect 29 10 12 0;
#X connect 29 11 13 0;
#X connect 29 12 14 0;
#X connect 29 13 15 0;
#X connect 29 14 16 0;
#X connect 29 15 17 0;
#X connect 29 16 18 0;
#X connect 29 17 19 0;
#X connect 29 18 20 0;
#X connect 29 19 21 0;
#X connect 29 20 22 0;
#X connect 29 21 23 0;
#X connect 29 22 24 0;
#X connect 29 23 25 0;
#X connect 29 24 26 0;
#X connect 29 25 27 0;
