#N canvas 0 96 1147 300 10;
#X obj 153 87 * 100;
#X obj 195 87 * 100;
#X obj 237 87 * 100;
#X obj 279 87 * 100;
#X obj 321 87 * 100;
#X obj 363 87 * 100;
#X obj 405 87 * 100;
#X obj 447 87 * 100;
#X obj 489 87 * 100;
#X obj 531 87 * 100;
#X obj 580 87 * 100;
#X obj 629 87 * 100;
#X obj 678 87 * 100;
#X obj 727 87 * 100;
#X obj 776 87 * 100;
#X obj 825 87 * 100;
#X obj 195 68 r b2m2;
#X obj 237 68 r b2m3;
#X obj 279 68 r b2m4;
#X obj 321 68 r b2m5;
#X obj 363 68 r b2m6;
#X obj 405 68 r b2m7;
#X obj 447 68 r b2m8;
#X obj 489 68 r b2m9;
#X obj 531 68 r b2m10;
#X obj 580 68 r b2m11;
#X obj 629 68 r b2m12;
#X obj 678 68 r b2m13;
#X obj 727 68 r b2m14;
#X obj 776 68 r b2m15;
#X obj 825 68 r b2m16;
#X obj 22 68 r b2f1;
#X obj 66 68 r b2f5;
#X obj 110 68 r b2f9;
#X obj 1074 87 * 100;
#X obj 1116 87 * 100;
#X obj 878 87 * 100;
#X obj 927 87 * 100;
#X obj 976 87 * 100;
#X obj 1025 87 * 100;
#X obj 878 68 r b2m65;
#X obj 927 68 r b2m66;
#X obj 976 68 r b2m67;
#X obj 1025 68 r b2m68;
#X obj 1116 68 r b2m70;
#X obj 1074 68 r b2m69;
#X obj 153 68 r b2m1;
#X obj 1165 87 * 100;
#X obj 1214 87 * 100;
#X obj 1165 68 r b2m71;
#X obj 1214 68 r b2m72;
#X obj 251 117 outlet;
#X obj 241 138 outlet;
#X obj 301 117 outlet;
#X obj 291 138 outlet;
#X obj 351 117 outlet;
#X obj 341 138 outlet;
#X obj 401 117 outlet;
#X obj 391 138 outlet;
#X obj 451 117 outlet;
#X obj 441 138 outlet;
#X obj 501 117 outlet;
#X obj 491 138 outlet;
#X obj 551 117 outlet;
#X obj 541 138 outlet;
#X obj 601 117 outlet;
#X obj 591 138 outlet;
#X obj 651 117 outlet;
#X obj 641 138 outlet;
#X obj 701 117 outlet;
#X obj 691 138 outlet;
#X obj 751 117 outlet;
#X obj 741 138 outlet;
#X obj 801 117 outlet;
#X obj 791 138 outlet;
#X obj 851 117 outlet;
#X obj 841 138 outlet;
#X obj 891 138 outlet;
#X connect 0 0 53 0;
#X connect 1 0 56 0;
#X connect 2 0 55 0;
#X connect 3 0 58 0;
#X connect 4 0 57 0;
#X connect 5 0 60 0;
#X connect 6 0 59 0;
#X connect 7 0 62 0;
#X connect 8 0 61 0;
#X connect 9 0 64 0;
#X connect 10 0 63 0;
#X connect 11 0 66 0;
#X connect 12 0 65 0;
#X connect 13 0 68 0;
#X connect 14 0 67 0;
#X connect 15 0 70 0;
#X connect 16 0 1 0;
#X connect 17 0 2 0;
#X connect 18 0 3 0;
#X connect 19 0 4 0;
#X connect 20 0 5 0;
#X connect 21 0 6 0;
#X connect 22 0 7 0;
#X connect 23 0 8 0;
#X connect 24 0 9 0;
#X connect 25 0 10 0;
#X connect 26 0 11 0;
#X connect 27 0 12 0;
#X connect 28 0 13 0;
#X connect 29 0 14 0;
#X connect 30 0 15 0;
#X connect 31 0 52 0;
#X connect 32 0 51 0;
#X connect 33 0 54 0;
#X connect 34 0 73 0;
#X connect 35 0 76 0;
#X connect 36 0 69 0;
#X connect 37 0 72 0;
#X connect 38 0 71 0;
#X connect 39 0 74 0;
#X connect 40 0 36 0;
#X connect 41 0 37 0;
#X connect 42 0 38 0;
#X connect 43 0 39 0;
#X connect 44 0 35 0;
#X connect 45 0 34 0;
#X connect 46 0 0 0;
#X connect 47 0 75 0;
#X connect 48 0 77 0;
#X connect 49 0 47 0;
#X connect 50 0 48 0;
