#N canvas 0 96 1147 189 10;
#X obj 133 27 * 100;
#X obj 175 27 * 100;
#X obj 217 27 * 100;
#X obj 259 27 * 100;
#X obj 301 27 * 100;
#X obj 343 27 * 100;
#X obj 385 27 * 100;
#X obj 427 27 * 100;
#X obj 469 27 * 100;
#X obj 511 27 * 100;
#X obj 560 27 * 100;
#X obj 609 27 * 100;
#X obj 658 27 * 100;
#X obj 707 27 * 100;
#X obj 756 27 * 100;
#X obj 805 27 * 100;
#X obj 1054 27 * 100;
#X obj 1096 27 * 100;
#X obj 858 27 * 100;
#X obj 907 27 * 100;
#X obj 956 27 * 100;
#X obj 1005 27 * 100;
#X obj 1145 27 * 100;
#X obj 1194 27 * 100;
#X obj 231 57 outlet;
#X obj 221 78 outlet;
#X obj 281 57 outlet;
#X obj 271 78 outlet;
#X obj 331 57 outlet;
#X obj 321 78 outlet;
#X obj 381 57 outlet;
#X obj 371 78 outlet;
#X obj 431 57 outlet;
#X obj 421 78 outlet;
#X obj 481 57 outlet;
#X obj 471 78 outlet;
#X obj 531 57 outlet;
#X obj 521 78 outlet;
#X obj 581 57 outlet;
#X obj 571 78 outlet;
#X obj 631 57 outlet;
#X obj 621 78 outlet;
#X obj 681 57 outlet;
#X obj 671 78 outlet;
#X obj 731 57 outlet;
#X obj 721 78 outlet;
#X obj 781 57 outlet;
#X obj 771 78 outlet;
#X obj 831 57 outlet;
#X obj 821 78 outlet;
#X obj 871 78 outlet;
#X obj 2 8 r b2f3;
#X obj 46 8 r b2f7;
#X obj 90 8 r b2f11;
#X obj 133 8 r b2m33;
#X obj 175 8 r b2m34;
#X obj 217 8 r b2m35;
#X obj 259 8 r b2m36;
#X obj 301 8 r b2m37;
#X obj 343 8 r b2m38;
#X obj 385 8 r b2m39;
#X obj 427 8 r b2m40;
#X obj 469 8 r b2m41;
#X obj 509 8 r b2m42;
#X obj 560 8 r b2m43;
#X obj 609 8 r b2m44;
#X obj 658 8 r b2m45;
#X obj 707 8 r b2m46;
#X obj 756 8 r b2m47;
#X obj 805 8 r b2m48;
#X obj 858 8 r b2m73;
#X obj 907 8 r b2m74;
#X obj 955 8 r b2m75;
#X obj 1005 8 r b2m76;
#X obj 1054 8 r b2m77;
#X obj 1096 8 r b2m78;
#X obj 1145 8 r b2m79;
#X obj 1194 8 r b2m80;
#X connect 0 0 26 0;
#X connect 1 0 29 0;
#X connect 2 0 28 0;
#X connect 3 0 31 0;
#X connect 4 0 30 0;
#X connect 5 0 33 0;
#X connect 6 0 32 0;
#X connect 7 0 35 0;
#X connect 8 0 34 0;
#X connect 9 0 37 0;
#X connect 10 0 36 0;
#X connect 11 0 39 0;
#X connect 12 0 38 0;
#X connect 13 0 41 0;
#X connect 14 0 40 0;
#X connect 15 0 43 0;
#X connect 16 0 46 0;
#X connect 17 0 49 0;
#X connect 18 0 42 0;
#X connect 19 0 45 0;
#X connect 20 0 44 0;
#X connect 21 0 47 0;
#X connect 22 0 48 0;
#X connect 23 0 50 0;
#X connect 51 0 25 0;
#X connect 52 0 24 0;
#X connect 53 0 27 0;
#X connect 54 0 0 0;
#X connect 55 0 1 0;
#X connect 56 0 2 0;
#X connect 57 0 3 0;
#X connect 58 0 4 0;
#X connect 59 0 5 0;
#X connect 60 0 6 0;
#X connect 61 0 7 0;
#X connect 62 0 8 0;
#X connect 63 0 9 0;
#X connect 64 0 10 0;
#X connect 65 0 11 0;
#X connect 66 0 12 0;
#X connect 67 0 13 0;
#X connect 68 0 14 0;
#X connect 69 0 15 0;
#X connect 70 0 18 0;
#X connect 71 0 19 0;
#X connect 72 0 20 0;
#X connect 73 0 21 0;
#X connect 74 0 16 0;
#X connect 75 0 17 0;
#X connect 76 0 22 0;
#X connect 77 0 23 0;
