#N canvas 345 200 450 300 10;
#X obj 106 112 phasor~;
#X obj 167 111 phasor~;
#X obj 111 155 +~;
#X msg 201 85 0;
#X msg 167 84 0.5;
#X obj 94 187 -~ 0.5;
#X obj 137 68 *~ -1;
#X obj 93 245 outlet~;
#X obj 131 44 sig~;
#X obj 109 9 inlet;
#X obj 223 16 loadbang;
#X connect 0 0 2 0;
#X connect 1 0 2 1;
#X connect 2 0 5 0;
#X connect 3 0 1 1;
#X connect 4 0 0 1;
#X connect 5 0 7 0;
#X connect 6 0 1 0;
#X connect 8 0 6 0;
#X connect 9 0 0 0;
#X connect 9 0 8 0;
#X connect 10 0 3 0;
#X connect 10 0 4 0;
