#N canvas 0 0 720 534 10;
#X obj 230 155 random;
#X obj 276 91 int;
#X obj 238 114 expr 100*($f1-$f2);
#X obj 230 70 inlet;
#X obj 230 213 outlet;
#X obj 276 70 inlet;
#X obj 230 181 expr (($f1-($f2/2))+$f3)/100;
#X connect 0 0 6 0;
#X connect 1 0 2 1;
#X connect 1 0 6 2;
#X connect 2 0 0 1;
#X connect 2 0 6 1;
#X connect 3 0 0 0;
#X connect 5 0 2 0;
#X connect 5 0 1 0;
#X connect 6 0 4 0;
