#N canvas 1 201 450 300 10;
#X obj 181 149 compresion;
#X obj 180 228 compresion;
#X obj 381 147 loadbang;
#X obj 178 110 inlet~;
#X obj 179 269 outlet~;
#X obj 259 105 inlet;
#X obj 310 103 inlet;
#X obj 182 250 *~;
#X msg 304 132 40 15 180 30;
#X msg 312 164 60 2 80 30;
#X connect 0 0 1 0;
#X connect 1 0 7 0;
#X connect 2 0 9 0;
#X connect 2 0 8 0;
#X connect 3 0 0 0;
#X connect 5 0 0 3;
#X connect 6 0 7 1;
#X connect 7 0 4 0;
#X connect 8 0 0 1;
#X connect 9 0 1 1;
