#N canvas 266 106 804 735 10;
#X obj 55 205 f;
#X obj 80 205 + 1;
#X obj 55 130 bang;
#X obj 55 256 % 9;
#X obj 17 299 sel 1;
#X obj 17 277 < 8;
#X obj 77 153 / 8;
#X obj 77 184 *;
#X obj 55 299 pack;
#X obj 55 111 t b f;
#X obj 55 229 - 1;
#X msg 58 537 0 \, 15105.5 326;
#X msg 68 557 15105.5 \, 30211 326;
#X msg 58 399 set \$1;
#X msg 58 418 addcomma;
#X msg 68 475 addcomma;
#X msg 131 418 addcomma;
#X msg 141 475 addcomma;
#X msg 203 418 addcomma;
#X msg 213 475 addcomma;
#X msg 276 418 addcomma;
#X msg 286 475 addcomma;
#X msg 58 437 add2 \$2 \$10;
#X msg 68 456 set \$2;
#X msg 68 494 add2 \$3 \$10;
#X msg 131 399 set \$3;
#X msg 131 437 add2 \$4 \$10;
#X msg 141 456 set \$4;
#X msg 141 494 add2 \$5 \$10;
#X msg 203 399 set \$5;
#X msg 203 437 add2 \$6 \$10;
#X msg 213 456 set \$6;
#X msg 213 494 add2 \$7 \$10;
#X msg 276 399 set \$7;
#X msg 276 437 add2 \$8 \$10;
#X msg 286 456 set \$8;
#X msg 286 494 add2 \$9 \$10;
#X msg 207 537 30211 \, 45316.5 326;
#X msg 217 557 45316.5 \, 60422 326;
#X msg 358 537 60422 \, 75527.5 326;
#X msg 368 557 75527.5 \, 90633 326;
#X msg 507 537 90633 \, 105738 326;
#X msg 517 557 105738 \, 120844 326;
#X obj 58 578 line~;
#X obj 58 514 r faseuno;
#X obj 119 514 r fasedos;
#X obj 180 514 r fasetres;
#X obj 247 514 r fasecuatro;
#X obj 326 514 r fasecinco;
#X obj 399 514 r faseseis;
#X obj 467 514 r fasesiete;
#X obj 540 514 r faseocho;
#X obj 339 658 /;
#X obj 340 639 line;
#X obj 339 679 s secciones;
#X obj 58 623 outlet~;
#X obj 58 601 tabread4~ r0;
#X obj 67 336 route 8 0 1 2 3 4 5 6 7;
#X obj 58 378 pack f f f f f f f f f f;
#X obj 55 91 selsec;
#X obj 55 72 inlet;
#X obj 71 52 inlet;
#X obj 88 32 inlet;
#X obj 479 165 inlet;
#X obj 34 332 bang;
#X obj 122 140 s divisorS;
#X floatatom 199 127 5 0 0 0 - - -;
#X connect 0 0 1 0;
#X connect 0 0 10 0;
#X connect 1 0 0 1;
#X connect 2 0 0 0;
#X connect 2 0 7 0;
#X connect 3 0 5 0;
#X connect 3 0 7 1;
#X connect 3 0 8 0;
#X connect 4 0 2 0;
#X connect 5 0 4 0;
#X connect 6 0 7 0;
#X connect 7 0 8 1;
#X connect 8 0 57 0;
#X connect 9 0 2 0;
#X connect 9 1 6 0;
#X connect 9 1 2 0;
#X connect 10 0 3 0;
#X connect 11 0 43 0;
#X connect 11 0 53 0;
#X connect 12 0 43 0;
#X connect 12 0 53 0;
#X connect 13 0 11 0;
#X connect 14 0 11 0;
#X connect 15 0 12 0;
#X connect 16 0 37 0;
#X connect 17 0 38 0;
#X connect 18 0 39 0;
#X connect 19 0 40 0;
#X connect 20 0 41 0;
#X connect 21 0 42 0;
#X connect 22 0 11 0;
#X connect 23 0 12 0;
#X connect 24 0 12 0;
#X connect 25 0 37 0;
#X connect 26 0 37 0;
#X connect 27 0 38 0;
#X connect 28 0 38 0;
#X connect 29 0 39 0;
#X connect 30 0 39 0;
#X connect 31 0 40 0;
#X connect 32 0 40 0;
#X connect 33 0 41 0;
#X connect 34 0 41 0;
#X connect 35 0 42 0;
#X connect 36 0 42 0;
#X connect 37 0 43 0;
#X connect 37 0 53 0;
#X connect 38 0 43 0;
#X connect 38 0 53 0;
#X connect 39 0 43 0;
#X connect 39 0 53 0;
#X connect 40 0 43 0;
#X connect 40 0 53 0;
#X connect 41 0 43 0;
#X connect 41 0 53 0;
#X connect 42 0 43 0;
#X connect 42 0 53 0;
#X connect 43 0 56 0;
#X connect 44 0 11 0;
#X connect 45 0 12 0;
#X connect 46 0 37 0;
#X connect 47 0 38 0;
#X connect 48 0 39 0;
#X connect 49 0 40 0;
#X connect 50 0 41 0;
#X connect 51 0 42 0;
#X connect 52 0 54 0;
#X connect 53 0 52 0;
#X connect 56 0 55 0;
#X connect 57 0 58 0;
#X connect 57 1 58 1;
#X connect 57 2 58 2;
#X connect 57 3 58 3;
#X connect 57 4 58 4;
#X connect 57 5 58 5;
#X connect 57 6 58 6;
#X connect 57 7 58 7;
#X connect 57 8 58 8;
#X connect 58 0 13 0;
#X connect 58 0 14 0;
#X connect 58 0 22 0;
#X connect 58 0 23 0;
#X connect 58 0 15 0;
#X connect 58 0 24 0;
#X connect 58 0 25 0;
#X connect 58 0 16 0;
#X connect 58 0 26 0;
#X connect 58 0 27 0;
#X connect 58 0 17 0;
#X connect 58 0 28 0;
#X connect 58 0 29 0;
#X connect 58 0 18 0;
#X connect 58 0 30 0;
#X connect 58 0 31 0;
#X connect 58 0 19 0;
#X connect 58 0 32 0;
#X connect 58 0 33 0;
#X connect 58 0 20 0;
#X connect 58 0 34 0;
#X connect 58 0 35 0;
#X connect 58 0 21 0;
#X connect 58 0 36 0;
#X connect 59 0 56 0;
#X connect 59 1 9 0;
#X connect 59 2 65 0;
#X connect 59 2 66 0;
#X connect 60 0 59 0;
#X connect 61 0 59 1;
#X connect 62 0 59 2;
#X connect 63 0 58 9;
#X connect 63 0 64 0;
#X connect 64 0 58 0;
