#N canvas 373 333 450 351 10;
#X obj 254 183 bp~;
#X obj 190 26 inlet~;
#X obj 247 105 loadbang;
#X obj 227 294 outlet~;
#X obj 227 203 *~;
#X obj 254 204 *~;
#X obj 281 204 *~;
#X msg 338 161 3;
#X obj 233 26 inlet;
#X obj 234 144 unpack 0 0 0;
#X obj 104 138 hsl 93 15 0 30 0 0 empty empty empty -2 -8 0 10 -262144
-1 -1 1227 1;
#X obj 319 70 unpack 0 0 0 0;
#X obj 271 26 inlet;
#X obj 225 269 *~;
#X obj 309 28 inlet;
#X obj 280 183 hip~;
#X obj 227 183 lop~;
#X msg 257 124 120 960 15360;
#X connect 0 0 5 0;
#X connect 1 0 0 0;
#X connect 1 0 15 0;
#X connect 1 0 16 0;
#X connect 2 0 7 0;
#X connect 2 0 17 0;
#X connect 4 0 13 0;
#X connect 5 0 13 0;
#X connect 6 0 13 0;
#X connect 7 0 0 2;
#X connect 8 0 9 0;
#X connect 9 0 16 1;
#X connect 9 1 0 1;
#X connect 9 2 15 1;
#X connect 10 0 0 2;
#X connect 11 0 4 1;
#X connect 11 1 5 1;
#X connect 11 2 6 1;
#X connect 11 3 10 0;
#X connect 12 0 11 0;
#X connect 13 0 3 0;
#X connect 14 0 13 1;
#X connect 15 0 6 0;
#X connect 16 0 4 0;
#X connect 17 0 9 0;
#X coords 0 351 1 350 100 55 0;
