#N canvas 653 289 450 300 10;
#N canvas 34 164 450 300 celda 0;
#X obj 97 66 r an2;
#X floatatom 97 90 5 0 0 0 - - -;
#X obj 95 227 s foto;
#X obj 95 149 tabread exp;
#X obj 95 114 expr (($f1-15)/80)*256;
#X obj 95 176 * 1.217;
#X obj 149 206 spigot;
#X obj 191 181 r di3;
#X connect 0 0 1 0;
#X connect 1 0 4 0;
#X connect 3 0 5 0;
#X connect 4 0 3 0;
#X connect 5 0 6 0;
#X connect 6 0 2 0;
#X connect 7 0 6 1;
#X restore 60 120 pd celda;
#N canvas 293 339 809 273 sampler 0;
#X obj 22 88 vradio 15 1 0 4 empty empty empty 0 -8 0 10 -262144 -1
-1 0;
#X obj 42 88 vradio 15 1 0 4 empty empty empty 0 -8 0 10 -262144 -1
-1 0;
#X obj 101 21 vradio 15 1 0 8 empty empty empty 0 -8 0 10 -262144 -1
-1 0;
#X obj 155 64 vradio 15 1 0 4 empty empty empty 0 -8 0 10 -262144 -1
-1 0;
#X obj 178 61 vradio 15 1 0 4 empty empty empty 0 -8 0 10 -262144 -1
-1 0;
#X obj 216 4 vradio 15 1 0 8 empty empty empty 0 -8 0 10 -262144 -1
-1 0;
#X obj 259 80 vradio 15 1 0 4 empty empty empty 0 -8 0 10 -262144 -1
-1 0;
#X obj 278 80 vradio 15 1 0 4 empty empty empty 0 -8 0 10 -262144 -1
-1 0;
#X obj 334 20 vradio 15 1 0 8 empty empty empty 0 -8 0 10 -262144 -1
-1 0;
#X obj 365 88 vradio 15 1 0 4 empty empty empty 0 -8 0 10 -262144 -1
-1 0;
#X obj 383 88 vradio 15 1 0 4 empty empty empty 0 -8 0 10 -262144 -1
-1 0;
#X obj 449 20 vradio 15 1 0 8 empty empty empty 0 -8 0 10 -262144 -1
-1 0;
#X obj 486 80 vradio 15 1 0 4 empty empty empty 0 -8 0 10 -262144 -1
-1 0;
#X obj 506 80 vradio 15 1 0 4 empty empty empty 0 -8 0 10 -262144 -1
-1 0;
#X obj 566 20 vradio 15 1 0 8 empty empty empty 0 -8 0 10 -262144 -1
-1 0;
#X obj 19 151 SamplerUnop;
#X obj 38 -9 r di2;
#X obj 156 132 SamplerDosp;
#X obj 251 149 SamplerTresp;
#X obj 354 155 SamplerCuatrop;
#X obj 467 143 SamplerCincop;
#X obj -88 30 r cosador;
#X obj 164 -11 r di4;
#X obj 260 -5 r di6;
#X obj 511 -4 r di10;
#X obj 240 209 *~;
#X obj 239 242 dac~;
#X obj -74 98 dumpOSC 5555;
#X obj 5 227 print;
#X obj -59 134 route /;
#X obj -59 158 unpack;
#X obj -5 189 s soundfilero;
#X obj -68 197 s cosador;
#X obj 306 214 hsl 128 15 0 1 0 0 empty empty empty -2 -8 0 10 -262144
-1 -1 0 1;
#X floatatom -55 226 5 0 0 0 - - -;
#X obj -31 14 change;
#X obj -57 -7 r soundfilero;
#X obj -78 228 bng 15 250 50 0 empty empty empty 17 7 0 10 -262144
-1 -1;
#N canvas 1 23 450 300 volumador 0;
#X obj 229 197 line~;
#X obj 214 241 *~;
#X msg 235 147 0 200;
#X msg 307 151 0.5 200;
#X obj 245 100 sel 0 1;
#X obj 205 61 inlet~;
#X obj 286 53 inlet;
#X obj 214 264 outlet~;
#X connect 0 0 1 1;
#X connect 1 0 7 0;
#X connect 2 0 0 0;
#X connect 3 0 0 0;
#X connect 4 0 2 0;
#X connect 4 1 3 0;
#X connect 5 0 1 0;
#X connect 6 0 4 0;
#X restore 95 178 pd volumador;
#N canvas 1 23 450 300 volumador 0;
#X obj 229 197 line~;
#X obj 214 241 *~;
#X msg 235 147 0 200;
#X msg 307 151 0.5 200;
#X obj 245 100 sel 0 1;
#X obj 205 61 inlet~;
#X obj 286 53 inlet;
#X obj 214 264 outlet~;
#X connect 0 0 1 1;
#X connect 1 0 7 0;
#X connect 2 0 0 0;
#X connect 3 0 0 0;
#X connect 4 0 2 0;
#X connect 4 1 3 0;
#X connect 5 0 1 0;
#X connect 6 0 4 0;
#X restore 182 179 pd volumador;
#N canvas 1 23 450 300 volumador 0;
#X obj 229 197 line~;
#X obj 214 241 *~;
#X msg 235 147 0 200;
#X msg 307 151 0.5 200;
#X obj 245 100 sel 0 1;
#X obj 205 61 inlet~;
#X obj 286 53 inlet;
#X obj 214 264 outlet~;
#X connect 0 0 1 1;
#X connect 1 0 7 0;
#X connect 2 0 0 0;
#X connect 3 0 0 0;
#X connect 4 0 2 0;
#X connect 4 1 3 0;
#X connect 5 0 1 0;
#X connect 6 0 4 0;
#X restore 274 177 pd volumador;
#N canvas 1 23 450 300 volumador 0;
#X obj 229 197 line~;
#X obj 214 241 *~;
#X msg 235 147 0 200;
#X msg 307 151 0.5 200;
#X obj 245 100 sel 0 1;
#X obj 205 61 inlet~;
#X obj 286 53 inlet;
#X obj 214 264 outlet~;
#X connect 0 0 1 1;
#X connect 1 0 7 0;
#X connect 2 0 0 0;
#X connect 3 0 0 0;
#X connect 4 0 2 0;
#X connect 4 1 3 0;
#X connect 5 0 1 0;
#X connect 6 0 4 0;
#X restore 357 186 pd volumador;
#X floatatom 87 -7 5 0 0 0 - - -;
#X floatatom 622 21 5 0 0 0 - - cosador;
#X obj 162 10 sel 0 1;
#X obj 260 18 sel 0 1;
#X obj 379 19 sel 0 1;
#X obj 41 16 sel 0 1;
#X msg 44 39 0;
#X msg 71 40 1;
#X msg 160 33 0;
#X msg 187 34 1;
#X msg 260 40 0;
#X msg 287 41 1;
#X obj 380 -6 r di8;
#X msg 379 39 0;
#X obj 636 46 tgl 15 0 empty empty empty 17 7 0 10 -262144 -1 -1 0
1;
#X connect 0 0 15 1;
#X connect 1 0 15 2;
#X connect 2 0 15 5;
#X connect 3 0 17 1;
#X connect 4 0 17 2;
#X connect 5 0 17 5;
#X connect 6 0 18 1;
#X connect 7 0 18 2;
#X connect 8 0 18 5;
#X connect 9 0 19 1;
#X connect 10 0 19 2;
#X connect 11 0 19 5;
#X connect 12 0 20 1;
#X connect 13 0 20 2;
#X connect 14 0 20 5;
#X connect 15 0 38 0;
#X connect 16 0 47 0;
#X connect 17 0 39 0;
#X connect 18 0 40 0;
#X connect 19 0 41 0;
#X connect 21 0 15 0;
#X connect 21 0 17 0;
#X connect 21 0 18 0;
#X connect 21 0 19 0;
#X connect 21 0 20 0;
#X connect 21 0 34 0;
#X connect 22 0 44 0;
#X connect 23 0 45 0;
#X connect 24 0 20 3;
#X connect 25 0 26 1;
#X connect 25 0 26 0;
#X connect 27 0 29 0;
#X connect 29 0 30 0;
#X connect 30 0 32 0;
#X connect 30 1 31 0;
#X connect 33 0 25 1;
#X connect 35 0 15 4;
#X connect 35 0 17 4;
#X connect 35 0 18 4;
#X connect 35 0 19 4;
#X connect 35 0 20 4;
#X connect 36 0 35 0;
#X connect 37 0 34 0;
#X connect 38 0 25 0;
#X connect 39 0 25 0;
#X connect 40 0 25 0;
#X connect 41 0 25 0;
#X connect 42 0 35 0;
#X connect 44 0 50 0;
#X connect 44 1 51 0;
#X connect 45 0 52 0;
#X connect 45 1 53 0;
#X connect 46 0 55 0;
#X connect 47 0 48 0;
#X connect 47 1 49 0;
#X connect 48 0 40 1;
#X connect 48 0 41 1;
#X connect 49 0 38 1;
#X connect 49 0 39 1;
#X connect 50 0 38 1;
#X connect 50 0 41 1;
#X connect 51 0 39 1;
#X connect 51 0 40 1;
#X connect 52 0 38 1;
#X connect 52 0 39 1;
#X connect 53 0 40 1;
#X connect 53 0 41 1;
#X connect 54 0 46 0;
#X connect 55 0 19 3;
#X connect 55 0 18 3;
#X connect 55 0 17 3;
#X connect 55 0 15 3;
#X connect 56 0 19 3;
#X connect 56 0 18 3;
#X connect 56 0 17 3;
#X connect 56 0 15 3;
#X restore 48 150 pd sampler;
#X obj 374 -34 counter;
#X obj 363 21 pow;
#X floatatom 378 3 5 0 0 0 - - -;
#X obj 374 -77 metro;
#X obj 374 -114 tgl 15 0 empty empty empty 17 7 0 10 -262144 -1 -1
0 1;
#X msg 374 -56 set 0;
#X obj 363 -17 + 2;
#X obj 374 -98 sel 256;
#X obj 363 41 tabwrite exp;
#X obj 170 -126 r an1;
#X obj 170 -14 tabread penta;
#X obj 170 26 mtof;
#X obj 169 147 dac~;
#N canvas 5 115 450 300 penta 0;
#X obj 131 31 controladora;
#X obj 40 -84 counter 0 0;
#X obj 40 -63 % 12;
#X obj 95 -6 == 0;
#X obj 85 50 spigot;
#X obj 46 62 +;
#X obj 26 -39 expr if($f1==0 || $f1==2 || $f1==4 || $f1 == 7 ||$f1
== 9 \, $f1 \, 100);
#X obj 50 -5 < 12;
#X obj 30 17 spigot;
#X msg 61 -104 set 0;
#X obj 86 21 bondo;
#X obj 137 78 counter 0 0;
#X obj 138 58 t b;
#X obj 47 107 tabwrite penta;
#X obj 119 -78 metro 5;
#X obj 123 -104 tgl 15 0 empty empty empty 17 7 0 10 -262144 -1 -1
0 1;
#X obj 160 101 sel 50;
#N canvas 0 0 450 300 (subpatch) 0;
#X array penta 50 float 3;
#A 0 2 4 7 9 11 14 16 19 21 23 26 28 31 33 35 38 40 43 45 47 50 52
55 57 59 62 64 67 69 71 74 76 79 81 83 86 88 91 93 95 98 100 103 105
107 110 112 115 117 119;
#X coords 0 1 49 -1 200 140 1;
#X restore 229 24 graph;
#X connect 1 0 2 0;
#X connect 1 0 4 0;
#X connect 1 0 10 0;
#X connect 2 0 3 0;
#X connect 2 0 6 0;
#X connect 3 0 10 1;
#X connect 4 0 5 1;
#X connect 5 0 13 0;
#X connect 6 0 7 0;
#X connect 6 0 8 0;
#X connect 7 0 8 1;
#X connect 8 0 5 0;
#X connect 8 0 12 0;
#X connect 9 0 1 0;
#X connect 9 0 11 0;
#X connect 10 0 4 0;
#X connect 10 1 4 1;
#X connect 11 0 13 1;
#X connect 11 0 16 0;
#X connect 12 0 11 0;
#X connect 14 0 1 0;
#X connect 15 0 14 0;
#X connect 16 0 15 0;
#X connect 16 0 9 0;
#X restore 37 -77 pd penta;
#X floatatom 262 -14 5 0 0 0 - - -;
#X obj 172 7 expr ($f1 -4)+$f2;
#X obj 228 49 sel 1 0;
#X obj 228 99 line~;
#X obj 171 87 *~;
#X obj 170 -106 expr (($f1/127) * 256);
#X obj 170 -87 tabread exp;
#X obj 171 -67 expr ($f1/25000)*50;
#X obj 170 -44 int;
#X obj 228 30 r di11;
#N canvas 23 109 450 300 cargador 0;
#X obj 113 33 loadbang;
#X restore 22 -27 pd cargador;
#X obj 172 48 phasor~;
#X msg 228 71 0.15 300;
#X msg 301 71 0 300;
#N canvas 3 69 450 300 penta1 0;
#X obj 180 -4 tabread penta;
#X obj 180 36 mtof;
#X floatatom 272 -4 5 0 0 0 - - -;
#X obj 182 17 expr ($f1 -4)+$f2;
#X obj 238 59 sel 1 0;
#X obj 238 109 line~;
#X obj 181 98 *~;
#X obj 180 -96 expr (($f1/127) * 256);
#X obj 180 -77 tabread exp;
#X obj 181 -57 expr ($f1/25000)*50;
#X obj 180 -34 int;
#X msg 238 81 0.15 300;
#X msg 311 81 0 300;
#X obj 180 133 outlet~;
#X obj 180 -116 r an2;
#X obj 182 58 osc~;
#X obj 238 40 r di3;
#X connect 0 0 3 0;
#X connect 1 0 15 0;
#X connect 2 0 3 1;
#X connect 3 0 1 0;
#X connect 4 0 11 0;
#X connect 4 1 12 0;
#X connect 5 0 6 1;
#X connect 6 0 13 0;
#X connect 7 0 8 0;
#X connect 8 0 9 0;
#X connect 9 0 10 0;
#X connect 10 0 0 0;
#X connect 11 0 5 0;
#X connect 12 0 5 0;
#X connect 14 0 7 0;
#X connect 15 0 6 0;
#X connect 16 0 4 0;
#X restore 95 81 pd penta1;
#X connect 2 0 8 0;
#X connect 2 0 9 0;
#X connect 2 0 10 1;
#X connect 3 0 10 0;
#X connect 4 0 3 1;
#X connect 5 0 2 0;
#X connect 6 0 5 0;
#X connect 7 0 2 0;
#X connect 8 0 3 0;
#X connect 9 0 6 0;
#X connect 9 0 7 0;
#X connect 11 0 21 0;
#X connect 12 0 17 0;
#X connect 13 0 27 0;
#X connect 16 0 17 1;
#X connect 17 0 13 0;
#X connect 18 0 28 0;
#X connect 18 1 29 0;
#X connect 19 0 20 1;
#X connect 20 0 14 0;
#X connect 20 0 14 1;
#X connect 21 0 22 0;
#X connect 22 0 23 0;
#X connect 23 0 24 0;
#X connect 24 0 12 0;
#X connect 25 0 18 0;
#X connect 27 0 20 0;
#X connect 28 0 19 0;
#X connect 29 0 19 0;
#X connect 30 0 14 0;
#X connect 30 0 14 1;
