#N canvas 1 27 450 300 10;
#X obj 210 235 writesf~;
#X msg 210 215 open 3.wav \, start;
#X msg 210 196 set open \$1.wav;
#X msg 210 177 addcomma;
#X msg 210 136 add2 start;
#X obj 210 155 t b;
#X msg 210 115 3;
#X msg 210 75 set \$1;
#X obj 210 95 t b;
#X obj 210 55 inlet;
#X obj 248 55 inlet~;
#X obj 172 55 inlet;
#X msg 172 75 stop;
#X connect 1 0 0 0;
#X connect 2 0 1 0;
#X connect 3 0 1 0;
#X connect 4 0 1 0;
#X connect 4 0 5 0;
#X connect 5 0 1 0;
#X connect 6 0 2 0;
#X connect 6 0 3 0;
#X connect 6 0 4 0;
#X connect 7 0 6 0;
#X connect 7 0 8 0;
#X connect 8 0 6 0;
#X connect 9 0 7 0;
#X connect 10 0 0 0;
#X connect 11 0 12 0;
#X connect 12 0 0 0;
