#N canvas 6 23 1351 686 12;
#X obj 34 -398 phasor~;
#X obj 277 -261 samphold~;
#X obj 34 -175 +~;
#X obj 35 -73 *~;
#X obj 614 -253 samphold~;
#X obj 373 -179 +~;
#X obj 374 -77 *~;
#X obj 372 -311 wrap~;
#X obj 372 -339 +~ 0.5;
#X obj 36 -37 *~ 0.6;
#X obj 277 -439 *~ 62080;
#X text 91 -266 window \, here 256;
#X text 90 -249 samples in size;
#X text 91 -266 window \, here 256;
#X text 90 -249 samples in size;
#X text 91 -266 window \, here 256;
#X text 90 -249 samples in size;
#X text 429 -271 window \, here 256;
#X text 428 -254 samples in size;
#X text 429 -271 window \, here 256;
#X text 428 -254 samples in size;
#X text 429 -271 window \, here 256;
#X text 428 -254 samples in size;
#X obj 934 -247 samphold~;
#X obj 693 -173 +~;
#X obj 694 -71 *~;
#X obj 692 -305 wrap~;
#X text 749 -265 window \, here 256;
#X text 748 -248 samples in size;
#X text 749 -265 window \, here 256;
#X text 748 -248 samples in size;
#X text 749 -265 window \, here 256;
#X text 748 -248 samples in size;
#X obj 1245 -241 samphold~;
#X obj 1004 -167 +~;
#X obj 1005 -65 *~;
#X obj 1003 -299 wrap~;
#X text 1060 -259 window \, here 256;
#X text 1059 -242 samples in size;
#X text 1060 -259 window \, here 256;
#X text 1059 -242 samples in size;
#X text 1060 -259 window \, here 256;
#X text 1059 -242 samples in size;
#X obj 692 -333 +~ 0.25;
#X obj 1003 -327 +~ 0.75;
#X obj 33 -256 *~ 128;
#X obj 372 -260 *~ 128;
#X obj 692 -254 *~ 128;
#X obj 1003 -248 *~ 128;
#X obj 33 -423 line~;
#X msg 33 -448 \$1 128;
#X obj 34 -140 tabread4~ t0;
#X obj 373 -144 tabread4~ t0;
#X obj 693 -138 tabread4~ t0;
#X obj 1004 -132 tabread4~ t0;
#X obj 1211 -583 inlet;
#X obj 277 -490 inlet~;
#X obj 355 -489 inlet;
#X obj 37 43 outlet~;
#X obj 190 -452 snapshot~;
#X obj 207 -490 bng 15 250 50 0 empty empty empty 17 7 0 10 -262144
-1 -1;
#X floatatom 194 -420 10 0 0 0 - - -;
#X obj 1114 -161 sig~ 1;
#X obj 1169 -161 cos~;
#X obj 1112 -123 -~;
#X obj 1113 -98 *~ 0.5;
#X obj 804 -171 sig~ 1;
#X obj 859 -171 cos~;
#X obj 802 -133 -~;
#X obj 803 -108 *~ 0.5;
#X obj 474 -171 sig~ 1;
#X obj 529 -171 cos~;
#X obj 472 -133 -~;
#X obj 473 -108 *~ 0.5;
#X obj 174 -171 sig~ 1;
#X obj 229 -171 cos~;
#X obj 172 -133 -~;
#X obj 173 -108 *~ 0.5;
#X obj 119 -563 loadbang;
#X msg 123 -532 -1;
#X obj 36 -479 r afinaciones;
#X connect 0 0 1 1;
#X connect 0 0 8 0;
#X connect 0 0 43 0;
#X connect 0 0 44 0;
#X connect 0 0 45 0;
#X connect 0 0 75 0;
#X connect 1 0 2 1;
#X connect 2 0 51 0;
#X connect 3 0 9 0;
#X connect 4 0 5 1;
#X connect 5 0 52 0;
#X connect 6 0 9 0;
#X connect 7 0 4 1;
#X connect 7 0 46 0;
#X connect 7 0 71 0;
#X connect 8 0 7 0;
#X connect 9 0 58 0;
#X connect 10 0 1 0;
#X connect 10 0 4 0;
#X connect 10 0 23 0;
#X connect 10 0 33 0;
#X connect 23 0 24 1;
#X connect 24 0 53 0;
#X connect 25 0 9 0;
#X connect 26 0 23 1;
#X connect 26 0 47 0;
#X connect 26 0 67 0;
#X connect 33 0 34 1;
#X connect 34 0 54 0;
#X connect 35 0 9 0;
#X connect 36 0 33 1;
#X connect 36 0 48 0;
#X connect 36 0 63 0;
#X connect 43 0 26 0;
#X connect 44 0 36 0;
#X connect 45 0 2 0;
#X connect 46 0 5 0;
#X connect 47 0 24 0;
#X connect 48 0 34 0;
#X connect 49 0 0 0;
#X connect 50 0 49 0;
#X connect 51 0 3 0;
#X connect 52 0 6 0;
#X connect 53 0 25 0;
#X connect 54 0 35 0;
#X connect 55 0 51 0;
#X connect 55 0 52 0;
#X connect 55 0 53 0;
#X connect 55 0 54 0;
#X connect 56 0 10 0;
#X connect 56 0 59 0;
#X connect 57 0 10 1;
#X connect 59 0 61 0;
#X connect 60 0 59 0;
#X connect 62 0 64 0;
#X connect 63 0 64 1;
#X connect 64 0 65 0;
#X connect 65 0 35 1;
#X connect 66 0 68 0;
#X connect 67 0 68 1;
#X connect 68 0 69 0;
#X connect 69 0 25 1;
#X connect 70 0 72 0;
#X connect 71 0 72 1;
#X connect 72 0 73 0;
#X connect 73 0 6 1;
#X connect 74 0 76 0;
#X connect 75 0 76 1;
#X connect 76 0 77 0;
#X connect 77 0 3 1;
#X connect 78 0 79 0;
#X connect 79 0 50 0;
#X connect 80 0 50 0;
