#N canvas 23 225 450 300 10;
#X obj 59 137 adc~ 1;
#X obj 90 73 hsl 128 15 0 127 0 0 empty empty empty -2 -8 0 10 -262144
-1 -1 12700 1;
#X msg 87 93 \$1 20;
#X obj 87 116 line~;
#X obj 70 249 table \$1-buf;
#X obj 59 158 xrecord~ \$1-buf;
#X obj 117 137 unpack;
#X obj 20 97 print;
#X msg 59 51 loop 1 \, sigmode 1 \, draw 1 \, bang;
#X obj 59 26 bng 15 250 50 0 empty empty empty 17 7 0 10 -262144 -1
-1;
#X msg 87 28 reset \, bang;
#X obj 259 183 * 96;
#X obj 321 163 timer;
#X obj 317 114 sel 1 0;
#X obj 316 69 tgl 15 0 empty empty empty 17 7 0 10 -262144 -1 -1 1
1;
#X obj 426 32 key;
#X obj 368 162 timer;
#X obj 370 113 sel 1 0;
#X obj 360 67 tgl 15 0 empty empty empty 17 7 0 10 -262144 -1 -1 0
1;
#X obj 305 31 loadbang;
#X msg 305 50 1;
#X obj 362 34 sel 108;
#X floatatom 320 200 5 0 0 0 - - -, f 5;
#X msg 177 106 0 \$1;
#X msg 173 28 mix 2;
#X obj 164 218 xplay~ \$1-buf;
#X obj 164 241 *~ 1;
#X obj 164 264 dac~;
#X obj 180 163 phasor~;
#X obj 180 186 *~;
#X obj 182 140 hsl 128 15 -100 100 0 0 empty empty empty -2 -8 0 10
-262144 -1 -1 12700 0;
#X obj 237 101 bng 15 250 50 0 empty empty empty 17 7 0 10 -262144
-1 -1;
#X obj 231 261 print;
#X connect 0 0 5 0;
#X connect 1 0 2 0;
#X connect 2 0 3 0;
#X connect 3 0 5 1;
#X connect 6 0 5 2;
#X connect 6 1 5 3;
#X connect 8 0 5 0;
#X connect 8 0 7 0;
#X connect 9 0 5 0;
#X connect 10 0 5 0;
#X connect 11 0 23 0;
#X connect 11 0 29 1;
#X connect 12 0 22 0;
#X connect 13 0 12 0;
#X connect 13 1 12 1;
#X connect 14 0 13 0;
#X connect 15 0 21 0;
#X connect 16 0 22 0;
#X connect 17 0 16 0;
#X connect 17 1 16 1;
#X connect 18 0 17 0;
#X connect 19 0 20 0;
#X connect 20 0 18 0;
#X connect 21 0 14 0;
#X connect 21 0 18 0;
#X connect 22 0 11 0;
#X connect 23 0 6 0;
#X connect 24 0 5 0;
#X connect 25 0 26 0;
#X connect 25 1 32 0;
#X connect 26 0 27 0;
#X connect 26 0 27 1;
#X connect 28 0 29 0;
#X connect 29 0 25 0;
#X connect 30 0 28 0;
#X connect 31 0 25 0;
