#N canvas 478 224 512 431 10;
#X obj 17 20 unpackOSC;
#X msg 283 247 disconnect;
#X obj 410 210 packOSC;
#X msg 271 195 send /2/led\$1 1;
#X msg 381 130 send /2/led\$1 0;
#X obj 271 58 r leds;
#X obj 271 39 loadbang;
#X obj 410 233 r touch;
#N canvas 269 139 760 642 simple 0;
#X obj 11 13 inlet;
#X obj 11 58 s 1f1;
#X obj 76 58 s 1f2;
#X obj 141 58 s 1f3;
#X obj 207 58 s 1f4;
#X obj 272 58 s 1f5;
#X obj 11 96 s 1t1;
#X obj 83 96 s 1t2;
#X obj 156 96 s 1t3;
#X obj 229 96 s 1t4;
#X obj 11 77 route /1/toggle1 /1/toggle2 /1/toggle3 /1/toggle4;
#X obj 11 115 route /2/push1 /2/push2 /2/push3 /2/push4 /2/push5 /2/push6
/2/push7 /2/push8 /2/push9 /2/push10 /2/push11 /2/push12 /2/push13
/2/push14 /2/push15 /2/push16;
#X obj 11 198 route /2/toggle1 /2/toggle2 /2/toggle3 /2/toggle4;
#X obj 11 217 s 2t1;
#X obj 83 217 s 2t2;
#X obj 156 217 s 2t3;
#X obj 229 217 s 2t4;
#X obj 11 160 s 2p1;
#X obj 32 179 s 2p2;
#X obj 54 160 s 2p3;
#X obj 76 179 s 2p4;
#X obj 98 160 s 2p5;
#X obj 120 179 s 2p6;
#X obj 142 160 s 2p7;
#X obj 164 179 s 2p8;
#X obj 186 160 s 2p9;
#X obj 208 179 s 2p10;
#X obj 230 160 s 2p11;
#X obj 252 179 s 2p12;
#X obj 274 160 s 2p13;
#X obj 296 179 s 2p14;
#X obj 318 160 s 2p15;
#X obj 340 179 s 2p16;
#X obj 11 236 route /3/toggle1 /3/toggle2 /3/toggle3 /3/toggle4 /3/xy
;
#X obj 272 255 unpack;
#X obj 11 255 s 3t1;
#X obj 76 255 s 3t2;
#X obj 141 255 s 3t3;
#X obj 207 255 s 3t4;
#X obj 272 274 s 3x;
#X obj 305 274 s 3y;
#X obj 12 294 route /4/multitoggle/1/1 /4/multitoggle/1/2 /4/multitoggle/1/3
/4/multitoggle/1/4 /4/multitoggle/1/5 /4/multitoggle/1/6 /4/multitoggle/1/7
/4/multitoggle/1/8 /4/multitoggle/2/1 /4/multitoggle/2/2 /4/multitoggle/2/3
/4/multitoggle/2/4 /4/multitoggle/2/5 /4/multitoggle/2/6 /4/multitoggle/2/7
/4/multitoggle/2/8;
#X obj 12 379 s 4m1;
#X obj 33 398 s 4m2;
#X obj 55 379 s 4m3;
#X obj 77 398 s 4m4;
#X obj 99 379 s 4m5;
#X obj 143 379 s 4m7;
#X obj 121 398 s 4m6;
#X obj 165 398 s 4m8;
#X obj 187 379 s 4m9;
#X obj 209 398 s 4m10;
#X obj 231 379 s 4m11;
#X obj 253 398 s 4m12;
#X obj 275 379 s 4m13;
#X obj 297 398 s 4m14;
#X obj 319 379 s 4m15;
#X obj 341 398 s 4m16;
#X obj 13 417 route /4/multitoggle/3/1 /4/multitoggle/3/2 /4/multitoggle/3/3
/4/multitoggle/3/4 /4/multitoggle/3/5 /4/multitoggle/3/6 /4/multitoggle/3/7
/4/multitoggle/3/8 /4/multitoggle/4/1 /4/multitoggle/3/2 /4/multitoggle/3/3
/4/multitoggle/3/4 /4/multitoggle/3/5 /4/multitoggle/3/6 /4/multitoggle/3/7
/4/multitoggle/3/8;
#X obj 384 503 route /4/multitoggle/7/1 /4/multitoggle/7/2 /4/multitoggle/7/3
/4/multitoggle/7/4 /4/multitoggle/7/5 /4/multitoggle/7/6 /4/multitoggle/7/7
/4/multitoggle/7/8 /4/multitoggle/8/1 /4/multitoggle/8/2 /4/multitoggle/8/3
/4/multitoggle/8/4 /4/multitoggle/8/5 /4/multitoggle/8/6 /4/multitoggle/8/7
/4/multitoggle/8/8;
#X obj 13 502 s 4m17;
#X obj 34 521 s 4m18;
#X obj 56 503 s 4m19;
#X obj 78 521 s 4m20;
#X obj 100 502 s 4m21;
#X obj 122 521 s 4m22;
#X obj 144 502 s 4m23;
#X obj 166 521 s 4m24;
#X obj 188 502 s 4m25;
#X obj 210 521 s 4m26;
#X obj 232 502 s 4m27;
#X obj 254 521 s 4m28;
#X obj 276 502 s 4m29;
#X obj 298 521 s 4m30;
#X obj 320 502 s 4m31;
#X obj 342 521 s 4m32;
#X obj 384 588 s 4m49;
#X obj 405 607 s 4m50;
#X obj 427 588 s 4m51;
#X obj 449 607 s 4m52;
#X obj 471 588 s 4m53;
#X obj 493 607 s 4m54;
#X obj 515 588 s 4m55;
#X obj 537 607 s 4m56;
#X obj 559 588 s 4m57;
#X obj 581 607 s 4m58;
#X obj 603 588 s 4m59;
#X obj 625 607 s 4m60;
#X obj 647 588 s 4m61;
#X obj 669 607 s 4m62;
#X obj 691 588 s 4m63;
#X obj 713 607 s 4m64;
#X obj 296 568 route /accxyz;
#X obj 296 588 unpack 0 0 0;
#X obj 296 608 s ax;
#X obj 330 608 s ay;
#X obj 365 608 s az;
#X obj 14 547 route /4/toggle1 /4/toggle2 /4/toggle3 /4/toggle4;
#X obj 14 566 s 4t1;
#X obj 86 566 s 4t2;
#X obj 159 566 s 4t3;
#X obj 232 566 s 4t4;
#X obj 11 40 route /1/fader1 /1/fader2 /1/fader3 /1/fader4 /1/fader5
;
#X obj 384 37 route /1/fader1/z /1/fader2/z /1/fader3/z /1/fader4/z
/1/fader5/z;
#X obj 383 93 route /1/toggle1/z /1/toggle2/z /1/toggle3/z /1/toggle4/z
;
#X obj 383 112 s 1t1z;
#X obj 455 112 s 1t2z;
#X obj 528 112 s 1t3z;
#X obj 601 112 s 1t4z;
#X obj 384 72 s 1f1z;
#X obj 449 72 s 1f2z;
#X obj 514 72 s 1f3z;
#X obj 580 72 s 1f4z;
#X obj 645 72 s 1f5z;
#X obj 383 132 route /2/push1/z /2/push2/z /2/push3/z /2/push4/z /2/push5/z
/2/push6/z /2/push7/z /2/push8/z /2/push9/z /2/push10/z /2/push11/z
/2/push12/z /2/push13/z /2/push14/z /2/push15/z /2/push16/z;
#X obj 384 229 route /2/toggle1/z /2/toggle2/z /2/toggle3/z /2/toggle4/z
;
#X obj 404 209 s 2p2z;
#X obj 383 190 s 2p1z;
#X obj 426 190 s 2p3z;
#X obj 470 190 s 2p5z;
#X obj 514 190 s 2p7z;
#X obj 558 190 s 2p9z;
#X obj 602 190 s 2p11z;
#X obj 646 190 s 2p13z;
#X obj 690 190 s 2p15z;
#X obj 448 209 s 2p4z;
#X obj 492 209 s 2p6z;
#X obj 536 209 s 2p8z;
#X obj 580 209 s 2p10z;
#X obj 624 209 s 2p12z;
#X obj 668 209 s 2p14z;
#X obj 712 209 s 2p16z;
#X obj 384 248 s 2t1z;
#X obj 456 248 s 2t2z;
#X obj 529 248 s 2t3z;
#X obj 602 248 s 2t4z;
#X obj 655 301 s xyz;
#X obj 384 268 route /3/toggle1/z /3/toggle2/z /3/toggle3/z /3/toggle4/z
/3/xy/z;
#X obj 384 375 route /4/multitoggle/3/1 /4/multitoggle/3/2 /4/multitoggle/3/3
/4/multitoggle/3/4 /4/multitoggle/3/5 /4/multitoggle/3/6 /4/multitoggle/3/7
/4/multitoggle/3/8 /4/multitoggle/4/1 /4/multitoggle/3/2 /4/multitoggle/3/3
/4/multitoggle/3/4 /4/multitoggle/3/5 /4/multitoggle/3/6 /4/multitoggle/3/7
/4/multitoggle/3/8;
#X obj 384 460 s 4m17;
#X obj 405 479 s 4m18;
#X obj 427 461 s 4m19;
#X obj 449 479 s 4m20;
#X obj 471 460 s 4m21;
#X obj 493 479 s 4m22;
#X obj 515 460 s 4m23;
#X obj 537 479 s 4m24;
#X obj 559 460 s 4m25;
#X obj 581 479 s 4m26;
#X obj 603 460 s 4m27;
#X obj 625 479 s 4m28;
#X obj 647 460 s 4m29;
#X obj 669 479 s 4m30;
#X obj 691 460 s 4m31;
#X obj 713 479 s 4m32;
#X obj 384 322 route /4/toggle1 /4/toggle2 /4/toggle3 /4/toggle4 /4/multitoggle/z
;
#X obj 616 355 s mz;
#X obj 384 301 s 3t1z;
#X obj 449 301 s 3t2z;
#X obj 514 301 s 3t3z;
#X obj 580 301 s 3t4z;
#X obj 384 355 s 4t1z;
#X obj 442 355 s 4t2z;
#X obj 500 355 s 4t3z;
#X obj 558 355 s 4t4z;
#X connect 0 0 102 0;
#X connect 10 0 6 0;
#X connect 10 1 7 0;
#X connect 10 2 8 0;
#X connect 10 3 9 0;
#X connect 10 4 11 0;
#X connect 11 0 17 0;
#X connect 11 1 18 0;
#X connect 11 2 19 0;
#X connect 11 3 20 0;
#X connect 11 4 21 0;
#X connect 11 5 22 0;
#X connect 11 6 23 0;
#X connect 11 7 24 0;
#X connect 11 8 25 0;
#X connect 11 9 26 0;
#X connect 11 10 27 0;
#X connect 11 11 28 0;
#X connect 11 12 29 0;
#X connect 11 13 30 0;
#X connect 11 14 31 0;
#X connect 11 15 32 0;
#X connect 11 16 12 0;
#X connect 12 0 13 0;
#X connect 12 1 14 0;
#X connect 12 2 15 0;
#X connect 12 3 16 0;
#X connect 12 4 33 0;
#X connect 33 0 35 0;
#X connect 33 1 36 0;
#X connect 33 2 37 0;
#X connect 33 3 38 0;
#X connect 33 4 34 0;
#X connect 33 5 41 0;
#X connect 34 0 39 0;
#X connect 34 1 40 0;
#X connect 41 0 42 0;
#X connect 41 1 43 0;
#X connect 41 2 44 0;
#X connect 41 3 45 0;
#X connect 41 4 46 0;
#X connect 41 5 48 0;
#X connect 41 6 47 0;
#X connect 41 7 49 0;
#X connect 41 8 50 0;
#X connect 41 9 51 0;
#X connect 41 10 52 0;
#X connect 41 11 53 0;
#X connect 41 12 54 0;
#X connect 41 13 55 0;
#X connect 41 14 56 0;
#X connect 41 15 57 0;
#X connect 41 16 58 0;
#X connect 58 0 60 0;
#X connect 58 1 61 0;
#X connect 58 2 62 0;
#X connect 58 3 63 0;
#X connect 58 4 64 0;
#X connect 58 5 65 0;
#X connect 58 6 66 0;
#X connect 58 7 67 0;
#X connect 58 8 68 0;
#X connect 58 9 69 0;
#X connect 58 10 70 0;
#X connect 58 11 71 0;
#X connect 58 12 72 0;
#X connect 58 13 73 0;
#X connect 58 14 74 0;
#X connect 58 15 75 0;
#X connect 58 16 97 0;
#X connect 59 0 76 0;
#X connect 59 1 77 0;
#X connect 59 2 78 0;
#X connect 59 3 79 0;
#X connect 59 4 80 0;
#X connect 59 5 81 0;
#X connect 59 6 82 0;
#X connect 59 7 83 0;
#X connect 59 8 84 0;
#X connect 59 9 85 0;
#X connect 59 10 86 0;
#X connect 59 11 87 0;
#X connect 59 12 88 0;
#X connect 59 13 89 0;
#X connect 59 14 90 0;
#X connect 59 15 91 0;
#X connect 59 16 92 0;
#X connect 92 0 93 0;
#X connect 93 0 94 0;
#X connect 93 1 95 0;
#X connect 93 2 96 0;
#X connect 97 0 98 0;
#X connect 97 1 99 0;
#X connect 97 2 100 0;
#X connect 97 3 101 0;
#X connect 97 4 138 0;
#X connect 102 0 1 0;
#X connect 102 1 2 0;
#X connect 102 2 3 0;
#X connect 102 3 4 0;
#X connect 102 4 5 0;
#X connect 102 5 10 0;
#X connect 103 0 109 0;
#X connect 103 1 110 0;
#X connect 103 2 111 0;
#X connect 103 3 112 0;
#X connect 103 4 113 0;
#X connect 103 5 104 0;
#X connect 104 0 105 0;
#X connect 104 1 106 0;
#X connect 104 2 107 0;
#X connect 104 3 108 0;
#X connect 104 4 114 0;
#X connect 114 0 117 0;
#X connect 114 1 116 0;
#X connect 114 2 118 0;
#X connect 114 3 125 0;
#X connect 114 4 119 0;
#X connect 114 5 126 0;
#X connect 114 6 120 0;
#X connect 114 7 127 0;
#X connect 114 8 121 0;
#X connect 114 9 128 0;
#X connect 114 10 122 0;
#X connect 114 11 129 0;
#X connect 114 12 123 0;
#X connect 114 13 130 0;
#X connect 114 14 124 0;
#X connect 114 15 131 0;
#X connect 114 16 115 0;
#X connect 115 0 132 0;
#X connect 115 1 133 0;
#X connect 115 2 134 0;
#X connect 115 3 135 0;
#X connect 115 4 137 0;
#X connect 137 0 157 0;
#X connect 137 1 158 0;
#X connect 137 2 159 0;
#X connect 137 3 160 0;
#X connect 137 4 136 0;
#X connect 137 5 155 0;
#X connect 138 0 139 0;
#X connect 138 1 140 0;
#X connect 138 2 141 0;
#X connect 138 3 142 0;
#X connect 138 4 143 0;
#X connect 138 5 144 0;
#X connect 138 6 145 0;
#X connect 138 7 146 0;
#X connect 138 8 147 0;
#X connect 138 9 148 0;
#X connect 138 10 149 0;
#X connect 138 11 150 0;
#X connect 138 12 151 0;
#X connect 138 13 152 0;
#X connect 138 14 153 0;
#X connect 138 15 154 0;
#X connect 138 16 59 0;
#X connect 155 0 161 0;
#X connect 155 1 162 0;
#X connect 155 2 163 0;
#X connect 155 3 164 0;
#X connect 155 4 156 0;
#X restore 17 59 pd simple;
#N canvas 159 96 953 737 beatmachine 0;
#X obj 17 29 inlet;
#X obj 17 95 s b1f1;
#X obj 36 115 s b1f2;
#X obj 56 95 s b1t1;
#X obj 75 115 s b1t2;
#X obj 95 95 s b1p1;
#X obj 114 115 s b1p2;
#X obj 134 95 s b1p3;
#X obj 153 115 s b1p4;
#X obj 174 96 s b1p5;
#X obj 193 116 s b1p6;
#X obj 213 96 s b1p7;
#X obj 232 116 s b1p8;
#X obj 17 49 route /1/fader1 /1/fader2 /1/toggle1 /1/toggle2 /1/push1
/1/push2 /1/push3 /1/push4 /1/push5 /1/push6 /1/push7 /1/push8 /1/push9
/1/push10 /1/push11 /1/push12;
#X obj 252 96 s b1p9;
#X obj 271 116 s b1p10;
#X obj 291 96 s b1p11;
#X obj 310 116 s b1p12;
#X obj 18 141 route /2/multitoggle/6/1 /2/multitoggle/6/2 /2/multitoggle/6/3
/2/multitoggle/6/4 /2/multitoggle/6/5 /2/multitoggle/6/6 /2/multitoggle/6/7
/2/multitoggle/6/8 /2/multitoggle/6/9 /2/multitoggle/6/10 /2/multitoggle/6/11
/2/multitoggle/6/12 /2/multitoggle/6/13 /2/multitoggle/6/14 /2/multitoggle/6/15
/2/multitoggle/6/16;
#X obj 18 226 s b2m1;
#X obj 22 266 route /2/multitoggle/5/1 /2/multitoggle/5/2 /2/multitoggle/5/3
/2/multitoggle/5/4 /2/multitoggle/5/5 /2/multitoggle/5/6 /2/multitoggle/5/7
/2/multitoggle/5/8 /2/multitoggle/5/9 /2/multitoggle/5/10 /2/multitoggle/5/11
/2/multitoggle/5/12 /2/multitoggle/5/13 /2/multitoggle/5/14 /2/multitoggle/5/15
/2/multitoggle/5/16;
#X obj 61 226 s b2m3;
#X obj 83 245 s b2m4;
#X obj 106 226 s b2m5;
#X obj 127 245 s b2m6;
#X obj 149 226 s b2m7;
#X obj 171 245 s b2m8;
#X obj 194 227 s b2m9;
#X obj 215 246 s b2m10;
#X obj 237 227 s b2m11;
#X obj 259 246 s b2m12;
#X obj 282 227 s b2m13;
#X obj 303 246 s b2m14;
#X obj 325 227 s b2m15;
#X obj 347 246 s b2m16;
#X obj 39 245 s b2m2;
#X obj 22 351 s b2m17;
#X obj 43 370 s b2m18;
#X obj 65 351 s b2m19;
#X obj 87 370 s b2m20;
#X obj 110 351 s b2m21;
#X obj 131 370 s b2m22;
#X obj 153 351 s b2m23;
#X obj 175 370 s b2m24;
#X obj 198 352 s b2m25;
#X obj 219 371 s b2m26;
#X obj 241 352 s b2m27;
#X obj 263 371 s b2m28;
#X obj 286 352 s b2m29;
#X obj 307 371 s b2m30;
#X obj 329 352 s b2m31;
#X obj 351 371 s b2m32;
#X obj 26 479 s b2m33;
#X obj 47 498 s b2m34;
#X obj 69 479 s b2m35;
#X obj 91 498 s b2m36;
#X obj 114 479 s b2m37;
#X obj 135 498 s b2m38;
#X obj 157 479 s b2m39;
#X obj 179 498 s b2m40;
#X obj 202 480 s b2m41;
#X obj 223 499 s b2m42;
#X obj 245 480 s b2m43;
#X obj 267 499 s b2m44;
#X obj 290 480 s b2m45;
#X obj 311 499 s b2m46;
#X obj 333 480 s b2m47;
#X obj 355 499 s b2m48;
#X obj 403 48 route /2/multitoggle/3/1 /2/multitoggle/3/2 /2/multitoggle/3/3
/2/multitoggle/3/4 /2/multitoggle/3/5 /2/multitoggle/3/6 /2/multitoggle/3/7
/2/multitoggle/3/8 /2/multitoggle/3/9 /2/multitoggle/3/10 /2/multitoggle/3/11
/2/multitoggle/3/12 /2/multitoggle/3/13 /2/multitoggle/3/14 /2/multitoggle/3/15
/2/multitoggle/3/16;
#X obj 407 173 route /2/multitoggle/2/1 /2/multitoggle/2/2 /2/multitoggle/2/3
/2/multitoggle/2/4 /2/multitoggle/2/5 /2/multitoggle/2/6 /2/multitoggle/2/7
/2/multitoggle/2/8 /2/multitoggle/2/9 /2/multitoggle/2/10 /2/multitoggle/2/11
/2/multitoggle/2/12 /2/multitoggle/2/13 /2/multitoggle/2/14 /2/multitoggle/2/15
/2/multitoggle/2/16;
#X obj 403 133 s b2m49;
#X obj 424 152 s b2m50;
#X obj 446 133 s b2m51;
#X obj 468 152 s b2m52;
#X obj 491 133 s b2m53;
#X obj 512 152 s b2m54;
#X obj 534 133 s b2m55;
#X obj 556 152 s b2m56;
#X obj 579 134 s b2m57;
#X obj 600 153 s b2m58;
#X obj 622 134 s b2m59;
#X obj 644 153 s b2m60;
#X obj 668 134 s b2m61;
#X obj 688 153 s b2m62;
#X obj 710 134 s b2m63;
#X obj 732 153 s b2m64;
#X obj 407 258 s b2m65;
#X obj 428 277 s b2m66;
#X obj 450 258 s b2m67;
#X obj 472 277 s b2m68;
#X obj 495 258 s b2m69;
#X obj 516 277 s b2m70;
#X obj 538 258 s b2m71;
#X obj 560 277 s b2m72;
#X obj 583 259 s b2m73;
#X obj 604 278 s b2m74;
#X obj 626 259 s b2m75;
#X obj 648 278 s b2m76;
#X obj 671 259 s b2m77;
#X obj 692 278 s b2m78;
#X obj 714 259 s b2m79;
#X obj 736 278 s b2m80;
#X obj 411 386 s b2m81;
#X obj 432 405 s b2m82;
#X obj 454 386 s b2m83;
#X obj 476 405 s b2m84;
#X obj 499 386 s b2m85;
#X obj 520 405 s b2m86;
#X obj 542 386 s b2m87;
#X obj 564 405 s b2m88;
#X obj 587 387 s b2m89;
#X obj 608 406 s b2m90;
#X obj 630 387 s b2m91;
#X obj 652 406 s b2m92;
#X obj 675 387 s b2m93;
#X obj 696 406 s b2m94;
#X obj 718 387 s b2m95;
#X obj 740 406 s b2m96;
#X obj 411 301 route /2/multitoggle/1/1 /2/multitoggle/1/2 /2/multitoggle/1/3
/2/multitoggle/1/4 /2/multitoggle/1/5 /2/multitoggle/1/6 /2/multitoggle/1/7
/2/multitoggle/1/8 /2/multitoggle/1/9 /2/multitoggle/1/10 /2/multitoggle/1/11
/2/multitoggle/1/12 /2/multitoggle/1/13 /2/multitoggle/1/14 /2/multitoggle/1/15
/2/multitoggle/1/16;
#X obj 413 426 route /2/multifader/1 /2/multifader/2 /2/multifader/3
/2/multifader/4 /2/multifader/5 /2/multifader/6 /2/multifader/7 /2/multifader/8
/2/multifader/9 /2/multifader/10 /2/multifader/11 /2/multifader/12
/2/multifader/13 /2/multifader/14 /2/multifader/15 /2/multifader/16
;
#X obj 411 631 s b3r1;
#X obj 431 651 s b3r2;
#X obj 451 632 s b3r3;
#X obj 471 652 s b3r4;
#X obj 491 632 s b3r5;
#X obj 511 652 s b3r6;
#X obj 531 632 s b3t1;
#X obj 551 652 s b3t2;
#X obj 571 632 s b3t3;
#X obj 591 652 s b3t4;
#X obj 611 632 s b3t5;
#X obj 411 572 route /3/rotary1 /3/rotary2 /3/rotary3 /3/rotary4 /3/rotary5
/3/rotary6 /3/toggle1 /3/toggle2 /3/toggle3 /3/toggle4 /3/toggle5 /3/rotary1/z
/3/rotary2/z /3/rotary3/z /3/rotary4/z /3/rotary5/z /3/rotary6/z;
#X obj 632 652 s b3r1z;
#X obj 652 632 s b3r2z;
#X obj 672 653 s b3r3z;
#X obj 692 633 s b3r4z;
#X obj 712 653 s b3r5z;
#X obj 732 633 s b3r6z;
#X obj 281 630 unpack;
#X obj 38 590 s b4t1;
#X obj 103 590 s b4t2;
#X obj 168 590 s b4t3;
#X obj 234 590 s b4t4;
#X obj 282 590 s b4t5;
#X obj 352 592 s bxyz;
#X obj 413 511 s b2f1;
#X obj 432 530 s b2f2;
#X obj 452 549 s b2f3;
#X obj 472 511 s b2f4;
#X obj 491 530 s b2f5;
#X obj 511 549 s b2f6;
#X obj 531 511 s b2f7;
#X obj 550 530 s b2f8;
#X obj 570 549 s b2f9;
#X obj 590 511 s b2f10;
#X obj 609 530 s b2f11;
#X obj 629 549 s b2f12;
#X obj 649 511 s b2f13;
#X obj 668 530 s b2f14;
#X obj 688 549 s b2f15;
#X obj 708 511 s b2f16;
#X obj 26 394 route /2/multitoggle/4/1 /2/multitoggle/4/2 /2/multitoggle/4/3
/2/multitoggle/4/4 /2/multitoggle/4/5 /2/multitoggle/4/6 /2/multitoggle/4/7
/2/multitoggle/4/8 /2/multitoggle/4/9 /2/multitoggle/4/10 /2/multitoggle/4/11
/2/multitoggle/4/12 /2/multitoggle/4/13 /2/multitoggle/4/14 /2/multitoggle/4/15
/2/multitoggle/4/16;
#X obj 314 649 s b4y;
#X obj 281 649 s b4x;
#X obj 38 542 route /4/toggle1 /4/toggle2 /4/toggle3 /4/toggle4 /4/toggle4
/4/xy /4/xy/z;
#X connect 0 0 13 0;
#X connect 13 0 1 0;
#X connect 13 1 2 0;
#X connect 13 2 3 0;
#X connect 13 3 4 0;
#X connect 13 4 5 0;
#X connect 13 5 6 0;
#X connect 13 6 7 0;
#X connect 13 7 8 0;
#X connect 13 8 9 0;
#X connect 13 9 10 0;
#X connect 13 10 11 0;
#X connect 13 11 12 0;
#X connect 13 12 14 0;
#X connect 13 13 15 0;
#X connect 13 14 16 0;
#X connect 13 15 17 0;
#X connect 13 16 18 0;
#X connect 18 0 19 0;
#X connect 18 1 35 0;
#X connect 18 2 21 0;
#X connect 18 3 22 0;
#X connect 18 4 23 0;
#X connect 18 5 24 0;
#X connect 18 6 25 0;
#X connect 18 7 26 0;
#X connect 18 8 27 0;
#X connect 18 9 28 0;
#X connect 18 10 29 0;
#X connect 18 11 30 0;
#X connect 18 12 31 0;
#X connect 18 13 32 0;
#X connect 18 14 33 0;
#X connect 18 15 34 0;
#X connect 18 16 20 0;
#X connect 20 0 36 0;
#X connect 20 1 37 0;
#X connect 20 2 38 0;
#X connect 20 3 39 0;
#X connect 20 4 40 0;
#X connect 20 5 41 0;
#X connect 20 6 42 0;
#X connect 20 7 43 0;
#X connect 20 8 44 0;
#X connect 20 9 45 0;
#X connect 20 10 46 0;
#X connect 20 11 47 0;
#X connect 20 12 48 0;
#X connect 20 13 49 0;
#X connect 20 14 50 0;
#X connect 20 15 51 0;
#X connect 20 16 161 0;
#X connect 68 0 70 0;
#X connect 68 1 71 0;
#X connect 68 2 72 0;
#X connect 68 3 73 0;
#X connect 68 4 74 0;
#X connect 68 5 75 0;
#X connect 68 6 76 0;
#X connect 68 7 77 0;
#X connect 68 8 78 0;
#X connect 68 9 79 0;
#X connect 68 10 80 0;
#X connect 68 11 81 0;
#X connect 68 12 82 0;
#X connect 68 13 83 0;
#X connect 68 14 84 0;
#X connect 68 15 85 0;
#X connect 68 16 69 0;
#X connect 69 0 86 0;
#X connect 69 1 87 0;
#X connect 69 2 88 0;
#X connect 69 3 89 0;
#X connect 69 4 90 0;
#X connect 69 5 91 0;
#X connect 69 6 92 0;
#X connect 69 7 93 0;
#X connect 69 8 94 0;
#X connect 69 9 95 0;
#X connect 69 10 96 0;
#X connect 69 11 97 0;
#X connect 69 12 98 0;
#X connect 69 13 99 0;
#X connect 69 14 100 0;
#X connect 69 15 101 0;
#X connect 69 16 118 0;
#X connect 118 0 102 0;
#X connect 118 1 103 0;
#X connect 118 2 104 0;
#X connect 118 3 105 0;
#X connect 118 4 106 0;
#X connect 118 5 107 0;
#X connect 118 6 108 0;
#X connect 118 7 109 0;
#X connect 118 8 110 0;
#X connect 118 9 111 0;
#X connect 118 10 112 0;
#X connect 118 11 113 0;
#X connect 118 12 114 0;
#X connect 118 13 115 0;
#X connect 118 14 116 0;
#X connect 118 15 117 0;
#X connect 118 16 119 0;
#X connect 119 0 145 0;
#X connect 119 1 146 0;
#X connect 119 2 147 0;
#X connect 119 3 148 0;
#X connect 119 4 149 0;
#X connect 119 5 150 0;
#X connect 119 6 151 0;
#X connect 119 7 152 0;
#X connect 119 8 153 0;
#X connect 119 9 154 0;
#X connect 119 10 155 0;
#X connect 119 11 156 0;
#X connect 119 12 157 0;
#X connect 119 13 158 0;
#X connect 119 14 159 0;
#X connect 119 15 160 0;
#X connect 119 16 131 0;
#X connect 131 0 120 0;
#X connect 131 1 121 0;
#X connect 131 2 122 0;
#X connect 131 3 123 0;
#X connect 131 4 124 0;
#X connect 131 5 125 0;
#X connect 131 6 126 0;
#X connect 131 7 127 0;
#X connect 131 8 128 0;
#X connect 131 9 129 0;
#X connect 131 10 130 0;
#X connect 131 11 132 0;
#X connect 131 12 133 0;
#X connect 131 13 134 0;
#X connect 131 14 135 0;
#X connect 131 15 136 0;
#X connect 131 16 137 0;
#X connect 131 17 164 0;
#X connect 138 0 163 0;
#X connect 138 1 162 0;
#X connect 161 0 52 0;
#X connect 161 1 53 0;
#X connect 161 2 54 0;
#X connect 161 3 55 0;
#X connect 161 4 56 0;
#X connect 161 5 57 0;
#X connect 161 6 58 0;
#X connect 161 7 59 0;
#X connect 161 8 60 0;
#X connect 161 9 61 0;
#X connect 161 10 62 0;
#X connect 161 11 63 0;
#X connect 161 12 64 0;
#X connect 161 13 65 0;
#X connect 161 14 66 0;
#X connect 161 15 67 0;
#X connect 161 16 68 0;
#X connect 164 0 139 0;
#X connect 164 1 140 0;
#X connect 164 2 141 0;
#X connect 164 3 142 0;
#X connect 164 4 143 0;
#X connect 164 5 138 0;
#X connect 164 6 144 0;
#X restore 77 59 pd beatmachine;
#X obj 271 20 r multitodo;
#X obj 271 136 route /3;
#X obj 77 20 udpreceive 8000;
#X floatatom 85 163 5 0 0 0 - - -;
#X floatatom 192 144 5 0 0 0 - - -;
#X obj 174 71 mod 16;
#X obj 177 107 + 8;
#X obj 190 245 spigot;
#X obj 218 216 > 16;
#X obj 215 176 t f f;
#X floatatom 187 268 5 0 0 0 - - -;
#X obj 282 81 expr if($f1-1==0 \, $f2 \, $f1-1);
#X obj 435 50 r metrica;
#X obj 410 268 udpsend;
#X obj 410 295 sel 0 1;
#X msg 451 318 0;
#X msg 411 318 1;
#X obj 412 352 metro 1000;
#X obj 382 106 change;
#N canvas 22 110 1130 720 Y221 0;
#X obj 16 23 inlet;
#X obj 16 194 unpack;
#X obj 16 44 route /set1/multixy1/1 /set1/multixy2/1 /set1/multitoggle1/2/1
/set1/multitoggle1/2/2 /set1/multitoggle1/1/1 /set1/multitoggle1/1/2
/set1/push1 /set1/push2 /set1/toggle1;
#X obj 91 196 change;
#X obj 129 218 change;
#X obj 166 196 change;
#X obj 204 218 change;
#X obj 242 196 change;
#X obj 279 218 change;
#X obj 317 196 change;
#X obj 49 274 s y1x1;
#X obj 49 254 change;
#X obj 16 214 change;
#X obj 53 296 unpack;
#X obj 86 356 change;
#X obj 53 336 s y1y2;
#X obj 53 316 change;
#X obj 16 234 s y1y1;
#X obj 86 376 s y1x2;
#X obj 717 44 unpack;
#X obj 750 104 change;
#X obj 717 64 change;
#X obj 754 146 unpack;
#X obj 787 206 change;
#X obj 754 166 change;
#X obj 717 84 s y2y1;
#X obj 750 124 s y2x1;
#X obj 754 186 s y2y2;
#X obj 787 226 s y2x2;
#X obj 366 44 route /set2/multixy1/1 /set2/multixy2/1 /set2/multitoggle1/2/1
/set2/multitoggle1/2/2 /set2/multitoggle1/1/1 /set2/multitoggle1/1/2
/set2/push1 /set2/push2 /set2/toggle1;
#X obj 91 241 s ys1;
#X obj 129 241 s ys2;
#X obj 166 241 s ys3;
#X obj 204 241 s ys4;
#X obj 242 241 s yba;
#X obj 279 241 s ybr;
#X obj 317 240 s yp;
#X obj 386 116 route /set3/multifader1/1 /set3/multifader1/2 /set3/multifader1/3
/set3/multifader1/4 /set3/multifader1/5 /set3/multifader1/6 /set3/multifader1/7
/set3/multifader1/8 /set3/multifader1/9 /set3/multifader1/10 /set3/multifader1/11
/set3/multifader1/12 /set3/multifader1/13 /set3/multifader1/14 /set3/multifader1/15
/set3/multifader1/16 /set3/multifader1/17 /set3/multifader1/18 /set3/multifader1/19
/set3/multifader1/20 /set3/multifader1/21 /set3/multifader1/22 /set3/multifader1/23
/set3/multifader1/24;
#X obj 386 267 change;
#X obj 396 287 change;
#X obj 406 307 change;
#X obj 429 267 change;
#X obj 439 287 change;
#X obj 449 307 change;
#X obj 473 267 change;
#X obj 483 287 change;
#X obj 493 307 change;
#X obj 517 267 change;
#X obj 527 287 change;
#X obj 537 307 change;
#X obj 561 267 change;
#X obj 571 287 change;
#X obj 581 307 change;
#X obj 605 267 change;
#X obj 615 287 change;
#X obj 625 307 change;
#X obj 649 267 change;
#X obj 659 287 change;
#X obj 669 307 change;
#X obj 693 267 change;
#X obj 703 287 change;
#X obj 713 307 change;
#X obj 386 329 s y3f1;
#X obj 396 349 s y3f2;
#X obj 406 369 s y3f3;
#X obj 429 329 s y3f4;
#X obj 439 349 s y3f5;
#X obj 449 369 s y3f6;
#X obj 472 329 s y3f7;
#X obj 482 349 s y3f8;
#X obj 492 369 s y3f9;
#X obj 515 329 s y3f10;
#X obj 525 349 s y3f11;
#X obj 535 369 s y3f12;
#X obj 564 329 s y3f13;
#X obj 574 349 s y3f14;
#X obj 584 369 s y3f15;
#X obj 613 329 s y3f16;
#X obj 623 349 s y3f17;
#X obj 633 369 s y3f18;
#X obj 662 329 s y3f19;
#X obj 672 349 s y3f20;
#X obj 682 369 s y3f21;
#X obj 711 329 s y3f22;
#X obj 721 349 s y3f23;
#X obj 731 369 s y3f24;
#X obj 16 116 route /set3/multitoggle1/2/1 /set3/multitoggle1/2/2 /set3/multitoggle1/1/1
/set3/multitoggle1/1/2 /set3/push1 /set3/push2 /set3/toggle1 /set4/multitoggle1/2/1
/set4/multitoggle1/2/2 /set4/multitoggle1/1/1 /set4/multitoggle1/1/2
/set4/push1 /set4/push2 /set4/toggle1;
#X obj 412 554 change;
#X obj 422 574 change;
#X obj 432 594 change;
#X obj 455 554 change;
#X obj 465 574 change;
#X obj 475 594 change;
#X obj 499 554 change;
#X obj 509 574 change;
#X obj 519 594 change;
#X obj 543 554 change;
#X obj 553 574 change;
#X obj 563 594 change;
#X obj 587 554 change;
#X obj 597 574 change;
#X obj 607 594 change;
#X obj 631 554 change;
#X obj 641 574 change;
#X obj 651 594 change;
#X obj 675 554 change;
#X obj 685 574 change;
#X obj 695 594 change;
#X obj 719 554 change;
#X obj 729 574 change;
#X obj 739 594 change;
#X obj 412 403 route /set4/multifader1/1 /set4/multifader1/2 /set4/multifader1/3
/set4/multifader1/4 /set4/multifader1/5 /set4/multifader1/6 /set4/multifader1/7
/set4/multifader1/8 /set4/multifader1/9 /set4/multifader1/10 /set4/multifader1/11
/set4/multifader1/12 /set4/multifader1/13 /set4/multifader1/14 /set4/multifader1/15
/set4/multifader1/16 /set4/multifader1/17 /set4/multifader1/18 /set4/multifader1/19
/set4/multifader1/20 /set4/multifader1/21 /set4/multifader1/22 /set4/multifader1/23
/set4/multifader1/24;
#X obj 412 616 s y4f1;
#X obj 422 636 s y4f2;
#X obj 432 656 s y4f3;
#X obj 455 616 s y4f4;
#X obj 465 636 s y4f5;
#X obj 475 656 s y4f6;
#X obj 498 616 s y4f7;
#X obj 508 636 s y4f8;
#X obj 518 656 s y4f9;
#X obj 541 616 s y4f10;
#X obj 551 636 s y4f11;
#X obj 561 656 s y4f12;
#X obj 590 616 s y4f13;
#X obj 600 636 s y4f14;
#X obj 610 656 s y4f15;
#X obj 639 616 s y4f16;
#X obj 649 636 s y4f17;
#X obj 659 656 s y4f18;
#X obj 688 616 s y4f19;
#X obj 698 636 s y4f20;
#X obj 708 656 s y4f21;
#X obj 737 616 s y4f22;
#X obj 747 636 s y4f23;
#X obj 757 656 s y4f24;
#X obj 15 554 change;
#X obj 25 574 change;
#X obj 35 594 change;
#X obj 58 554 change;
#X obj 68 574 change;
#X obj 78 594 change;
#X obj 102 554 change;
#X obj 112 574 change;
#X obj 122 594 change;
#X obj 146 554 change;
#X obj 156 574 change;
#X obj 166 594 change;
#X obj 190 554 change;
#X obj 200 574 change;
#X obj 210 594 change;
#X obj 234 554 change;
#X obj 244 574 change;
#X obj 254 594 change;
#X obj 278 554 change;
#X obj 288 574 change;
#X obj 298 594 change;
#X obj 322 554 change;
#X obj 332 574 change;
#X obj 342 594 change;
#X obj 15 403 route /set3/multifader2/1 /set3/multifader2/2 /set3/multifader2/3
/set3/multifader2/4 /set3/multifader2/5 /set3/multifader2/6 /set3/multifader2/7
/set3/multifader2/8 /set3/multifader2/9 /set3/multifader2/10 /set3/multifader2/11
/set3/multifader2/12 /set3/multifader2/13 /set3/multifader2/14 /set3/multifader2/15
/set3/multifader2/16 /set3/multifader2/17 /set3/multifader2/18 /set3/multifader2/19
/set3/multifader2/20 /set3/multifader2/21 /set3/multifader2/22 /set3/multifader2/23
/set3/multifader2/24;
#X obj 15 616 s y3f1b;
#X obj 25 636 s y3f2b;
#X obj 35 656 s y3f3b;
#X obj 58 616 s y3f4b;
#X obj 68 636 s y3f5b;
#X obj 78 656 s y3f6b;
#X obj 101 616 s y3f7b;
#X obj 111 636 s y3f8b;
#X obj 121 656 s y3f9b;
#X obj 144 616 s y3f10b;
#X obj 154 636 s y3f11b;
#X obj 164 656 s y3f12b;
#X obj 193 616 s y3f13b;
#X obj 203 636 s y3f14b;
#X obj 213 656 s y3f15b;
#X obj 242 616 s y3f16b;
#X obj 252 636 s y3f17b;
#X obj 262 656 s y3f18b;
#X obj 291 616 s y3f19b;
#X obj 301 636 s y3f20b;
#X obj 311 656 s y3f21b;
#X obj 340 616 s y3f22b;
#X obj 350 636 s y3f23b;
#X obj 360 656 s y3f24b;
#X obj 802 554 change;
#X obj 812 574 change;
#X obj 822 594 change;
#X obj 845 554 change;
#X obj 855 574 change;
#X obj 865 594 change;
#X obj 889 554 change;
#X obj 899 574 change;
#X obj 909 594 change;
#X obj 933 554 change;
#X obj 943 574 change;
#X obj 953 594 change;
#X obj 977 554 change;
#X obj 987 574 change;
#X obj 997 594 change;
#X obj 1021 554 change;
#X obj 1031 574 change;
#X obj 1041 594 change;
#X obj 1065 554 change;
#X obj 1075 574 change;
#X obj 1085 594 change;
#X obj 1109 554 change;
#X obj 1119 574 change;
#X obj 1129 594 change;
#X obj 802 403 route /set4/multifader2/1 /set4/multifader2/2 /set4/multifader2/3
/set4/multifader2/4 /set4/multifader2/5 /set4/multifader2/6 /set4/multifader2/7
/set4/multifader2/8 /set4/multifader2/9 /set4/multifader2/10 /set4/multifader2/11
/set4/multifader2/12 /set4/multifader2/13 /set4/multifader2/14 /set4/multifader2/15
/set4/multifader2/16 /set4/multifader2/17 /set4/multifader2/18 /set4/multifader2/19
/set4/multifader2/20 /set4/multifader2/21 /set4/multifader2/22 /set4/multifader2/23
/set4/multifader2/24;
#X obj 802 616 s y4f1b;
#X obj 812 636 s y4f2b;
#X obj 822 656 s y4f3b;
#X obj 845 616 s y4f4b;
#X obj 855 636 s y4f5b;
#X obj 865 656 s y4f6b;
#X obj 888 616 s y4f7b;
#X obj 898 636 s y4f8b;
#X obj 908 656 s y4f9b;
#X obj 931 616 s y4f10b;
#X obj 941 636 s y4f11b;
#X obj 951 656 s y4f12b;
#X obj 980 616 s y4f13b;
#X obj 990 636 s y4f14b;
#X obj 1000 656 s y4f15b;
#X obj 1029 616 s y4f16b;
#X obj 1039 636 s y4f17b;
#X obj 1049 656 s y4f18b;
#X obj 1078 616 s y4f19b;
#X obj 1088 636 s y4f20b;
#X obj 1098 656 s y4f21b;
#X obj 1127 616 s y4f22b;
#X obj 1137 636 s y4f23b;
#X obj 1147 656 s y4f24b;
#X connect 0 0 2 0;
#X connect 1 0 12 0;
#X connect 1 1 11 0;
#X connect 2 0 1 0;
#X connect 2 1 13 0;
#X connect 2 2 3 0;
#X connect 2 3 4 0;
#X connect 2 4 5 0;
#X connect 2 5 6 0;
#X connect 2 6 7 0;
#X connect 2 7 8 0;
#X connect 2 8 9 0;
#X connect 2 9 29 0;
#X connect 3 0 30 0;
#X connect 4 0 31 0;
#X connect 5 0 32 0;
#X connect 6 0 33 0;
#X connect 7 0 34 0;
#X connect 8 0 35 0;
#X connect 9 0 36 0;
#X connect 11 0 10 0;
#X connect 12 0 17 0;
#X connect 13 0 16 0;
#X connect 13 1 14 0;
#X connect 14 0 18 0;
#X connect 16 0 15 0;
#X connect 19 0 21 0;
#X connect 19 1 20 0;
#X connect 20 0 26 0;
#X connect 21 0 25 0;
#X connect 22 0 24 0;
#X connect 22 1 23 0;
#X connect 23 0 28 0;
#X connect 24 0 27 0;
#X connect 29 0 19 0;
#X connect 29 1 22 0;
#X connect 29 2 3 0;
#X connect 29 3 4 0;
#X connect 29 4 5 0;
#X connect 29 5 6 0;
#X connect 29 6 7 0;
#X connect 29 7 8 0;
#X connect 29 8 9 0;
#X connect 29 9 86 0;
#X connect 37 0 38 0;
#X connect 37 1 39 0;
#X connect 37 2 40 0;
#X connect 37 3 41 0;
#X connect 37 4 42 0;
#X connect 37 5 43 0;
#X connect 37 6 44 0;
#X connect 37 7 45 0;
#X connect 37 8 46 0;
#X connect 37 9 47 0;
#X connect 37 10 48 0;
#X connect 37 11 49 0;
#X connect 37 12 50 0;
#X connect 37 13 51 0;
#X connect 37 14 52 0;
#X connect 37 15 53 0;
#X connect 37 16 54 0;
#X connect 37 17 55 0;
#X connect 37 18 56 0;
#X connect 37 19 57 0;
#X connect 37 20 58 0;
#X connect 37 21 59 0;
#X connect 37 22 60 0;
#X connect 37 23 61 0;
#X connect 37 24 160 0;
#X connect 38 0 62 0;
#X connect 39 0 63 0;
#X connect 40 0 64 0;
#X connect 41 0 65 0;
#X connect 42 0 66 0;
#X connect 43 0 67 0;
#X connect 44 0 68 0;
#X connect 45 0 69 0;
#X connect 46 0 70 0;
#X connect 47 0 71 0;
#X connect 48 0 72 0;
#X connect 49 0 73 0;
#X connect 50 0 74 0;
#X connect 51 0 75 0;
#X connect 52 0 76 0;
#X connect 53 0 77 0;
#X connect 54 0 78 0;
#X connect 55 0 79 0;
#X connect 56 0 80 0;
#X connect 57 0 81 0;
#X connect 58 0 82 0;
#X connect 59 0 83 0;
#X connect 60 0 84 0;
#X connect 61 0 85 0;
#X connect 86 0 3 0;
#X connect 86 1 4 0;
#X connect 86 2 5 0;
#X connect 86 3 6 0;
#X connect 86 4 7 0;
#X connect 86 5 8 0;
#X connect 86 6 9 0;
#X connect 86 7 3 0;
#X connect 86 8 4 0;
#X connect 86 9 5 0;
#X connect 86 10 6 0;
#X connect 86 11 7 0;
#X connect 86 12 8 0;
#X connect 86 13 9 0;
#X connect 86 14 37 0;
#X connect 87 0 112 0;
#X connect 88 0 113 0;
#X connect 89 0 114 0;
#X connect 90 0 115 0;
#X connect 91 0 116 0;
#X connect 92 0 117 0;
#X connect 93 0 118 0;
#X connect 94 0 119 0;
#X connect 95 0 120 0;
#X connect 96 0 121 0;
#X connect 97 0 122 0;
#X connect 98 0 123 0;
#X connect 99 0 124 0;
#X connect 100 0 125 0;
#X connect 101 0 126 0;
#X connect 102 0 127 0;
#X connect 103 0 128 0;
#X connect 104 0 129 0;
#X connect 105 0 130 0;
#X connect 106 0 131 0;
#X connect 107 0 132 0;
#X connect 108 0 133 0;
#X connect 109 0 134 0;
#X connect 110 0 135 0;
#X connect 111 0 87 0;
#X connect 111 1 88 0;
#X connect 111 2 89 0;
#X connect 111 3 90 0;
#X connect 111 4 91 0;
#X connect 111 5 92 0;
#X connect 111 6 93 0;
#X connect 111 7 94 0;
#X connect 111 8 95 0;
#X connect 111 9 96 0;
#X connect 111 10 97 0;
#X connect 111 11 98 0;
#X connect 111 12 99 0;
#X connect 111 13 100 0;
#X connect 111 14 101 0;
#X connect 111 15 102 0;
#X connect 111 16 103 0;
#X connect 111 17 104 0;
#X connect 111 18 105 0;
#X connect 111 19 106 0;
#X connect 111 20 107 0;
#X connect 111 21 108 0;
#X connect 111 22 109 0;
#X connect 111 23 110 0;
#X connect 111 24 209 0;
#X connect 136 0 161 0;
#X connect 137 0 162 0;
#X connect 138 0 163 0;
#X connect 139 0 164 0;
#X connect 140 0 165 0;
#X connect 141 0 166 0;
#X connect 142 0 167 0;
#X connect 143 0 168 0;
#X connect 144 0 169 0;
#X connect 145 0 170 0;
#X connect 146 0 171 0;
#X connect 147 0 172 0;
#X connect 148 0 173 0;
#X connect 149 0 174 0;
#X connect 150 0 175 0;
#X connect 151 0 176 0;
#X connect 152 0 177 0;
#X connect 153 0 178 0;
#X connect 154 0 179 0;
#X connect 155 0 180 0;
#X connect 156 0 181 0;
#X connect 157 0 182 0;
#X connect 158 0 183 0;
#X connect 159 0 184 0;
#X connect 160 0 136 0;
#X connect 160 1 137 0;
#X connect 160 2 138 0;
#X connect 160 3 139 0;
#X connect 160 4 140 0;
#X connect 160 5 141 0;
#X connect 160 6 142 0;
#X connect 160 7 143 0;
#X connect 160 8 144 0;
#X connect 160 9 145 0;
#X connect 160 10 146 0;
#X connect 160 11 147 0;
#X connect 160 12 148 0;
#X connect 160 13 149 0;
#X connect 160 14 150 0;
#X connect 160 15 151 0;
#X connect 160 16 152 0;
#X connect 160 17 153 0;
#X connect 160 18 154 0;
#X connect 160 19 155 0;
#X connect 160 20 156 0;
#X connect 160 21 157 0;
#X connect 160 22 158 0;
#X connect 160 23 159 0;
#X connect 160 24 111 0;
#X connect 185 0 210 0;
#X connect 186 0 211 0;
#X connect 187 0 212 0;
#X connect 188 0 213 0;
#X connect 189 0 214 0;
#X connect 190 0 215 0;
#X connect 191 0 216 0;
#X connect 192 0 217 0;
#X connect 193 0 218 0;
#X connect 194 0 219 0;
#X connect 195 0 220 0;
#X connect 196 0 221 0;
#X connect 197 0 222 0;
#X connect 198 0 223 0;
#X connect 199 0 224 0;
#X connect 200 0 225 0;
#X connect 201 0 226 0;
#X connect 202 0 227 0;
#X connect 203 0 228 0;
#X connect 204 0 229 0;
#X connect 205 0 230 0;
#X connect 206 0 231 0;
#X connect 207 0 232 0;
#X connect 208 0 233 0;
#X connect 209 0 185 0;
#X connect 209 1 186 0;
#X connect 209 2 187 0;
#X connect 209 3 188 0;
#X connect 209 4 189 0;
#X connect 209 5 190 0;
#X connect 209 6 191 0;
#X connect 209 7 192 0;
#X connect 209 8 193 0;
#X connect 209 9 194 0;
#X connect 209 10 195 0;
#X connect 209 11 196 0;
#X connect 209 12 197 0;
#X connect 209 13 198 0;
#X connect 209 14 199 0;
#X connect 209 15 200 0;
#X connect 209 16 201 0;
#X connect 209 17 202 0;
#X connect 209 18 203 0;
#X connect 209 19 204 0;
#X connect 209 20 205 0;
#X connect 209 21 206 0;
#X connect 209 22 207 0;
#X connect 209 23 208 0;
#X restore 18 90 pd Y221;
#X obj 43 131 print;
#X msg 271 154 connect 192.168.1.10 9000;
#X connect 0 0 8 0;
#X connect 0 0 9 0;
#X connect 0 0 11 0;
#X connect 0 0 29 0;
#X connect 0 0 30 0;
#X connect 1 0 23 0;
#X connect 2 0 23 0;
#X connect 3 0 2 0;
#X connect 4 0 2 0;
#X connect 5 0 3 0;
#X connect 5 0 19 0;
#X connect 5 0 21 0;
#X connect 6 0 31 0;
#X connect 7 0 23 0;
#X connect 10 0 2 0;
#X connect 11 0 31 0;
#X connect 12 0 0 0;
#X connect 13 0 3 0;
#X connect 13 0 21 0;
#X connect 14 0 3 0;
#X connect 14 0 21 0;
#X connect 15 0 13 0;
#X connect 15 0 16 0;
#X connect 16 0 14 0;
#X connect 17 0 20 0;
#X connect 17 0 15 0;
#X connect 18 0 17 1;
#X connect 19 0 17 0;
#X connect 19 1 18 0;
#X connect 21 0 28 0;
#X connect 22 0 21 1;
#X connect 23 0 24 0;
#X connect 24 0 26 0;
#X connect 24 1 25 0;
#X connect 25 0 27 0;
#X connect 26 0 27 0;
#X connect 27 0 31 0;
#X connect 28 0 4 0;
#X connect 31 0 23 0;
