#N canvas 163 224 992 420 10;
#X obj 90 193 soundfiler;
#X obj 68 56 openpanel;
#X obj 359 321 line~;
#X obj 358 367 outlet~;
#X obj 87 228 / 44100;
#X obj 87 253 * 1000;
#X obj 360 232 pack f f;
#X obj 360 207 bondo;
#X obj 30 108 t b;
#X msg 359 291 56256 1275.65;
#X obj 278 275 sel 1 0;
#X msg 285 311 0;
#X msg 360 262 set \$1 \$2;
#X obj 318 284 t b;
#X obj 96 314 bondo;
#X obj 140 288 *;
#X obj 100 349 +;
#X obj 37 274 / 2;
#X obj 67 29 inlet;
#X obj 445 19 inlet;
#X obj 285 43 openpanel;
#X obj 247 87 t b;
#X obj 288 20 inlet;
#X obj 528 7 openpanel;
#X obj 490 59 t b;
#X obj 346 19 inlet;
#X obj 14 -29 inlet;
#X obj 13 12 sel 0 1 2 3;
#X obj 406 19 inlet;
#X obj 555 130 openpanel;
#X obj 517 182 t b;
#X msg 70 87 set read -resize \$1 tabla8;
#X msg 287 66 set read -resize \$1 tabla8;
#X msg 530 38 set read -resize \$1 tabla8;
#X msg 557 161 set read -resize \$1 tabla8;
#X obj 255 226 table tabla8;
#X obj 358 344 tabread4~ tabla8;
#X obj 26 -8 pipe 1;
#X msg 201 174 \; tabla8 normalize;
#X msg 70 112 read -resize /home/juan/pd-externals/samples/tambores/arabe09.wav
tabla8;
#X msg 287 92 read -resize /home/juan/pd-externals/samples/tambores/tambores17.wav
tabla8;
#X msg 530 64 read -resize /home/juan/pd-externals/samples/tambores/tambores51.wav
tabla8;
#X msg 557 187 read -resize /home/juan/pd-externals/samples/tambores/latina04.wav
tabla8;
#X obj 180 255 expr ($f1-128)/128;
#X obj 196 221 r Mey;
#X connect 0 0 7 0;
#X connect 0 0 4 0;
#X connect 1 0 31 0;
#X connect 2 0 36 0;
#X connect 4 0 5 0;
#X connect 5 0 14 0;
#X connect 5 0 17 0;
#X connect 6 0 12 0;
#X connect 7 0 6 0;
#X connect 7 1 6 1;
#X connect 8 0 39 0;
#X connect 9 0 2 0;
#X connect 10 0 11 0;
#X connect 11 0 2 0;
#X connect 11 0 13 0;
#X connect 12 0 9 0;
#X connect 13 0 9 0;
#X connect 14 0 16 0;
#X connect 14 1 16 1;
#X connect 15 0 14 1;
#X connect 16 0 7 1;
#X connect 17 0 15 1;
#X connect 18 0 1 0;
#X connect 19 0 10 0;
#X connect 20 0 32 0;
#X connect 21 0 40 0;
#X connect 22 0 20 0;
#X connect 23 0 33 0;
#X connect 24 0 41 0;
#X connect 25 0 23 0;
#X connect 26 0 27 0;
#X connect 26 0 37 0;
#X connect 27 0 39 0;
#X connect 27 1 40 0;
#X connect 27 2 41 0;
#X connect 27 3 42 0;
#X connect 28 0 29 0;
#X connect 29 0 34 0;
#X connect 30 0 42 0;
#X connect 31 0 39 0;
#X connect 31 0 8 0;
#X connect 32 0 40 0;
#X connect 32 0 21 0;
#X connect 33 0 41 0;
#X connect 33 0 24 0;
#X connect 34 0 42 0;
#X connect 34 0 30 0;
#X connect 36 0 3 0;
#X connect 37 0 27 0;
#X connect 39 0 0 0;
#X connect 39 0 38 0;
#X connect 40 0 0 0;
#X connect 40 0 38 0;
#X connect 41 0 38 0;
#X connect 41 0 0 0;
#X connect 42 0 0 0;
#X connect 42 0 38 0;
#X connect 43 0 15 0;
#X connect 44 0 43 0;
