#N canvas 88 92 937 436 10;
#X obj 90 193 soundfiler;
#X obj 68 56 openpanel;
#X obj 359 321 line~;
#X obj 358 367 outlet~;
#X obj 87 228 / 44100;
#X obj 87 253 * 1000;
#X obj 360 232 pack f f;
#X obj 360 207 bondo;
#X msg 359 291 0 0;
#X obj 278 275 sel 1 0;
#X msg 285 311 0;
#X msg 360 262 set \$1 \$2;
#X obj 318 284 t b;
#X obj 96 314 bondo;
#X obj 119 298 *;
#X obj 100 349 +;
#X obj 117 31 inlet;
#X obj 445 19 inlet;
#X obj 285 43 openpanel;
#X obj 247 87 t b;
#X obj 288 20 inlet;
#X obj 528 7 openpanel;
#X obj 490 59 t b;
#X obj 346 19 inlet;
#X obj 21 -27 inlet;
#X obj 25 26 sel 0 1 2 3;
#X obj 406 19 inlet;
#X obj 555 130 openpanel;
#X obj 517 182 t b;
#X obj 30 108 t b;
#X obj 101 274 / 2;
#X obj 63 -5 pipe 1;
#X msg 68 132 read -resize /home/juan/pd-externals/samples/sonidos/bandola1.wav
l0;
#X msg 287 92 read -resize /home/juan/pd-externals/samples/sonidos/guarare1.wav
l1;
#X msg 530 65 read -resize /home/juan/pd-externals/samples/sonidos/cces1.wav
l2;
#X msg 557 187 read -resize /home/juan/pd-externals/samples/tips/barquisimeto.wav
l3;
#X obj 552 348 table l0;
#X obj 605 353 table l1;
#X obj 666 356 table l2;
#X obj 726 358 table l3;
#X msg 70 87 set read -resize \$1 l0;
#X msg 287 66 set read -resize \$1 l1;
#X msg 530 38 set read -resize \$1 l2;
#X msg 557 161 set read -resize \$1 l3;
#X msg 529 286 set l1;
#X msg 484 285 set l0;
#X msg 581 287 set l2;
#X msg 634 287 set l3;
#X obj 358 344 tabread4~ l0;
#X floatatom 227 329 5 0 0 0 - - -;
#X obj 175 235 r Mex;
#X obj 159 269 expr ($f1)/255;
#X connect 0 0 7 0;
#X connect 0 0 4 0;
#X connect 1 0 40 0;
#X connect 2 0 48 0;
#X connect 4 0 5 0;
#X connect 5 0 13 0;
#X connect 5 0 30 0;
#X connect 6 0 11 0;
#X connect 7 0 6 0;
#X connect 7 1 6 1;
#X connect 8 0 2 0;
#X connect 9 0 10 0;
#X connect 10 0 2 0;
#X connect 10 0 12 0;
#X connect 11 0 8 0;
#X connect 12 0 8 0;
#X connect 13 0 15 0;
#X connect 13 1 15 1;
#X connect 14 0 13 1;
#X connect 15 0 7 1;
#X connect 16 0 1 0;
#X connect 17 0 9 0;
#X connect 18 0 41 0;
#X connect 19 0 33 0;
#X connect 20 0 18 0;
#X connect 21 0 42 0;
#X connect 22 0 34 0;
#X connect 23 0 21 0;
#X connect 24 0 25 0;
#X connect 24 0 31 0;
#X connect 25 0 32 0;
#X connect 25 0 45 0;
#X connect 25 1 33 0;
#X connect 25 1 44 0;
#X connect 25 2 34 0;
#X connect 25 2 46 0;
#X connect 25 3 35 0;
#X connect 25 3 47 0;
#X connect 26 0 27 0;
#X connect 27 0 43 0;
#X connect 28 0 35 0;
#X connect 29 0 32 0;
#X connect 30 0 14 1;
#X connect 31 0 25 0;
#X connect 32 0 0 0;
#X connect 33 0 0 0;
#X connect 34 0 0 0;
#X connect 35 0 0 0;
#X connect 40 0 32 0;
#X connect 40 0 29 0;
#X connect 41 0 33 0;
#X connect 41 0 19 0;
#X connect 42 0 34 0;
#X connect 42 0 22 0;
#X connect 43 0 35 0;
#X connect 43 0 28 0;
#X connect 44 0 48 0;
#X connect 45 0 48 0;
#X connect 46 0 48 0;
#X connect 47 0 48 0;
#X connect 48 0 3 0;
#X connect 50 0 49 0;
#X connect 50 0 51 0;
#X connect 51 0 14 0;
