#N canvas 694 268 323 444 10;
#X obj 6 206 phasor~;
#X obj 83 87 sel 1 0;
#X msg 45 187 0;
#X msg 14 187 0;
#X obj 6 130 f;
#X msg 13 306 set t0;
#X msg 13 286 set set t\$1;
#X obj 1 21 sel 0 1 2 3;
#X obj 77 0 inlet;
#X obj 115 0 inlet;
#N canvas 339 386 450 300 opencero 0;
#X obj 35 68 openpanel;
#X obj 35 48 inlet;
#X obj 35 217 outlet;
#X obj 35 111 bang;
#X msg 35 134 read -resize /home/juan/pd-externals/samples/loops/bachata--01.wav
t0;
#X obj 219 52 inlet;
#X obj 35 170 soundfiler;
#X obj 219 187 f;
#X obj 70 112 loadbang;
#X msg 35 87 set read -resize \$1 t0;
#X connect 0 0 9 0;
#X connect 1 0 0 0;
#X connect 3 0 4 0;
#X connect 4 0 6 0;
#X connect 5 0 7 0;
#X connect 6 0 2 0;
#X connect 6 0 7 1;
#X connect 7 0 2 0;
#X connect 8 0 4 0;
#X connect 9 0 4 0;
#X connect 9 0 3 0;
#X restore 1 65 pd opencero;
#X obj 39 0 inlet;
#X obj 1 0 inlet;
#X obj 7 403 outlet~;
#N canvas 9 339 450 300 openuno 0;
#X obj 45 78 openpanel;
#X msg 45 144 read -resize /home/juan/pd-externals/samples/loops/raptor4.wav
t1;
#X obj 45 58 inlet;
#X obj 45 191 outlet;
#X obj 45 121 bang;
#X obj 45 167 soundfiler;
#X obj 229 62 inlet;
#X obj 229 197 f;
#X obj 89 121 loadbang;
#X msg 45 97 set read -resize \$1 t1;
#X connect 0 0 9 0;
#X connect 1 0 5 0;
#X connect 2 0 0 0;
#X connect 4 0 1 0;
#X connect 5 0 3 0;
#X connect 5 0 7 1;
#X connect 6 0 7 0;
#X connect 7 0 3 0;
#X connect 8 0 1 0;
#X connect 9 0 1 0;
#X connect 9 0 4 0;
#X restore 73 66 pd openuno;
#N canvas 8 316 450 300 opendos 0;
#X obj 45 78 openpanel;
#X msg 45 144 read -resize /home/juan/pd-externals/samples/loops/cidinhoDoca-09.wav
t2;
#X obj 45 58 inlet;
#X obj 45 193 outlet;
#X obj 45 121 bang;
#X obj 45 170 soundfiler;
#X obj 239 72 inlet;
#X obj 239 207 f;
#X obj 93 121 loadbang;
#X msg 45 97 set read -resize \$1 t2;
#X connect 0 0 9 0;
#X connect 1 0 5 0;
#X connect 2 0 0 0;
#X connect 4 0 1 0;
#X connect 5 0 3 0;
#X connect 5 0 7 1;
#X connect 6 0 7 0;
#X connect 7 0 3 0;
#X connect 8 0 1 0;
#X connect 9 0 1 0;
#X connect 9 0 4 0;
#X restore 140 66 pd opendos;
#N canvas 10 362 450 300 opentres 0;
#X obj 45 78 openpanel;
#X msg 45 144 read -resize /home/juan/pd-externals/samples/loops/cuchitotambora-02.wav
t3;
#X obj 45 58 inlet;
#X obj 45 192 outlet;
#X obj 45 121 bang;
#X obj 45 170 soundfiler;
#X obj 249 82 inlet;
#X obj 249 217 f;
#X obj 91 123 loadbang;
#X msg 45 97 set read -resize \$1 t3;
#X connect 0 0 9 0;
#X connect 1 0 5 0;
#X connect 2 0 0 0;
#X connect 4 0 1 0;
#X connect 5 0 3 0;
#X connect 5 0 7 1;
#X connect 6 0 7 0;
#X connect 7 0 3 0;
#X connect 8 0 1 0;
#X connect 9 0 1 0;
#X connect 9 0 4 0;
#X restore 207 66 pd opentres;
#X obj 61 305 bang;
#X obj 81 22 sel 0 1 2 3;
#X obj 231 238 line~;
#X obj 6 378 *~;
#X msg 230 177 0 10;
#X msg 231 206 1 10;
#X obj 87 417 table t0;
#X obj 142 417 table t1;
#X obj 197 417 table t2;
#X obj 252 417 table t3;
#X obj 6 357 tabread4~ t0;
#X obj 6 253 *~;
#X obj 49 236 + 0;
#X obj 40 261 s soundfilero;
#X connect 0 0 28 0;
#X connect 1 0 2 0;
#X connect 1 0 4 0;
#X connect 1 0 22 0;
#X connect 1 1 3 0;
#X connect 1 1 21 0;
#X connect 2 0 0 1;
#X connect 3 0 0 0;
#X connect 4 0 0 0;
#X connect 5 0 27 0;
#X connect 6 0 5 0;
#X connect 6 0 17 0;
#X connect 7 0 10 0;
#X connect 7 1 14 0;
#X connect 7 2 15 0;
#X connect 7 3 16 0;
#X connect 8 0 6 0;
#X connect 8 0 18 0;
#X connect 9 0 1 0;
#X connect 10 0 29 0;
#X connect 11 0 7 0;
#X connect 12 0 4 1;
#X connect 14 0 29 0;
#X connect 15 0 29 0;
#X connect 16 0 29 0;
#X connect 17 0 5 0;
#X connect 18 0 10 1;
#X connect 18 1 14 1;
#X connect 18 2 15 1;
#X connect 18 3 16 1;
#X connect 19 0 20 1;
#X connect 20 0 13 0;
#X connect 21 0 19 0;
#X connect 22 0 19 0;
#X connect 27 0 20 0;
#X connect 28 0 27 0;
#X connect 29 0 28 1;
#X connect 29 0 30 0;
