#N canvas 141 310 450 300 10;
#X obj 25 85 soundfiler;
#X obj 25 28 openpanel;
#X msg 25 66 read -resize /home/juan/pd-externals/dc/BASS1-3.wav t2
;
#X obj 25 181 phasor~;
#X obj 25 200 *~;
#X obj 192 87 sel 1 0;
#X msg 64 162 0;
#X msg 33 162 0;
#X obj 49 200 table t2;
#X obj 25 219 tabread4~ t2;
#X msg 25 47 set read -resize \$1 t2;
#X floatatom 196 110 10 0 0 0 - - -;
#X obj 25 105 f;
#X obj 25 143 /;
#X obj 54 105 hradio 15 1 0 9 empty empty empty 0 -8 0 10 -262144 -1
-1 0;
#X obj 25 124 bondo;
#X obj 192 46 inlet;
#X obj 25 8 inlet;
#X connect 0 0 4 1;
#X connect 0 0 11 0;
#X connect 1 0 10 0;
#X connect 2 0 0 0;
#X connect 3 0 4 0;
#X connect 4 0 9 0;
#X connect 5 0 6 0;
#X connect 5 0 12 0;
#X connect 5 1 7 0;
#X connect 6 0 3 1;
#X connect 7 0 3 0;
#X connect 10 0 2 0;
#X connect 12 0 15 0;
#X connect 13 0 3 0;
#X connect 14 0 15 1;
#X connect 15 0 13 0;
#X connect 15 1 13 1;
#X connect 16 0 5 0;
#X connect 17 0 1 0;
