#N canvas 470 316 563 444 10;
#X obj 87 417 table t4;
#X obj 142 417 table t5;
#X obj 197 417 table t6;
#X obj 252 417 table t7;
#X obj 24 220 phasor~;
#X obj 101 101 sel 1 0;
#X msg 63 201 0;
#X msg 38 200 0;
#X obj 24 144 f;
#X obj 24 182 /;
#X obj 24 163 bondo;
#X obj 149 254 bondo;
#X obj 149 273 pow 2 0;
#X obj 176 217 - 4;
#X msg 31 320 set t4;
#X msg 31 300 set set t\$1;
#X obj 19 35 sel 0 1 2 3;
#X obj 95 14 inlet;
#X obj 133 14 inlet;
#X obj 149 176 /;
#X obj 149 156 bondo;
#X obj 171 14 inlet;
#N canvas 4 371 450 300 opencero 0;
#X obj 35 68 openpanel;
#X obj 35 48 inlet;
#X obj 35 217 outlet;
#X obj 35 111 bang;
#X msg 35 134 read -resize /home/juan/pd-externals/samples/loops/LaGuira-01.wav
t4;
#X obj 219 52 inlet;
#X obj 35 170 soundfiler;
#X obj 219 187 f;
#X obj 70 112 loadbang;
#X msg 35 87 set read -resize \$1 t4;
#X connect 0 0 9 0;
#X connect 1 0 0 0;
#X connect 3 0 4 0;
#X connect 4 0 6 0;
#X connect 5 0 7 0;
#X connect 6 0 2 0;
#X connect 6 0 7 1;
#X connect 7 0 2 0;
#X connect 8 0 4 0;
#X connect 9 0 4 0;
#X connect 9 0 3 0;
#X restore 19 79 pd opencero;
#X obj 209 14 inlet;
#X obj 57 14 inlet;
#X obj 19 14 inlet;
#X obj 24 388 outlet~;
#N canvas 9 339 450 300 openuno 0;
#X obj 45 78 openpanel;
#X msg 45 144 read -resize /home/juan/pd-externals/samples/loops/faylan2.wav
t5;
#X obj 45 58 inlet;
#X obj 45 191 outlet;
#X obj 45 121 bang;
#X obj 45 167 soundfiler;
#X obj 229 62 inlet;
#X obj 229 197 f;
#X obj 89 121 loadbang;
#X msg 45 97 set read -resize \$1 t5;
#X connect 0 0 9 0;
#X connect 1 0 5 0;
#X connect 2 0 0 0;
#X connect 4 0 1 0;
#X connect 5 0 3 0;
#X connect 5 0 7 1;
#X connect 6 0 7 0;
#X connect 7 0 3 0;
#X connect 8 0 1 0;
#X connect 9 0 1 0;
#X connect 9 0 4 0;
#X restore 91 80 pd openuno;
#N canvas 10 310 450 300 opendos 0;
#X obj 45 78 openpanel;
#X msg 45 144 read -resize /home/juan/pd-externals/samples/loops/faylan3.wav
t6;
#X obj 45 58 inlet;
#X obj 45 193 outlet;
#X obj 45 121 bang;
#X obj 45 170 soundfiler;
#X obj 239 72 inlet;
#X obj 239 207 f;
#X obj 93 121 loadbang;
#X msg 45 97 set read -resize \$1 t6;
#X connect 0 0 9 0;
#X connect 1 0 5 0;
#X connect 2 0 0 0;
#X connect 4 0 1 0;
#X connect 5 0 3 0;
#X connect 5 0 7 1;
#X connect 6 0 7 0;
#X connect 7 0 3 0;
#X connect 8 0 1 0;
#X connect 9 0 1 0;
#X connect 9 0 4 0;
#X restore 158 80 pd opendos;
#N canvas 12 356 450 300 opentres 0;
#X obj 45 78 openpanel;
#X msg 45 144 read -resize /home/juan/pd-externals/samples/loops/cuchitotambora-02.wav
t3;
#X obj 45 58 inlet;
#X obj 45 192 outlet;
#X obj 45 121 bang;
#X obj 45 170 soundfiler;
#X obj 249 82 inlet;
#X obj 249 217 f;
#X obj 91 123 loadbang;
#X msg 45 97 set read -resize \$1 t7;
#X connect 0 0 9 0;
#X connect 1 0 5 0;
#X connect 2 0 0 0;
#X connect 4 0 1 0;
#X connect 5 0 3 0;
#X connect 5 0 7 1;
#X connect 6 0 7 0;
#X connect 7 0 3 0;
#X connect 8 0 1 0;
#X connect 9 0 1 0;
#X connect 9 0 4 0;
#X restore 225 80 pd opentres;
#X obj 79 319 bang;
#X msg 149 236 2;
#X obj 99 36 sel 0 1 2 3;
#N canvas 567 50 659 270 analizador 0;
#X obj 294 29 inlet;
#X obj 30 61 < 0.1;
#X obj 30 81 sel 1;
#X obj 79 62 > 0.1;
#X obj 116 62 < 0.19;
#X obj 79 82 &&;
#X obj 79 101 sel 1;
#X obj 159 82 &&;
#X obj 159 101 sel 1;
#X obj 159 62 > 0.19;
#X obj 202 62 < 0.4;
#X obj 239 82 &&;
#X obj 239 101 sel 1;
#X obj 302 162 outlet;
#X obj 239 62 > 0.4;
#X obj 276 62 < 0.8;
#X obj 313 82 &&;
#X obj 313 101 sel 1;
#X obj 313 62 > 0.8;
#X obj 350 62 < 1.66;
#X obj 393 82 &&;
#X obj 393 101 sel 1;
#X obj 393 62 > 1.66;
#X obj 435 62 < 3;
#X obj 476 82 &&;
#X obj 476 101 sel 1;
#X obj 476 62 > 3;
#X obj 502 62 < 6.66;
#X obj 545 82 &&;
#X obj 545 101 sel 1;
#X obj 545 62 > 6.66;
#X obj 589 62 < 10;
#X msg 30 101 0;
#X msg 79 121 1;
#X msg 159 121 2;
#X msg 239 122 3;
#X msg 313 122 4;
#X msg 393 122 5;
#X msg 476 122 6;
#X msg 545 122 7;
#X connect 0 0 1 0;
#X connect 0 0 3 0;
#X connect 0 0 4 0;
#X connect 0 0 9 0;
#X connect 0 0 10 0;
#X connect 0 0 14 0;
#X connect 0 0 15 0;
#X connect 0 0 18 0;
#X connect 0 0 19 0;
#X connect 0 0 22 0;
#X connect 0 0 23 0;
#X connect 0 0 26 0;
#X connect 0 0 27 0;
#X connect 0 0 30 0;
#X connect 0 0 31 0;
#X connect 1 0 2 0;
#X connect 2 0 32 0;
#X connect 3 0 5 0;
#X connect 4 0 5 1;
#X connect 5 0 6 0;
#X connect 6 0 33 0;
#X connect 7 0 8 0;
#X connect 8 0 34 0;
#X connect 9 0 7 0;
#X connect 10 0 7 1;
#X connect 11 0 12 0;
#X connect 12 0 35 0;
#X connect 14 0 11 0;
#X connect 15 0 11 1;
#X connect 16 0 17 0;
#X connect 17 0 36 0;
#X connect 18 0 16 0;
#X connect 19 0 16 1;
#X connect 20 0 21 0;
#X connect 21 0 37 0;
#X connect 22 0 20 0;
#X connect 23 0 20 1;
#X connect 24 0 25 0;
#X connect 25 0 38 0;
#X connect 26 0 24 0;
#X connect 27 0 24 1;
#X connect 28 0 29 0;
#X connect 29 0 39 0;
#X connect 30 0 28 0;
#X connect 31 0 28 1;
#X connect 32 0 13 0;
#X connect 33 0 13 0;
#X connect 34 0 13 0;
#X connect 35 0 13 0;
#X connect 36 0 13 0;
#X connect 37 0 13 0;
#X connect 38 0 13 0;
#X connect 39 0 13 0;
#X restore 149 197 pd analizador;
#X obj 104 217 loadbang;
#X obj 249 252 line~;
#X obj 23 363 *~;
#X msg 248 191 0 10;
#X msg 249 220 1 10;
#X obj 23 342 tabread4~ t0;
#X obj 24 267 *~;
#X obj 61 250 + 0;
#X obj 88 280 + 4;
#X floatatom 228 164 5 0 0 0 - - -;
#X connect 4 0 40 0;
#X connect 5 0 6 0;
#X connect 5 0 8 0;
#X connect 5 0 38 0;
#X connect 5 1 7 0;
#X connect 5 1 37 0;
#X connect 6 0 4 1;
#X connect 7 0 4 0;
#X connect 8 0 10 0;
#X connect 9 0 4 0;
#X connect 10 0 9 0;
#X connect 10 1 9 1;
#X connect 11 0 12 0;
#X connect 11 1 12 1;
#X connect 12 0 10 1;
#X connect 13 0 11 1;
#X connect 14 0 39 0;
#X connect 15 0 14 0;
#X connect 15 0 30 0;
#X connect 16 0 22 0;
#X connect 16 1 27 0;
#X connect 16 2 28 0;
#X connect 16 3 29 0;
#X connect 17 0 32 0;
#X connect 17 0 42 0;
#X connect 18 0 5 0;
#X connect 19 0 33 0;
#X connect 19 0 43 0;
#X connect 20 0 19 0;
#X connect 20 1 19 1;
#X connect 21 0 20 1;
#X connect 22 0 20 0;
#X connect 22 0 41 0;
#X connect 23 0 13 0;
#X connect 24 0 16 0;
#X connect 25 0 8 1;
#X connect 27 0 20 0;
#X connect 27 0 41 0;
#X connect 28 0 20 0;
#X connect 28 0 41 0;
#X connect 29 0 20 0;
#X connect 29 0 41 0;
#X connect 30 0 14 0;
#X connect 31 0 11 0;
#X connect 32 0 22 1;
#X connect 32 1 27 1;
#X connect 32 2 28 1;
#X connect 32 3 29 1;
#X connect 33 0 13 0;
#X connect 34 0 31 0;
#X connect 35 0 36 1;
#X connect 36 0 26 0;
#X connect 37 0 35 0;
#X connect 38 0 35 0;
#X connect 39 0 36 0;
#X connect 40 0 39 0;
#X connect 41 0 40 1;
#X connect 42 0 15 0;
