#N canvas 854 181 369 520 10;
#X obj -954 -1083 hid;
#X msg -954 -1123 refresh;
#X obj -954 -1063 route key abs;
#X obj -954 -1043 route btn_0 btn_1 btn_2 btn_3 btn_4 btn_5 btn_6 btn_7
btn_8 btn_9;
#X obj -954 -1010 change;
#X msg -897 -1105 open \$1 \, 1;
#X obj -897 -1124 inlet;
#X obj -954 -990 s lb1;
#X obj -919 -968 change;
#X obj -884 -1010 change;
#X obj -849 -968 change;
#X obj -814 -1010 change;
#X obj -779 -968 change;
#X obj -744 -1010 change;
#X obj -709 -968 change;
#X obj -674 -1010 change;
#X obj -639 -968 change;
#X obj -917 -929 route abs_x abs_y;
#X obj -868 -910 s ley;
#X obj -917 -910 s lex;
#X obj -917 -890 bondo;
#X obj -917 -870 expr if ($f1==255 && $f2==128 \, 1 \, 0) \; if ($f1==255
&& $f2==255 \, 1 \, 0) \; if ($f1==128 && $f2==255 \, 1 \, 0) \; if
($f1==1 && $f2==255 \, 1 \, 0) \; if ($f1==1 && $f2==128 \, 1 \, 0)
\; if ($f1==1 && $f2==1 \, 1 \, 0) \; if ($f1==128 && $f2==1 \, 1 \,
0) \; if ($f1==255 && $f2==1 \, 1 \, 0) \;;
#X obj -919 -948 s lb2;
#X obj -884 -990 s lb3;
#X obj -849 -948 s lb4;
#X obj -815 -990 s lb5;
#X obj -779 -948 s lb6;
#X obj -744 -990 s lb7;
#X obj -709 -948 s lb8;
#X obj -674 -990 s lb9;
#X obj -639 -948 s lb10;
#X msg -791 -1101 12;
#X obj -917 -710 s ld;
#X obj -886 -688 s ldb;
#X obj -855 -710 s lb;
#X obj -824 -688 s lib;
#X obj -792 -710 s li;
#X obj -761 -688 s lia;
#X obj -730 -710 s la;
#X obj -698 -688 s lda;
#X obj -917 -760 change;
#X obj -886 -738 change;
#X obj -855 -760 change;
#X obj -824 -738 change;
#X obj -792 -760 change;
#X obj -761 -738 change;
#X obj -730 -760 change;
#X obj -698 -738 change;
#X connect 0 0 2 0;
#X connect 1 0 0 0;
#X connect 2 0 3 0;
#X connect 2 1 17 0;
#X connect 3 0 4 0;
#X connect 3 1 8 0;
#X connect 3 2 9 0;
#X connect 3 3 10 0;
#X connect 3 4 11 0;
#X connect 3 5 12 0;
#X connect 3 6 13 0;
#X connect 3 7 14 0;
#X connect 3 8 15 0;
#X connect 3 9 16 0;
#X connect 4 0 7 0;
#X connect 5 0 0 0;
#X connect 6 0 5 0;
#X connect 8 0 22 0;
#X connect 9 0 23 0;
#X connect 10 0 24 0;
#X connect 11 0 25 0;
#X connect 12 0 26 0;
#X connect 13 0 27 0;
#X connect 14 0 28 0;
#X connect 15 0 29 0;
#X connect 16 0 30 0;
#X connect 17 0 19 0;
#X connect 17 0 20 0;
#X connect 17 1 18 0;
#X connect 17 1 20 1;
#X connect 20 0 21 0;
#X connect 20 1 21 1;
#X connect 21 0 40 0;
#X connect 21 1 41 0;
#X connect 21 2 42 0;
#X connect 21 3 43 0;
#X connect 21 4 44 0;
#X connect 21 5 45 0;
#X connect 21 6 46 0;
#X connect 21 7 47 0;
#X connect 31 0 5 0;
#X connect 40 0 32 0;
#X connect 41 0 33 0;
#X connect 42 0 34 0;
#X connect 43 0 35 0;
#X connect 44 0 36 0;
#X connect 45 0 37 0;
#X connect 46 0 38 0;
#X connect 47 0 39 0;
