#N canvas 0 96 1152 768 10;
#X obj 66 145 / 100;
#X obj 37 501 s multitodo;
#X obj 80 69 / 100;
#X obj 94 88 / 100;
#X obj 109 107 / 100;
#X obj 124 69 / 100;
#X obj 138 88 / 100;
#X obj 153 107 / 100;
#X obj 167 69 / 100;
#X obj 182 88 / 100;
#X obj 196 107 / 100;
#X obj 211 69 / 100;
#X obj 225 88 / 100;
#X obj 240 107 / 100;
#X obj 298 69 / 100;
#X obj 254 69 / 100;
#X obj 269 88 / 100;
#X obj 283 107 / 100;
#X msg 37 126 send /2/multifader/1 \$1;
#X msg 80 183 send /2/multitoggle/6/1 \$1;
#X msg 95 203 send /2/multitoggle/6/2 \$1;
#X msg 109 223 send /2/multitoggle/6/3 \$1;
#X msg 124 243 send /2/multitoggle/6/4 \$1;
#X msg 138 263 send /2/multitoggle/6/5 \$1;
#X msg 153 283 send /2/multitoggle/6/6 \$1;
#X msg 167 303 send /2/multitoggle/6/7 \$1;
#X msg 182 323 send /2/multitoggle/6/8 \$1;
#X msg 196 343 send /2/multitoggle/6/9 \$1;
#X msg 211 363 send /2/multitoggle/6/10 \$1;
#X msg 225 383 send /2/multitoggle/6/11 \$1;
#X msg 240 403 send /2/multitoggle/6/12 \$1;
#X msg 254 423 send /2/multitoggle/6/13 \$1;
#X msg 269 443 send /2/multitoggle/6/14 \$1;
#X msg 283 463 send /2/multitoggle/6/15 \$1;
#X msg 298 483 send /2/multitoggle/6/16 \$1;
#X obj 312 88 / 100;
#X obj 326 107 / 100;
#X obj 341 69 / 100;
#X obj 355 88 / 100;
#X obj 370 107 / 100;
#X obj 384 69 / 100;
#X obj 399 88 / 100;
#X obj 413 107 / 100;
#X msg 316 503 send /2/multitoggle/2/1 \$1;
#X msg 331 523 send /2/multitoggle/2/2 \$1;
#X msg 345 543 send /2/multitoggle/2/3 \$1;
#X msg 360 563 send /2/multitoggle/2/4 \$1;
#X msg 374 583 send /2/multitoggle/2/5 \$1;
#X msg 389 603 send /2/multitoggle/2/6 \$1;
#X msg 403 623 send /2/multitoggle/2/7 \$1;
#X msg 418 643 send /2/multitoggle/2/8 \$1;
#X msg 66 164 send /2/multifader/5 \$1;
#X obj 37 50 unpack 0 0 0 0 0 0 0 0 0 0 0 0 0 0 0 0 0 0 0 0 0 0 0 0
0 0 0 0, f 78;
#X msg 502 663 send /2/multifader/9 \$1;
#X obj 37 5 inlet;
#X connect 0 0 51 0;
#X connect 2 0 19 0;
#X connect 3 0 20 0;
#X connect 4 0 21 0;
#X connect 5 0 22 0;
#X connect 6 0 23 0;
#X connect 7 0 24 0;
#X connect 8 0 25 0;
#X connect 9 0 26 0;
#X connect 10 0 27 0;
#X connect 11 0 28 0;
#X connect 12 0 29 0;
#X connect 13 0 30 0;
#X connect 14 0 34 0;
#X connect 15 0 31 0;
#X connect 16 0 32 0;
#X connect 17 0 33 0;
#X connect 18 0 1 0;
#X connect 19 0 1 0;
#X connect 20 0 1 0;
#X connect 21 0 1 0;
#X connect 22 0 1 0;
#X connect 23 0 1 0;
#X connect 24 0 1 0;
#X connect 25 0 1 0;
#X connect 26 0 1 0;
#X connect 27 0 1 0;
#X connect 28 0 1 0;
#X connect 29 0 1 0;
#X connect 30 0 1 0;
#X connect 31 0 1 0;
#X connect 32 0 1 0;
#X connect 33 0 1 0;
#X connect 34 0 1 0;
#X connect 35 0 43 0;
#X connect 36 0 44 0;
#X connect 37 0 45 0;
#X connect 38 0 46 0;
#X connect 39 0 47 0;
#X connect 40 0 48 0;
#X connect 41 0 49 0;
#X connect 42 0 50 0;
#X connect 43 0 1 0;
#X connect 44 0 1 0;
#X connect 45 0 1 0;
#X connect 46 0 1 0;
#X connect 47 0 1 0;
#X connect 48 0 1 0;
#X connect 49 0 1 0;
#X connect 50 0 1 0;
#X connect 51 0 1 0;
#X connect 52 0 18 0;
#X connect 52 2 0 0;
#X connect 52 3 2 0;
#X connect 52 4 3 0;
#X connect 52 5 4 0;
#X connect 52 6 5 0;
#X connect 52 7 6 0;
#X connect 52 8 7 0;
#X connect 52 9 8 0;
#X connect 52 10 9 0;
#X connect 52 11 10 0;
#X connect 52 12 11 0;
#X connect 52 13 12 0;
#X connect 52 14 13 0;
#X connect 52 15 15 0;
#X connect 52 16 16 0;
#X connect 52 17 17 0;
#X connect 52 18 14 0;
#X connect 52 19 35 0;
#X connect 52 20 36 0;
#X connect 52 21 37 0;
#X connect 52 22 38 0;
#X connect 52 23 39 0;
#X connect 52 24 40 0;
#X connect 52 25 41 0;
#X connect 52 26 42 0;
#X connect 52 27 53 0;
#X connect 53 0 1 0;
#X connect 54 0 52 0;
