#N canvas 824 167 450 351 10;
#X obj -348 -197 loadbang;
#X obj -348 67 sendOSC;
#X msg -196 -176 disconnect;
#N canvas 197 182 718 408 metalstrike 0;
#X obj -246 -1 r mex;
#X obj -223 24 r mey;
#X obj -200 -2 r mer;
#X obj -177 24 r met;
#X obj -65 246 outlet;
#X obj -18 -91 r mb1;
#X obj -18 -52 r mb2;
#X obj -18 -13 r mb3;
#X obj -18 27 r mb4;
#X obj -18 66 r mb5;
#X obj -18 105 r mb6;
#X obj 195 -81 r mb7;
#X obj 195 -42 r mb8;
#X obj 195 -3 r mb9;
#X obj 195 37 r mb10;
#X obj 195 76 r mb11;
#X obj 195 115 r mb12;
#X obj 205 155 r mb13;
#X obj -246 64 pack f f f f;
#X obj -246 44 bondo 4 ----;
#X msg -246 84 send /metalstrikeanalogo \$1 \$2 \$3 \$4;
#X msg -18 208 send /metalstrikedigital \$1 \$2 \$3 \$4 \$5 \$6 \$7
\$8 \$9 \$10 \$11 \$12 \$13;
#X obj -19 153 bondo 13 ------------------------;
#X obj -20 180 pack f f f f f f f f f f f f f;
#X connect 0 0 19 0;
#X connect 1 0 19 1;
#X connect 2 0 19 2;
#X connect 3 0 19 3;
#X connect 5 0 22 0;
#X connect 6 0 22 1;
#X connect 7 0 22 2;
#X connect 8 0 22 3;
#X connect 9 0 22 4;
#X connect 10 0 22 5;
#X connect 11 0 22 6;
#X connect 12 0 22 7;
#X connect 13 0 22 8;
#X connect 14 0 22 9;
#X connect 15 0 22 10;
#X connect 16 0 22 11;
#X connect 17 0 22 12;
#X connect 18 0 20 0;
#X connect 19 0 18 0;
#X connect 19 1 18 1;
#X connect 19 2 18 2;
#X connect 19 3 18 3;
#X connect 20 0 4 0;
#X connect 21 0 4 0;
#X connect 22 0 23 0;
#X connect 22 1 23 1;
#X connect 22 2 23 2;
#X connect 22 3 23 3;
#X connect 22 4 23 4;
#X connect 22 5 23 5;
#X connect 22 6 23 6;
#X connect 22 7 23 7;
#X connect 22 8 23 8;
#X connect 22 9 23 9;
#X connect 22 10 23 10;
#X connect 22 11 23 11;
#X connect 22 12 23 12;
#X connect 23 0 21 0;
#X restore -322 -43 pd metalstrike;
#N canvas 140 236 811 464 maxfire 0;
#X obj -55 226 outlet;
#X msg -236 -60 send /maxfire/analogo/ejey \$1;
#X msg -236 -19 send /maxfire/analogo/ejex \$1;
#X msg -236 21 send /maxfire/analogo/ejez \$1;
#X msg -236 62 send /maxfire/analogo/ejet \$1;
#X msg -8 -61 send /maxfire/digital/uno \$1;
#X msg -8 -22 send /maxfire/digital/dos \$1;
#X msg -8 17 send /maxfire/digital/tres \$1;
#X msg -8 57 send /maxfire/digital/cuatro \$1;
#X msg -8 96 send /maxfire/digital/cinco \$1;
#X msg -8 135 send /maxfire/digital/seis \$1;
#X msg 205 -51 send /maxfire/digital/siete \$1;
#X msg 205 -12 send /maxfire/digital/ocho \$1;
#X msg 205 27 send /maxfire/digital/nueve \$1;
#X msg 205 66 send /maxfire/digital/diez \$1;
#X msg 205 106 send /maxfire/digital/once \$1;
#X msg 205 145 send /maxfire/digital/doce \$1;
#X obj -236 -79 r Mey;
#X obj -236 -38 r Mex;
#X obj -236 2 r Mer;
#X obj -236 43 r Met;
#X obj -8 -81 r Mb1;
#X obj -8 -42 r Mb2;
#X obj -8 -3 r Mb3;
#X obj -8 37 r Mb4;
#X obj -8 76 r Mb5;
#X obj -8 115 r Mb6;
#X obj 205 -71 r Mb7;
#X obj 205 -32 r Mb8;
#X obj 205 7 r Mb9;
#X obj 205 47 r Mb10;
#X obj 205 86 r Mb11;
#X obj 205 125 r Mb12;
#X connect 1 0 0 0;
#X connect 2 0 0 0;
#X connect 3 0 0 0;
#X connect 4 0 0 0;
#X connect 5 0 0 0;
#X connect 6 0 0 0;
#X connect 7 0 0 0;
#X connect 8 0 0 0;
#X connect 9 0 0 0;
#X connect 10 0 0 0;
#X connect 11 0 0 0;
#X connect 12 0 0 0;
#X connect 13 0 0 0;
#X connect 14 0 0 0;
#X connect 15 0 0 0;
#X connect 16 0 0 0;
#X connect 17 0 1 0;
#X connect 18 0 2 0;
#X connect 19 0 3 0;
#X connect 20 0 4 0;
#X connect 21 0 5 0;
#X connect 22 0 6 0;
#X connect 23 0 7 0;
#X connect 24 0 8 0;
#X connect 25 0 9 0;
#X connect 26 0 10 0;
#X connect 27 0 11 0;
#X connect 28 0 12 0;
#X connect 29 0 13 0;
#X connect 30 0 14 0;
#X connect 31 0 15 0;
#X connect 32 0 16 0;
#X restore -217 -41 pd maxfire;
#X msg -348 -176 connect localhost 3333;
#X connect 0 0 5 0;
#X connect 2 0 1 0;
#X connect 3 0 1 0;
#X connect 4 0 1 0;
#X connect 5 0 1 0;
