#N canvas 134 155 904 701 10;
#X obj 78 121 / 100;
#X obj 49 477 s multitodo;
#X obj 92 45 / 100;
#X obj 106 64 / 100;
#X obj 121 83 / 100;
#X obj 136 45 / 100;
#X obj 150 64 / 100;
#X obj 165 83 / 100;
#X obj 179 45 / 100;
#X obj 194 64 / 100;
#X obj 208 83 / 100;
#X obj 223 45 / 100;
#X obj 237 64 / 100;
#X obj 252 83 / 100;
#X obj 310 45 / 100;
#X obj 266 45 / 100;
#X obj 281 64 / 100;
#X obj 295 83 / 100;
#X msg 107 179 send /2/multitoggle/5/2 \$1;
#X msg 121 199 send /2/multitoggle/5/3 \$1;
#X msg 136 219 send /2/multitoggle/5/4 \$1;
#X msg 150 239 send /2/multitoggle/5/5 \$1;
#X msg 165 259 send /2/multitoggle/5/6 \$1;
#X msg 179 279 send /2/multitoggle/5/7 \$1;
#X msg 194 299 send /2/multitoggle/5/8 \$1;
#X msg 208 319 send /2/multitoggle/5/9 \$1;
#X msg 223 339 send /2/multitoggle/5/10 \$1;
#X msg 237 359 send /2/multitoggle/5/11 \$1;
#X msg 252 379 send /2/multitoggle/5/12 \$1;
#X msg 266 399 send /2/multitoggle/5/13 \$1;
#X msg 281 419 send /2/multitoggle/5/14 \$1;
#X msg 295 439 send /2/multitoggle/5/15 \$1;
#X msg 310 459 send /2/multitoggle/5/16 \$1;
#X msg 92 159 send /2/multitoggle/5/1 \$1;
#X obj 324 64 / 100;
#X obj 338 83 / 100;
#X obj 353 45 / 100;
#X obj 367 64 / 100;
#X obj 382 83 / 100;
#X obj 396 45 / 100;
#X obj 411 64 / 100;
#X obj 425 83 / 100;
#X msg 328 479 send /2/multitoggle/2/9 \$1;
#X msg 343 499 send /2/multitoggle/2/10 \$1;
#X msg 357 519 send /2/multitoggle/2/11 \$1;
#X msg 372 539 send /2/multitoggle/2/12 \$1;
#X msg 386 559 send /2/multitoggle/2/13 \$1;
#X msg 401 579 send /2/multitoggle/2/14 \$1;
#X msg 415 599 send /2/multitoggle/2/15 \$1;
#X msg 430 619 send /2/multitoggle/2/16 \$1;
#X msg 49 102 send /2/multifader/2 \$1;
#X msg 78 140 send /2/multifader/6 \$1;
#X obj 49 26 unpack 0 0 0 0 0 0 0 0 0 0 0 0 0 0 0 0 0 0 0 0 0 0 0 0
0 0 0 0, f 71;
#X msg 472 639 send /2/multifader/10 \$1;
#X obj 49 7 inlet;
#X connect 0 0 51 0;
#X connect 2 0 33 0;
#X connect 3 0 18 0;
#X connect 4 0 19 0;
#X connect 5 0 20 0;
#X connect 6 0 21 0;
#X connect 7 0 22 0;
#X connect 8 0 23 0;
#X connect 9 0 24 0;
#X connect 10 0 25 0;
#X connect 11 0 26 0;
#X connect 12 0 27 0;
#X connect 13 0 28 0;
#X connect 14 0 32 0;
#X connect 15 0 29 0;
#X connect 16 0 30 0;
#X connect 17 0 31 0;
#X connect 18 0 1 0;
#X connect 19 0 1 0;
#X connect 20 0 1 0;
#X connect 21 0 1 0;
#X connect 22 0 1 0;
#X connect 23 0 1 0;
#X connect 24 0 1 0;
#X connect 25 0 1 0;
#X connect 26 0 1 0;
#X connect 27 0 1 0;
#X connect 28 0 1 0;
#X connect 29 0 1 0;
#X connect 30 0 1 0;
#X connect 31 0 1 0;
#X connect 32 0 1 0;
#X connect 33 0 1 0;
#X connect 34 0 42 0;
#X connect 35 0 43 0;
#X connect 36 0 44 0;
#X connect 37 0 45 0;
#X connect 38 0 46 0;
#X connect 39 0 47 0;
#X connect 40 0 48 0;
#X connect 41 0 49 0;
#X connect 42 0 1 0;
#X connect 43 0 1 0;
#X connect 44 0 1 0;
#X connect 45 0 1 0;
#X connect 46 0 1 0;
#X connect 47 0 1 0;
#X connect 48 0 1 0;
#X connect 49 0 1 0;
#X connect 50 0 1 0;
#X connect 51 0 1 0;
#X connect 52 0 50 0;
#X connect 52 2 0 0;
#X connect 52 3 2 0;
#X connect 52 4 3 0;
#X connect 52 5 4 0;
#X connect 52 6 5 0;
#X connect 52 7 6 0;
#X connect 52 8 7 0;
#X connect 52 9 8 0;
#X connect 52 10 9 0;
#X connect 52 11 10 0;
#X connect 52 12 11 0;
#X connect 52 13 12 0;
#X connect 52 14 13 0;
#X connect 52 15 15 0;
#X connect 52 16 16 0;
#X connect 52 17 17 0;
#X connect 52 18 14 0;
#X connect 52 19 34 0;
#X connect 52 20 35 0;
#X connect 52 21 36 0;
#X connect 52 22 37 0;
#X connect 52 23 38 0;
#X connect 52 24 39 0;
#X connect 52 25 40 0;
#X connect 52 26 41 0;
#X connect 52 27 53 0;
#X connect 53 0 1 0;
#X connect 54 0 52 0;
