#N canvas 135 96 904 701 10;
#X obj 59 134 / 100;
#X obj 30 490 s multitodo;
#X obj 73 58 / 100;
#X obj 87 77 / 100;
#X obj 102 96 / 100;
#X obj 117 58 / 100;
#X obj 131 77 / 100;
#X obj 146 96 / 100;
#X obj 160 58 / 100;
#X obj 175 77 / 100;
#X obj 189 96 / 100;
#X obj 204 58 / 100;
#X obj 218 77 / 100;
#X obj 233 96 / 100;
#X obj 291 58 / 100;
#X obj 247 58 / 100;
#X obj 262 77 / 100;
#X obj 276 96 / 100;
#X msg 59 153 send /2/multifader/8 \$1;
#X msg 73 172 send /2/multitoggle/3/1 \$1;
#X msg 88 192 send /2/multitoggle/3/2 \$1;
#X msg 102 212 send /2/multitoggle/3/3 \$1;
#X msg 117 232 send /2/multitoggle/3/4 \$1;
#X msg 131 252 send /2/multitoggle/3/5 \$1;
#X msg 146 272 send /2/multitoggle/3/6 \$1;
#X msg 160 292 send /2/multitoggle/3/7 \$1;
#X msg 175 312 send /2/multitoggle/3/8 \$1;
#X msg 189 332 send /2/multitoggle/3/9 \$1;
#X msg 204 352 send /2/multitoggle/3/10 \$1;
#X msg 218 372 send /2/multitoggle/3/11 \$1;
#X msg 233 392 send /2/multitoggle/3/12 \$1;
#X msg 247 412 send /2/multitoggle/3/13 \$1;
#X msg 262 432 send /2/multitoggle/3/14 \$1;
#X msg 276 452 send /2/multitoggle/3/15 \$1;
#X msg 291 472 send /2/multitoggle/3/16 \$1;
#X obj 305 77 / 100;
#X obj 319 96 / 100;
#X obj 334 58 / 100;
#X obj 348 77 / 100;
#X obj 363 96 / 100;
#X obj 377 58 / 100;
#X obj 392 77 / 100;
#X obj 406 96 / 100;
#X msg 411 632 send /2/multitoggle/1/16 \$1;
#X msg 396 612 send /2/multitoggle/1/15 \$1;
#X msg 382 592 send /2/multitoggle/1/14 \$1;
#X msg 367 572 send /2/multitoggle/1/13 \$1;
#X msg 353 552 send /2/multitoggle/1/12 \$1;
#X msg 338 532 send /2/multitoggle/1/11 \$1;
#X msg 324 512 send /2/multitoggle/1/10 \$1;
#X msg 309 492 send /2/multitoggle/1/9 \$1;
#X msg 30 115 send /2/multifader/4 \$1;
#X obj 30 20 inlet;
#X obj 30 39 unpack 0 0 0 0 0 0 0 0 0 0 0 0 0 0 0 0 0 0 0 0 0 0 0 0
0 0 0 0, f 65;
#X msg 429 653 send /2/multifader/12 \$1;
#X connect 0 0 18 0;
#X connect 2 0 19 0;
#X connect 3 0 20 0;
#X connect 4 0 21 0;
#X connect 5 0 22 0;
#X connect 6 0 23 0;
#X connect 7 0 24 0;
#X connect 8 0 25 0;
#X connect 9 0 26 0;
#X connect 10 0 27 0;
#X connect 11 0 28 0;
#X connect 12 0 29 0;
#X connect 13 0 30 0;
#X connect 14 0 34 0;
#X connect 15 0 31 0;
#X connect 16 0 32 0;
#X connect 17 0 33 0;
#X connect 18 0 1 0;
#X connect 19 0 1 0;
#X connect 20 0 1 0;
#X connect 21 0 1 0;
#X connect 22 0 1 0;
#X connect 23 0 1 0;
#X connect 24 0 1 0;
#X connect 25 0 1 0;
#X connect 26 0 1 0;
#X connect 27 0 1 0;
#X connect 28 0 1 0;
#X connect 29 0 1 0;
#X connect 30 0 1 0;
#X connect 31 0 1 0;
#X connect 32 0 1 0;
#X connect 33 0 1 0;
#X connect 34 0 1 0;
#X connect 35 0 50 0;
#X connect 36 0 49 0;
#X connect 37 0 48 0;
#X connect 38 0 47 0;
#X connect 39 0 46 0;
#X connect 40 0 45 0;
#X connect 41 0 44 0;
#X connect 42 0 43 0;
#X connect 43 0 1 0;
#X connect 44 0 1 0;
#X connect 45 0 1 0;
#X connect 46 0 1 0;
#X connect 47 0 1 0;
#X connect 48 0 1 0;
#X connect 49 0 1 0;
#X connect 50 0 1 0;
#X connect 51 0 1 0;
#X connect 52 0 53 0;
#X connect 53 0 51 0;
#X connect 53 2 0 0;
#X connect 53 3 2 0;
#X connect 53 4 3 0;
#X connect 53 5 4 0;
#X connect 53 6 5 0;
#X connect 53 7 6 0;
#X connect 53 8 7 0;
#X connect 53 9 8 0;
#X connect 53 10 9 0;
#X connect 53 11 10 0;
#X connect 53 12 11 0;
#X connect 53 13 12 0;
#X connect 53 14 13 0;
#X connect 53 15 15 0;
#X connect 53 16 16 0;
#X connect 53 17 17 0;
#X connect 53 18 14 0;
#X connect 53 19 35 0;
#X connect 53 20 36 0;
#X connect 53 21 37 0;
#X connect 53 22 38 0;
#X connect 53 23 39 0;
#X connect 53 24 40 0;
#X connect 53 25 41 0;
#X connect 53 26 42 0;
