#N canvas 155 109 904 701 10;
#X obj 92 131 / 100;
#X obj 63 487 s multitodo;
#X obj 106 55 / 100;
#X obj 120 74 / 100;
#X obj 135 93 / 100;
#X obj 150 55 / 100;
#X obj 164 74 / 100;
#X obj 179 93 / 100;
#X obj 193 55 / 100;
#X obj 208 74 / 100;
#X obj 222 93 / 100;
#X obj 237 55 / 100;
#X obj 251 74 / 100;
#X obj 266 93 / 100;
#X obj 324 55 / 100;
#X obj 280 55 / 100;
#X obj 295 74 / 100;
#X obj 309 93 / 100;
#X msg 106 169 send /2/multitoggle/4/1 \$1;
#X msg 121 189 send /2/multitoggle/4/2 \$1;
#X msg 135 209 send /2/multitoggle/4/3 \$1;
#X msg 150 229 send /2/multitoggle/4/4 \$1;
#X msg 164 249 send /2/multitoggle/4/5 \$1;
#X msg 179 269 send /2/multitoggle/4/6 \$1;
#X msg 193 289 send /2/multitoggle/4/7 \$1;
#X msg 208 309 send /2/multitoggle/4/8 \$1;
#X msg 222 329 send /2/multitoggle/4/9 \$1;
#X msg 237 349 send /2/multitoggle/4/10 \$1;
#X msg 251 369 send /2/multitoggle/4/11 \$1;
#X msg 266 389 send /2/multitoggle/4/12 \$1;
#X msg 280 409 send /2/multitoggle/4/13 \$1;
#X msg 295 429 send /2/multitoggle/4/14 \$1;
#X msg 309 449 send /2/multitoggle/4/15 \$1;
#X msg 324 469 send /2/multitoggle/4/16 \$1;
#X obj 338 74 / 100;
#X obj 352 93 / 100;
#X obj 367 55 / 100;
#X obj 381 74 / 100;
#X obj 396 93 / 100;
#X obj 410 55 / 100;
#X obj 425 74 / 100;
#X obj 439 93 / 100;
#X msg 438 629 send /2/multitoggle/1/8 \$1;
#X msg 423 609 send /2/multitoggle/1/7 \$1;
#X msg 409 589 send /2/multitoggle/1/6 \$1;
#X msg 394 569 send /2/multitoggle/1/5 \$1;
#X msg 380 549 send /2/multitoggle/1/4 \$1;
#X msg 365 529 send /2/multitoggle/1/3 \$1;
#X msg 351 509 send /2/multitoggle/1/2 \$1;
#X msg 336 489 send /2/multitoggle/1/1 \$1;
#X msg 63 112 send /2/multifader/3 \$1;
#X msg 92 150 send /2/multifader/7 \$1;
#X obj 63 36 unpack 0 0 0 0 0 0 0 0 0 0 0 0 0 0 0 0 0 0 0 0 0 0 0 0
0 0 0 0, f 66;
#X msg 452 650 send /2/multifader/11 \$1;
#X obj 63 16 inlet;
#X connect 0 0 51 0;
#X connect 2 0 18 0;
#X connect 3 0 19 0;
#X connect 4 0 20 0;
#X connect 5 0 21 0;
#X connect 6 0 22 0;
#X connect 7 0 23 0;
#X connect 8 0 24 0;
#X connect 9 0 25 0;
#X connect 10 0 26 0;
#X connect 11 0 27 0;
#X connect 12 0 28 0;
#X connect 13 0 29 0;
#X connect 14 0 33 0;
#X connect 15 0 30 0;
#X connect 16 0 31 0;
#X connect 17 0 32 0;
#X connect 18 0 1 0;
#X connect 19 0 1 0;
#X connect 20 0 1 0;
#X connect 21 0 1 0;
#X connect 22 0 1 0;
#X connect 23 0 1 0;
#X connect 24 0 1 0;
#X connect 25 0 1 0;
#X connect 26 0 1 0;
#X connect 27 0 1 0;
#X connect 28 0 1 0;
#X connect 29 0 1 0;
#X connect 30 0 1 0;
#X connect 31 0 1 0;
#X connect 32 0 1 0;
#X connect 33 0 1 0;
#X connect 34 0 49 0;
#X connect 35 0 48 0;
#X connect 36 0 47 0;
#X connect 37 0 46 0;
#X connect 38 0 45 0;
#X connect 39 0 44 0;
#X connect 40 0 43 0;
#X connect 41 0 42 0;
#X connect 42 0 1 0;
#X connect 43 0 1 0;
#X connect 44 0 1 0;
#X connect 45 0 1 0;
#X connect 46 0 1 0;
#X connect 47 0 1 0;
#X connect 48 0 1 0;
#X connect 49 0 1 0;
#X connect 50 0 1 0;
#X connect 51 0 1 0;
#X connect 52 0 50 0;
#X connect 52 2 0 0;
#X connect 52 3 2 0;
#X connect 52 4 3 0;
#X connect 52 5 4 0;
#X connect 52 6 5 0;
#X connect 52 7 6 0;
#X connect 52 8 7 0;
#X connect 52 9 8 0;
#X connect 52 10 9 0;
#X connect 52 11 10 0;
#X connect 52 12 11 0;
#X connect 52 13 12 0;
#X connect 52 14 13 0;
#X connect 52 15 15 0;
#X connect 52 16 16 0;
#X connect 52 17 17 0;
#X connect 52 18 14 0;
#X connect 52 19 34 0;
#X connect 52 20 35 0;
#X connect 52 21 36 0;
#X connect 52 22 37 0;
#X connect 52 23 38 0;
#X connect 52 24 39 0;
#X connect 52 25 40 0;
#X connect 52 26 41 0;
#X connect 52 27 53 0;
#X connect 53 0 1 0;
#X connect 54 0 52 0;
