#N canvas 694 87 403 734 10;
#X msg 3 41 open \$1 \, 1;
#X obj 3 79 route key abs;
#X obj 3 98 route btn_0 btn_1 btn_2 btn_3 btn_4 btn_5 btn_6 btn_7 btn_8
btn_9 btn_10 btn_11 btn_12;
#X obj 3 149 change;
#X obj 30 130 change;
#X obj 57 149 change;
#X obj 84 130 change;
#X obj 111 149 change;
#X obj 138 130 change;
#X obj 165 149 change;
#X obj 192 130 change;
#X obj 219 149 change;
#X obj 246 130 change;
#X obj 273 149 change;
#X obj 300 130 change;
#X obj 327 149 change;
#X obj 287 225 change;
#X obj 238 225 change;
#X obj 280 244 bondo;
#X obj 169 263 expr if ($f1==1 && $f2==0 \, 1 \, 0) \; if ($f1==1 &&
$f2==1 \, 1 \, 0) \; if ($f1==0 && $f2==1 \, 1 \, 0) \; if ($f1==-1
&& $f2==1 \, 1 \, 0) \; if ($f1==-1 && $f2==0 \, 1 \, 0) \; if ($f1==-1
&& $f2==-1 \, 1 \, 0) \; if ($f1==0 && $f2==-1 \, 1 \, 0) \; if ($f1==1
&& $f2==-1 \, 1 \, 0) \;;
#X obj 3 24 hradio 15 1 0 20 empty empty empty 0 -8 0 10 -4032 -1 -1
0;
#X obj 87 77 bng 10 250 50 0 empty empty empty 17 7 0 10 -261234 -1
-1;
#X obj 3 5 inlet;
#X obj 3 168 s Mb1;
#X obj 57 168 s Mb3;
#X obj 111 168 s Mb5;
#X obj 165 168 s Mb7;
#X obj 219 168 s Mb9;
#X obj 273 168 s Mb11;
#X obj 327 168 s Mb13;
#X obj 40 225 s Mex;
#X obj 88 225 s Mey;
#X obj 169 386 s Md;
#X obj 196 386 s Mdb;
#X obj 253 387 s Mib;
#X obj 280 386 s Mi;
#X obj 308 386 s Mia;
#X obj 336 386 s Ma;
#X obj 364 386 s Mda;
#X obj 30 187 s Mb2;
#X obj 84 187 s Mb4;
#X obj 138 187 s Mb6;
#X obj 192 187 s Mb8;
#X obj 246 187 s Mb10;
#X obj 300 187 s Mb12;
#X msg 40 5 refresh;
#X obj 40 206 route abs_x abs_y abs_z abs_rz abs_hat0x abs_hat0y;
#X obj 139 225 s Mez;
#X obj 188 225 s Merz;
#X obj 93 389 bondo;
#X obj 93 293 int;
#X obj 132 293 int;
#X obj 4 520 bondo;
#X obj 4 268 int;
#X obj 31 268 int;
#X obj 224 386 s Mb;
#X obj 132 274 expr (($f1/255)*2)-1;
#X obj 93 274 expr (($f1/255)*2)-1;
#X obj 51 247 expr (($f1/255)*2)-1;
#X obj 4 247 expr (($f1/255)*2)-1;
#X obj 54 408 expr if ($f1==1 && $f2==0 \, 1 \, 0) \; if ($f1==1 &&
$f2==1 \, 1 \, 0) \; if ($f1==0 && $f2==1 \, 1 \, 0) \; if ($f1==-1
&& $f2==1 \, 1 \, 0) \; if ($f1==-1 && $f2==0 \, 1 \, 0) \; if ($f1==-1
&& $f2==-1 \, 1 \, 0) \; if ($f1==0 && $f2==-1 \, 1 \, 0) \; if ($f1==1
&& $f2==-1 \, 1 \, 0) \;;
#X obj 4 554 expr if ($f1==1 && $f2==0 \, 1 \, 0) \; if ($f1==1 &&
$f2==1 \, 1 \, 0) \; if ($f1==0 && $f2==1 \, 1 \, 0) \; if ($f1==-1
&& $f2==1 \, 1 \, 0) \; if ($f1==-1 && $f2==0 \, 1 \, 0) \; if ($f1==-1
&& $f2==-1 \, 1 \, 0) \; if ($f1==0 && $f2==-1 \, 1 \, 0) \; if ($f1==1
&& $f2==-1 \, 1 \, 0) \;;
#X obj 54 533 s MDd;
#X obj 90 533 s MDdb;
#X obj 132 533 s MDb;
#X obj 168 533 s MDib;
#X obj 210 533 s MDi;
#X obj 246 533 s MDia;
#X obj 288 533 s MDa;
#X obj 324 533 s MDda;
#X obj 4 680 s MId;
#X obj 40 679 s MIdb;
#X obj 82 679 s MIb;
#X obj 118 679 s MIib;
#X obj 160 679 s MIi;
#X obj 196 679 s MIia;
#X obj 238 679 s MIa;
#X obj 274 679 s MIda;
#X obj 3 60 hid;
#X connect 0 0 78 0;
#X connect 1 0 2 0;
#X connect 1 1 46 0;
#X connect 2 0 3 0;
#X connect 2 1 4 0;
#X connect 2 2 5 0;
#X connect 2 3 6 0;
#X connect 2 4 7 0;
#X connect 2 5 8 0;
#X connect 2 6 9 0;
#X connect 2 7 10 0;
#X connect 2 8 11 0;
#X connect 2 9 12 0;
#X connect 2 10 13 0;
#X connect 2 11 14 0;
#X connect 2 12 15 0;
#X connect 3 0 23 0;
#X connect 4 0 39 0;
#X connect 5 0 24 0;
#X connect 6 0 40 0;
#X connect 7 0 25 0;
#X connect 8 0 41 0;
#X connect 9 0 26 0;
#X connect 10 0 42 0;
#X connect 11 0 27 0;
#X connect 12 0 43 0;
#X connect 13 0 28 0;
#X connect 14 0 44 0;
#X connect 15 0 29 0;
#X connect 16 0 18 1;
#X connect 17 0 18 0;
#X connect 18 0 19 0;
#X connect 18 1 19 1;
#X connect 19 0 32 0;
#X connect 19 1 33 0;
#X connect 19 2 55 0;
#X connect 19 3 34 0;
#X connect 19 4 35 0;
#X connect 19 5 36 0;
#X connect 19 6 37 0;
#X connect 19 7 38 0;
#X connect 20 0 0 0;
#X connect 22 0 20 0;
#X connect 45 0 78 0;
#X connect 46 0 30 0;
#X connect 46 0 59 0;
#X connect 46 1 31 0;
#X connect 46 1 58 0;
#X connect 46 2 47 0;
#X connect 46 2 57 0;
#X connect 46 3 48 0;
#X connect 46 3 56 0;
#X connect 46 4 17 0;
#X connect 46 5 16 0;
#X connect 49 0 60 0;
#X connect 49 1 60 1;
#X connect 50 0 49 0;
#X connect 51 0 49 1;
#X connect 52 0 61 0;
#X connect 52 1 61 1;
#X connect 53 0 52 0;
#X connect 54 0 52 1;
#X connect 56 0 51 0;
#X connect 57 0 50 0;
#X connect 58 0 54 0;
#X connect 59 0 53 0;
#X connect 60 0 62 0;
#X connect 60 1 63 0;
#X connect 60 2 64 0;
#X connect 60 3 65 0;
#X connect 60 4 66 0;
#X connect 60 5 67 0;
#X connect 60 6 68 0;
#X connect 60 7 69 0;
#X connect 61 0 70 0;
#X connect 61 1 71 0;
#X connect 61 2 72 0;
#X connect 61 3 73 0;
#X connect 61 4 74 0;
#X connect 61 5 75 0;
#X connect 61 6 76 0;
#X connect 61 7 77 0;
#X connect 78 0 1 0;
#X connect 78 0 21 0;
#X coords 0 0 1 1 150 30 0;
