#N canvas 554 144 450 300 10;
#X obj 197 137 notein;
#X obj 195 163 pack;
#X obj 199 218 sel 127;
#X obj 198 239 bombo;
#X obj 249 268 dac~;
#X obj 251 219 sel 127;
#X obj 250 240 bombo;
#X obj 307 218 sel 127;
#X obj 306 239 bombo;
#X obj 131 214 print;
#X obj 198 193 route 1 2 3;
#X msg 258 162 127;
#X obj 81 72 ctlin;
#X obj 79 98 pack 0 0 0;
#X obj 77 160 route 1 2;
#X msg 72 185 set \$1 \$2;
#X msg 79 243 set \$1 \$2;
#X msg 73 270 104 1;
#X msg 40 252 0 1;
#X obj 25 166 print;
#X msg 76 137 \$3 \$1 \$2;
#X connect 0 0 1 0;
#X connect 0 1 1 1;
#X connect 1 0 9 0;
#X connect 1 0 10 0;
#X connect 2 0 3 0;
#X connect 3 0 4 0;
#X connect 3 0 4 1;
#X connect 5 0 6 0;
#X connect 6 0 4 0;
#X connect 6 0 4 1;
#X connect 7 0 8 0;
#X connect 8 0 4 0;
#X connect 8 0 4 1;
#X connect 10 0 2 0;
#X connect 10 1 5 0;
#X connect 10 2 7 0;
#X connect 11 0 2 0;
#X connect 12 0 13 0;
#X connect 12 1 13 1;
#X connect 12 2 13 2;
#X connect 13 0 20 0;
#X connect 14 0 15 0;
#X connect 14 1 16 0;
#X connect 15 0 18 0;
#X connect 16 0 17 0;
#X connect 20 0 14 0;
#X connect 20 0 19 0;
