#N canvas 19 352 1121 411 10;
#X obj 50 156 pack 0 0 0;
#X obj 50 95 sel 1 0;
#X obj 123 95 sel 1 0;
#X obj 50 199 route 1 2 3 4 5;
#X obj 197 95 sel 1 0;
#X obj 270 95 sel 1 0;
#X obj 343 95 sel 1 0;
#X obj 417 95 sel 1 0;
#X obj 490 95 sel 1 0;
#X obj 563 95 sel 1 0;
#X obj 637 95 sel 1 0;
#X obj 710 95 sel 1 0;
#N canvas 435 399 450 300 sinte 0;
#X obj 133 19 inlet;
#X obj 133 100 mtof;
#X obj 133 44 unpack;
#X obj 166 104 sel 1 0;
#X obj 114 183 *~;
#X obj 166 144 line~;
#X msg 201 124 0 25;
#X obj 114 203 outlet~;
#X obj 183 22 r octava;
#X obj 115 123 phasor~;
#X obj 114 164 tabread4~ sintetizador;
#X obj 114 144 *~ 100;
#X floatatom 231 42 5 0 0 0 - tonogeneral -, f 5;
#X obj 133 81 expr $f1+($f2*12)+$f3+$f4;
#X obj 281 32 inlet;
#X obj 134 62 bondo 4 -----------------;
#X msg 166 123 1 25;
#X connect 0 0 2 0;
#X connect 1 0 9 0;
#X connect 2 0 15 0;
#X connect 2 1 3 0;
#X connect 3 0 16 0;
#X connect 3 1 6 0;
#X connect 4 0 7 0;
#X connect 5 0 4 1;
#X connect 6 0 5 0;
#X connect 8 0 15 1;
#X connect 9 0 11 0;
#X connect 10 0 4 0;
#X connect 11 0 10 0;
#X connect 12 0 15 2;
#X connect 13 0 1 0;
#X connect 14 0 15 3;
#X connect 15 0 13 0;
#X connect 15 1 13 1;
#X connect 15 2 13 2;
#X connect 15 3 13 3;
#X connect 16 0 5 0;
#X restore 50 219 pd sinte;
#X obj 51 290 *~;
#X obj 163 276 inlet;
#X obj 51 369 outlet~;
#X obj 711 349 hradio 15 1 0 8 octava empty empty 0 -8 0 10 -262144
-1 -1 0;
#X obj 442 176 sel 1;
#X obj 503 177 sel 1;
#X obj 51 309 *~;
#X obj 281 368 line~;
#X obj 290 284 inlet;
#X msg 283 347 0 25;
#X msg 322 347 1 25;
#X obj 289 314 sel 0 1 2;
#N canvas 544 290 451 301 (subpatch) 0;
#X array sintetizador 100 float 3 black black;
#A 0 -0.71428 -0.71428 -0.71428 -0.71428 -0.71428 -0.699994 -0.685709
-0.685709 -0.671423 -0.657138 -0.628566 -0.628566 -0.614281 -0.599995
-0.58571 -0.571424 -0.542853 -0.514282 -0.471425 -0.449997 -0.428569
-0.357141 -0.32857 -0.307141 -0.242856 -0.214285 -0.128572 -0.0428583
-0.0142872 0.014284 0.0285695 0.0999973 0.128568 0.185711 0.214282
0.242853 0.249996 0.271424 0.299995 0.314281 0.299995 0.271424 0.242853
0.185711 0.15714 0.142854 0.114283 0.0714262 0.0285695 -0.100001 -0.114286
-0.185714 -0.242856 -0.271427 -0.32857 -0.414283 -0.471425 -0.499996
-0.557139 -0.571424 -0.58571 -0.599995 -0.614281 -0.628566 -0.642852
-0.657138 -0.671423 -0.685709 -0.685709 -0.71428 -0.71428 -0.71428
-0.742851 -0.742851 -0.742851 -0.742851 -0.757137 -0.771422 -0.771422
-0.771422 -0.771422 -0.771422 -0.771422 -0.771422 -0.771422 -0.771422
-0.771422 -0.771422 -0.771422 -0.771422 -0.771422 -0.771422 -0.771422
-0.771422 -0.771422 -0.742851 -0.742851 -0.742851 -0.742851 -0.742851
;
#X coords 0 1 100 -1 200 140 1;
#X restore 855 155 graph;
#X obj 395 308 loadbang;
#X msg 50 118 24 1;
#X msg 87 118 24 0;
#X msg 123 118 26 1;
#X msg 160 118 26 0;
#X msg 197 118 28 1;
#X msg 234 118 28 0;
#X msg 270 118 29 1;
#X msg 307 118 29 0;
#X msg 343 118 31 1;
#X msg 380 118 31 0;
#X msg 417 118 33 1;
#X msg 454 118 33 0;
#X msg 490 118 35 1;
#X msg 527 118 35 0;
#X msg 563 118 36 1;
#X msg 600 118 36 0;
#X msg 637 118 38 1;
#X msg 674 118 38 0;
#X msg 747 118 40 0;
#X msg 710 118 40 1;
#X obj 235 172 line;
#X obj 633 235 r tapx2;
#X msg 563 345 0 150;
#X msg 545 215 0;
#X obj 556 248 bondo;
#X obj 554 272 pack;
#X msg 523 295 set \$1 \$2;
#X obj 580 323 bang;
#X obj 50 135 poly 5;
#N canvas 437 392 450 300 sinte 0;
#X obj 133 19 inlet;
#X obj 133 100 mtof;
#X obj 133 44 unpack;
#X obj 166 104 sel 1 0;
#X obj 114 183 *~;
#X obj 166 144 line~;
#X msg 201 124 0 25;
#X obj 114 203 outlet~;
#X obj 183 22 r octava;
#X obj 115 123 phasor~;
#X obj 114 164 tabread4~ sintetizador;
#X obj 114 144 *~ 100;
#X floatatom 231 42 5 0 0 0 - tonogeneral -, f 5;
#X obj 133 81 expr $f1+($f2*12)+$f3+$f4;
#X obj 281 32 inlet;
#X obj 134 62 bondo 4 -----------------;
#X msg 166 123 1 25;
#X connect 0 0 2 0;
#X connect 1 0 9 0;
#X connect 2 0 15 0;
#X connect 2 1 3 0;
#X connect 3 0 16 0;
#X connect 3 1 6 0;
#X connect 4 0 7 0;
#X connect 5 0 4 1;
#X connect 6 0 5 0;
#X connect 8 0 15 1;
#X connect 9 0 11 0;
#X connect 10 0 4 0;
#X connect 11 0 10 0;
#X connect 12 0 15 2;
#X connect 13 0 1 0;
#X connect 14 0 15 3;
#X connect 15 0 13 0;
#X connect 15 1 13 1;
#X connect 15 2 13 2;
#X connect 15 3 13 3;
#X connect 16 0 5 0;
#X restore 60 229 pd sinte;
#N canvas 437 392 450 300 sinte 0;
#X obj 133 19 inlet;
#X obj 133 100 mtof;
#X obj 133 44 unpack;
#X obj 166 104 sel 1 0;
#X obj 114 183 *~;
#X obj 166 144 line~;
#X msg 201 124 0 25;
#X obj 114 203 outlet~;
#X obj 183 22 r octava;
#X obj 115 123 phasor~;
#X obj 114 164 tabread4~ sintetizador;
#X obj 114 144 *~ 100;
#X floatatom 231 42 5 0 0 0 - tonogeneral -, f 5;
#X obj 133 81 expr $f1+($f2*12)+$f3+$f4;
#X obj 281 32 inlet;
#X obj 134 62 bondo 4 -----------------;
#X msg 166 123 1 25;
#X connect 0 0 2 0;
#X connect 1 0 9 0;
#X connect 2 0 15 0;
#X connect 2 1 3 0;
#X connect 3 0 16 0;
#X connect 3 1 6 0;
#X connect 4 0 7 0;
#X connect 5 0 4 1;
#X connect 6 0 5 0;
#X connect 8 0 15 1;
#X connect 9 0 11 0;
#X connect 10 0 4 0;
#X connect 11 0 10 0;
#X connect 12 0 15 2;
#X connect 13 0 1 0;
#X connect 14 0 15 3;
#X connect 15 0 13 0;
#X connect 15 1 13 1;
#X connect 15 2 13 2;
#X connect 15 3 13 3;
#X connect 16 0 5 0;
#X restore 70 239 pd sinte;
#N canvas 437 392 450 300 sinte 0;
#X obj 133 19 inlet;
#X obj 133 100 mtof;
#X obj 133 44 unpack;
#X obj 166 104 sel 1 0;
#X obj 114 183 *~;
#X obj 166 144 line~;
#X msg 201 124 0 25;
#X obj 114 203 outlet~;
#X obj 183 22 r octava;
#X obj 115 123 phasor~;
#X obj 114 164 tabread4~ sintetizador;
#X obj 114 144 *~ 100;
#X floatatom 231 42 5 0 0 0 - tonogeneral -, f 5;
#X obj 133 81 expr $f1+($f2*12)+$f3+$f4;
#X obj 281 32 inlet;
#X obj 134 62 bondo 4 -----------------;
#X msg 166 123 1 25;
#X connect 0 0 2 0;
#X connect 1 0 9 0;
#X connect 2 0 15 0;
#X connect 2 1 3 0;
#X connect 3 0 16 0;
#X connect 3 1 6 0;
#X connect 4 0 7 0;
#X connect 5 0 4 1;
#X connect 6 0 5 0;
#X connect 8 0 15 1;
#X connect 9 0 11 0;
#X connect 10 0 4 0;
#X connect 11 0 10 0;
#X connect 12 0 15 2;
#X connect 13 0 1 0;
#X connect 14 0 15 3;
#X connect 15 0 13 0;
#X connect 15 1 13 1;
#X connect 15 2 13 2;
#X connect 15 3 13 3;
#X connect 16 0 5 0;
#X restore 80 249 pd sinte;
#N canvas 436 414 452 302 sinte 0;
#X obj 133 19 inlet;
#X obj 133 100 mtof;
#X obj 133 44 unpack;
#X obj 166 104 sel 1 0;
#X obj 114 183 *~;
#X obj 166 144 line~;
#X msg 201 124 0 25;
#X obj 114 203 outlet~;
#X obj 183 22 r octava;
#X obj 115 123 phasor~;
#X obj 114 164 tabread4~ sintetizador;
#X obj 114 144 *~ 100;
#X floatatom 231 42 5 0 0 0 - tonogeneral -, f 5;
#X obj 133 81 expr $f1+($f2*12)+$f3+$f4;
#X obj 281 32 inlet;
#X obj 134 62 bondo 4 -----------------;
#X msg 166 123 1 5;
#X connect 0 0 2 0;
#X connect 1 0 9 0;
#X connect 2 0 15 0;
#X connect 2 1 3 0;
#X connect 3 0 16 0;
#X connect 3 1 6 0;
#X connect 4 0 7 0;
#X connect 5 0 4 1;
#X connect 6 0 5 0;
#X connect 8 0 15 1;
#X connect 9 0 11 0;
#X connect 10 0 4 0;
#X connect 11 0 10 0;
#X connect 12 0 15 2;
#X connect 13 0 1 0;
#X connect 14 0 15 3;
#X connect 15 0 13 0;
#X connect 15 1 13 1;
#X connect 15 2 13 2;
#X connect 15 3 13 3;
#X connect 16 0 5 0;
#X restore 90 259 pd sinte;
#X obj 50 71 r sb1;
#X obj 123 71 r sb2;
#X obj 197 71 r sb3;
#X obj 270 71 r sb4;
#X obj 343 71 r sb5;
#X obj 417 71 r sb6;
#X obj 563 179 sel 1;
#X obj 490 71 r sb9;
#X obj 215 252 r sex;
#X obj 442 154 r sb11;
#X obj 503 155 r sb12;
#X obj 558 154 r sb13;
#X obj 213 278 > -128;
#X msg 574 213 36;
#X msg 474 213 12;
#X msg 514 213 24;
#X floatatom 631 211 5 0 0 0 - - -, f 5;
#X connect 0 0 3 0;
#X connect 1 0 27 0;
#X connect 1 1 28 0;
#X connect 2 0 29 0;
#X connect 2 1 30 0;
#X connect 3 0 12 0;
#X connect 3 1 56 0;
#X connect 3 2 57 0;
#X connect 3 3 58 0;
#X connect 3 4 59 0;
#X connect 4 0 31 0;
#X connect 4 1 32 0;
#X connect 5 0 33 0;
#X connect 5 1 34 0;
#X connect 6 0 35 0;
#X connect 6 1 36 0;
#X connect 7 0 37 0;
#X connect 7 1 38 0;
#X connect 8 0 39 0;
#X connect 8 1 40 0;
#X connect 9 0 41 0;
#X connect 9 1 42 0;
#X connect 10 0 43 0;
#X connect 10 1 44 0;
#X connect 11 0 46 0;
#X connect 11 1 45 0;
#X connect 12 0 13 0;
#X connect 13 0 19 0;
#X connect 14 0 13 1;
#X connect 17 0 74 0;
#X connect 17 1 50 0;
#X connect 18 0 75 0;
#X connect 18 1 50 0;
#X connect 19 0 15 0;
#X connect 20 0 19 1;
#X connect 21 0 24 0;
#X connect 22 0 20 0;
#X connect 23 0 20 0;
#X connect 24 0 22 0;
#X connect 24 1 23 0;
#X connect 24 2 22 0;
#X connect 26 0 23 0;
#X connect 27 0 55 0;
#X connect 28 0 55 0;
#X connect 29 0 55 0;
#X connect 30 0 55 0;
#X connect 31 0 55 0;
#X connect 32 0 55 0;
#X connect 33 0 55 0;
#X connect 34 0 55 0;
#X connect 35 0 55 0;
#X connect 36 0 55 0;
#X connect 37 0 55 0;
#X connect 38 0 55 0;
#X connect 39 0 55 0;
#X connect 40 0 55 0;
#X connect 41 0 55 0;
#X connect 42 0 55 0;
#X connect 43 0 55 0;
#X connect 44 0 55 0;
#X connect 45 0 55 0;
#X connect 46 0 55 0;
#X connect 47 0 12 1;
#X connect 47 0 56 1;
#X connect 47 0 57 1;
#X connect 47 0 58 1;
#X connect 47 0 59 1;
#X connect 48 0 51 1;
#X connect 49 0 47 0;
#X connect 50 0 51 0;
#X connect 51 0 52 0;
#X connect 51 1 52 1;
#X connect 52 0 53 0;
#X connect 53 0 49 0;
#X connect 53 0 54 0;
#X connect 54 0 49 0;
#X connect 55 0 0 0;
#X connect 55 1 0 1;
#X connect 55 2 0 2;
#X connect 56 0 13 0;
#X connect 57 0 13 0;
#X connect 58 0 13 0;
#X connect 59 0 13 0;
#X connect 60 0 1 0;
#X connect 61 0 2 0;
#X connect 62 0 4 0;
#X connect 63 0 5 0;
#X connect 64 0 6 0;
#X connect 65 0 7 0;
#X connect 66 0 73 0;
#X connect 66 1 50 0;
#X connect 67 0 8 0;
#X connect 68 0 72 0;
#X connect 69 0 17 0;
#X connect 70 0 18 0;
#X connect 71 0 66 0;
#X connect 72 0 24 0;
#X connect 73 0 51 0;
#X connect 74 0 51 0;
#X connect 75 0 51 0;
#X connect 76 0 51 1;
