#N canvas 526 104 523 713 10;
#X obj 20 39 route 0 1 2 3 4 5 6 7;
#X msg 20 96 0.347826 171 2 100 100 100 0 100 100 0 0 100 100 100 100
100 100 100 0 0 0 0 0 0 0 0 0 0;
#X msg 30 166 0.347826 214 2 100 100 100 0 100 100 0 0 100 100 100
100 100 100 100 0 0 0 0 0 0 0 0 0 0;
#X msg 40 236 0.347826 109.678 69 100 100 100 0 100 100 0 0 100 100
100 100 100 100 100 0 0 0 0 0 0 0 0 0 0;
#X msg 50 306 0.347826 454.754 69 100 100 100 0 100 100 0 0 100 100
100 100 100 100 100 0 0 0 0 0 0 0 0 0 0;
#X msg 80 516 0.347826 0 69 100 100 100 0 100 100 0 0 100 100 100 100
100 100 100 0 0 0 0 0 0 0 0 0 0;
#X msg 90 586 0.347826 0 69 100 100 100 0 100 100 0 0 100 100 100 100
100 100 100 0 0 0 0 0 0 0 0 0 0;
#X obj 191 37 sel 0 1 2 3 4 5 6 7;
#X msg 20 61 set \$1 \$2 \$3 \$4 \$5 \$6 \$7 \$8 \$9 \$10 \$11 \$12
\$13 \$14 \$15 \$16 \$17 \$18 \$19 \$20 \$21 \$22 \$23 \$24 \$25 \$26
\$27 \$28;
#X msg 30 131 set \$1 \$2 \$3 \$4 \$5 \$6 \$7 \$8 \$9 \$10 \$11 \$12
\$13 \$14 \$15 \$16 \$17 \$18 \$19 \$20 \$21 \$22 \$23 \$24 \$25 \$26
\$27 \$28;
#X msg 40 201 set \$1 \$2 \$3 \$4 \$5 \$6 \$7 \$8 \$9 \$10 \$11 \$12
\$13 \$14 \$15 \$16 \$17 \$18 \$19 \$20 \$21 \$22 \$23 \$24 \$25 \$26
\$27 \$28;
#X msg 50 271 set \$1 \$2 \$3 \$4 \$5 \$6 \$7 \$8 \$9 \$10 \$11 \$12
\$13 \$14 \$15 \$16 \$17 \$18 \$19 \$20 \$21 \$22 \$23 \$24 \$25 \$26
\$27 \$28;
#X msg 60 341 set \$1 \$2 \$3 \$4 \$5 \$6 \$7 \$8 \$9 \$10 \$11 \$12
\$13 \$14 \$15 \$16 \$17 \$18 \$19 \$20 \$21 \$22 \$23 \$24 \$25 \$26
\$27 \$28;
#X msg 60 376 0.347826 0 69 100 100 100 0 100 100 0 0 100 100 100 100
100 100 100 0 0 0 0 0 0 0 0 0 0;
#X msg 70 446 0.347826 0 69 100 100 100 0 100 100 0 0 100 100 100 100
100 100 100 0 0 0 0 0 0 0 0 0 0;
#X msg 70 411 set \$1 \$2 \$3 \$4 \$5 \$6 \$7 \$8 \$9 \$10 \$11 \$12
\$13 \$14 \$15 \$16 \$17 \$18 \$19 \$20 \$21 \$22 \$23 \$24 \$25 \$26
\$27 \$28;
#X msg 80 481 set \$1 \$2 \$3 \$4 \$5 \$6 \$7 \$8 \$9 \$10 \$11 \$12
\$13 \$14 \$15 \$16 \$17 \$18 \$19 \$20 \$21 \$22 \$23 \$24 \$25 \$26
\$27 \$28;
#X msg 90 551 set \$1 \$2 \$3 \$4 \$5 \$6 \$7 \$8 \$9 \$10 \$11 \$12
\$13 \$14 \$15 \$16 \$17 \$18 \$19 \$20 \$21 \$22 \$23 \$24 \$25 \$26
\$27 \$28;
#X obj 20 20 inlet;
#X obj 191 16 inlet;
#X obj 169 646 outlet;
#X connect 0 0 8 0;
#X connect 0 1 9 0;
#X connect 0 2 10 0;
#X connect 0 3 11 0;
#X connect 0 4 12 0;
#X connect 0 5 15 0;
#X connect 0 6 16 0;
#X connect 0 7 17 0;
#X connect 1 0 20 0;
#X connect 2 0 20 0;
#X connect 3 0 20 0;
#X connect 4 0 20 0;
#X connect 5 0 20 0;
#X connect 6 0 20 0;
#X connect 7 0 1 0;
#X connect 7 1 2 0;
#X connect 7 2 3 0;
#X connect 7 3 4 0;
#X connect 7 4 13 0;
#X connect 7 5 14 0;
#X connect 7 6 5 0;
#X connect 7 7 6 0;
#X connect 8 0 1 0;
#X connect 9 0 2 0;
#X connect 10 0 3 0;
#X connect 11 0 4 0;
#X connect 12 0 13 0;
#X connect 13 0 20 0;
#X connect 14 0 20 0;
#X connect 15 0 14 0;
#X connect 16 0 5 0;
#X connect 17 0 6 0;
#X connect 18 0 0 0;
#X connect 19 0 7 0;
