#N canvas 891 315 390 389 10;
#X msg 6 41 open \$1 \, 1;
#X obj 6 79 route key abs;
#X obj 6 98 route btn_0 btn_1 btn_2 btn_3 btn_4 btn_5 btn_6 btn_7 btn_8
btn_9 btn_10 btn_11 btn_12;
#X obj 43 206 route abs_x abs_y abs_rz abs_throttle abs_hat0x abs_hat0y
;
#X obj 6 149 change;
#X obj 33 130 change;
#X obj 60 149 change;
#X obj 87 130 change;
#X obj 114 149 change;
#X obj 141 130 change;
#X obj 168 149 change;
#X obj 195 130 change;
#X obj 222 149 change;
#X obj 249 130 change;
#X obj 276 149 change;
#X obj 303 130 change;
#X obj 330 149 change;
#X obj 325 225 change;
#X obj 269 225 change;
#X obj 298 244 bondo;
#X obj 130 263 expr if ($f1==1 && $f2==0 \, 1 \, 0) \; if ($f1==1 &&
$f2==1 \, 1 \, 0) \; if ($f1==0 && $f2==1 \, 1 \, 0) \; if ($f1==-1
&& $f2==1 \, 1 \, 0) \; if ($f1==-1 && $f2==0 \, 1 \, 0) \; if ($f1==-1
&& $f2==-1 \, 1 \, 0) \; if ($f1==0 && $f2==-1 \, 1 \, 0) \; if ($f1==1
&& $f2==-1 \, 1 \, 0) \;;
#X obj 6 24 hradio 15 1 0 20 empty empty empty 0 -8 0 10 -4032 -1 -1
11;
#X obj 90 77 bng 10 250 50 0 empty empty empty 17 7 0 10 -261234 -1
-1;
#X text 84 7 comment;
#X obj 6 5 inlet;
#X obj 6 168 s mb1;
#X obj 60 168 s mb3;
#X obj 114 168 s mb5;
#X obj 33 187 s mb2;
#X obj 87 187 s mb4;
#X obj 141 187 s mb6;
#X obj 168 168 s mb7;
#X obj 195 187 s mb8;
#X obj 222 168 s mb9;
#X obj 276 168 s mb11;
#X obj 249 187 s mb10;
#X obj 330 168 s mb13;
#X obj 303 187 s mb12;
#X obj 43 225 s mex;
#X obj 99 225 s mey;
#X obj 156 225 s mer;
#X obj 212 225 s met;
#X obj 130 373 s md;
#X obj 157 373 s mdb;
#X obj 213 373 s mib;
#X obj 241 373 s mi;
#X obj 269 373 s mia;
#X obj 297 373 s ma;
#X obj 325 373 s mda;
#X obj 185 373 s mb;
#X obj 8 60 hid;
#X connect 0 0 50 0;
#X connect 1 0 2 0;
#X connect 1 1 3 0;
#X connect 2 0 4 0;
#X connect 2 1 5 0;
#X connect 2 2 6 0;
#X connect 2 3 7 0;
#X connect 2 4 8 0;
#X connect 2 5 9 0;
#X connect 2 6 10 0;
#X connect 2 7 11 0;
#X connect 2 8 12 0;
#X connect 2 9 13 0;
#X connect 2 10 14 0;
#X connect 2 11 15 0;
#X connect 2 12 16 0;
#X connect 3 0 38 0;
#X connect 3 1 39 0;
#X connect 3 2 40 0;
#X connect 3 3 41 0;
#X connect 3 4 18 0;
#X connect 3 5 17 0;
#X connect 4 0 25 0;
#X connect 5 0 28 0;
#X connect 6 0 26 0;
#X connect 7 0 29 0;
#X connect 8 0 27 0;
#X connect 9 0 30 0;
#X connect 10 0 31 0;
#X connect 11 0 32 0;
#X connect 12 0 33 0;
#X connect 13 0 35 0;
#X connect 14 0 34 0;
#X connect 15 0 37 0;
#X connect 16 0 36 0;
#X connect 17 0 19 1;
#X connect 18 0 19 0;
#X connect 19 0 20 0;
#X connect 19 1 20 1;
#X connect 20 0 42 0;
#X connect 20 1 43 0;
#X connect 20 2 49 0;
#X connect 20 3 44 0;
#X connect 20 4 45 0;
#X connect 20 5 46 0;
#X connect 20 6 47 0;
#X connect 20 7 48 0;
#X connect 21 0 0 0;
#X connect 24 0 21 0;
#X connect 24 0 0 0;
#X connect 50 0 1 0;
#X connect 50 0 22 0;
#X coords 0 0 1 1 150 30 0;
