#N canvas 480 104 863 587 10;
#X msg -15 9 open \$1 \, 1;
#X obj -15 47 route key abs;
#X obj -15 66 route btn_0 btn_1 btn_2 btn_3 btn_4 btn_5 btn_6 btn_7
btn_8 btn_9 btn_10 btn_11 btn_12;
#X obj 22 174 route abs_x abs_y abs_rz abs_throttle abs_hat0x abs_hat0y
;
#X obj -15 117 change;
#X obj 12 98 change;
#X obj 39 117 change;
#X obj 66 98 change;
#X obj 93 117 change;
#X obj 120 98 change;
#X obj 147 117 change;
#X obj 174 98 change;
#X obj 201 117 change;
#X obj 228 98 change;
#X obj 255 117 change;
#X obj 282 98 change;
#X obj 309 117 change;
#X obj 304 193 change;
#X obj 248 193 change;
#X obj 277 212 bondo;
#X obj -15 -8 hradio 15 1 0 20 empty empty empty 0 -8 0 10 -4032 -1
-1 11;
#X obj 69 45 bng 10 250 50 0 empty empty empty 17 7 0 10 -261234 -1
-1;
#X text 63 -25 comment;
#X obj -15 -27 inlet;
#X obj -15 136 s mb1;
#X obj 39 136 s mb3;
#X obj 93 136 s mb5;
#X obj 12 155 s mb2;
#X obj 66 155 s mb4;
#X obj 120 155 s mb6;
#X obj 147 136 s mb7;
#X obj 174 155 s mb8;
#X obj 201 136 s mb9;
#X obj 255 136 s mb11;
#X obj 228 155 s mb10;
#X obj 309 136 s mb13;
#X obj 282 155 s mb12;
#X obj 22 193 s mex;
#X obj 78 193 s mey;
#X obj 135 193 s mer;
#X obj 191 193 s met;
#X obj 105 341 s md;
#X obj 136 341 s mdb;
#X obj 192 341 s mib;
#X obj 220 341 s mi;
#X obj 248 341 s mia;
#X obj 276 341 s ma;
#X obj 304 341 s mda;
#X obj 164 341 s mb;
#X obj -13 28 hid;
#X obj 377 523 ctlout;
#X obj 16 271 expr $f1/2 \; $f2/2 \; $f3/2 \; $f4/2;
#X msg 11 336 \$1 1 1;
#X msg 28 357 \$1 2 1;
#X msg 49 373 \$1 3 1;
#X msg 72 399 \$1 4 1;
#X obj 22 220 bondo 4;
#X obj 119 376 * 127;
#X obj 167 379 * 127;
#X obj 206 379 * 127;
#X obj 245 378 * 127;
#X obj 282 379 * 127;
#X obj 321 376 * 127;
#X obj 360 378 * 127;
#X obj 400 377 * 127;
#X obj 444 374 * 127;
#X obj 484 373 * 127;
#X obj 522 373 * 127;
#X obj 562 372 * 127;
#X obj 608 370 * 127;
#X msg 122 405 \$1 5 1;
#X msg 172 409 \$1 6 1;
#X msg 221 409 \$1 7 1;
#X msg 268 411 \$1 8 1;
#X msg 318 410 \$1 9 1;
#X msg 365 412 \$1 10 1;
#X msg 414 412 \$1 11 1;
#X msg 473 411 \$1 12 1;
#X msg 529 410 \$1 13 1;
#X msg 579 409 \$1 14 1;
#X msg 626 411 \$1 15 1;
#X msg 675 411 \$1 16 1;
#X msg 734 410 \$1 17 1;
#X obj 109 231 expr if ($f1==1 && $f2==0 \, 127 \, 0) \; if ($f1==1
&& $f2==1 \, 127 \, 0) \; if ($f1==0 && $f2==1 \, 127 \, 0) \; if ($f1==-1
&& $f2==1 \, 127 \, 0) \; if ($f1==-1 && $f2==0 \, 127 \, 0) \; if
($f1==-1 && $f2==-1 \, 127 \, 0) \; if ($f1==0 && $f2==-1 \, 127 \,
0) \; if ($f1==1 && $f2==-1 \, 127 \, 0) \;;
#X msg 37 468 \$1 18 1;
#X msg 84 470 \$1 19 1;
#X msg 133 470 \$1 20 1;
#X msg 192 469 \$1 21 1;
#X connect 0 0 49 0;
#X connect 1 0 2 0;
#X connect 1 1 3 0;
#X connect 2 0 4 0;
#X connect 2 1 5 0;
#X connect 2 2 6 0;
#X connect 2 3 7 0;
#X connect 2 4 8 0;
#X connect 2 5 9 0;
#X connect 2 6 10 0;
#X connect 2 7 11 0;
#X connect 2 8 12 0;
#X connect 2 9 13 0;
#X connect 2 10 14 0;
#X connect 2 11 15 0;
#X connect 2 12 16 0;
#X connect 3 0 37 0;
#X connect 3 0 56 0;
#X connect 3 1 38 0;
#X connect 3 1 56 1;
#X connect 3 2 39 0;
#X connect 3 2 56 2;
#X connect 3 3 40 0;
#X connect 3 3 56 3;
#X connect 3 4 18 0;
#X connect 3 5 17 0;
#X connect 4 0 24 0;
#X connect 4 0 57 0;
#X connect 5 0 27 0;
#X connect 5 0 58 0;
#X connect 6 0 25 0;
#X connect 6 0 59 0;
#X connect 7 0 28 0;
#X connect 7 0 60 0;
#X connect 8 0 26 0;
#X connect 8 0 61 0;
#X connect 9 0 29 0;
#X connect 9 0 62 0;
#X connect 10 0 30 0;
#X connect 10 0 63 0;
#X connect 11 0 31 0;
#X connect 11 0 64 0;
#X connect 12 0 32 0;
#X connect 12 0 65 0;
#X connect 13 0 34 0;
#X connect 13 0 66 0;
#X connect 14 0 33 0;
#X connect 14 0 67 0;
#X connect 15 0 36 0;
#X connect 15 0 68 0;
#X connect 16 0 35 0;
#X connect 16 0 69 0;
#X connect 17 0 19 1;
#X connect 18 0 19 0;
#X connect 19 0 83 0;
#X connect 19 1 83 1;
#X connect 20 0 0 0;
#X connect 23 0 20 0;
#X connect 23 0 0 0;
#X connect 49 0 1 0;
#X connect 49 0 21 0;
#X connect 51 0 52 0;
#X connect 51 1 53 0;
#X connect 51 2 54 0;
#X connect 51 3 55 0;
#X connect 52 0 50 0;
#X connect 53 0 50 0;
#X connect 54 0 50 0;
#X connect 55 0 50 0;
#X connect 56 0 51 0;
#X connect 56 1 51 1;
#X connect 56 2 51 2;
#X connect 56 3 51 3;
#X connect 57 0 70 0;
#X connect 58 0 71 0;
#X connect 59 0 72 0;
#X connect 60 0 73 0;
#X connect 61 0 74 0;
#X connect 62 0 75 0;
#X connect 63 0 76 0;
#X connect 64 0 77 0;
#X connect 65 0 78 0;
#X connect 66 0 79 0;
#X connect 67 0 80 0;
#X connect 68 0 81 0;
#X connect 69 0 82 0;
#X connect 70 0 50 0;
#X connect 71 0 50 0;
#X connect 72 0 50 0;
#X connect 73 0 50 0;
#X connect 74 0 50 0;
#X connect 75 0 50 0;
#X connect 76 0 50 0;
#X connect 77 0 50 0;
#X connect 78 0 50 0;
#X connect 79 0 50 0;
#X connect 80 0 50 0;
#X connect 81 0 50 0;
#X connect 82 0 50 0;
#X connect 83 0 41 0;
#X connect 83 0 84 0;
#X connect 83 1 42 0;
#X connect 83 2 48 0;
#X connect 83 2 85 0;
#X connect 83 3 43 0;
#X connect 83 3 86 0;
#X connect 83 4 44 0;
#X connect 83 4 87 0;
#X connect 83 5 45 0;
#X connect 83 6 46 0;
#X connect 83 7 47 0;
#X connect 84 0 50 0;
#X connect 85 0 50 0;
#X connect 86 0 50 0;
#X connect 87 0 50 0;
#X coords 0 0 1 1 150 30 0;
