#N canvas 135 195 450 432 10;
#X msg -77 327 \$1 0 1 \, \$2 1 1 \, \$3 2 1 \, \$4 3 1 \, \$5 4 1
\, \$6 5 1 \, \$7 6 1 \, \$7 6 1 \, \$8 7 1 \, \$9 8 1 \, \$10 9 1
\, \$11 10 1 \, \$12 11 1;
#X msg -74 55 127 0 127 127 0 127 0 127 127 0 127 0;
#X msg -61 76 0 127 0 127 127 0 127 0 127 127 0 127;
#X msg -48 96 127 0 127 0 127 127 0 127 0 127 127 0;
#X msg -38 117 0 127 0 127 0 127 127 0 127 0 127 127;
#X obj -74 32 sel 0 1 2 3 4 5 6 7 8 9 10 11;
#X msg -28 138 127 0 127 0 127 0 127 127 0 127 0 127;
#X msg -18 158 127 127 0 127 0 127 0 127 127 0 127 0;
#X msg -8 179 0 127 127 0 127 0 127 0 127 127 0 127;
#X msg 2 203 127 0 127 127 0 127 0 127 0 127 127 0;
#X msg 12 223 0 127 0 127 127 0 127 0 127 0 127 127;
#X msg 22 246 127 0 127 0 127 127 0 127 0 127 0 127;
#X msg 32 271 127 127 0 127 0 127 127 0 127 0 127 0;
#X msg 42 292 0 127 127 0 127 0 127 127 0 127 0 127;
#X obj -73 10 inlet;
#X msg 146 400 \$1 16 1;
#X obj 147 363 tgl 15 0 empty at empty 17 7 0 10 -262144 -1 -1 0 1
;
#X obj 147 381 * 127;
#X obj 305 303 r Mex;
#X floatatom 308 347 5 0 0 0 - - -, f 5;
#X floatatom 275 396 5 0 0 0 - - -, f 5;
#X obj 265 373 expr ($f1)/2;
#X msg 194 372 \$1 13 1;
#X msg 66 408 \$1 12 1;
#X obj 102 391 * 74;
#X obj -77 369 noteout;
#X connect 0 0 25 0;
#X connect 1 0 0 0;
#X connect 2 0 0 0;
#X connect 3 0 0 0;
#X connect 4 0 0 0;
#X connect 5 0 1 0;
#X connect 5 1 2 0;
#X connect 5 2 3 0;
#X connect 5 3 4 0;
#X connect 5 4 6 0;
#X connect 5 5 7 0;
#X connect 5 6 8 0;
#X connect 5 7 9 0;
#X connect 5 8 10 0;
#X connect 5 9 11 0;
#X connect 5 10 12 0;
#X connect 5 11 13 0;
#X connect 6 0 0 0;
#X connect 7 0 0 0;
#X connect 8 0 0 0;
#X connect 9 0 0 0;
#X connect 10 0 0 0;
#X connect 11 0 0 0;
#X connect 12 0 0 0;
#X connect 13 0 0 0;
#X connect 14 0 5 0;
#X connect 15 0 25 0;
#X connect 16 0 17 0;
#X connect 16 0 24 0;
#X connect 17 0 15 0;
#X connect 18 0 19 0;
#X connect 19 0 21 0;
#X connect 20 0 22 0;
#X connect 21 0 20 0;
#X connect 22 0 25 0;
#X connect 23 0 25 0;
#X connect 24 0 23 0;
