#N canvas 352 244 681 423 10;
#X obj 238 183 osc~;
#X floatatom 238 137 5 0 0 0 - - -;
#X obj 238 159 mtof;
#X obj 241 103 line;
#X msg 237 57 110 \, -40 130;
#X msg 36 146 70 \, -20 200;
#X obj 132 129 phasor~;
#X obj 232 210 *~;
#X floatatom 140 107 5 0 0 0 - - -;
#X obj 301 153 line;
#X msg 306 118 1 \, 0 \$2;
#X obj 148 48 r met;
#X obj 253 8 r mb9;
#X obj 54 42 r mb8;
#X obj 41 124 sel 1;
#X obj 258 36 sel 1;
#X obj 446 67 sel 1;
#X obj 451 42 r mb7;
#X obj 536 171 phasor~;
#X obj 541 76 sel 1;
#X obj 546 51 r mb6;
#X obj 538 126 line;
#X obj 397 236 *~;
#X obj 414 209 line;
#X msg 419 174 1 \, 0 \$2;
#X obj 528 262 *~;
#X obj 545 235 line;
#X msg 550 200 1 \, 0 \$2;
#X obj 383 201 osc~;
#X floatatom 383 155 5 0 0 0 - - -;
#X obj 383 177 mtof;
#X obj 386 121 line;
#X obj 88 275 osc~;
#X floatatom 88 229 5 0 0 0 - - -;
#X obj 88 251 mtof;
#X obj 91 195 line;
#X obj 82 302 *~;
#X obj 151 245 line;
#X msg 156 210 1 \, 0 \$2;
#X obj 537 148 mtof;
#X msg 536 98 300 \, 100 300;
#X msg 441 89 200 \, 100 400;
#X obj 226 337 outlet~;
#X connect 0 0 7 0;
#X connect 1 0 2 0;
#X connect 2 0 0 0;
#X connect 3 0 1 0;
#X connect 4 0 3 0;
#X connect 4 0 10 0;
#X connect 5 0 35 0;
#X connect 5 0 38 0;
#X connect 6 0 7 0;
#X connect 7 0 42 0;
#X connect 8 0 6 0;
#X connect 9 0 7 1;
#X connect 10 0 9 0;
#X connect 14 0 5 0;
#X connect 15 0 4 0;
#X connect 16 0 41 0;
#X connect 18 0 25 0;
#X connect 19 0 40 0;
#X connect 21 0 39 0;
#X connect 22 0 42 0;
#X connect 23 0 22 1;
#X connect 24 0 23 0;
#X connect 25 0 42 0;
#X connect 26 0 25 1;
#X connect 27 0 26 0;
#X connect 28 0 22 0;
#X connect 29 0 30 0;
#X connect 30 0 28 0;
#X connect 31 0 29 0;
#X connect 32 0 36 0;
#X connect 33 0 34 0;
#X connect 34 0 32 0;
#X connect 35 0 33 0;
#X connect 36 0 42 0;
#X connect 37 0 36 1;
#X connect 38 0 37 0;
#X connect 39 0 18 0;
#X connect 40 0 21 0;
#X connect 40 0 27 0;
#X connect 41 0 24 0;
#X connect 41 0 31 0;
