#N canvas 0 202 864 662 10;
#X obj 204 146 cnv 15 310 80 empty empty empty 20 12 0 14 -126208 -66577
0;
#X obj 206 171 tgl 15 0 empty inicio empty 0 -6 0 10 -258113 -1 -1
0 1;
#X obj 248 170 vsl 10 50 0 100 0 0 empty controltotal empty 0 -9 0
10 -51648 -1 -1 4900 1;
#X obj 259 170 vsl 10 50 0 100 0 0 empty controltotal empty 0 -9 0
10 -262144 -1 -1 0 1;
#X obj 270 170 vsl 10 50 0 100 0 0 empty controltotal empty 0 -9 0
10 -262144 -1 -1 0 1;
#X obj 281 170 vsl 10 50 0 100 0 0 empty controltotal empty 0 -9 0
10 -262144 -1 -1 0 1;
#X obj 292 170 vsl 10 50 0 100 0 0 empty controltotal empty 0 -9 0
10 -51648 -1 -1 0 1;
#X obj 303 170 vsl 10 50 0 100 0 0 empty controltotal empty 0 -9 0
10 -262144 -1 -1 0 1;
#X obj 314 170 vsl 10 50 0 100 0 0 empty controltotal empty 0 -9 0
10 -262144 -1 -1 0 1;
#X obj 325 170 vsl 10 50 0 100 0 0 empty controltotal empty 0 -9 0
10 -262144 -1 -1 0 1;
#X obj 336 170 vsl 10 50 0 100 0 0 empty controltotal empty 0 -9 0
10 -51648 -1 -1 4900 1;
#X obj 347 170 vsl 10 50 0 100 0 0 empty controltotal empty 0 -9 0
10 -262144 -1 -1 0 1;
#X obj 358 170 vsl 10 50 0 100 0 0 empty controltotal empty 0 -9 0
10 -262144 -1 -1 0 1;
#X obj 369 170 vsl 10 50 0 100 0 0 empty controltotal empty 0 -9 0
10 -262144 -1 -1 0 1;
#X obj 380 170 vsl 10 50 0 100 0 0 empty controltotal empty 0 -9 0
10 -51648 -262144 -262144 0 1;
#X obj 391 170 vsl 10 50 0 100 0 0 empty controltotal empty 0 -9 0
10 -262144 -1 -1 0 1;
#X obj 402 170 vsl 10 50 0 100 0 0 empty controltotal empty 0 -9 0
10 -262144 -1 -1 0 1;
#X obj 413 170 vsl 10 50 0 100 0 0 empty controltotal empty 0 -9 0
10 -262144 -1 -1 0 1;
#X floatatom 206 188 5 0 500 1 v - -;
#X floatatom 206 207 5 0 0 1 t sectiempo -;
#X obj 294 150 hradio 15 0 0 4 empty empty empty 0 -8 0 10 -216324
-262144 -1 2;
#X obj 361 150 hradio 15 0 0 4 empty empty empty 0 -8 0 10 -22253 -262144
-1 2;
#X obj 214 150 hsl 70 15 0 1 0 0 empty empty empty -2 -8 0 10 -262144
-1 -1 5746 1;
#X obj 231 410 s cerosec;
#X obj 123 346 supermegamasterimprovisador;
#X obj 231 371 s leds;
#X obj 231 391 sel 1;
#X obj 424 170 vsl 10 50 0 100 0 0 empty controltotal empty 0 -9 0
10 -51648 -1 -1 0 1;
#X obj 435 170 vsl 10 50 0 100 0 0 empty controltotal empty 0 -9 0
10 -262144 -1 -1 0 1;
#X obj 446 170 vsl 10 50 0 100 0 0 empty controltotal empty 0 -9 0
10 -262144 -1 -1 0 1;
#X obj 457 170 vsl 10 50 0 100 0 0 empty controltotal empty 0 -9 0
10 -262144 -1 -1 0 1;
#X obj 468 170 vsl 10 50 0 100 0 0 empty controltotal empty 0 -9 0
10 -51648 -1 -1 0 1;
#X obj 479 170 vsl 10 50 0 100 0 0 empty controltotal empty 0 -9 0
10 -262144 -1 -1 0 1;
#X obj 490 170 vsl 10 50 0 100 0 0 empty controltotal empty 0 -9 0
10 -262144 -1 -1 0 1;
#X obj 501 170 vsl 10 50 0 100 0 0 empty controltotal empty 0 -9 0
10 -262144 -1 -1 0 1;
#N canvas 23 244 1073 620 pracapraca 0;
#X obj 13 133 bondo;
#X obj 40 114 *;
#X obj 13 75 expr 100-$f1;
#X obj 13 152 +;
#X obj 40 95 bondo;
#X obj 13 56 inlet;
#X obj 13 172 outlet;
#X obj 92 133 bondo;
#X obj 119 114 *;
#X obj 92 75 expr 100-$f1;
#X obj 92 152 +;
#X obj 119 95 bondo;
#X obj 92 56 inlet;
#X obj 92 172 outlet;
#X obj 173 133 bondo;
#X obj 200 114 *;
#X obj 173 75 expr 100-$f1;
#X obj 173 152 +;
#X obj 200 95 bondo;
#X obj 173 56 inlet;
#X obj 173 172 outlet;
#X obj 252 133 bondo;
#X obj 279 114 *;
#X obj 252 75 expr 100-$f1;
#X obj 252 152 +;
#X obj 279 95 bondo;
#X obj 252 56 inlet;
#X obj 252 172 outlet;
#X obj 43 273 bondo;
#X obj 70 254 *;
#X obj 43 215 expr 100-$f1;
#X obj 43 292 +;
#X obj 70 235 bondo;
#X obj 43 196 inlet;
#X obj 43 312 outlet;
#X obj 122 273 bondo;
#X obj 149 254 *;
#X obj 122 215 expr 100-$f1;
#X obj 122 292 +;
#X obj 149 235 bondo;
#X obj 122 196 inlet;
#X obj 122 312 outlet;
#X obj 203 273 bondo;
#X obj 230 254 *;
#X obj 203 215 expr 100-$f1;
#X obj 203 292 +;
#X obj 230 235 bondo;
#X obj 203 196 inlet;
#X obj 203 312 outlet;
#X obj 282 273 bondo;
#X obj 309 254 *;
#X obj 282 215 expr 100-$f1;
#X obj 282 292 +;
#X obj 309 235 bondo;
#X obj 282 196 inlet;
#X obj 282 312 outlet;
#X obj 333 133 bondo;
#X obj 360 114 *;
#X obj 333 75 expr 100-$f1;
#X obj 333 152 +;
#X obj 360 95 bondo;
#X obj 333 56 inlet;
#X obj 333 172 outlet;
#X obj 412 133 bondo;
#X obj 439 114 *;
#X obj 412 75 expr 100-$f1;
#X obj 412 152 +;
#X obj 439 95 bondo;
#X obj 412 56 inlet;
#X obj 412 172 outlet;
#X obj 493 133 bondo;
#X obj 520 114 *;
#X obj 493 75 expr 100-$f1;
#X obj 493 152 +;
#X obj 520 95 bondo;
#X obj 493 56 inlet;
#X obj 493 172 outlet;
#X obj 572 133 bondo;
#X obj 599 114 *;
#X obj 572 75 expr 100-$f1;
#X obj 572 152 +;
#X obj 599 95 bondo;
#X obj 572 56 inlet;
#X obj 572 172 outlet;
#X obj 363 273 bondo;
#X obj 390 254 *;
#X obj 363 215 expr 100-$f1;
#X obj 363 292 +;
#X obj 390 235 bondo;
#X obj 363 196 inlet;
#X obj 363 312 outlet;
#X obj 442 273 bondo;
#X obj 469 254 *;
#X obj 442 215 expr 100-$f1;
#X obj 442 292 +;
#X obj 469 235 bondo;
#X obj 442 196 inlet;
#X obj 442 312 outlet;
#X obj 523 273 bondo;
#X obj 550 254 *;
#X obj 523 215 expr 100-$f1;
#X obj 523 292 +;
#X obj 550 235 bondo;
#X obj 523 196 inlet;
#X obj 523 312 outlet;
#X obj 602 273 bondo;
#X obj 629 254 *;
#X obj 602 215 expr 100-$f1;
#X obj 602 292 +;
#X obj 629 235 bondo;
#X obj 602 196 inlet;
#X obj 602 312 outlet;
#X obj 653 133 bondo;
#X obj 680 114 *;
#X obj 653 75 expr 100-$f1;
#X obj 653 152 +;
#X obj 680 95 bondo;
#X obj 653 56 inlet;
#X obj 653 172 outlet;
#X obj 732 133 bondo;
#X obj 759 114 *;
#X obj 732 75 expr 100-$f1;
#X obj 732 152 +;
#X obj 759 95 bondo;
#X obj 732 56 inlet;
#X obj 732 172 outlet;
#X obj 813 133 bondo;
#X obj 840 114 *;
#X obj 813 75 expr 100-$f1;
#X obj 813 152 +;
#X obj 840 95 bondo;
#X obj 813 56 inlet;
#X obj 813 172 outlet;
#X obj 892 133 bondo;
#X obj 919 114 *;
#X obj 892 75 expr 100-$f1;
#X obj 892 152 +;
#X obj 919 95 bondo;
#X obj 892 56 inlet;
#X obj 892 172 outlet;
#X obj 683 273 bondo;
#X obj 710 254 *;
#X obj 683 215 expr 100-$f1;
#X obj 683 292 +;
#X obj 710 235 bondo;
#X obj 683 196 inlet;
#X obj 683 312 outlet;
#X obj 762 273 bondo;
#X obj 789 254 *;
#X obj 762 215 expr 100-$f1;
#X obj 762 292 +;
#X obj 789 235 bondo;
#X obj 762 196 inlet;
#X obj 762 312 outlet;
#X obj 843 273 bondo;
#X obj 870 254 *;
#X obj 843 215 expr 100-$f1;
#X obj 843 292 +;
#X obj 870 235 bondo;
#X obj 843 196 inlet;
#X obj 843 312 outlet;
#X obj 922 273 bondo;
#X obj 949 254 *;
#X obj 922 215 expr 100-$f1;
#X obj 922 292 +;
#X obj 949 235 bondo;
#X obj 922 196 inlet;
#X obj 922 312 outlet;
#X floatatom 1005 118 5 0 0 0 - - -;
#X obj 977 77 r \$0-praca;
#X connect 0 0 3 0;
#X connect 0 1 3 1;
#X connect 1 0 0 1;
#X connect 2 0 4 1;
#X connect 3 0 6 0;
#X connect 4 0 1 0;
#X connect 4 1 1 1;
#X connect 5 0 2 0;
#X connect 5 0 0 0;
#X connect 7 0 10 0;
#X connect 7 1 10 1;
#X connect 8 0 7 1;
#X connect 9 0 11 1;
#X connect 10 0 13 0;
#X connect 11 0 8 0;
#X connect 11 1 8 1;
#X connect 12 0 9 0;
#X connect 12 0 7 0;
#X connect 14 0 17 0;
#X connect 14 1 17 1;
#X connect 15 0 14 1;
#X connect 16 0 18 1;
#X connect 17 0 20 0;
#X connect 18 0 15 0;
#X connect 18 1 15 1;
#X connect 19 0 16 0;
#X connect 19 0 14 0;
#X connect 21 0 24 0;
#X connect 21 1 24 1;
#X connect 22 0 21 1;
#X connect 23 0 25 1;
#X connect 24 0 27 0;
#X connect 25 0 22 0;
#X connect 25 1 22 1;
#X connect 26 0 23 0;
#X connect 26 0 21 0;
#X connect 28 0 31 0;
#X connect 28 1 31 1;
#X connect 29 0 28 1;
#X connect 30 0 32 1;
#X connect 31 0 34 0;
#X connect 32 0 29 0;
#X connect 32 1 29 1;
#X connect 33 0 30 0;
#X connect 33 0 28 0;
#X connect 35 0 38 0;
#X connect 35 1 38 1;
#X connect 36 0 35 1;
#X connect 37 0 39 1;
#X connect 38 0 41 0;
#X connect 39 0 36 0;
#X connect 39 1 36 1;
#X connect 40 0 37 0;
#X connect 40 0 35 0;
#X connect 42 0 45 0;
#X connect 42 1 45 1;
#X connect 43 0 42 1;
#X connect 44 0 46 1;
#X connect 45 0 48 0;
#X connect 46 0 43 0;
#X connect 46 1 43 1;
#X connect 47 0 44 0;
#X connect 47 0 42 0;
#X connect 49 0 52 0;
#X connect 49 1 52 1;
#X connect 50 0 49 1;
#X connect 51 0 53 1;
#X connect 52 0 55 0;
#X connect 53 0 50 0;
#X connect 53 1 50 1;
#X connect 54 0 51 0;
#X connect 54 0 49 0;
#X connect 56 0 59 0;
#X connect 56 1 59 1;
#X connect 57 0 56 1;
#X connect 58 0 60 1;
#X connect 59 0 62 0;
#X connect 60 0 57 0;
#X connect 60 1 57 1;
#X connect 61 0 58 0;
#X connect 61 0 56 0;
#X connect 63 0 66 0;
#X connect 63 1 66 1;
#X connect 64 0 63 1;
#X connect 65 0 67 1;
#X connect 66 0 69 0;
#X connect 67 0 64 0;
#X connect 67 1 64 1;
#X connect 68 0 65 0;
#X connect 68 0 63 0;
#X connect 70 0 73 0;
#X connect 70 1 73 1;
#X connect 71 0 70 1;
#X connect 72 0 74 1;
#X connect 73 0 76 0;
#X connect 74 0 71 0;
#X connect 74 1 71 1;
#X connect 75 0 72 0;
#X connect 75 0 70 0;
#X connect 77 0 80 0;
#X connect 77 1 80 1;
#X connect 78 0 77 1;
#X connect 79 0 81 1;
#X connect 80 0 83 0;
#X connect 81 0 78 0;
#X connect 81 1 78 1;
#X connect 82 0 79 0;
#X connect 82 0 77 0;
#X connect 84 0 87 0;
#X connect 84 1 87 1;
#X connect 85 0 84 1;
#X connect 86 0 88 1;
#X connect 87 0 90 0;
#X connect 88 0 85 0;
#X connect 88 1 85 1;
#X connect 89 0 86 0;
#X connect 89 0 84 0;
#X connect 91 0 94 0;
#X connect 91 1 94 1;
#X connect 92 0 91 1;
#X connect 93 0 95 1;
#X connect 94 0 97 0;
#X connect 95 0 92 0;
#X connect 95 1 92 1;
#X connect 96 0 93 0;
#X connect 96 0 91 0;
#X connect 98 0 101 0;
#X connect 98 1 101 1;
#X connect 99 0 98 1;
#X connect 100 0 102 1;
#X connect 101 0 104 0;
#X connect 102 0 99 0;
#X connect 102 1 99 1;
#X connect 103 0 100 0;
#X connect 103 0 98 0;
#X connect 105 0 108 0;
#X connect 105 1 108 1;
#X connect 106 0 105 1;
#X connect 107 0 109 1;
#X connect 108 0 111 0;
#X connect 109 0 106 0;
#X connect 109 1 106 1;
#X connect 110 0 107 0;
#X connect 110 0 105 0;
#X connect 112 0 115 0;
#X connect 112 1 115 1;
#X connect 113 0 112 1;
#X connect 114 0 116 1;
#X connect 115 0 118 0;
#X connect 116 0 113 0;
#X connect 116 1 113 1;
#X connect 117 0 114 0;
#X connect 117 0 112 0;
#X connect 119 0 122 0;
#X connect 119 1 122 1;
#X connect 120 0 119 1;
#X connect 121 0 123 1;
#X connect 122 0 125 0;
#X connect 123 0 120 0;
#X connect 123 1 120 1;
#X connect 124 0 121 0;
#X connect 124 0 119 0;
#X connect 126 0 129 0;
#X connect 126 1 129 1;
#X connect 127 0 126 1;
#X connect 128 0 130 1;
#X connect 129 0 132 0;
#X connect 130 0 127 0;
#X connect 130 1 127 1;
#X connect 131 0 128 0;
#X connect 131 0 126 0;
#X connect 133 0 136 0;
#X connect 133 1 136 1;
#X connect 134 0 133 1;
#X connect 135 0 137 1;
#X connect 136 0 139 0;
#X connect 137 0 134 0;
#X connect 137 1 134 1;
#X connect 138 0 135 0;
#X connect 138 0 133 0;
#X connect 140 0 143 0;
#X connect 140 1 143 1;
#X connect 141 0 140 1;
#X connect 142 0 144 1;
#X connect 143 0 146 0;
#X connect 144 0 141 0;
#X connect 144 1 141 1;
#X connect 145 0 142 0;
#X connect 145 0 140 0;
#X connect 147 0 150 0;
#X connect 147 1 150 1;
#X connect 148 0 147 1;
#X connect 149 0 151 1;
#X connect 150 0 153 0;
#X connect 151 0 148 0;
#X connect 151 1 148 1;
#X connect 152 0 149 0;
#X connect 152 0 147 0;
#X connect 154 0 157 0;
#X connect 154 1 157 1;
#X connect 155 0 154 1;
#X connect 156 0 158 1;
#X connect 157 0 160 0;
#X connect 158 0 155 0;
#X connect 158 1 155 1;
#X connect 159 0 156 0;
#X connect 159 0 154 0;
#X connect 161 0 164 0;
#X connect 161 1 164 1;
#X connect 162 0 161 1;
#X connect 163 0 165 1;
#X connect 164 0 167 0;
#X connect 165 0 162 0;
#X connect 165 1 162 1;
#X connect 166 0 163 0;
#X connect 166 0 161 0;
#X connect 169 0 32 0;
#X connect 169 0 165 0;
#X connect 169 0 158 0;
#X connect 169 0 151 0;
#X connect 169 0 144 0;
#X connect 169 0 109 0;
#X connect 169 0 102 0;
#X connect 169 0 95 0;
#X connect 169 0 88 0;
#X connect 169 0 53 0;
#X connect 169 0 46 0;
#X connect 169 0 39 0;
#X connect 169 0 137 0;
#X connect 169 0 130 0;
#X connect 169 0 123 0;
#X connect 169 0 116 0;
#X connect 169 0 81 0;
#X connect 169 0 74 0;
#X connect 169 0 67 0;
#X connect 169 0 60 0;
#X connect 169 0 25 0;
#X connect 169 0 18 0;
#X connect 169 0 11 0;
#X connect 169 0 4 0;
#X connect 169 0 168 0;
#X restore 151 310 pd pracapraca;
#X obj 425 150 hsl 80 15 0 1 0 0 \$0-praca empty empty -2 -8 0 10 -221965
-262144 -262144 0 1;
#X floatatom 168 224 5 0 0 0 - - controltotal;
#X obj 225 171 bng 15 250 50 0 empty empty empty 17 7 0 10 -262144
-1 -1;
#X msg 165 195 0;
#X obj 172 116 r VS1;
#X obj 157 283 pack f f f f f f f f f f f f f f f f f f f f f f f f
f f f f f, f 64;
#X obj 568 256 r \$0-praca;
#X obj 211 117 unpack f f f f f f f f f f f f f f f f f f f f f f f
f f f f f, f 67;
#X obj 106 228 pack;
#X obj 104 201 bondo;
#X msg 157 171 100;
#X obj 119 146 expr ($f1*500);
#X obj 20 36 inlet;
#X obj 30 56 inlet;
#X obj 70 36 inlet;
#X obj 80 56 inlet;
#X obj 120 36 inlet;
#X obj 130 56 inlet;
#X obj 189 69 inlet;
#X obj 199 89 inlet;
#X obj 239 69 inlet;
#X obj 249 89 inlet;
#X obj 289 69 inlet;
#X obj 299 89 inlet;
#X obj 339 69 inlet;
#X obj 349 89 inlet;
#X obj 389 69 inlet;
#X obj 399 89 inlet;
#X obj 439 69 inlet;
#X obj 449 89 inlet;
#X obj 489 69 inlet;
#X obj 499 89 inlet;
#X obj 539 69 inlet;
#X obj 549 89 inlet;
#X obj 589 69 inlet;
#X obj 599 89 inlet;
#X obj 639 69 inlet;
#X obj 649 89 inlet;
#X obj 689 69 inlet;
#X obj 406 493 outlet;
#X obj 736 68 inlet;
#X obj 157 493 outlet;
#X obj 207 493 outlet;
#X obj 257 493 outlet;
#X obj 307 493 outlet;
#X obj 357 493 outlet;
#X obj 826 69 inlet;
#X connect 1 0 24 0;
#X connect 2 0 35 0;
#X connect 2 0 41 4;
#X connect 3 0 35 1;
#X connect 3 0 41 5;
#X connect 4 0 35 2;
#X connect 4 0 41 6;
#X connect 5 0 35 3;
#X connect 5 0 41 7;
#X connect 6 0 35 4;
#X connect 6 0 41 8;
#X connect 7 0 35 5;
#X connect 7 0 41 9;
#X connect 8 0 35 6;
#X connect 8 0 41 10;
#X connect 9 0 35 7;
#X connect 9 0 41 11;
#X connect 10 0 35 8;
#X connect 10 0 41 12;
#X connect 11 0 35 9;
#X connect 11 0 41 13;
#X connect 12 0 35 10;
#X connect 12 0 41 14;
#X connect 13 0 35 11;
#X connect 13 0 41 15;
#X connect 14 0 35 12;
#X connect 14 0 41 16;
#X connect 15 0 35 13;
#X connect 15 0 41 17;
#X connect 16 0 35 14;
#X connect 16 0 41 18;
#X connect 17 0 35 15;
#X connect 17 0 41 19;
#X connect 18 0 45 1;
#X connect 18 0 41 2;
#X connect 18 0 78 0;
#X connect 19 0 24 1;
#X connect 20 0 21 0;
#X connect 20 0 46 0;
#X connect 20 0 80 0;
#X connect 21 0 45 0;
#X connect 21 0 41 3;
#X connect 21 0 81 0;
#X connect 22 0 41 1;
#X connect 22 0 79 0;
#X connect 24 0 77 0;
#X connect 24 1 25 0;
#X connect 24 1 26 0;
#X connect 26 0 23 0;
#X connect 27 0 35 16;
#X connect 27 0 41 20;
#X connect 28 0 35 17;
#X connect 28 0 41 21;
#X connect 29 0 35 18;
#X connect 29 0 41 22;
#X connect 30 0 35 19;
#X connect 30 0 41 23;
#X connect 31 0 35 20;
#X connect 31 0 41 24;
#X connect 32 0 35 21;
#X connect 32 0 41 25;
#X connect 33 0 35 22;
#X connect 33 0 41 26;
#X connect 34 0 35 23;
#X connect 34 0 41 27;
#X connect 35 0 24 2;
#X connect 35 1 24 3;
#X connect 35 2 24 4;
#X connect 35 3 24 5;
#X connect 35 4 24 6;
#X connect 35 5 24 7;
#X connect 35 6 24 8;
#X connect 35 7 24 9;
#X connect 35 8 24 10;
#X connect 35 9 24 11;
#X connect 35 10 24 12;
#X connect 35 11 24 13;
#X connect 35 12 24 14;
#X connect 35 13 24 15;
#X connect 35 14 24 16;
#X connect 35 15 24 17;
#X connect 35 16 24 18;
#X connect 35 17 24 19;
#X connect 35 18 24 20;
#X connect 35 19 24 21;
#X connect 35 20 24 22;
#X connect 35 21 24 23;
#X connect 35 22 24 24;
#X connect 35 23 24 25;
#X connect 38 0 39 0;
#X connect 39 0 37 0;
#X connect 40 0 18 0;
#X connect 41 0 75 0;
#X connect 42 0 41 28;
#X connect 43 0 22 0;
#X connect 43 1 18 0;
#X connect 43 2 21 0;
#X connect 43 3 2 0;
#X connect 43 4 3 0;
#X connect 43 5 4 0;
#X connect 43 6 5 0;
#X connect 43 7 6 0;
#X connect 43 8 7 0;
#X connect 43 9 8 0;
#X connect 43 10 9 0;
#X connect 43 11 10 0;
#X connect 43 12 11 0;
#X connect 43 13 12 0;
#X connect 43 14 13 0;
#X connect 43 15 14 0;
#X connect 43 16 15 0;
#X connect 43 17 16 0;
#X connect 43 18 17 0;
#X connect 43 19 27 0;
#X connect 43 20 28 0;
#X connect 43 21 29 0;
#X connect 43 22 30 0;
#X connect 43 23 31 0;
#X connect 43 24 32 0;
#X connect 43 25 33 0;
#X connect 43 26 34 0;
#X connect 43 27 36 0;
#X connect 45 0 44 0;
#X connect 45 1 44 1;
#X connect 46 0 18 0;
#X connect 47 0 18 0;
#X connect 48 0 22 0;
#X connect 49 0 47 0;
#X connect 50 0 36 0;
#X connect 51 0 2 0;
#X connect 52 0 3 0;
#X connect 53 0 4 0;
#X connect 54 0 5 0;
#X connect 55 0 6 0;
#X connect 56 0 7 0;
#X connect 57 0 8 0;
#X connect 58 0 9 0;
#X connect 59 0 10 0;
#X connect 60 0 11 0;
#X connect 61 0 12 0;
#X connect 62 0 13 0;
#X connect 63 0 14 0;
#X connect 64 0 15 0;
#X connect 65 0 16 0;
#X connect 66 0 17 0;
#X connect 67 0 27 0;
#X connect 68 0 28 0;
#X connect 69 0 29 0;
#X connect 70 0 30 0;
#X connect 71 0 31 0;
#X connect 72 0 32 0;
#X connect 73 0 33 0;
#X connect 74 0 34 0;
#X connect 76 0 43 0;
#X connect 82 0 41 0;
