#N canvas 748 146 587 443 10;
#X msg -15 9 open \$1 \, 1;
#X obj -15 47 route key abs;
#X obj -15 117 change;
#X obj 14 98 change;
#X obj 43 117 change;
#X obj 72 98 change;
#X obj 102 117 change;
#X obj 131 98 change;
#X obj 160 117 change;
#X obj 189 98 change;
#X obj 219 117 change;
#X obj 248 98 change;
#X obj 277 117 change;
#X obj 306 98 change;
#X obj -15 -8 hradio 15 1 0 20 empty empty empty 0 -8 0 10 -4032 -1
-1 5;
#X obj 69 45 bng 10 250 50 0 empty empty empty 17 7 0 10 -261234 -1
-1;
#X obj -15 -27 inlet;
#X obj -15 136 s Mb1;
#X obj 43 136 s Mb3;
#X obj 102 136 s Mb5;
#X obj 160 136 s Mb7;
#X obj 219 136 s Mb9;
#X obj 277 136 s Mb11;
#X obj 76 196 s Mey;
#X obj 14 155 s Mb2;
#X obj 72 155 s Mb4;
#X obj 131 155 s Mb6;
#X obj 189 155 s Mb8;
#X obj 248 155 s Mb10;
#X obj 306 155 s Mb12;
#X msg 22 -27 refresh;
#X obj -15 66 route btn_0 btn_1 btn_2 btn_3 btn_4 btn_5 btn_6 btn_7
btn_8 btn_9 btn_10 btn_11;
#X obj 22 174 route abs_x abs_y abs_rz abs_rudder abs_hat0x abs_hat0y
;
#X obj 121 196 s Merz;
#X obj 169 196 s Merudder;
#X obj 23 373 comport;
#X msg 22 197 128 \$1;
#X msg 29 291 open \$1;
#X obj 29 272 hradio 15 1 0 8 empty empty empty 0 -8 0 10 -262144 -1
-1 0;
#X obj 240 219 sel 1 -1 0;
#X obj 240 259 metro;
#X msg 299 238 0;
#X obj 299 259 metro;
#X msg 240 239 1;
#X msg 269 239 1;
#X msg 240 312 inc;
#X msg 297 312 dec;
#X obj 240 331 counter 0 0 255;
#X obj 350 251 sel 1 -1;
#X obj 294 198 change;
#X obj 240 198 change;
#X msg 350 270 dec;
#X msg 381 270 inc;
#X obj 318 351 sel 255 0;
#X floatatom 241 364 5 0 0 0 - - -;
#X obj 350 308 * 2;
#X obj 350 289 counter 0 0 15;
#X msg 318 371 0;
#X msg 343 371 0;
#X msg 369 371 1;
#X obj 240 288 spigot;
#X obj 299 288 spigot;
#X obj 369 331 loadbang;
#X msg 120 313 close;
#X msg 69 321 devices;
#X msg 164 352 a;
#X msg 177 312 print z;
#X obj 65 395 print;
#X obj 26 396 print;
#X obj -15 28 hid;
#X obj 263 393 hradio 15 1 0 15 empty empty empty 0 -8 0 10 -262144
-1 -1 0;
#X connect 0 0 69 0;
#X connect 1 0 31 0;
#X connect 1 1 32 0;
#X connect 2 0 17 0;
#X connect 3 0 24 0;
#X connect 4 0 18 0;
#X connect 5 0 25 0;
#X connect 6 0 19 0;
#X connect 7 0 26 0;
#X connect 8 0 20 0;
#X connect 9 0 27 0;
#X connect 10 0 21 0;
#X connect 11 0 28 0;
#X connect 12 0 22 0;
#X connect 13 0 29 0;
#X connect 14 0 0 0;
#X connect 16 0 14 0;
#X connect 30 0 69 0;
#X connect 31 0 2 0;
#X connect 31 1 3 0;
#X connect 31 2 4 0;
#X connect 31 3 5 0;
#X connect 31 4 6 0;
#X connect 31 5 7 0;
#X connect 31 6 8 0;
#X connect 31 7 9 0;
#X connect 31 8 10 0;
#X connect 31 9 11 0;
#X connect 31 10 12 0;
#X connect 31 11 13 0;
#X connect 32 0 36 0;
#X connect 32 1 23 0;
#X connect 32 2 33 0;
#X connect 32 3 34 0;
#X connect 32 4 50 0;
#X connect 32 5 49 0;
#X connect 35 0 68 0;
#X connect 35 1 67 0;
#X connect 36 0 35 0;
#X connect 37 0 35 0;
#X connect 38 0 37 0;
#X connect 39 0 43 0;
#X connect 39 1 44 0;
#X connect 39 2 41 0;
#X connect 40 0 60 0;
#X connect 41 0 42 0;
#X connect 41 0 40 0;
#X connect 42 0 61 0;
#X connect 43 0 40 0;
#X connect 44 0 42 0;
#X connect 45 0 47 0;
#X connect 46 0 47 0;
#X connect 47 0 53 0;
#X connect 47 0 54 0;
#X connect 48 0 51 0;
#X connect 48 1 52 0;
#X connect 49 0 48 0;
#X connect 50 0 39 0;
#X connect 51 0 56 0;
#X connect 52 0 56 0;
#X connect 53 0 57 0;
#X connect 53 1 58 0;
#X connect 53 2 59 0;
#X connect 54 0 35 0;
#X connect 55 0 42 1;
#X connect 55 0 40 1;
#X connect 56 0 55 0;
#X connect 56 0 70 0;
#X connect 57 0 60 1;
#X connect 58 0 61 1;
#X connect 59 0 61 1;
#X connect 59 0 60 1;
#X connect 60 0 45 0;
#X connect 61 0 46 0;
#X connect 62 0 59 0;
#X connect 63 0 35 0;
#X connect 64 0 35 0;
#X connect 65 0 35 0;
#X connect 66 0 35 0;
#X connect 69 0 1 0;
#X connect 69 0 15 0;
#X coords 0 0 1 1 150 30 0;
