#N canvas 307 177 450 300 10;
#X obj 205 119 print;
#X floatatom 203 93 5 0 0 0 - - -;
#X msg 244 56;
#X obj 138 33 inlet;
#X obj 203 67 r \$0;
#X connect 1 0 0 0;
#X connect 3 0 1 0;
#X connect 4 0 1 0;
