#N canvas 421 97 463 623 10;
#X obj 186 38 comport;
#X msg 156 107 inc;
#X obj 161 169 pack;
#X obj 163 208 change;
#X obj 178 227 change;
#X obj 194 246 change;
#X obj 211 208 change;
#X obj 226 227 change;
#X obj 242 246 change;
#X obj 259 208 change;
#X obj 274 227 change;
#X floatatom 165 278 5 0 0 0 - - -;
#X floatatom 179 298 5 0 0 0 - - -;
#X floatatom 201 278 5 0 0 0 - - -;
#X floatatom 216 300 5 0 0 0 - - -;
#X floatatom 242 279 5 0 0 0 - - -;
#X floatatom 255 303 5 0 0 0 - - -;
#X floatatom 287 278 5 0 0 0 - - -;
#X msg 242 15 close;
#X obj 161 128 counter 0 0 7;
#X obj 181 148 change;
#X floatatom 296 301 5 0 0 0 - - -;
#X msg 184 58 \$1;
#X msg 293 16 devices;
#X obj 163 188 route 0 1 2 3 4 5 6 7;
#X msg 188 14 open 0;
#X obj 188 81 sel 65 66;
#X msg 189 105 goto 0 0;
#X connect 0 0 22 0;
#X connect 1 0 19 0;
#X connect 2 0 24 0;
#X connect 3 0 11 0;
#X connect 4 0 12 0;
#X connect 5 0 13 0;
#X connect 6 0 14 0;
#X connect 7 0 15 0;
#X connect 8 0 16 0;
#X connect 9 0 17 0;
#X connect 10 0 21 0;
#X connect 18 0 0 0;
#X connect 19 0 2 0;
#X connect 20 0 2 1;
#X connect 22 0 1 0;
#X connect 22 0 20 0;
#X connect 22 0 26 0;
#X connect 23 0 0 0;
#X connect 24 0 3 0;
#X connect 24 1 4 0;
#X connect 24 2 5 0;
#X connect 24 3 6 0;
#X connect 24 4 7 0;
#X connect 24 5 8 0;
#X connect 24 6 9 0;
#X connect 24 7 10 0;
#X connect 25 0 0 0;
#X connect 26 0 27 0;
#X connect 26 1 27 0;
#X connect 27 0 19 0;
