#N canvas 335 23 951 586 10;
#X obj 239 35 comport;
#X msg 156 107 inc;
#X obj 161 169 pack;
#X obj 163 208 change;
#X obj 178 227 change;
#X obj 194 246 change;
#X obj 211 208 change;
#X obj 226 227 change;
#X obj 242 246 change;
#X obj 259 208 change;
#X obj 274 227 change;
#X floatatom 165 278 5 0 0 0 - - -;
#X floatatom 179 298 5 0 0 0 - - -;
#X floatatom 202 278 5 0 0 0 - - -;
#X floatatom 217 300 5 0 0 0 - - -;
#X floatatom 243 279 5 0 0 0 - - -;
#X floatatom 256 303 5 0 0 0 - - -;
#X floatatom 288 278 5 0 0 0 - - -;
#X msg 295 12 close;
#X obj 161 128 counter 0 0 7;
#X obj 181 148 change;
#X floatatom 297 301 5 0 0 0 - - -;
#X msg 237 55 \$1;
#X msg 346 13 devices;
#X obj 163 188 route 0 1 2 3 4 5 6 7;
#X obj 27 373 readsf~;
#X msg 46 344 stop;
#X msg 235 4 open 0;
#X obj 241 78 sel 65 66;
#X msg 242 102 goto 0 0;
#X obj 29 317 sel 65 66;
#X obj 81 421 readsf~;
#X msg 100 392 stop;
#X obj 143 466 readsf~;
#X msg 162 437 stop;
#X obj 145 410 sel 69 70;
#X msg 29 342 open samples/tips/desdeCaricuao.wav \, start;
#X msg 83 390 open samples/tips/lasLacras.wav \, start;
#X msg 145 435 open samples/sonidos/bandola3.wav \, start;
#X obj 83 365 sel 71 72;
#X obj 215 512 readsf~;
#X msg 234 483 stop;
#X obj 217 456 sel 73 74;
#X obj 381 399 readsf~;
#X msg 400 370 stop;
#X obj 443 444 readsf~;
#X msg 462 415 stop;
#X obj 515 490 readsf~;
#X msg 534 461 stop;
#X obj 383 343 sel 75 76;
#X obj 445 388 sel 77 78;
#X obj 517 434 sel 80 79;
#X msg 217 481 open samples/sonidos/bandola2.wav \, start;
#X msg 445 413 open samples/sonidos/bandola1.wav \, start;
#X msg 383 368 open samples/tips/desdeLaVargas.wav \, start;
#X msg 517 459 open samples/sonidos/bandola4.wav \, start;
#X obj 215 542 outlet~;
#X connect 0 0 22 0;
#X connect 1 0 19 0;
#X connect 2 0 24 0;
#X connect 3 0 11 0;
#X connect 4 0 12 0;
#X connect 5 0 13 0;
#X connect 6 0 14 0;
#X connect 7 0 15 0;
#X connect 8 0 16 0;
#X connect 9 0 17 0;
#X connect 10 0 21 0;
#X connect 11 0 30 0;
#X connect 13 0 35 0;
#X connect 14 0 39 0;
#X connect 15 0 42 0;
#X connect 16 0 49 0;
#X connect 17 0 50 0;
#X connect 18 0 0 0;
#X connect 19 0 2 0;
#X connect 20 0 2 1;
#X connect 21 0 51 0;
#X connect 22 0 1 0;
#X connect 22 0 20 0;
#X connect 22 0 28 0;
#X connect 23 0 0 0;
#X connect 24 0 3 0;
#X connect 24 1 4 0;
#X connect 24 2 5 0;
#X connect 24 3 6 0;
#X connect 24 4 7 0;
#X connect 24 5 8 0;
#X connect 24 6 9 0;
#X connect 24 7 10 0;
#X connect 25 0 56 0;
#X connect 26 0 25 0;
#X connect 27 0 0 0;
#X connect 28 0 29 0;
#X connect 28 1 29 0;
#X connect 29 0 19 0;
#X connect 30 0 36 0;
#X connect 30 1 26 0;
#X connect 31 0 56 0;
#X connect 32 0 31 0;
#X connect 33 0 56 0;
#X connect 34 0 33 0;
#X connect 35 0 38 0;
#X connect 35 1 34 0;
#X connect 36 0 25 0;
#X connect 37 0 31 0;
#X connect 38 0 33 0;
#X connect 39 0 37 0;
#X connect 39 1 32 0;
#X connect 40 0 56 0;
#X connect 41 0 40 0;
#X connect 42 0 52 0;
#X connect 42 1 41 0;
#X connect 43 0 56 0;
#X connect 44 0 43 0;
#X connect 45 0 56 0;
#X connect 46 0 45 0;
#X connect 47 0 56 0;
#X connect 48 0 47 0;
#X connect 49 0 54 0;
#X connect 49 1 44 0;
#X connect 50 0 53 0;
#X connect 50 1 46 0;
#X connect 51 0 55 0;
#X connect 51 1 48 0;
#X connect 52 0 40 0;
#X connect 53 0 45 0;
#X connect 54 0 43 0;
#X connect 55 0 47 0;
