#N canvas 0 27 1366 687 10;
#X obj -221 -1 ctlin;
#X obj -223 28 / 127;
#X obj -247 86 route 110 111 113 114 115 116 117 118;
#X obj -249 52 bondo;
#X obj -247 72 pack;
#X obj -259 120 bng 15 250 50 0 empty empty empty 17 7 0 10 -4034 -1
-1;
#X obj -259 227 soundfiler;
#X obj -259 137 openpanel;
#X msg -259 194 read -resize /home/juan/pd-externals/fil_da_fockin_bit!/alarma.wav
t100;
#X obj -259 334 phasor~;
#X obj -259 353 *~;
#X obj -244 247 sel 1 0;
#X obj -225 271 expr (44100/$f2)*$f1;
#X msg -220 315 0;
#X msg -251 315 0;
#X obj -259 289 f;
#X obj -259 175 bang;
#X obj -223 175 loadbang;
#X obj -188 247 expr (abs($f1-255)/255)*2;
#X obj -258 469 *~;
#X obj -236 120 hsl 128 15 0 127 0 0 empty empty velocidad -2 -8 0
10 -257985 -1 -1 3700 1;
#X obj 72 121 bng 15 250 50 0 empty empty empty 17 7 0 10 -4034 -1
-1;
#X obj 72 228 soundfiler;
#X obj 72 138 openpanel;
#X msg 72 195 read -resize /home/juan/pd-externals/fil_da_fockin_bit!/1.wav
t67;
#X obj 72 335 phasor~;
#X obj 72 354 *~;
#X obj 87 248 sel 1 0;
#X obj 106 272 expr (44100/$f2)*$f1;
#X msg 111 316 0;
#X msg 80 316 0;
#X obj 72 290 f;
#X obj 72 176 bang;
#X obj 108 176 loadbang;
#X obj 143 248 expr (abs($f1-255)/255)*2;
#X obj 402 122 bng 15 250 50 0 empty empty empty 17 7 0 10 -4034 -1
-1;
#X obj 402 229 soundfiler;
#X obj 402 139 openpanel;
#X msg 402 196 read -resize /home/juan/pd-externals/fil_da_fockin_bit!/1.wav
t67;
#X obj 402 336 phasor~;
#X obj 402 355 *~;
#X obj 417 249 sel 1 0;
#X obj 436 273 expr (44100/$f2)*$f1;
#X msg 441 317 0;
#X msg 410 317 0;
#X obj 402 291 f;
#X obj 402 177 bang;
#X obj 438 177 loadbang;
#X obj 473 249 expr (abs($f1-255)/255)*2;
#X obj 729 120 bng 15 250 50 0 empty empty empty 17 7 0 10 -4034 -1
-1;
#X obj 729 227 soundfiler;
#X obj 729 137 openpanel;
#X msg 729 194 read -resize /home/juan/pd-externals/fil_da_fockin_bit!/1.wav
t67;
#X obj 729 334 phasor~;
#X obj 729 353 *~;
#X obj 744 247 sel 1 0;
#X obj 763 271 expr (44100/$f2)*$f1;
#X msg 768 315 0;
#X msg 737 315 0;
#X obj 729 289 f;
#X obj 729 175 bang;
#X obj 765 175 loadbang;
#X obj 800 247 expr (abs($f1-255)/255)*2;
#X obj -235 353 table t100;
#X obj -259 372 tabread4~ t100;
#X msg -259 156 set read -resize \$1 t100;
#X obj 72 373 tabread4~ t101;
#X obj 96 354 table t101;
#X msg 72 157 set read -resize \$1 t101;
#X obj 402 374 tabread4~ t102;
#X obj 426 355 table t102;
#X msg 402 158 set read -resize \$1 t102;
#X msg 729 156 set read -resize \$1 t103;
#X obj 753 353 table t103;
#X obj 729 372 tabread4~ t103;
#X obj -229 395 bng 15 250 50 0 empty empty empty 17 7 0 10 -4034 -1
-1;
#X obj -229 502 soundfiler;
#X obj -229 412 openpanel;
#X msg -229 469 read -resize /home/juan/pd-externals/fil_da_fockin_bit!/1.wav
t67;
#X obj -229 609 phasor~;
#X obj -229 628 *~;
#X obj -214 522 sel 1 0;
#X obj -195 546 expr (44100/$f2)*$f1;
#X msg -190 590 0;
#X msg -221 590 0;
#X obj -229 564 f;
#X obj -229 450 bang;
#X obj -193 450 loadbang;
#X obj -158 522 expr (abs($f1-255)/255)*2;
#X obj 102 396 bng 15 250 50 0 empty empty empty 17 7 0 10 -4034 -1
-1;
#X obj 102 503 soundfiler;
#X obj 102 413 openpanel;
#X msg 102 470 read -resize /home/juan/pd-externals/fil_da_fockin_bit!/1.wav
t67;
#X obj 102 610 phasor~;
#X obj 102 629 *~;
#X obj 117 523 sel 1 0;
#X obj 136 547 expr (44100/$f2)*$f1;
#X msg 141 591 0;
#X msg 110 591 0;
#X obj 102 565 f;
#X obj 102 451 bang;
#X obj 138 451 loadbang;
#X obj 173 523 expr (abs($f1-255)/255)*2;
#X obj 432 397 bng 15 250 50 0 empty empty empty 17 7 0 10 -4034 -1
-1;
#X obj 432 504 soundfiler;
#X obj 432 414 openpanel;
#X msg 432 471 read -resize /home/juan/pd-externals/fil_da_fockin_bit!/1.wav
t67;
#X obj 432 611 phasor~;
#X obj 432 630 *~;
#X obj 447 524 sel 1 0;
#X obj 466 548 expr (44100/$f2)*$f1;
#X msg 471 592 0;
#X msg 440 592 0;
#X obj 432 566 f;
#X obj 432 452 bang;
#X obj 468 452 loadbang;
#X obj 503 524 expr (abs($f1-255)/255)*2;
#X obj 759 395 bng 15 250 50 0 empty empty empty 17 7 0 10 -4034 -1
-1;
#X obj 759 502 soundfiler;
#X obj 759 412 openpanel;
#X msg 759 469 read -resize /home/juan/pd-externals/fil_da_fockin_bit!/1.wav
t67;
#X obj 759 609 phasor~;
#X obj 759 628 *~;
#X obj 774 522 sel 1 0;
#X obj 793 546 expr (44100/$f2)*$f1;
#X msg 798 590 0;
#X msg 767 590 0;
#X obj 759 564 f;
#X obj 759 450 bang;
#X obj 795 450 loadbang;
#X obj 830 522 expr (abs($f1-255)/255)*2;
#X obj -257 496 dac~;
#X obj 935 48 hsl 128 15 0 1 0 0 empty empty volumen_master -2 -8 0
10 -258113 -1 -1 12700 1;
#X msg -229 431 set read -resize \$1 t104;
#X msg 102 432 set read -resize \$1 t105;
#X msg 432 433 set read -resize \$1 t106;
#X msg 759 431 set read -resize \$1 t107;
#X obj -205 628 table t104;
#X obj 126 629 table t105;
#X obj 456 630 table t106;
#X obj 783 628 table t107;
#X obj 759 647 tabread4~ t107;
#X obj 432 649 tabread4~ t106;
#X obj 102 648 tabread4~ t105;
#X obj -229 647 tabread4~ t104;
#X obj 97 121 hsl 128 15 0 127 0 0 empty empty velocidad -2 -8 0 10
-257985 -1 -1 0 1;
#X obj 425 120 hsl 128 15 0 127 0 0 empty empty velocidad -2 -8 0 10
-257985 -1 -1 0 1;
#X obj 752 119 hsl 128 15 0 127 0 0 empty empty velocidad -2 -8 0 10
-257985 -1 -1 0 1;
#X obj 823 394 hsl 128 15 0 127 0 0 empty empty velocidad -2 -8 0 10
-257985 -1 -1 0 1;
#X obj 500 391 hsl 128 15 0 127 0 0 empty empty velocidad -2 -8 0 10
-257985 -1 -1 0 1;
#X obj 174 400 hsl 128 15 0 127 0 0 empty empty velocidad -2 -8 0 10
-257985 -1 -1 0 1;
#X obj -150 399 hsl 128 15 0 127 0 0 empty empty velocidad -2 -8 0
10 -257985 -1 -1 0 1;
#X text -165 11 los deslizadores amarillos controlan la velocidad de
cada muestra \, para que suene tienes que darle un valor inicial siempre.
;
#X text 184 10 los botones verdes te sirven para cargar los distintos
samples para cada boton \, es recomendable que los nombres de los archivos
no tengas espacios ni caracteres raros: acentos \, comas \, signos
\, etc.;
#X text 549 8 Cada vez que cargues una muestra de sonido que quieras
conservar guarda este archivo para que cuando lo abras de nuevo lo
puedas usar sin tener que cargarlo de nuevo. Esta virgen \, tienes
que cargarle todo por tu cuenta. Coloca los sonidos en la misma carpeta
de este archivo y no los muevas o renombres despues de cargarlos.;
#X connect 0 0 1 0;
#X connect 0 1 3 0;
#X connect 1 0 3 1;
#X connect 2 0 11 0;
#X connect 2 1 27 0;
#X connect 2 2 41 0;
#X connect 2 3 55 0;
#X connect 2 4 81 0;
#X connect 2 5 95 0;
#X connect 2 6 109 0;
#X connect 2 7 123 0;
#X connect 3 0 4 0;
#X connect 3 1 4 1;
#X connect 4 0 2 0;
#X connect 5 0 7 0;
#X connect 6 0 10 1;
#X connect 6 0 12 1;
#X connect 7 0 65 0;
#X connect 8 0 6 0;
#X connect 9 0 10 0;
#X connect 10 0 64 0;
#X connect 11 0 12 0;
#X connect 11 0 13 0;
#X connect 11 0 15 0;
#X connect 11 1 14 0;
#X connect 12 0 15 1;
#X connect 13 0 9 1;
#X connect 14 0 9 0;
#X connect 15 0 9 0;
#X connect 16 0 8 0;
#X connect 17 0 8 0;
#X connect 18 0 12 0;
#X connect 19 0 131 0;
#X connect 19 0 131 1;
#X connect 20 0 18 0;
#X connect 21 0 23 0;
#X connect 22 0 26 1;
#X connect 22 0 28 1;
#X connect 23 0 68 0;
#X connect 24 0 22 0;
#X connect 25 0 26 0;
#X connect 26 0 66 0;
#X connect 27 0 28 0;
#X connect 27 0 29 0;
#X connect 27 0 31 0;
#X connect 27 1 30 0;
#X connect 28 0 31 1;
#X connect 29 0 25 1;
#X connect 30 0 25 0;
#X connect 31 0 25 0;
#X connect 32 0 24 0;
#X connect 33 0 24 0;
#X connect 34 0 28 0;
#X connect 35 0 37 0;
#X connect 36 0 40 1;
#X connect 36 0 42 1;
#X connect 37 0 71 0;
#X connect 38 0 36 0;
#X connect 39 0 40 0;
#X connect 40 0 69 0;
#X connect 41 0 42 0;
#X connect 41 0 43 0;
#X connect 41 0 45 0;
#X connect 41 1 44 0;
#X connect 42 0 45 1;
#X connect 43 0 39 1;
#X connect 44 0 39 0;
#X connect 45 0 39 0;
#X connect 46 0 38 0;
#X connect 47 0 38 0;
#X connect 48 0 42 0;
#X connect 49 0 51 0;
#X connect 50 0 54 1;
#X connect 50 0 56 1;
#X connect 51 0 72 0;
#X connect 52 0 50 0;
#X connect 53 0 54 0;
#X connect 54 0 74 0;
#X connect 55 0 56 0;
#X connect 55 0 57 0;
#X connect 55 0 59 0;
#X connect 55 1 58 0;
#X connect 56 0 59 1;
#X connect 57 0 53 1;
#X connect 58 0 53 0;
#X connect 59 0 53 0;
#X connect 60 0 52 0;
#X connect 61 0 52 0;
#X connect 62 0 56 0;
#X connect 64 0 19 0;
#X connect 65 0 8 0;
#X connect 65 0 16 0;
#X connect 66 0 19 0;
#X connect 68 0 24 0;
#X connect 68 0 32 0;
#X connect 69 0 19 0;
#X connect 71 0 38 0;
#X connect 71 0 46 0;
#X connect 72 0 52 0;
#X connect 72 0 60 0;
#X connect 74 0 19 0;
#X connect 75 0 77 0;
#X connect 76 0 80 1;
#X connect 76 0 82 1;
#X connect 77 0 133 0;
#X connect 78 0 76 0;
#X connect 79 0 80 0;
#X connect 80 0 144 0;
#X connect 81 0 82 0;
#X connect 81 0 83 0;
#X connect 81 0 85 0;
#X connect 81 1 84 0;
#X connect 82 0 85 1;
#X connect 83 0 79 1;
#X connect 84 0 79 0;
#X connect 85 0 79 0;
#X connect 86 0 78 0;
#X connect 87 0 78 0;
#X connect 88 0 82 0;
#X connect 89 0 91 0;
#X connect 90 0 94 1;
#X connect 90 0 96 1;
#X connect 91 0 134 0;
#X connect 92 0 90 0;
#X connect 93 0 94 0;
#X connect 94 0 143 0;
#X connect 95 0 96 0;
#X connect 95 0 97 0;
#X connect 95 0 99 0;
#X connect 95 1 98 0;
#X connect 96 0 99 1;
#X connect 97 0 93 1;
#X connect 98 0 93 0;
#X connect 99 0 93 0;
#X connect 100 0 92 0;
#X connect 101 0 92 0;
#X connect 102 0 96 0;
#X connect 103 0 105 0;
#X connect 104 0 108 1;
#X connect 104 0 110 1;
#X connect 105 0 135 0;
#X connect 106 0 104 0;
#X connect 107 0 108 0;
#X connect 108 0 142 0;
#X connect 109 0 110 0;
#X connect 109 0 111 0;
#X connect 109 0 113 0;
#X connect 109 1 112 0;
#X connect 110 0 113 1;
#X connect 111 0 107 1;
#X connect 112 0 107 0;
#X connect 113 0 107 0;
#X connect 114 0 106 0;
#X connect 115 0 106 0;
#X connect 116 0 110 0;
#X connect 117 0 119 0;
#X connect 118 0 122 1;
#X connect 118 0 124 1;
#X connect 119 0 136 0;
#X connect 120 0 118 0;
#X connect 121 0 122 0;
#X connect 122 0 141 0;
#X connect 123 0 124 0;
#X connect 123 0 125 0;
#X connect 123 0 127 0;
#X connect 123 1 126 0;
#X connect 124 0 127 1;
#X connect 125 0 121 1;
#X connect 126 0 121 0;
#X connect 127 0 121 0;
#X connect 128 0 120 0;
#X connect 129 0 120 0;
#X connect 130 0 124 0;
#X connect 132 0 19 1;
#X connect 133 0 78 0;
#X connect 133 0 86 0;
#X connect 134 0 92 0;
#X connect 134 0 100 0;
#X connect 135 0 106 0;
#X connect 135 0 114 0;
#X connect 136 0 120 0;
#X connect 136 0 128 0;
#X connect 141 0 19 0;
#X connect 142 0 19 0;
#X connect 143 0 19 0;
#X connect 144 0 19 0;
#X connect 145 0 34 0;
#X connect 146 0 48 0;
#X connect 147 0 62 0;
#X connect 148 0 130 0;
#X connect 149 0 116 0;
#X connect 150 0 102 0;
#X connect 151 0 88 0;
