#N canvas 0 0 458 308 10;
#X obj 143 111 inlet;
#X obj 186 112 inlet;
#X obj 143 151 random 100;
#X obj 143 133 bng 15 250 50 0 empty empty empty 0 -6 0 10 -262144
-1 -1;
#X obj 143 174 <;
#X obj 142 234 outlet;
#X connect 0 0 3 0;
#X connect 1 0 4 1;
#X connect 2 0 4 0;
#X connect 3 0 2 0;
#X connect 4 0 5 0;
