#N canvas 713 327 594 319 10;
#X msg -125 -53 \$2 1;
#X msg -44 -53 \$2 0;
#X obj -206 -32 route 0 1 2 3 4 5 6 7 8 9 10 11;
#X obj -206 -11 s f0;
#X obj -191 11 s f1;
#X obj -176 -11 s f2;
#X obj -161 11 s f3;
#X obj -145 -11 s f4;
#X obj -130 11 s f5;
#X obj -115 -11 s f6;
#X obj -100 11 s f7;
#X obj -84 -11 s f8;
#X obj -69 11 s f9;
#X obj -54 -11 s f10;
#X obj -39 11 s f11;
#X obj -206 57 s f12;
#X obj -191 79 s f13;
#X obj -165 57 s f14;
#X obj -150 79 s f15;
#X obj -123 57 s f16;
#X obj -108 79 s f17;
#X obj -84 57 s f18;
#X obj -69 79 s f19;
#X obj -43 57 s f20;
#X obj -28 79 s f21;
#X obj -3 57 s f22;
#X obj 12 79 s f23;
#X msg -206 -73 \$2 -1 \$3 \$4 \$5 \$6 \$7 \$8;
#X obj -205 31 route 12 13 14 15 16 17 18 19 20 21 22 23;
#X obj -206 99 route 28 29 30 31 32 33;
#X obj -205 121 s f28;
#X obj -164 121 s f29;
#X obj -122 121 s f30;
#X obj -83 121 s f31;
#X obj -42 121 s f32;
#X obj -2 121 s f33;
#X obj -206 -112 route updateObject addObject removeObject addCursor
removeCursor updateCursor;
#X msg 80 -56 \$2 -1 \$3 \$4 \$5 \$6;
#X msg 0 -57 \$2 1;
#X msg 40 -56 \$2 0;
#X obj 90 -8 route 0 1;
#X obj 90 24 s c0;
#X obj 131 25 s c1;
#X obj -206 -132 TuioClient;
#X connect 0 0 2 0;
#X connect 1 0 2 0;
#X connect 2 0 3 0;
#X connect 2 1 4 0;
#X connect 2 2 5 0;
#X connect 2 3 6 0;
#X connect 2 4 7 0;
#X connect 2 5 8 0;
#X connect 2 6 9 0;
#X connect 2 7 10 0;
#X connect 2 8 11 0;
#X connect 2 9 12 0;
#X connect 2 10 13 0;
#X connect 2 11 14 0;
#X connect 2 12 28 0;
#X connect 27 0 2 0;
#X connect 28 0 15 0;
#X connect 28 1 16 0;
#X connect 28 2 17 0;
#X connect 28 3 18 0;
#X connect 28 4 19 0;
#X connect 28 5 20 0;
#X connect 28 6 21 0;
#X connect 28 7 22 0;
#X connect 28 8 23 0;
#X connect 28 9 24 0;
#X connect 28 10 25 0;
#X connect 28 11 26 0;
#X connect 28 12 29 0;
#X connect 29 0 30 0;
#X connect 29 1 31 0;
#X connect 29 2 32 0;
#X connect 29 3 33 0;
#X connect 29 4 34 0;
#X connect 29 5 35 0;
#X connect 36 0 27 0;
#X connect 36 1 0 0;
#X connect 36 2 1 0;
#X connect 36 3 38 0;
#X connect 36 4 39 0;
#X connect 36 5 37 0;
#X connect 37 0 40 0;
#X connect 38 0 40 0;
#X connect 39 0 40 0;
#X connect 40 0 41 0;
#X connect 40 1 42 0;
#X connect 43 0 36 0;
