#N canvas 1 27 450 300 10;
#X obj 77 60 dumpOSC 3333;
#X obj 77 80 OSCroute /metalstrikedigital /metalstrikeanalogo;
#X obj 77 100 unpack f f f f f f f f f f f f f;
#X obj 282 100 unpack f f f f;
#X obj 282 119 s dmex;
#X obj 308 138 s dmey;
#X obj 336 119 s dmez;
#X obj 362 138 s dmet;
#X obj 77 120 s dmb1;
#X obj 92 139 s dmb2;
#X obj 108 159 s dmb3;
#X obj 123 178 s dmb4;
#X obj 140 120 s dmb5;
#X obj 155 139 s dmb6;
#X obj 171 159 s dmb7;
#X obj 186 178 s dmb8;
#X obj 203 120 s dmb9;
#X obj 218 139 s dmb10;
#X obj 234 159 s dmb11;
#X obj 249 178 s dmb12;
#X obj 266 198 s dmb13;
#X connect 0 0 1 0;
#X connect 1 0 2 0;
#X connect 1 1 3 0;
#X connect 2 0 8 0;
#X connect 2 1 9 0;
#X connect 2 2 10 0;
#X connect 2 3 11 0;
#X connect 2 4 12 0;
#X connect 2 5 13 0;
#X connect 2 6 14 0;
#X connect 2 7 15 0;
#X connect 2 8 16 0;
#X connect 2 9 17 0;
#X connect 2 10 18 0;
#X connect 2 11 19 0;
#X connect 2 12 20 0;
#X connect 3 0 4 0;
#X connect 3 1 5 0;
#X connect 3 2 6 0;
#X connect 3 3 7 0;
