#N canvas 0 96 1152 768 10;
#X obj 11 12 inlet;
#X obj 182 12 inlet;
#X obj 140 12 inlet;
#X obj 97 12 inlet;
#X obj 54 12 inlet;
#X obj 233 166 openpanel;
#X obj 157 37 soundfiler;
#X obj 9 696 outlet~;
#X msg 11 34 0;
#X obj 233 287 t b;
#X obj 233 31 sel 0 1 2 3;
#X obj 97 133 bondo;
#X obj 9 677 *~;
#X obj 8 511 line~;
#X msg 233 307 read -resize /home/juan/Pd/samples/percusio/bombo/bomboBajoTonal.wav
1178-1;
#X obj 53 303 route 0 1 2 3;
#X obj 650 14 loadbang;
#X obj 610 94 change;
#X obj 650 114 sel 0 1 2 3;
#X obj 11 54 t b f;
#X obj 53 212 bondo 3;
#X obj 53 282 pack f f f;
#X msg 51 323 set \$1 \$2;
#X msg 70 343 set \$1 \$2;
#X msg 115 323 set \$1 \$2;
#X msg 81 364 set \$1 \$2;
#X obj 133 364 t b;
#X msg 133 384 9479 235.746;
#X msg 108 404 9479 124.667;
#X obj 108 384 t b;
#X obj 83 404 t b;
#X obj 58 424 t b;
#X msg 83 424 11638 263.9;
#X msg 58 444 9479 90.2762;
#X obj 20 553 line~;
#X obj 30 593 line~;
#X obj 40 633 line~;
#X obj 8 488 gate 4;
#X obj 8 194 + 1;
#X obj 48 464 switch 4;
#X obj 86 242 pack;
#X obj 53 262 gate 4;
#X obj 650 74 counter 0 0 4;
#X obj 736 54 sel 4;
#X msg 736 74 0;
#X obj 9 533 tabread4~ \$0-1;
#X obj 19 573 tabread4~ \$0-2;
#X obj 30 613 tabread4~ \$0-3;
#X obj 39 653 tabread4~ \$0-4;
#X obj 717 33 \$0;
#X obj 233 246 list append;
#X msg 233 267 set read -resize \$1 \$2-1;
#X msg 233 186 set \$1;
#X msg 233 226 /home/juan/Pd/samples/percusio/bombo/bomboBajoTonal.wav
;
#X obj 233 206 t b;
#X obj 613 166 openpanel;
#X obj 613 287 t b;
#X msg 613 307 read -resize /home/juan/Pd/samples/percusio/bombo/bomboAcústicoFuerte.wav
1178-2;
#X obj 613 246 list append;
#X msg 613 186 set \$1;
#X msg 613 226 /home/juan/Pd/samples/percusio/bombo/bomboAcústicoFuerte.wav
;
#X obj 613 206 t b;
#X msg 613 267 set read -resize \$1 \$2-2;
#X obj 233 376 openpanel;
#X obj 233 497 t b;
#X msg 233 517 read -resize /home/juan/Pd/samples/percusio/bombo/bombo.wav
1178-3;
#X obj 233 456 list append;
#X msg 233 396 set \$1;
#X msg 233 436 /home/juan/Pd/samples/percusio/bombo/bombo.wav;
#X obj 233 416 t b;
#X obj 613 376 openpanel;
#X obj 613 497 t b;
#X msg 613 517 read -resize /home/juan/Pd/samples/percusio/bombo/bomboSecoBajo.wav
1178-4;
#X obj 613 456 list append;
#X msg 613 396 set \$1;
#X msg 613 436 /home/juan/Pd/samples/percusio/bombo/bomboSecoBajo.wav
;
#X obj 613 416 t b;
#X msg 233 477 set read -resize \$1 \$2-3;
#X msg 613 477 set read -resize \$1 \$2-4;
#X obj 650 54 metro 100;
#X obj 170 71 / 44.1;
#X obj 567 42 bng 15 250 50 0 empty empty empty 17 7 0 10 -262144 -1
-1;
#X obj 96 165 *;
#X obj 54 34 route 0 1 2 3;
#X obj 78 79 / 100;
#X obj 650 34 delay 10;
#X obj 232 615 table \$0-1;
#X obj 232 635 table \$0-2;
#X obj 232 656 table \$0-3;
#X obj 232 676 table \$0-4;
#X connect 0 0 8 0;
#X connect 1 0 38 0;
#X connect 2 0 10 0;
#X connect 3 0 12 1;
#X connect 4 0 83 0;
#X connect 4 0 84 0;
#X connect 5 0 52 0;
#X connect 6 0 20 1;
#X connect 6 0 80 0;
#X connect 8 0 19 0;
#X connect 9 0 14 0;
#X connect 10 0 5 0;
#X connect 10 1 55 0;
#X connect 10 2 63 0;
#X connect 10 3 70 0;
#X connect 11 0 82 0;
#X connect 11 1 82 1;
#X connect 12 0 7 0;
#X connect 13 0 45 0;
#X connect 14 0 6 0;
#X connect 15 0 22 0;
#X connect 15 1 23 0;
#X connect 15 2 24 0;
#X connect 15 3 25 0;
#X connect 16 0 49 0;
#X connect 16 0 85 0;
#X connect 17 0 20 0;
#X connect 18 0 53 0;
#X connect 18 1 60 0;
#X connect 18 2 68 0;
#X connect 18 3 75 0;
#X connect 18 4 43 0;
#X connect 19 0 27 0;
#X connect 19 0 28 0;
#X connect 19 0 32 0;
#X connect 19 0 33 0;
#X connect 19 1 37 1;
#X connect 20 0 21 0;
#X connect 20 1 21 1;
#X connect 20 1 40 0;
#X connect 20 2 21 2;
#X connect 20 2 40 1;
#X connect 21 0 15 0;
#X connect 22 0 33 0;
#X connect 22 0 31 0;
#X connect 23 0 32 0;
#X connect 23 0 30 0;
#X connect 24 0 28 0;
#X connect 24 0 29 0;
#X connect 25 0 27 0;
#X connect 25 0 26 0;
#X connect 26 0 27 0;
#X connect 27 0 39 4;
#X connect 28 0 39 3;
#X connect 29 0 28 0;
#X connect 30 0 32 0;
#X connect 31 0 33 0;
#X connect 32 0 39 2;
#X connect 33 0 39 1;
#X connect 34 0 46 0;
#X connect 35 0 47 0;
#X connect 36 0 48 0;
#X connect 37 0 13 0;
#X connect 37 1 34 0;
#X connect 37 2 35 0;
#X connect 37 3 36 0;
#X connect 38 0 37 0;
#X connect 38 0 39 0;
#X connect 38 0 41 0;
#X connect 39 0 37 1;
#X connect 40 0 41 1;
#X connect 41 0 22 0;
#X connect 41 1 23 0;
#X connect 41 2 24 0;
#X connect 41 3 25 0;
#X connect 42 0 18 0;
#X connect 42 0 17 0;
#X connect 43 0 44 0;
#X connect 44 0 79 0;
#X connect 45 0 12 0;
#X connect 46 0 12 0;
#X connect 47 0 12 0;
#X connect 48 0 12 0;
#X connect 49 0 50 1;
#X connect 49 0 58 1;
#X connect 49 0 66 1;
#X connect 49 0 73 1;
#X connect 50 0 51 0;
#X connect 51 0 14 0;
#X connect 51 0 9 0;
#X connect 52 0 53 0;
#X connect 52 0 54 0;
#X connect 53 0 50 0;
#X connect 54 0 53 0;
#X connect 55 0 59 0;
#X connect 56 0 57 0;
#X connect 57 0 6 0;
#X connect 58 0 62 0;
#X connect 59 0 60 0;
#X connect 59 0 61 0;
#X connect 60 0 58 0;
#X connect 61 0 60 0;
#X connect 62 0 57 0;
#X connect 62 0 56 0;
#X connect 63 0 67 0;
#X connect 64 0 65 0;
#X connect 65 0 6 0;
#X connect 66 0 77 0;
#X connect 67 0 68 0;
#X connect 67 0 69 0;
#X connect 68 0 66 0;
#X connect 69 0 68 0;
#X connect 70 0 74 0;
#X connect 71 0 72 0;
#X connect 72 0 6 0;
#X connect 73 0 78 0;
#X connect 74 0 75 0;
#X connect 74 0 76 0;
#X connect 75 0 73 0;
#X connect 76 0 75 0;
#X connect 77 0 65 0;
#X connect 77 0 64 0;
#X connect 78 0 72 0;
#X connect 78 0 71 0;
#X connect 79 0 42 0;
#X connect 80 0 11 1;
#X connect 81 0 79 0;
#X connect 82 0 20 2;
#X connect 84 0 11 0;
#X connect 85 0 79 0;
