#N canvas 4 104 802 439 10;
#X obj 122 263 freeverb~;
#X obj 112 33 cnv 15 125 115 empty empty empty 20 12 0 14 -159808 -66577
0;
#X msg 6 107 roomsize \$1;
#X msg 6 129 damping \$1;
#X msg 6 151 width \$1;
#X msg 6 173 wet \$1;
#X msg 6 195 dry \$1;
#X msg 6 217 print;
#X msg 6 239 freeze \$1;
#X msg 6 261 bypass \$1;
#X obj 153 122 tgl 15 0 empty empty empty 17 7 0 10 -262144 -1 -1 0
1;
#X obj 133 122 tgl 15 0 empty empty empty 17 7 0 10 -262144 -1 -1 0
1;
#X obj 116 45 hsl 50 15 0 1 0 0 empty empty empty -2 -8 0 10 -262144
-1 -1 2450 1;
#X obj 116 60 hsl 50 15 0 1 0 0 empty empty empty -2 -8 0 10 -262144
-1 -1 3430 1;
#X obj 116 76 hsl 50 15 0 1 0 0 empty empty empty -2 -8 0 10 -262144
-1 -1 3430 1;
#X obj 116 91 hsl 50 15 0 1 0 0 empty empty empty -2 -8 0 10 -262144
-1 -1 2450 1;
#X obj 116 106 hsl 50 15 0 1 0 0 empty empty empty -2 -8 0 10 -262144
-1 -1 2450 1;
#X obj 113 122 tgl 15 0 empty empty empty 17 7 0 10 -262144 -1 -1 0
1;
#X text 168 43 sala;
#X text 168 58 rebote;
#X text 169 74 ancho;
#X text 169 88 procesado;
#X text 169 104 noProcesado;
#X text 115 134 P;
#X text 152 134 IO;
#X text 134 134 C;
#X obj 111 6 inlet;
#X obj 149 6 inlet;
#X obj 183 6 inlet;
#X obj 219 7 inlet;
#X obj 255 7 inlet;
#X obj 130 328 outlet~;
#X obj 245 330 outlet~;
#X obj 67 6 inlet~;
#X obj 20 6 inlet~;
#X obj 327 62 unpack f f f f f;
#X msg 331 36 0.5 0.7 0.7 0.5 0.5;
#X obj 335 13 loadbang;
#X obj 315 96 r mb13;
#X obj 313 117 sel 1;
#X connect 0 0 31 0;
#X connect 0 1 32 0;
#X connect 2 0 0 0;
#X connect 3 0 0 0;
#X connect 4 0 0 0;
#X connect 5 0 0 0;
#X connect 6 0 0 0;
#X connect 7 0 0 0;
#X connect 8 0 0 0;
#X connect 9 0 0 0;
#X connect 10 0 9 0;
#X connect 11 0 8 0;
#X connect 12 0 2 0;
#X connect 13 0 3 0;
#X connect 14 0 4 0;
#X connect 15 0 5 0;
#X connect 16 0 6 0;
#X connect 17 0 7 0;
#X connect 26 0 12 0;
#X connect 27 0 13 0;
#X connect 28 0 14 0;
#X connect 29 0 15 0;
#X connect 30 0 16 0;
#X connect 33 0 0 1;
#X connect 34 0 0 0;
#X connect 35 0 12 0;
#X connect 35 1 13 0;
#X connect 35 2 14 0;
#X connect 35 3 15 0;
#X connect 35 4 16 0;
#X connect 36 0 35 0;
#X connect 37 0 36 0;
#X connect 38 0 39 0;
#X connect 39 0 10 0;
#X coords 0 -1 1 1 130 120 1 110 30;
