#N canvas 0 164 1151 291 10;
#X obj 6 51 sel 1 0;
#X obj 130 82 *~;
#X obj 155 82 inlet;
#X obj 128 175 outlet~;
#X floatatom 231 44 5 0 0 0 - - -;
#X floatatom 322 45 5 0 0 0 - - -;
#X floatatom 416 46 5 0 0 0 - - -;
#X floatatom 500 45 5 0 0 0 - - -;
#X floatatom 587 46 5 0 0 0 - - -;
#X floatatom 659 46 5 0 0 0 - - -;
#X floatatom 6 167 5 0 0 0 - - -;
#X floatatom 252 26 5 0 0 0 - selectorSampleador -;
#N canvas 304 234 338 474 lectorS0 0;
#X obj 6 206 phasor~;
#X obj 83 87 sel 1 0;
#X msg 45 187 0;
#X msg 14 187 0;
#X obj 6 130 f;
#X msg 13 306 set t0;
#X msg 13 286 set set t\$1;
#X obj 1 21 sel 0 1 2 3;
#X obj 77 0 inlet;
#X obj 115 0 inlet;
#N canvas 431 279 450 323 opencero 0;
#X obj 35 68 openpanel;
#X obj 35 48 inlet;
#X obj 35 217 outlet;
#X obj 35 111 bang;
#X msg 35 134 read -resize /home/juan/Pd/samples/loops/cata-01.aiff
t0;
#X obj 219 52 inlet;
#X obj 35 170 soundfiler;
#X obj 219 187 f;
#X obj 70 112 loadbang;
#X msg 35 87 set read -resize \$1 t0;
#X connect 0 0 9 0;
#X connect 1 0 0 0;
#X connect 3 0 4 0;
#X connect 4 0 6 0;
#X connect 5 0 7 0;
#X connect 6 0 2 0;
#X connect 6 0 7 1;
#X connect 7 0 2 0;
#X connect 8 0 4 0;
#X connect 9 0 4 0;
#X connect 9 0 3 0;
#X restore 1 65 pd opencero;
#X obj 39 0 inlet;
#X obj 7 403 outlet~;
#N canvas 9 339 450 300 openuno 0;
#X obj 45 78 openpanel;
#X msg 45 144 read -resize /home/juan/Pd/samples/loops/cidinhoDocaMayorConcepto.wav
t1;
#X obj 45 58 inlet;
#X obj 45 191 outlet;
#X obj 45 121 bang;
#X obj 45 167 soundfiler;
#X obj 229 62 inlet;
#X obj 229 197 f;
#X obj 89 121 loadbang;
#X msg 45 97 set read -resize \$1 t1;
#X connect 0 0 9 0;
#X connect 1 0 5 0;
#X connect 2 0 0 0;
#X connect 4 0 1 0;
#X connect 5 0 3 0;
#X connect 5 0 7 1;
#X connect 6 0 7 0;
#X connect 7 0 3 0;
#X connect 8 0 1 0;
#X connect 9 0 1 0;
#X connect 9 0 4 0;
#X restore 73 66 pd openuno;
#N canvas 8 316 450 300 opendos 0;
#X obj 45 78 openpanel;
#X msg 45 144 read -resize /home/juan/Pd/samples/loops/raptor1.wav
t2;
#X obj 45 58 inlet;
#X obj 45 193 outlet;
#X obj 45 121 bang;
#X obj 45 170 soundfiler;
#X obj 239 72 inlet;
#X obj 239 207 f;
#X obj 93 121 loadbang;
#X msg 45 97 set read -resize \$1 t2;
#X connect 0 0 9 0;
#X connect 1 0 5 0;
#X connect 2 0 0 0;
#X connect 4 0 1 0;
#X connect 5 0 3 0;
#X connect 5 0 7 1;
#X connect 6 0 7 0;
#X connect 7 0 3 0;
#X connect 8 0 1 0;
#X connect 9 0 1 0;
#X connect 9 0 4 0;
#X restore 140 66 pd opendos;
#N canvas 10 362 450 300 opentres 0;
#X obj 45 78 openpanel;
#X msg 45 144 read -resize /home/juan/Pd/samples/loops/88BEAT13.wav
t3;
#X obj 45 58 inlet;
#X obj 45 192 outlet;
#X obj 45 121 bang;
#X obj 45 170 soundfiler;
#X obj 249 82 inlet;
#X obj 249 217 f;
#X obj 91 123 loadbang;
#X msg 45 97 set read -resize \$1 t3;
#X connect 0 0 9 0;
#X connect 1 0 5 0;
#X connect 2 0 0 0;
#X connect 4 0 1 0;
#X connect 5 0 3 0;
#X connect 5 0 7 1;
#X connect 6 0 7 0;
#X connect 7 0 3 0;
#X connect 8 0 1 0;
#X connect 9 0 1 0;
#X connect 9 0 4 0;
#X restore 207 66 pd opentres;
#X obj 61 305 bang;
#X obj 81 22 sel 0 1 2 3;
#X obj 231 238 line~;
#X obj 6 378 *~;
#X msg 230 177 0 10;
#X msg 231 206 1 10;
#X obj 87 417 table t0;
#X obj 142 417 table t1;
#X obj 197 417 table t2;
#X obj 252 417 table t3;
#X obj 6 357 tabread4~ t0;
#X obj 6 253 *~;
#X obj 49 236 + 0;
#X obj 40 261 s soundfilero;
#X obj 1 0 r cosador;
#X connect 0 0 27 0;
#X connect 1 0 2 0;
#X connect 1 0 4 0;
#X connect 1 0 21 0;
#X connect 1 1 3 0;
#X connect 1 1 20 0;
#X connect 2 0 0 1;
#X connect 3 0 0 0;
#X connect 4 0 0 0;
#X connect 5 0 26 0;
#X connect 6 0 5 0;
#X connect 6 0 16 0;
#X connect 7 0 10 0;
#X connect 7 1 13 0;
#X connect 7 2 14 0;
#X connect 7 3 15 0;
#X connect 8 0 6 0;
#X connect 8 0 17 0;
#X connect 9 0 1 0;
#X connect 10 0 28 0;
#X connect 11 0 7 0;
#X connect 13 0 28 0;
#X connect 14 0 28 0;
#X connect 15 0 28 0;
#X connect 16 0 5 0;
#X connect 17 0 10 1;
#X connect 17 1 13 1;
#X connect 17 2 14 1;
#X connect 17 3 15 1;
#X connect 18 0 19 1;
#X connect 19 0 12 0;
#X connect 20 0 18 0;
#X connect 21 0 18 0;
#X connect 26 0 19 0;
#X connect 27 0 26 0;
#X connect 28 0 27 1;
#X connect 28 0 29 0;
#X connect 30 0 4 1;
#X restore 130 61 pd lectorS0;
#X floatatom 130 43 5 0 0 0 - - -;
#N canvas 687 282 450 463 lectorS1 0;
#X obj 97 427 table t4;
#X obj 152 427 table t5;
#X obj 207 427 table t6;
#X obj 262 427 table t7;
#X obj 34 230 phasor~;
#X obj 111 111 sel 1 0;
#X msg 73 211 0;
#X msg 48 210 0;
#X obj 34 154 f;
#X obj 34 192 /;
#X obj 34 173 bondo;
#X obj 159 264 bondo;
#X obj 159 283 pow 2 0;
#X obj 186 227 - 4;
#X msg 41 330 set t4;
#X msg 41 310 set set t\$1;
#X obj 29 45 sel 0 1 2 3;
#X obj 105 24 inlet;
#X obj 143 24 inlet;
#X obj 159 186 /;
#X obj 159 166 bondo;
#N canvas 577 242 450 300 opencero 0;
#X obj 35 68 openpanel;
#X obj 35 48 inlet;
#X obj 35 217 outlet;
#X obj 35 111 bang;
#X msg 35 134 read -resize /home/juan/Pd/samples/loops/cata-02.aiff
t4;
#X obj 219 52 inlet;
#X obj 35 170 soundfiler;
#X obj 219 187 f;
#X obj 70 112 loadbang;
#X msg 35 87 set read -resize \$1 t4;
#X connect 0 0 9 0;
#X connect 1 0 0 0;
#X connect 3 0 4 0;
#X connect 4 0 6 0;
#X connect 5 0 7 0;
#X connect 6 0 2 0;
#X connect 6 0 7 1;
#X connect 7 0 2 0;
#X connect 8 0 4 0;
#X connect 9 0 4 0;
#X connect 9 0 3 0;
#X restore 29 89 pd opencero;
#X obj 219 24 inlet;
#X obj 67 24 inlet;
#X obj 34 398 outlet~;
#N canvas 5 353 450 300 openuno 0;
#X obj 45 78 openpanel;
#X msg 45 144 read -resize /home/juan/Pd/samples/loops/cidinhoDocaMorroDoDendé.wav
t5;
#X obj 45 58 inlet;
#X obj 45 191 outlet;
#X obj 45 121 bang;
#X obj 45 167 soundfiler;
#X obj 229 62 inlet;
#X obj 229 197 f;
#X obj 89 121 loadbang;
#X msg 45 97 set read -resize \$1 t5;
#X connect 0 0 9 0;
#X connect 1 0 5 0;
#X connect 2 0 0 0;
#X connect 4 0 1 0;
#X connect 5 0 3 0;
#X connect 5 0 7 1;
#X connect 6 0 7 0;
#X connect 7 0 3 0;
#X connect 8 0 1 0;
#X connect 9 0 1 0;
#X connect 9 0 4 0;
#X restore 101 90 pd openuno;
#N canvas 8 317 450 300 opendos 0;
#X obj 45 78 openpanel;
#X msg 45 144 read -resize /home/juan/Pd/samples/loops/raptor2.wav
t6;
#X obj 45 58 inlet;
#X obj 45 193 outlet;
#X obj 45 121 bang;
#X obj 45 170 soundfiler;
#X obj 239 72 inlet;
#X obj 239 207 f;
#X obj 93 121 loadbang;
#X msg 45 97 set read -resize \$1 t6;
#X connect 0 0 9 0;
#X connect 1 0 5 0;
#X connect 2 0 0 0;
#X connect 4 0 1 0;
#X connect 5 0 3 0;
#X connect 5 0 7 1;
#X connect 6 0 7 0;
#X connect 7 0 3 0;
#X connect 8 0 1 0;
#X connect 9 0 1 0;
#X connect 9 0 4 0;
#X restore 168 90 pd opendos;
#N canvas 12 356 450 300 opentres 0;
#X obj 45 78 openpanel;
#X msg 45 144 read -resize /home/juan/Pd/samples/loops/bachata--01.wav
t7;
#X obj 45 58 inlet;
#X obj 45 192 outlet;
#X obj 45 121 bang;
#X obj 45 170 soundfiler;
#X obj 249 82 inlet;
#X obj 249 217 f;
#X obj 91 123 loadbang;
#X msg 45 97 set read -resize \$1 t7;
#X connect 0 0 9 0;
#X connect 1 0 5 0;
#X connect 2 0 0 0;
#X connect 4 0 1 0;
#X connect 5 0 3 0;
#X connect 5 0 7 1;
#X connect 6 0 7 0;
#X connect 7 0 3 0;
#X connect 8 0 1 0;
#X connect 9 0 1 0;
#X connect 9 0 4 0;
#X restore 235 90 pd opentres;
#X obj 89 329 bang;
#X msg 159 246 2;
#X obj 109 46 sel 0 1 2 3;
#N canvas 482 250 659 270 analizador 0;
#X obj 294 29 inlet;
#X obj 30 61 < 0.1;
#X obj 30 81 sel 1;
#X obj 79 62 > 0.1;
#X obj 116 62 < 0.19;
#X obj 79 82 &&;
#X obj 79 101 sel 1;
#X obj 159 82 &&;
#X obj 159 101 sel 1;
#X obj 159 62 > 0.19;
#X obj 202 62 < 0.4;
#X obj 239 82 &&;
#X obj 239 101 sel 1;
#X obj 302 162 outlet;
#X obj 239 62 > 0.4;
#X obj 276 62 < 0.8;
#X obj 313 82 &&;
#X obj 313 101 sel 1;
#X obj 313 62 > 0.8;
#X obj 393 82 &&;
#X obj 393 101 sel 1;
#X obj 435 62 < 3;
#X obj 476 82 &&;
#X obj 476 101 sel 1;
#X obj 476 62 > 3;
#X obj 502 62 < 6.66;
#X obj 545 82 &&;
#X obj 545 101 sel 1;
#X obj 545 62 > 6.66;
#X obj 589 62 < 10;
#X msg 30 101 0;
#X msg 79 121 1;
#X msg 159 121 2;
#X msg 239 122 3;
#X msg 313 122 4;
#X msg 393 122 5;
#X msg 476 122 6;
#X msg 545 122 7;
#X obj 350 62 < 1.3;
#X obj 393 62 > 1.3;
#X connect 0 0 1 0;
#X connect 0 0 3 0;
#X connect 0 0 4 0;
#X connect 0 0 9 0;
#X connect 0 0 10 0;
#X connect 0 0 14 0;
#X connect 0 0 15 0;
#X connect 0 0 18 0;
#X connect 0 0 21 0;
#X connect 0 0 24 0;
#X connect 0 0 25 0;
#X connect 0 0 28 0;
#X connect 0 0 29 0;
#X connect 0 0 38 0;
#X connect 0 0 39 0;
#X connect 1 0 2 0;
#X connect 2 0 30 0;
#X connect 3 0 5 0;
#X connect 4 0 5 1;
#X connect 5 0 6 0;
#X connect 6 0 31 0;
#X connect 7 0 8 0;
#X connect 8 0 32 0;
#X connect 9 0 7 0;
#X connect 10 0 7 1;
#X connect 11 0 12 0;
#X connect 12 0 33 0;
#X connect 14 0 11 0;
#X connect 15 0 11 1;
#X connect 16 0 17 0;
#X connect 17 0 34 0;
#X connect 18 0 16 0;
#X connect 19 0 20 0;
#X connect 20 0 35 0;
#X connect 21 0 19 1;
#X connect 22 0 23 0;
#X connect 23 0 36 0;
#X connect 24 0 22 0;
#X connect 25 0 22 1;
#X connect 26 0 27 0;
#X connect 27 0 37 0;
#X connect 28 0 26 0;
#X connect 29 0 26 1;
#X connect 30 0 13 0;
#X connect 31 0 13 0;
#X connect 32 0 13 0;
#X connect 33 0 13 0;
#X connect 34 0 13 0;
#X connect 35 0 13 0;
#X connect 36 0 13 0;
#X connect 37 0 13 0;
#X connect 38 0 16 1;
#X connect 39 0 19 0;
#X restore 159 207 pd analizador;
#X obj 114 227 loadbang;
#X obj 259 262 line~;
#X obj 33 373 *~;
#X msg 258 201 0 10;
#X msg 259 230 1 10;
#X obj 33 352 tabread4~ t0;
#X obj 34 277 *~;
#X obj 48 257 + 0;
#X obj 106 280 + 4;
#X floatatom 238 174 5 0 0 0 - - -;
#X obj 188 46 r soundfilero;
#X obj 32 67 r cosador;
#X floatatom 169 327 5 0 0 0 - - -;
#X floatatom 215 256 5 0 0 0 - - -;
#X connect 4 0 38 0;
#X connect 5 0 6 0;
#X connect 5 0 8 0;
#X connect 5 0 36 0;
#X connect 5 1 7 0;
#X connect 5 1 35 0;
#X connect 6 0 4 1;
#X connect 7 0 4 0;
#X connect 8 0 10 0;
#X connect 9 0 4 0;
#X connect 10 0 9 0;
#X connect 10 1 9 1;
#X connect 11 0 12 0;
#X connect 11 1 12 1;
#X connect 12 0 10 1;
#X connect 12 0 44 0;
#X connect 13 0 11 1;
#X connect 14 0 37 0;
#X connect 15 0 14 0;
#X connect 15 0 28 0;
#X connect 16 0 21 0;
#X connect 16 1 25 0;
#X connect 16 2 26 0;
#X connect 16 3 27 0;
#X connect 17 0 30 0;
#X connect 17 0 40 0;
#X connect 18 0 5 0;
#X connect 19 0 31 0;
#X connect 19 0 41 0;
#X connect 19 0 45 0;
#X connect 20 0 19 0;
#X connect 20 1 19 1;
#X connect 21 0 20 0;
#X connect 21 0 39 0;
#X connect 22 0 13 0;
#X connect 23 0 16 0;
#X connect 25 0 20 0;
#X connect 25 0 39 0;
#X connect 26 0 20 0;
#X connect 26 0 39 0;
#X connect 27 0 20 0;
#X connect 27 0 39 0;
#X connect 28 0 14 0;
#X connect 29 0 11 0;
#X connect 30 0 21 1;
#X connect 30 1 25 1;
#X connect 30 2 26 1;
#X connect 30 3 27 1;
#X connect 31 0 13 0;
#X connect 32 0 29 0;
#X connect 33 0 34 1;
#X connect 34 0 24 0;
#X connect 35 0 33 0;
#X connect 36 0 33 0;
#X connect 37 0 34 0;
#X connect 38 0 37 0;
#X connect 39 0 38 1;
#X connect 40 0 15 0;
#X connect 42 0 20 1;
#X connect 43 0 8 1;
#X restore 228 66 pd lectorS1;
#N canvas 550 184 450 481 lectorS2 0;
#X obj 97 427 table t8;
#X obj 152 427 table t9;
#X obj 207 427 table t10;
#X obj 262 427 table t11;
#X obj 56 224 phasor~;
#X obj 133 105 sel 1 0;
#X msg 95 205 0;
#X msg 70 204 0;
#X obj 56 148 f;
#X obj 56 186 /;
#X obj 56 167 bondo;
#X obj 181 258 bondo;
#X obj 181 277 pow 2 0;
#X obj 208 221 - 4;
#X msg 63 324 set t8;
#X msg 63 304 set set t\$1;
#X obj 51 39 sel 0 1 2 3;
#X obj 127 18 inlet;
#X obj 165 18 inlet;
#X obj 181 180 /;
#X obj 181 160 bondo;
#N canvas 2 377 450 300 opencero 0;
#X obj 35 68 openpanel;
#X obj 35 48 inlet;
#X obj 35 217 outlet;
#X obj 35 111 bang;
#X msg 35 134 read -resize /home/juan/Pd/samples/loops/cata-03.aiff
t8;
#X obj 219 52 inlet;
#X obj 35 170 soundfiler;
#X obj 219 187 f;
#X obj 70 112 loadbang;
#X msg 35 87 set read -resize \$1 t8;
#X connect 0 0 9 0;
#X connect 1 0 0 0;
#X connect 3 0 4 0;
#X connect 4 0 6 0;
#X connect 5 0 7 0;
#X connect 6 0 2 0;
#X connect 6 0 7 1;
#X connect 7 0 2 0;
#X connect 8 0 4 0;
#X connect 9 0 4 0;
#X connect 9 0 3 0;
#X restore 51 83 pd opencero;
#X obj 241 18 inlet;
#X obj 89 18 inlet;
#X obj 56 392 outlet~;
#N canvas 7 345 450 300 openuno 0;
#X obj 45 78 openpanel;
#X msg 45 144 read -resize /home/juan/Pd/samples/loops/cidinhoDocaParrapa.wav
t9;
#X obj 45 58 inlet;
#X obj 45 191 outlet;
#X obj 45 121 bang;
#X obj 45 167 soundfiler;
#X obj 229 62 inlet;
#X obj 229 197 f;
#X obj 89 121 loadbang;
#X msg 45 97 set read -resize \$1 t9;
#X connect 0 0 9 0;
#X connect 1 0 5 0;
#X connect 2 0 0 0;
#X connect 4 0 1 0;
#X connect 5 0 3 0;
#X connect 5 0 7 1;
#X connect 6 0 7 0;
#X connect 7 0 3 0;
#X connect 8 0 1 0;
#X connect 9 0 1 0;
#X connect 9 0 4 0;
#X restore 123 84 pd openuno;
#N canvas 4 328 450 300 opendos 0;
#X obj 45 78 openpanel;
#X msg 45 144 read -resize /home/juan/Pd/samples/loops/faylan2.wav
t10;
#X obj 45 58 inlet;
#X obj 45 193 outlet;
#X obj 45 121 bang;
#X obj 45 170 soundfiler;
#X obj 239 72 inlet;
#X obj 239 207 f;
#X obj 93 121 loadbang;
#X msg 45 97 set read -resize \$1 t10;
#X connect 0 0 9 0;
#X connect 1 0 5 0;
#X connect 2 0 0 0;
#X connect 4 0 1 0;
#X connect 5 0 3 0;
#X connect 5 0 7 1;
#X connect 6 0 7 0;
#X connect 7 0 3 0;
#X connect 8 0 1 0;
#X connect 9 0 1 0;
#X connect 9 0 4 0;
#X restore 190 84 pd opendos;
#N canvas 10 362 450 300 opentres 0;
#X obj 45 78 openpanel;
#X msg 45 144 read -resize /home/juan/Pd/samples/loops/bachata--02.wav
t11;
#X obj 45 58 inlet;
#X obj 45 192 outlet;
#X obj 45 121 bang;
#X obj 45 170 soundfiler;
#X obj 249 82 inlet;
#X obj 249 217 f;
#X obj 91 123 loadbang;
#X msg 45 97 set read -resize \$1 t11;
#X connect 0 0 9 0;
#X connect 1 0 5 0;
#X connect 2 0 0 0;
#X connect 4 0 1 0;
#X connect 5 0 3 0;
#X connect 5 0 7 1;
#X connect 6 0 7 0;
#X connect 7 0 3 0;
#X connect 8 0 1 0;
#X connect 9 0 1 0;
#X connect 9 0 4 0;
#X restore 257 84 pd opentres;
#X obj 111 323 bang;
#X msg 181 240 2;
#X obj 131 40 sel 0 1 2 3;
#X obj 136 221 loadbang;
#X obj 281 256 line~;
#X obj 55 367 *~;
#X msg 280 195 0 10;
#X msg 281 224 1 10;
#X obj 55 346 tabread4~ t0;
#X obj 56 271 *~;
#X obj 93 254 + 0;
#X obj 120 284 + 8;
#N canvas 291 220 659 270 analizador 0;
#X obj 294 29 inlet;
#X obj 30 61 < 0.1;
#X obj 30 81 sel 1;
#X obj 79 62 > 0.1;
#X obj 116 62 < 0.19;
#X obj 79 82 &&;
#X obj 79 101 sel 1;
#X obj 159 82 &&;
#X obj 159 101 sel 1;
#X obj 159 62 > 0.19;
#X obj 202 62 < 0.4;
#X obj 239 82 &&;
#X obj 239 101 sel 1;
#X obj 302 162 outlet;
#X obj 239 62 > 0.4;
#X obj 276 62 < 0.8;
#X obj 313 82 &&;
#X obj 313 101 sel 1;
#X obj 313 62 > 0.8;
#X obj 393 82 &&;
#X obj 393 101 sel 1;
#X obj 435 62 < 3;
#X obj 476 82 &&;
#X obj 476 101 sel 1;
#X obj 476 62 > 3;
#X obj 502 62 < 6.66;
#X obj 545 82 &&;
#X obj 545 101 sel 1;
#X obj 545 62 > 6.66;
#X obj 589 62 < 10;
#X msg 30 101 0;
#X msg 79 121 1;
#X msg 159 121 2;
#X msg 239 122 3;
#X msg 313 122 4;
#X msg 393 122 5;
#X msg 476 122 6;
#X msg 545 122 7;
#X obj 350 62 < 1.3;
#X obj 393 62 > 1.3;
#X connect 0 0 1 0;
#X connect 0 0 3 0;
#X connect 0 0 4 0;
#X connect 0 0 9 0;
#X connect 0 0 10 0;
#X connect 0 0 14 0;
#X connect 0 0 15 0;
#X connect 0 0 18 0;
#X connect 0 0 21 0;
#X connect 0 0 24 0;
#X connect 0 0 25 0;
#X connect 0 0 28 0;
#X connect 0 0 29 0;
#X connect 0 0 38 0;
#X connect 0 0 39 0;
#X connect 1 0 2 0;
#X connect 2 0 30 0;
#X connect 3 0 5 0;
#X connect 4 0 5 1;
#X connect 5 0 6 0;
#X connect 6 0 31 0;
#X connect 7 0 8 0;
#X connect 8 0 32 0;
#X connect 9 0 7 0;
#X connect 10 0 7 1;
#X connect 11 0 12 0;
#X connect 12 0 33 0;
#X connect 14 0 11 0;
#X connect 15 0 11 1;
#X connect 16 0 17 0;
#X connect 17 0 34 0;
#X connect 18 0 16 0;
#X connect 19 0 20 0;
#X connect 20 0 35 0;
#X connect 21 0 19 1;
#X connect 22 0 23 0;
#X connect 23 0 36 0;
#X connect 24 0 22 0;
#X connect 25 0 22 1;
#X connect 26 0 27 0;
#X connect 27 0 37 0;
#X connect 28 0 26 0;
#X connect 29 0 26 1;
#X connect 30 0 13 0;
#X connect 31 0 13 0;
#X connect 32 0 13 0;
#X connect 33 0 13 0;
#X connect 34 0 13 0;
#X connect 35 0 13 0;
#X connect 36 0 13 0;
#X connect 37 0 13 0;
#X connect 38 0 16 1;
#X connect 39 0 19 0;
#X restore 181 200 pd analizador;
#X obj 208 41 r soundfilero;
#X obj 51 63 r cosador;
#X connect 4 0 37 0;
#X connect 5 0 6 0;
#X connect 5 0 8 0;
#X connect 5 0 35 0;
#X connect 5 1 7 0;
#X connect 5 1 34 0;
#X connect 6 0 4 1;
#X connect 7 0 4 0;
#X connect 8 0 10 0;
#X connect 9 0 4 0;
#X connect 10 0 9 0;
#X connect 10 1 9 1;
#X connect 11 0 12 0;
#X connect 11 1 12 1;
#X connect 12 0 10 1;
#X connect 13 0 11 1;
#X connect 14 0 36 0;
#X connect 15 0 14 0;
#X connect 15 0 28 0;
#X connect 16 0 21 0;
#X connect 16 1 25 0;
#X connect 16 2 26 0;
#X connect 16 3 27 0;
#X connect 17 0 30 0;
#X connect 17 0 39 0;
#X connect 18 0 5 0;
#X connect 19 0 40 0;
#X connect 20 0 19 0;
#X connect 20 1 19 1;
#X connect 21 0 20 0;
#X connect 21 0 38 0;
#X connect 22 0 13 0;
#X connect 23 0 16 0;
#X connect 25 0 20 0;
#X connect 25 0 38 0;
#X connect 26 0 20 0;
#X connect 26 0 38 0;
#X connect 27 0 20 0;
#X connect 27 0 38 0;
#X connect 28 0 14 0;
#X connect 29 0 11 0;
#X connect 30 0 21 1;
#X connect 30 1 25 1;
#X connect 30 2 26 1;
#X connect 30 3 27 1;
#X connect 31 0 29 0;
#X connect 32 0 33 1;
#X connect 33 0 24 0;
#X connect 34 0 32 0;
#X connect 35 0 32 0;
#X connect 36 0 33 0;
#X connect 37 0 36 0;
#X connect 38 0 37 1;
#X connect 39 0 15 0;
#X connect 40 0 13 0;
#X connect 41 0 20 1;
#X connect 42 0 8 1;
#X restore 322 63 pd lectorS2;
#N canvas 1 104 450 468 lectorS3 0;
#X obj 97 427 table t12;
#X obj 152 427 table t13;
#X obj 207 427 table t14;
#X obj 262 427 table t15;
#X obj 36 223 phasor~;
#X obj 113 104 sel 1 0;
#X msg 75 204 0;
#X msg 50 203 0;
#X obj 36 147 f;
#X obj 36 185 /;
#X obj 36 166 bondo;
#X obj 161 257 bondo;
#X obj 161 276 pow 2 0;
#X obj 188 220 - 4;
#X msg 43 323 set t12;
#X msg 43 303 set set t\$1;
#X obj 31 38 sel 0 1 2 3;
#X obj 107 17 inlet;
#X obj 145 17 inlet;
#X obj 161 179 /;
#X obj 161 159 bondo;
#N canvas 1 389 450 300 opencero 0;
#X obj 35 68 openpanel;
#X obj 35 48 inlet;
#X obj 35 217 outlet;
#X obj 35 111 bang;
#X msg 35 134 read -resize /home/juan/Pd/samples/loops/cata-04.aiff
t12;
#X obj 219 52 inlet;
#X obj 35 170 soundfiler;
#X obj 219 187 f;
#X obj 70 112 loadbang;
#X msg 35 87 set read -resize \$1 t12;
#X connect 0 0 9 0;
#X connect 1 0 0 0;
#X connect 3 0 4 0;
#X connect 4 0 6 0;
#X connect 5 0 7 0;
#X connect 6 0 2 0;
#X connect 6 0 7 1;
#X connect 7 0 2 0;
#X connect 8 0 4 0;
#X connect 9 0 4 0;
#X connect 9 0 3 0;
#X restore 31 82 pd opencero;
#X obj 221 17 inlet;
#X obj 69 17 inlet;
#X obj 36 391 outlet~;
#N canvas 5 351 450 300 openuno 0;
#X obj 45 78 openpanel;
#X msg 45 144 read -resize /home/juan/Pd/samples/loops/cidinhoDocaParrapapapa.wav
t13;
#X obj 45 58 inlet;
#X obj 45 191 outlet;
#X obj 45 121 bang;
#X obj 45 167 soundfiler;
#X obj 229 62 inlet;
#X obj 229 197 f;
#X obj 89 121 loadbang;
#X msg 45 97 set read -resize \$1 t13;
#X connect 0 0 9 0;
#X connect 1 0 5 0;
#X connect 2 0 0 0;
#X connect 4 0 1 0;
#X connect 5 0 3 0;
#X connect 5 0 7 1;
#X connect 6 0 7 0;
#X connect 7 0 3 0;
#X connect 8 0 1 0;
#X connect 9 0 1 0;
#X connect 9 0 4 0;
#X restore 103 83 pd openuno;
#N canvas 2 334 450 300 opendos 0;
#X obj 45 78 openpanel;
#X msg 45 144 read -resize /home/juan/Pd/samples/loops/raptor4.wav
t14;
#X obj 45 58 inlet;
#X obj 45 193 outlet;
#X obj 45 121 bang;
#X obj 45 170 soundfiler;
#X obj 239 72 inlet;
#X obj 239 207 f;
#X obj 93 121 loadbang;
#X msg 45 97 set read -resize \$1 t14;
#X connect 0 0 9 0;
#X connect 1 0 5 0;
#X connect 2 0 0 0;
#X connect 4 0 1 0;
#X connect 5 0 3 0;
#X connect 5 0 7 1;
#X connect 6 0 7 0;
#X connect 7 0 3 0;
#X connect 8 0 1 0;
#X connect 9 0 1 0;
#X connect 9 0 4 0;
#X restore 170 83 pd opendos;
#N canvas 8 368 450 300 opentres 0;
#X obj 45 78 openpanel;
#X msg 45 144 read -resize /home/juan/Pd/samples/loops/Bachata.wav
t15;
#X obj 45 58 inlet;
#X obj 45 192 outlet;
#X obj 45 121 bang;
#X obj 45 170 soundfiler;
#X obj 249 82 inlet;
#X obj 249 217 f;
#X obj 91 123 loadbang;
#X msg 45 97 set read -resize \$1 t15;
#X connect 0 0 9 0;
#X connect 1 0 5 0;
#X connect 2 0 0 0;
#X connect 4 0 1 0;
#X connect 5 0 3 0;
#X connect 5 0 7 1;
#X connect 6 0 7 0;
#X connect 7 0 3 0;
#X connect 8 0 1 0;
#X connect 9 0 1 0;
#X connect 9 0 4 0;
#X restore 237 83 pd opentres;
#X obj 91 322 bang;
#X msg 161 239 2;
#X obj 111 39 sel 0 1 2 3;
#X obj 116 220 loadbang;
#X obj 261 255 line~;
#X obj 35 366 *~;
#X msg 260 194 0 10;
#X msg 261 223 1 10;
#X obj 35 345 tabread4~ t0;
#X obj 36 270 *~;
#X obj 73 253 + 0;
#X obj 100 283 + 12;
#N canvas 551 207 659 270 analizador 0;
#X obj 294 29 inlet;
#X obj 30 61 < 0.1;
#X obj 30 81 sel 1;
#X obj 79 62 > 0.1;
#X obj 116 62 < 0.19;
#X obj 79 82 &&;
#X obj 79 101 sel 1;
#X obj 159 82 &&;
#X obj 159 101 sel 1;
#X obj 159 62 > 0.19;
#X obj 202 62 < 0.4;
#X obj 239 82 &&;
#X obj 239 101 sel 1;
#X obj 302 162 outlet;
#X obj 239 62 > 0.4;
#X obj 276 62 < 0.8;
#X obj 313 82 &&;
#X obj 313 101 sel 1;
#X obj 313 62 > 0.8;
#X obj 393 82 &&;
#X obj 393 101 sel 1;
#X obj 435 62 < 3;
#X obj 476 82 &&;
#X obj 476 101 sel 1;
#X obj 476 62 > 3;
#X obj 502 62 < 6.66;
#X obj 545 82 &&;
#X obj 545 101 sel 1;
#X obj 545 62 > 6.66;
#X obj 589 62 < 10;
#X msg 30 101 0;
#X msg 79 121 1;
#X msg 159 121 2;
#X msg 239 122 3;
#X msg 313 122 4;
#X msg 393 122 5;
#X msg 476 122 6;
#X msg 545 122 7;
#X obj 350 62 < 1.3;
#X obj 393 62 > 1.3;
#X connect 0 0 1 0;
#X connect 0 0 3 0;
#X connect 0 0 4 0;
#X connect 0 0 9 0;
#X connect 0 0 10 0;
#X connect 0 0 14 0;
#X connect 0 0 15 0;
#X connect 0 0 18 0;
#X connect 0 0 21 0;
#X connect 0 0 24 0;
#X connect 0 0 25 0;
#X connect 0 0 28 0;
#X connect 0 0 29 0;
#X connect 0 0 38 0;
#X connect 0 0 39 0;
#X connect 1 0 2 0;
#X connect 2 0 30 0;
#X connect 3 0 5 0;
#X connect 4 0 5 1;
#X connect 5 0 6 0;
#X connect 6 0 31 0;
#X connect 7 0 8 0;
#X connect 8 0 32 0;
#X connect 9 0 7 0;
#X connect 10 0 7 1;
#X connect 11 0 12 0;
#X connect 12 0 33 0;
#X connect 14 0 11 0;
#X connect 15 0 11 1;
#X connect 16 0 17 0;
#X connect 17 0 34 0;
#X connect 18 0 16 0;
#X connect 19 0 20 0;
#X connect 20 0 35 0;
#X connect 21 0 19 1;
#X connect 22 0 23 0;
#X connect 23 0 36 0;
#X connect 24 0 22 0;
#X connect 25 0 22 1;
#X connect 26 0 27 0;
#X connect 27 0 37 0;
#X connect 28 0 26 0;
#X connect 29 0 26 1;
#X connect 30 0 13 0;
#X connect 31 0 13 0;
#X connect 32 0 13 0;
#X connect 33 0 13 0;
#X connect 34 0 13 0;
#X connect 35 0 13 0;
#X connect 36 0 13 0;
#X connect 37 0 13 0;
#X connect 38 0 16 1;
#X connect 39 0 19 0;
#X restore 160 200 pd analizador;
#X obj 192 47 r soundfilero;
#X obj 30 60 r cosador;
#X connect 4 0 37 0;
#X connect 5 0 6 0;
#X connect 5 0 8 0;
#X connect 5 0 35 0;
#X connect 5 1 7 0;
#X connect 5 1 34 0;
#X connect 6 0 4 1;
#X connect 7 0 4 0;
#X connect 8 0 10 0;
#X connect 9 0 4 0;
#X connect 10 0 9 0;
#X connect 10 1 9 1;
#X connect 11 0 12 0;
#X connect 11 1 12 1;
#X connect 12 0 10 1;
#X connect 13 0 11 1;
#X connect 14 0 36 0;
#X connect 15 0 14 0;
#X connect 15 0 28 0;
#X connect 16 0 21 0;
#X connect 16 1 25 0;
#X connect 16 2 26 0;
#X connect 16 3 27 0;
#X connect 17 0 30 0;
#X connect 17 0 39 0;
#X connect 18 0 5 0;
#X connect 19 0 40 0;
#X connect 20 0 19 0;
#X connect 20 1 19 1;
#X connect 21 0 20 0;
#X connect 21 0 38 0;
#X connect 22 0 13 0;
#X connect 23 0 16 0;
#X connect 25 0 20 0;
#X connect 25 0 38 0;
#X connect 26 0 20 0;
#X connect 26 0 38 0;
#X connect 27 0 20 0;
#X connect 27 0 38 0;
#X connect 28 0 14 0;
#X connect 29 0 11 0;
#X connect 30 0 21 1;
#X connect 30 1 25 1;
#X connect 30 2 26 1;
#X connect 30 3 27 1;
#X connect 31 0 29 0;
#X connect 32 0 33 1;
#X connect 33 0 24 0;
#X connect 34 0 32 0;
#X connect 35 0 32 0;
#X connect 36 0 33 0;
#X connect 37 0 36 0;
#X connect 38 0 37 1;
#X connect 39 0 15 0;
#X connect 40 0 13 0;
#X connect 41 0 20 1;
#X connect 42 0 8 1;
#X restore 416 64 pd lectorS3;
#N canvas 687 215 450 501 lectorS4 0;
#X obj 97 427 table t16;
#X obj 152 427 table t17;
#X obj 207 427 table t18;
#X obj 262 427 table t19;
#X obj 24 233 phasor~;
#X obj 101 114 sel 1 0;
#X msg 63 214 0;
#X msg 38 213 0;
#X obj 24 157 f;
#X obj 24 195 /;
#X obj 24 176 bondo;
#X obj 149 267 bondo;
#X obj 149 286 pow 2 0;
#X obj 176 230 - 4;
#X msg 31 333 set t16;
#X msg 31 313 set set t\$1;
#X obj 19 48 sel 0 1 2 3;
#X obj 95 27 inlet;
#X obj 133 27 inlet;
#X obj 149 189 /;
#X obj 149 169 bondo;
#N canvas 1 383 450 300 opencero 0;
#X obj 35 68 openpanel;
#X obj 35 48 inlet;
#X obj 35 217 outlet;
#X obj 35 111 bang;
#X msg 35 134 read -resize /home/juan/Pd/samples/loops/cata-05.aiff
t16;
#X obj 219 52 inlet;
#X obj 35 170 soundfiler;
#X obj 219 187 f;
#X obj 70 112 loadbang;
#X msg 35 87 set read -resize \$1 t16;
#X connect 0 0 9 0;
#X connect 1 0 0 0;
#X connect 3 0 4 0;
#X connect 4 0 6 0;
#X connect 5 0 7 0;
#X connect 6 0 2 0;
#X connect 6 0 7 1;
#X connect 7 0 2 0;
#X connect 8 0 4 0;
#X connect 9 0 4 0;
#X connect 9 0 3 0;
#X restore 19 92 pd opencero;
#X obj 209 27 inlet;
#X obj 57 27 inlet;
#X obj 24 401 outlet~;
#N canvas 7 345 450 300 openuno 0;
#X obj 45 78 openpanel;
#X msg 45 144 read -resize /home/juan/Pd/samples/loops/cidinhoDocaParraraPAPAPA.wav
t17;
#X obj 45 58 inlet;
#X obj 45 191 outlet;
#X obj 45 121 bang;
#X obj 45 167 soundfiler;
#X obj 229 62 inlet;
#X obj 229 197 f;
#X obj 89 121 loadbang;
#X msg 45 97 set read -resize \$1 t17;
#X connect 0 0 9 0;
#X connect 1 0 5 0;
#X connect 2 0 0 0;
#X connect 4 0 1 0;
#X connect 5 0 3 0;
#X connect 5 0 7 1;
#X connect 6 0 7 0;
#X connect 7 0 3 0;
#X connect 8 0 1 0;
#X connect 9 0 1 0;
#X connect 9 0 4 0;
#X restore 91 93 pd openuno;
#N canvas 8 316 450 300 opendos 0;
#X obj 45 78 openpanel;
#X msg 45 144 read -resize /home/juan/Pd/samples/loops/funk.wav t18
;
#X obj 45 58 inlet;
#X obj 45 193 outlet;
#X obj 45 121 bang;
#X obj 45 170 soundfiler;
#X obj 239 72 inlet;
#X obj 239 207 f;
#X obj 93 121 loadbang;
#X msg 45 97 set read -resize \$1 t18;
#X connect 0 0 9 0;
#X connect 1 0 5 0;
#X connect 2 0 0 0;
#X connect 4 0 1 0;
#X connect 5 0 3 0;
#X connect 5 0 7 1;
#X connect 6 0 7 0;
#X connect 7 0 3 0;
#X connect 8 0 1 0;
#X connect 9 0 1 0;
#X connect 9 0 4 0;
#X restore 158 93 pd opendos;
#N canvas 10 362 450 300 opentres 0;
#X obj 45 78 openpanel;
#X msg 45 144 read -resize /home/juan/Pd/samples/loops/cata-01.aiff
t19;
#X obj 45 58 inlet;
#X obj 45 192 outlet;
#X obj 45 121 bang;
#X obj 45 170 soundfiler;
#X obj 249 82 inlet;
#X obj 249 217 f;
#X obj 91 123 loadbang;
#X msg 45 97 set read -resize \$1 t19;
#X connect 0 0 9 0;
#X connect 1 0 5 0;
#X connect 2 0 0 0;
#X connect 4 0 1 0;
#X connect 5 0 3 0;
#X connect 5 0 7 1;
#X connect 6 0 7 0;
#X connect 7 0 3 0;
#X connect 8 0 1 0;
#X connect 9 0 1 0;
#X connect 9 0 4 0;
#X restore 225 93 pd opentres;
#X obj 79 332 bang;
#X msg 149 249 2;
#X obj 99 49 sel 0 1 2 3;
#X obj 104 230 loadbang;
#X obj 249 265 line~;
#X obj 23 376 *~;
#X msg 248 204 0 10;
#X msg 249 233 1 10;
#X obj 23 355 tabread4~ t0;
#X obj 24 280 *~;
#X obj 61 263 + 0;
#X obj 88 293 + 16;
#N canvas 551 207 659 270 analizador 0;
#X obj 294 29 inlet;
#X obj 30 61 < 0.1;
#X obj 30 81 sel 1;
#X obj 79 62 > 0.1;
#X obj 116 62 < 0.19;
#X obj 79 82 &&;
#X obj 79 101 sel 1;
#X obj 159 82 &&;
#X obj 159 101 sel 1;
#X obj 159 62 > 0.19;
#X obj 202 62 < 0.4;
#X obj 239 82 &&;
#X obj 239 101 sel 1;
#X obj 302 162 outlet;
#X obj 239 62 > 0.4;
#X obj 276 62 < 0.8;
#X obj 313 82 &&;
#X obj 313 101 sel 1;
#X obj 313 62 > 0.8;
#X obj 393 82 &&;
#X obj 393 101 sel 1;
#X obj 435 62 < 3;
#X obj 476 82 &&;
#X obj 476 101 sel 1;
#X obj 476 62 > 3;
#X obj 502 62 < 6.66;
#X obj 545 82 &&;
#X obj 545 101 sel 1;
#X obj 545 62 > 6.66;
#X obj 589 62 < 10;
#X msg 30 101 0;
#X msg 79 121 1;
#X msg 159 121 2;
#X msg 239 122 3;
#X msg 313 122 4;
#X msg 393 122 5;
#X msg 476 122 6;
#X msg 545 122 7;
#X obj 350 62 < 1.3;
#X obj 393 62 > 1.3;
#X connect 0 0 1 0;
#X connect 0 0 3 0;
#X connect 0 0 4 0;
#X connect 0 0 9 0;
#X connect 0 0 10 0;
#X connect 0 0 14 0;
#X connect 0 0 15 0;
#X connect 0 0 18 0;
#X connect 0 0 21 0;
#X connect 0 0 24 0;
#X connect 0 0 25 0;
#X connect 0 0 28 0;
#X connect 0 0 29 0;
#X connect 0 0 38 0;
#X connect 0 0 39 0;
#X connect 1 0 2 0;
#X connect 2 0 30 0;
#X connect 3 0 5 0;
#X connect 4 0 5 1;
#X connect 5 0 6 0;
#X connect 6 0 31 0;
#X connect 7 0 8 0;
#X connect 8 0 32 0;
#X connect 9 0 7 0;
#X connect 10 0 7 1;
#X connect 11 0 12 0;
#X connect 12 0 33 0;
#X connect 14 0 11 0;
#X connect 15 0 11 1;
#X connect 16 0 17 0;
#X connect 17 0 34 0;
#X connect 18 0 16 0;
#X connect 19 0 20 0;
#X connect 20 0 35 0;
#X connect 21 0 19 1;
#X connect 22 0 23 0;
#X connect 23 0 36 0;
#X connect 24 0 22 0;
#X connect 25 0 22 1;
#X connect 26 0 27 0;
#X connect 27 0 37 0;
#X connect 28 0 26 0;
#X connect 29 0 26 1;
#X connect 30 0 13 0;
#X connect 31 0 13 0;
#X connect 32 0 13 0;
#X connect 33 0 13 0;
#X connect 34 0 13 0;
#X connect 35 0 13 0;
#X connect 36 0 13 0;
#X connect 37 0 13 0;
#X connect 38 0 16 1;
#X connect 39 0 19 0;
#X restore 148 209 pd analizador;
#X obj 19 27 r cosador;
#X obj 171 27 r soundfilero;
#X connect 4 0 37 0;
#X connect 5 0 6 0;
#X connect 5 0 8 0;
#X connect 5 0 35 0;
#X connect 5 1 7 0;
#X connect 5 1 34 0;
#X connect 6 0 4 1;
#X connect 7 0 4 0;
#X connect 8 0 10 0;
#X connect 9 0 4 0;
#X connect 10 0 9 0;
#X connect 10 1 9 1;
#X connect 11 0 12 0;
#X connect 11 1 12 1;
#X connect 12 0 10 1;
#X connect 13 0 11 1;
#X connect 14 0 36 0;
#X connect 15 0 14 0;
#X connect 15 0 28 0;
#X connect 16 0 21 0;
#X connect 16 1 25 0;
#X connect 16 2 26 0;
#X connect 16 3 27 0;
#X connect 17 0 30 0;
#X connect 17 0 39 0;
#X connect 18 0 5 0;
#X connect 19 0 40 0;
#X connect 20 0 19 0;
#X connect 20 1 19 1;
#X connect 21 0 20 0;
#X connect 21 0 38 0;
#X connect 22 0 13 0;
#X connect 23 0 16 0;
#X connect 25 0 20 0;
#X connect 25 0 38 0;
#X connect 26 0 20 0;
#X connect 26 0 38 0;
#X connect 27 0 20 0;
#X connect 27 0 38 0;
#X connect 28 0 14 0;
#X connect 29 0 11 0;
#X connect 30 0 21 1;
#X connect 30 1 25 1;
#X connect 30 2 26 1;
#X connect 30 3 27 1;
#X connect 31 0 29 0;
#X connect 32 0 33 1;
#X connect 33 0 24 0;
#X connect 34 0 32 0;
#X connect 35 0 32 0;
#X connect 36 0 33 0;
#X connect 37 0 36 0;
#X connect 38 0 37 1;
#X connect 39 0 15 0;
#X connect 40 0 13 0;
#X connect 41 0 8 1;
#X connect 42 0 20 1;
#X restore 500 63 pd lectorS4;
#X floatatom 41 130 10 0 0 0 - - -;
#N canvas 49 172 450 530 lectorS5 0;
#X obj 40 439 table t20;
#X obj 101 439 table t21;
#X obj 161 439 table t22;
#X obj 226 439 table t23;
#X obj 24 233 phasor~;
#X obj 101 114 sel 1 0;
#X msg 63 214 0;
#X msg 38 213 0;
#X obj 24 157 f;
#X obj 24 195 /;
#X obj 24 176 bondo;
#X obj 149 267 bondo;
#X obj 149 286 pow 2 0;
#X obj 176 230 - 4;
#X msg 31 333 set t20;
#X msg 31 313 set set t\$1;
#X obj 19 48 sel 0 1 2 3;
#X obj 95 27 inlet;
#X obj 133 27 inlet;
#X obj 149 189 /;
#X obj 149 169 bondo;
#N canvas 1 383 450 300 opencero 0;
#X obj 35 68 openpanel;
#X obj 35 48 inlet;
#X obj 35 217 outlet;
#X obj 35 111 bang;
#X msg 35 134 read -resize /home/juan/Pd/samples/loops/cata-06.aiff
t20;
#X obj 219 52 inlet;
#X obj 35 170 soundfiler;
#X obj 219 187 f;
#X obj 70 112 loadbang;
#X msg 35 87 set read -resize \$1 t20;
#X connect 0 0 9 0;
#X connect 1 0 0 0;
#X connect 3 0 4 0;
#X connect 4 0 6 0;
#X connect 5 0 7 0;
#X connect 6 0 2 0;
#X connect 6 0 7 1;
#X connect 7 0 2 0;
#X connect 8 0 4 0;
#X connect 9 0 4 0;
#X connect 9 0 3 0;
#X restore 19 92 pd opencero;
#X obj 57 27 inlet;
#X obj 24 401 outlet~;
#N canvas 5 351 450 300 openuno 0;
#X obj 45 78 openpanel;
#X msg 45 144 read -resize /home/juan/Pd/samples/loops/cidinhoDocaPorqueNoDendé.wav
t21;
#X obj 45 58 inlet;
#X obj 45 191 outlet;
#X obj 45 121 bang;
#X obj 45 167 soundfiler;
#X obj 229 62 inlet;
#X obj 229 197 f;
#X obj 89 121 loadbang;
#X msg 45 97 set read -resize \$1 t21;
#X connect 0 0 9 0;
#X connect 1 0 5 0;
#X connect 2 0 0 0;
#X connect 4 0 1 0;
#X connect 5 0 3 0;
#X connect 5 0 7 1;
#X connect 6 0 7 0;
#X connect 7 0 3 0;
#X connect 8 0 1 0;
#X connect 9 0 1 0;
#X connect 9 0 4 0;
#X restore 91 93 pd openuno;
#N canvas 6 322 450 300 opendos 0;
#X obj 45 78 openpanel;
#X msg 45 144 read -resize /home/juan/Pd/samples/loops/tamboraWisin.wav
t22;
#X obj 45 58 inlet;
#X obj 45 193 outlet;
#X obj 45 121 bang;
#X obj 45 170 soundfiler;
#X obj 239 72 inlet;
#X obj 239 207 f;
#X obj 93 121 loadbang;
#X msg 45 97 set read -resize \$1 t22;
#X connect 0 0 9 0;
#X connect 1 0 5 0;
#X connect 2 0 0 0;
#X connect 4 0 1 0;
#X connect 5 0 3 0;
#X connect 5 0 7 1;
#X connect 6 0 7 0;
#X connect 7 0 3 0;
#X connect 8 0 1 0;
#X connect 9 0 1 0;
#X connect 9 0 4 0;
#X restore 158 93 pd opendos;
#N canvas 8 368 450 300 opentres 0;
#X obj 45 78 openpanel;
#X msg 45 144 read -resize /home/juan/Pd/samples/loops/cata-02.aiff
t23;
#X obj 45 58 inlet;
#X obj 45 192 outlet;
#X obj 45 121 bang;
#X obj 45 170 soundfiler;
#X obj 249 82 inlet;
#X obj 249 217 f;
#X obj 91 123 loadbang;
#X msg 45 97 set read -resize \$1 t23;
#X connect 0 0 9 0;
#X connect 1 0 5 0;
#X connect 2 0 0 0;
#X connect 4 0 1 0;
#X connect 5 0 3 0;
#X connect 5 0 7 1;
#X connect 6 0 7 0;
#X connect 7 0 3 0;
#X connect 8 0 1 0;
#X connect 9 0 1 0;
#X connect 9 0 4 0;
#X restore 225 93 pd opentres;
#X obj 79 332 bang;
#X msg 149 249 2;
#X obj 99 49 sel 0 1 2 3;
#N canvas 567 50 659 270 analizador 0;
#X obj 294 29 inlet;
#X obj 30 61 < 0.1;
#X obj 30 81 sel 1;
#X obj 79 62 > 0.1;
#X obj 116 62 < 0.19;
#X obj 79 82 &&;
#X obj 79 101 sel 1;
#X obj 159 82 &&;
#X obj 159 101 sel 1;
#X obj 159 62 > 0.19;
#X obj 202 62 < 0.4;
#X obj 239 82 &&;
#X obj 239 101 sel 1;
#X obj 302 162 outlet;
#X obj 239 62 > 0.4;
#X obj 276 62 < 0.8;
#X obj 313 82 &&;
#X obj 313 101 sel 1;
#X obj 313 62 > 0.8;
#X obj 350 62 < 1.66;
#X obj 393 82 &&;
#X obj 393 101 sel 1;
#X obj 393 62 > 1.66;
#X obj 435 62 < 3;
#X obj 476 82 &&;
#X obj 476 101 sel 1;
#X obj 476 62 > 3;
#X obj 502 62 < 6.66;
#X obj 545 82 &&;
#X obj 545 101 sel 1;
#X obj 545 62 > 6.66;
#X obj 589 62 < 10;
#X msg 30 101 0;
#X msg 79 121 1;
#X msg 159 121 2;
#X msg 239 122 3;
#X msg 313 122 4;
#X msg 393 122 5;
#X msg 476 122 6;
#X msg 545 122 7;
#X connect 0 0 1 0;
#X connect 0 0 3 0;
#X connect 0 0 4 0;
#X connect 0 0 9 0;
#X connect 0 0 10 0;
#X connect 0 0 14 0;
#X connect 0 0 15 0;
#X connect 0 0 18 0;
#X connect 0 0 19 0;
#X connect 0 0 22 0;
#X connect 0 0 23 0;
#X connect 0 0 26 0;
#X connect 0 0 27 0;
#X connect 0 0 30 0;
#X connect 0 0 31 0;
#X connect 1 0 2 0;
#X connect 2 0 32 0;
#X connect 3 0 5 0;
#X connect 4 0 5 1;
#X connect 5 0 6 0;
#X connect 6 0 33 0;
#X connect 7 0 8 0;
#X connect 8 0 34 0;
#X connect 9 0 7 0;
#X connect 10 0 7 1;
#X connect 11 0 12 0;
#X connect 12 0 35 0;
#X connect 14 0 11 0;
#X connect 15 0 11 1;
#X connect 16 0 17 0;
#X connect 17 0 36 0;
#X connect 18 0 16 0;
#X connect 19 0 16 1;
#X connect 20 0 21 0;
#X connect 21 0 37 0;
#X connect 22 0 20 0;
#X connect 23 0 20 1;
#X connect 24 0 25 0;
#X connect 25 0 38 0;
#X connect 26 0 24 0;
#X connect 27 0 24 1;
#X connect 28 0 29 0;
#X connect 29 0 39 0;
#X connect 30 0 28 0;
#X connect 31 0 28 1;
#X connect 32 0 13 0;
#X connect 33 0 13 0;
#X connect 34 0 13 0;
#X connect 35 0 13 0;
#X connect 36 0 13 0;
#X connect 37 0 13 0;
#X connect 38 0 13 0;
#X connect 39 0 13 0;
#X restore 149 210 pd analizador;
#X obj 104 230 loadbang;
#X obj 249 265 line~;
#X obj 23 376 *~;
#X msg 248 204 0 10;
#X msg 249 233 1 10;
#X obj 23 355 tabread4~ t0;
#X obj 24 280 *~;
#X obj 61 263 + 0;
#X obj 88 293 + 20;
#X obj 17 4 r cosador;
#X obj 173 4 r soundfilero;
#X connect 4 0 37 0;
#X connect 5 0 6 0;
#X connect 5 0 8 0;
#X connect 5 0 35 0;
#X connect 5 1 7 0;
#X connect 5 1 34 0;
#X connect 6 0 4 1;
#X connect 7 0 4 0;
#X connect 8 0 10 0;
#X connect 9 0 4 0;
#X connect 10 0 9 0;
#X connect 10 1 9 1;
#X connect 11 0 12 0;
#X connect 11 1 12 1;
#X connect 12 0 10 1;
#X connect 13 0 11 1;
#X connect 14 0 36 0;
#X connect 15 0 14 0;
#X connect 15 0 27 0;
#X connect 16 0 21 0;
#X connect 16 1 24 0;
#X connect 16 2 25 0;
#X connect 16 3 26 0;
#X connect 17 0 29 0;
#X connect 17 0 39 0;
#X connect 18 0 5 0;
#X connect 19 0 30 0;
#X connect 20 0 19 0;
#X connect 20 1 19 1;
#X connect 21 0 20 0;
#X connect 21 0 38 0;
#X connect 22 0 16 0;
#X connect 24 0 20 0;
#X connect 24 0 38 0;
#X connect 25 0 20 0;
#X connect 25 0 38 0;
#X connect 26 0 20 0;
#X connect 26 0 38 0;
#X connect 27 0 14 0;
#X connect 28 0 11 0;
#X connect 29 0 21 1;
#X connect 29 1 24 1;
#X connect 29 2 25 1;
#X connect 29 3 26 1;
#X connect 30 0 13 0;
#X connect 31 0 28 0;
#X connect 32 0 33 1;
#X connect 33 0 23 0;
#X connect 34 0 32 0;
#X connect 35 0 32 0;
#X connect 36 0 33 0;
#X connect 37 0 36 0;
#X connect 38 0 37 1;
#X connect 39 0 15 0;
#X connect 40 0 8 1;
#X connect 41 0 20 1;
#X restore 587 64 pd lectorS5;
#N canvas 1 98 450 571 lectorS6 0;
#X obj 107 410 table t24;
#X obj 168 410 table t25;
#X obj 228 410 table t26;
#X obj 293 410 table t27;
#X obj 39 216 phasor~;
#X obj 116 97 sel 1 0;
#X msg 78 197 0;
#X msg 53 196 0;
#X obj 39 140 f;
#X obj 39 178 /;
#X obj 39 159 bondo;
#X obj 164 250 bondo;
#X obj 164 269 pow 2 0;
#X obj 191 213 - 4;
#X msg 46 316 set t24;
#X msg 46 296 set set t\$1;
#X obj 34 31 sel 0 1 2 3;
#X obj 110 10 inlet;
#X obj 148 10 inlet;
#X obj 164 172 /;
#X obj 164 152 bondo;
#N canvas 1 389 450 300 opencero 0;
#X obj 35 68 openpanel;
#X obj 35 48 inlet;
#X obj 35 217 outlet;
#X obj 35 111 bang;
#X msg 35 134 read -resize /home/juan/Pd/samples/loops/cata-07.aiff
t24;
#X obj 219 52 inlet;
#X obj 35 170 soundfiler;
#X obj 219 187 f;
#X obj 70 112 loadbang;
#X msg 35 87 set read -resize \$1 t24;
#X connect 0 0 9 0;
#X connect 1 0 0 0;
#X connect 3 0 4 0;
#X connect 4 0 6 0;
#X connect 5 0 7 0;
#X connect 6 0 2 0;
#X connect 6 0 7 1;
#X connect 7 0 2 0;
#X connect 8 0 4 0;
#X connect 9 0 4 0;
#X connect 9 0 3 0;
#X restore 34 75 pd opencero;
#X obj 72 10 inlet;
#X obj 39 384 outlet~;
#N canvas 3 357 450 300 openuno 0;
#X obj 45 78 openpanel;
#X msg 45 144 read -resize /home/juan/Pd/samples/loops/cidinhoDocaPraSubir.wav
t25;
#X obj 45 58 inlet;
#X obj 45 191 outlet;
#X obj 45 121 bang;
#X obj 45 167 soundfiler;
#X obj 229 62 inlet;
#X obj 229 197 f;
#X obj 89 121 loadbang;
#X msg 45 97 set read -resize \$1 t25;
#X connect 0 0 9 0;
#X connect 1 0 5 0;
#X connect 2 0 0 0;
#X connect 4 0 1 0;
#X connect 5 0 3 0;
#X connect 5 0 7 1;
#X connect 6 0 7 0;
#X connect 7 0 3 0;
#X connect 8 0 1 0;
#X connect 9 0 1 0;
#X connect 9 0 4 0;
#X restore 106 76 pd openuno;
#N canvas 4 328 450 300 opendos 0;
#X obj 45 78 openpanel;
#X msg 45 144 read -resize /home/juan/Pd/samples/loops/tamboraAmor.wav
t26;
#X obj 45 58 inlet;
#X obj 45 193 outlet;
#X obj 45 121 bang;
#X obj 45 170 soundfiler;
#X obj 239 72 inlet;
#X obj 239 207 f;
#X obj 93 121 loadbang;
#X msg 45 97 set read -resize \$1 t26;
#X connect 0 0 9 0;
#X connect 1 0 5 0;
#X connect 2 0 0 0;
#X connect 4 0 1 0;
#X connect 5 0 3 0;
#X connect 5 0 7 1;
#X connect 6 0 7 0;
#X connect 7 0 3 0;
#X connect 8 0 1 0;
#X connect 9 0 1 0;
#X connect 9 0 4 0;
#X restore 173 76 pd opendos;
#N canvas 6 374 450 300 opentres 0;
#X obj 45 78 openpanel;
#X msg 45 144 read -resize /home/juan/Pd/samples/loops/cata-02.aiff
t27;
#X obj 45 58 inlet;
#X obj 45 192 outlet;
#X obj 45 121 bang;
#X obj 45 170 soundfiler;
#X obj 249 82 inlet;
#X obj 249 217 f;
#X obj 91 123 loadbang;
#X msg 45 97 set read -resize \$1 t27;
#X connect 0 0 9 0;
#X connect 1 0 5 0;
#X connect 2 0 0 0;
#X connect 4 0 1 0;
#X connect 5 0 3 0;
#X connect 5 0 7 1;
#X connect 6 0 7 0;
#X connect 7 0 3 0;
#X connect 8 0 1 0;
#X connect 9 0 1 0;
#X connect 9 0 4 0;
#X restore 240 76 pd opentres;
#X obj 94 315 bang;
#X msg 164 232 2;
#X obj 114 32 sel 0 1 2 3;
#N canvas 567 50 659 270 analizador 0;
#X obj 294 29 inlet;
#X obj 30 61 < 0.1;
#X obj 30 81 sel 1;
#X obj 79 62 > 0.1;
#X obj 116 62 < 0.19;
#X obj 79 82 &&;
#X obj 79 101 sel 1;
#X obj 159 82 &&;
#X obj 159 101 sel 1;
#X obj 159 62 > 0.19;
#X obj 202 62 < 0.4;
#X obj 239 82 &&;
#X obj 239 101 sel 1;
#X obj 302 162 outlet;
#X obj 239 62 > 0.4;
#X obj 276 62 < 0.8;
#X obj 313 82 &&;
#X obj 313 101 sel 1;
#X obj 313 62 > 0.8;
#X obj 350 62 < 1.66;
#X obj 393 82 &&;
#X obj 393 101 sel 1;
#X obj 393 62 > 1.66;
#X obj 435 62 < 3;
#X obj 476 82 &&;
#X obj 476 101 sel 1;
#X obj 476 62 > 3;
#X obj 502 62 < 6.66;
#X obj 545 82 &&;
#X obj 545 101 sel 1;
#X obj 545 62 > 6.66;
#X obj 589 62 < 10;
#X msg 30 101 0;
#X msg 79 121 1;
#X msg 159 121 2;
#X msg 239 122 3;
#X msg 313 122 4;
#X msg 393 122 5;
#X msg 476 122 6;
#X msg 545 122 7;
#X connect 0 0 1 0;
#X connect 0 0 3 0;
#X connect 0 0 4 0;
#X connect 0 0 9 0;
#X connect 0 0 10 0;
#X connect 0 0 14 0;
#X connect 0 0 15 0;
#X connect 0 0 18 0;
#X connect 0 0 19 0;
#X connect 0 0 22 0;
#X connect 0 0 23 0;
#X connect 0 0 26 0;
#X connect 0 0 27 0;
#X connect 0 0 30 0;
#X connect 0 0 31 0;
#X connect 1 0 2 0;
#X connect 2 0 32 0;
#X connect 3 0 5 0;
#X connect 4 0 5 1;
#X connect 5 0 6 0;
#X connect 6 0 33 0;
#X connect 7 0 8 0;
#X connect 8 0 34 0;
#X connect 9 0 7 0;
#X connect 10 0 7 1;
#X connect 11 0 12 0;
#X connect 12 0 35 0;
#X connect 14 0 11 0;
#X connect 15 0 11 1;
#X connect 16 0 17 0;
#X connect 17 0 36 0;
#X connect 18 0 16 0;
#X connect 19 0 16 1;
#X connect 20 0 21 0;
#X connect 21 0 37 0;
#X connect 22 0 20 0;
#X connect 23 0 20 1;
#X connect 24 0 25 0;
#X connect 25 0 38 0;
#X connect 26 0 24 0;
#X connect 27 0 24 1;
#X connect 28 0 29 0;
#X connect 29 0 39 0;
#X connect 30 0 28 0;
#X connect 31 0 28 1;
#X connect 32 0 13 0;
#X connect 33 0 13 0;
#X connect 34 0 13 0;
#X connect 35 0 13 0;
#X connect 36 0 13 0;
#X connect 37 0 13 0;
#X connect 38 0 13 0;
#X connect 39 0 13 0;
#X restore 164 193 pd analizador;
#X obj 119 213 loadbang;
#X obj 264 248 line~;
#X obj 38 359 *~;
#X msg 263 187 0 10;
#X msg 264 216 1 10;
#X obj 38 338 tabread4~ t0;
#X obj 39 263 *~;
#X obj 76 246 + 0;
#X obj 32 -13 r cosador;
#X obj 188 -13 r soundfilero;
#X obj 104 273 + 24;
#X connect 4 0 37 0;
#X connect 5 0 6 0;
#X connect 5 0 8 0;
#X connect 5 0 35 0;
#X connect 5 1 7 0;
#X connect 5 1 34 0;
#X connect 6 0 4 1;
#X connect 7 0 4 0;
#X connect 8 0 10 0;
#X connect 9 0 4 0;
#X connect 10 0 9 0;
#X connect 10 1 9 1;
#X connect 11 0 12 0;
#X connect 11 1 12 1;
#X connect 12 0 10 1;
#X connect 13 0 11 1;
#X connect 14 0 36 0;
#X connect 15 0 14 0;
#X connect 15 0 27 0;
#X connect 16 0 21 0;
#X connect 16 1 24 0;
#X connect 16 2 25 0;
#X connect 16 3 26 0;
#X connect 17 0 29 0;
#X connect 17 0 41 0;
#X connect 18 0 5 0;
#X connect 19 0 30 0;
#X connect 20 0 19 0;
#X connect 20 1 19 1;
#X connect 21 0 20 0;
#X connect 21 0 38 0;
#X connect 22 0 16 0;
#X connect 24 0 20 0;
#X connect 24 0 38 0;
#X connect 25 0 20 0;
#X connect 25 0 38 0;
#X connect 26 0 20 0;
#X connect 26 0 38 0;
#X connect 27 0 14 0;
#X connect 28 0 11 0;
#X connect 29 0 21 1;
#X connect 29 1 24 1;
#X connect 29 2 25 1;
#X connect 29 3 26 1;
#X connect 30 0 13 0;
#X connect 31 0 28 0;
#X connect 32 0 33 1;
#X connect 33 0 23 0;
#X connect 34 0 32 0;
#X connect 35 0 32 0;
#X connect 36 0 33 0;
#X connect 37 0 36 0;
#X connect 38 0 37 1;
#X connect 39 0 8 1;
#X connect 40 0 20 1;
#X connect 41 0 15 0;
#X restore 659 64 pd lectorS6;
#X floatatom 731 46 5 0 0 0 - - -;
#N canvas 97 182 450 460 lectorS8 0;
#X obj 132 360 table t32;
#X obj 187 360 table t33;
#X obj 242 360 table t34;
#X obj 303 360 table t35;
#X obj 17 229 phasor~;
#X obj 94 110 sel 1 0;
#X msg 56 210 0;
#X msg 25 210 0;
#X obj 17 153 f;
#X obj 17 191 /;
#X obj 17 172 bondo;
#X obj 142 263 bondo;
#X obj 142 282 pow 2 0;
#X obj 169 226 - 4;
#X msg 24 329 set t32;
#X msg 24 309 set set t\$1;
#X obj 12 44 sel 0 1 2 3;
#X obj 88 23 inlet;
#X obj 126 23 inlet;
#X obj 142 185 /;
#X obj 142 165 bondo;
#N canvas 336 396 450 300 opencero 0;
#X obj 35 68 openpanel;
#X obj 35 48 inlet;
#X obj 35 217 outlet;
#X obj 35 111 bang;
#X msg 35 134 read -resize /home/juan/Pd/samples/loops/cata-09.aiff
t32;
#X obj 219 52 inlet;
#X obj 35 170 soundfiler;
#X obj 219 187 f;
#X obj 70 112 loadbang;
#X msg 35 87 set read -resize \$1 t32;
#X connect 0 0 9 0;
#X connect 1 0 0 0;
#X connect 3 0 4 0;
#X connect 4 0 6 0;
#X connect 5 0 7 0;
#X connect 6 0 2 0;
#X connect 6 0 7 1;
#X connect 7 0 2 0;
#X connect 8 0 4 0;
#X connect 9 0 4 0;
#X connect 9 0 3 0;
#X restore 12 88 pd opencero;
#X obj 202 23 inlet;
#X obj 51 24 inlet;
#X obj 17 397 outlet~;
#N canvas 9 339 450 300 openuno 0;
#X obj 45 78 openpanel;
#X msg 45 144 read -resize /home/juan/Pd/samples/loops/cuchitotamboraCorto1.wav
t33;
#X obj 45 58 inlet;
#X obj 45 191 outlet;
#X obj 45 121 bang;
#X obj 45 167 soundfiler;
#X obj 229 62 inlet;
#X obj 229 197 f;
#X obj 89 121 loadbang;
#X msg 45 97 set read -resize \$1 t33;
#X connect 0 0 9 0;
#X connect 1 0 5 0;
#X connect 2 0 0 0;
#X connect 4 0 1 0;
#X connect 5 0 3 0;
#X connect 5 0 7 1;
#X connect 6 0 7 0;
#X connect 7 0 3 0;
#X connect 8 0 1 0;
#X connect 9 0 1 0;
#X connect 9 0 4 0;
#X restore 84 89 pd openuno;
#N canvas 520 256 450 300 opendos 0;
#X obj 45 78 openpanel;
#X msg 45 144 read -resize /home/juan/Pd/samples/loops/LaGuira-03.wav
t34;
#X obj 45 58 inlet;
#X obj 45 193 outlet;
#X obj 45 121 bang;
#X obj 45 170 soundfiler;
#X obj 239 72 inlet;
#X obj 239 207 f;
#X obj 93 121 loadbang;
#X msg 45 97 set read -resize \$1 t34;
#X connect 0 0 9 0;
#X connect 1 0 5 0;
#X connect 2 0 0 0;
#X connect 4 0 1 0;
#X connect 5 0 3 0;
#X connect 5 0 7 1;
#X connect 6 0 7 0;
#X connect 7 0 3 0;
#X connect 8 0 1 0;
#X connect 9 0 1 0;
#X connect 9 0 4 0;
#X restore 151 89 pd opendos;
#N canvas 12 356 450 300 opentres 0;
#X obj 45 78 openpanel;
#X msg 45 144 read -resize /home/juan/Pd/samples/loops/cata-04.aiff
t36;
#X obj 45 58 inlet;
#X obj 45 192 outlet;
#X obj 45 121 bang;
#X obj 45 170 soundfiler;
#X obj 249 82 inlet;
#X obj 249 217 f;
#X obj 91 123 loadbang;
#X msg 45 97 set read -resize \$1 t36;
#X connect 0 0 9 0;
#X connect 1 0 5 0;
#X connect 2 0 0 0;
#X connect 4 0 1 0;
#X connect 5 0 3 0;
#X connect 5 0 7 1;
#X connect 6 0 7 0;
#X connect 7 0 3 0;
#X connect 8 0 1 0;
#X connect 9 0 1 0;
#X connect 9 0 4 0;
#X restore 218 89 pd opentres;
#X obj 72 328 bang;
#X msg 142 245 2;
#X obj 92 45 sel 0 1 2 3;
#N canvas 567 50 659 270 analizador 0;
#X obj 294 29 inlet;
#X obj 30 61 < 0.1;
#X obj 30 81 sel 1;
#X obj 79 62 > 0.1;
#X obj 116 62 < 0.19;
#X obj 79 82 &&;
#X obj 79 101 sel 1;
#X obj 159 82 &&;
#X obj 159 101 sel 1;
#X obj 159 62 > 0.19;
#X obj 202 62 < 0.4;
#X obj 239 82 &&;
#X obj 239 101 sel 1;
#X obj 302 162 outlet;
#X obj 239 62 > 0.4;
#X obj 276 62 < 0.8;
#X obj 313 82 &&;
#X obj 313 101 sel 1;
#X obj 313 62 > 0.8;
#X obj 350 62 < 1.66;
#X obj 393 82 &&;
#X obj 393 101 sel 1;
#X obj 393 62 > 1.66;
#X obj 435 62 < 3;
#X obj 476 82 &&;
#X obj 476 101 sel 1;
#X obj 476 62 > 3;
#X obj 502 62 < 6.66;
#X obj 545 82 &&;
#X obj 545 101 sel 1;
#X obj 545 62 > 6.66;
#X obj 589 62 < 10;
#X msg 30 101 0;
#X msg 79 121 1;
#X msg 159 121 2;
#X msg 239 122 3;
#X msg 313 122 4;
#X msg 393 122 5;
#X msg 476 122 6;
#X msg 545 122 7;
#X connect 0 0 1 0;
#X connect 0 0 3 0;
#X connect 0 0 4 0;
#X connect 0 0 9 0;
#X connect 0 0 10 0;
#X connect 0 0 14 0;
#X connect 0 0 15 0;
#X connect 0 0 18 0;
#X connect 0 0 19 0;
#X connect 0 0 22 0;
#X connect 0 0 23 0;
#X connect 0 0 26 0;
#X connect 0 0 27 0;
#X connect 0 0 30 0;
#X connect 0 0 31 0;
#X connect 1 0 2 0;
#X connect 2 0 32 0;
#X connect 3 0 5 0;
#X connect 4 0 5 1;
#X connect 5 0 6 0;
#X connect 6 0 33 0;
#X connect 7 0 8 0;
#X connect 8 0 34 0;
#X connect 9 0 7 0;
#X connect 10 0 7 1;
#X connect 11 0 12 0;
#X connect 12 0 35 0;
#X connect 14 0 11 0;
#X connect 15 0 11 1;
#X connect 16 0 17 0;
#X connect 17 0 36 0;
#X connect 18 0 16 0;
#X connect 19 0 16 1;
#X connect 20 0 21 0;
#X connect 21 0 37 0;
#X connect 22 0 20 0;
#X connect 23 0 20 1;
#X connect 24 0 25 0;
#X connect 25 0 38 0;
#X connect 26 0 24 0;
#X connect 27 0 24 1;
#X connect 28 0 29 0;
#X connect 29 0 39 0;
#X connect 30 0 28 0;
#X connect 31 0 28 1;
#X connect 32 0 13 0;
#X connect 33 0 13 0;
#X connect 34 0 13 0;
#X connect 35 0 13 0;
#X connect 36 0 13 0;
#X connect 37 0 13 0;
#X connect 38 0 13 0;
#X connect 39 0 13 0;
#X restore 142 206 pd analizador;
#X obj 97 226 loadbang;
#X obj 242 261 line~;
#X obj 16 372 *~;
#X msg 241 200 0 10;
#X msg 242 229 1 10;
#X obj 17 276 *~;
#X obj 168 58 r soundfilero;
#X obj 18 122 r cosador;
#X obj 61 282 + 32;
#X obj 60 259 + 0;
#X obj 16 351 tabread4~ t32;
#X connect 4 0 37 0;
#X connect 5 0 6 0;
#X connect 5 0 8 0;
#X connect 5 0 36 0;
#X connect 5 1 7 0;
#X connect 5 1 35 0;
#X connect 6 0 4 1;
#X connect 7 0 4 0;
#X connect 8 0 10 0;
#X connect 9 0 4 0;
#X connect 10 0 9 0;
#X connect 10 1 9 1;
#X connect 11 0 12 0;
#X connect 11 1 12 1;
#X connect 12 0 10 1;
#X connect 13 0 11 1;
#X connect 14 0 42 0;
#X connect 15 0 14 0;
#X connect 15 0 28 0;
#X connect 16 0 21 0;
#X connect 16 1 25 0;
#X connect 16 2 26 0;
#X connect 16 3 27 0;
#X connect 17 0 30 0;
#X connect 17 0 40 0;
#X connect 18 0 5 0;
#X connect 19 0 31 0;
#X connect 20 0 19 0;
#X connect 20 1 19 1;
#X connect 21 0 20 0;
#X connect 21 0 41 0;
#X connect 22 0 13 0;
#X connect 23 0 16 0;
#X connect 25 0 20 0;
#X connect 25 0 41 0;
#X connect 26 0 20 0;
#X connect 26 0 41 0;
#X connect 27 0 20 0;
#X connect 27 0 41 0;
#X connect 28 0 14 0;
#X connect 29 0 11 0;
#X connect 30 0 21 1;
#X connect 30 1 25 1;
#X connect 30 2 26 1;
#X connect 30 3 27 1;
#X connect 31 0 13 0;
#X connect 32 0 29 0;
#X connect 33 0 34 1;
#X connect 34 0 24 0;
#X connect 35 0 33 0;
#X connect 36 0 33 0;
#X connect 37 0 42 0;
#X connect 38 0 20 1;
#X connect 39 0 8 1;
#X connect 40 0 15 0;
#X connect 41 0 37 1;
#X connect 42 0 34 0;
#X restore 810 64 pd lectorS8;
#N canvas 271 220 450 446 lectorS9 0;
#X obj 73 310 table t36;
#X obj 134 310 table t37;
#X obj 194 310 table t38;
#X obj 259 310 table t39;
#X obj 14 202 phasor~;
#X obj 91 83 sel 1 0;
#X msg 53 183 0;
#X msg 22 183 0;
#X obj 14 126 f;
#X obj 14 164 /;
#X obj 14 145 bondo;
#X obj 139 236 bondo;
#X obj 139 255 pow 2 0;
#X obj 166 199 - 4;
#X msg 21 302 set t36;
#X msg 21 282 set set t\$1;
#X obj 9 17 sel 0 1 2 3;
#X obj 85 -4 inlet;
#X obj 123 -4 inlet;
#X obj 139 158 /;
#X obj 139 138 bondo;
#N canvas 825 330 450 300 opencero 0;
#X obj 35 68 openpanel;
#X obj 35 48 inlet;
#X obj 35 217 outlet;
#X obj 35 111 bang;
#X msg 35 134 read -resize /home/juan/Pd/samples/loops/cata-11.aiff
t36;
#X obj 219 52 inlet;
#X obj 35 170 soundfiler;
#X obj 219 187 f;
#X obj 70 112 loadbang;
#X msg 35 87 set read -resize \$1 t36;
#X connect 0 0 9 0;
#X connect 1 0 0 0;
#X connect 3 0 4 0;
#X connect 4 0 6 0;
#X connect 5 0 7 0;
#X connect 6 0 2 0;
#X connect 6 0 7 1;
#X connect 7 0 2 0;
#X connect 8 0 4 0;
#X connect 9 0 4 0;
#X connect 9 0 3 0;
#X restore 9 61 pd opencero;
#X obj 199 -4 inlet;
#X obj 47 -4 inlet;
#X obj 14 370 outlet~;
#N canvas 11 333 450 300 openuno 0;
#X obj 45 78 openpanel;
#X msg 45 144 read -resize /home/juan/Pd/samples/loops/cuchitotamboraCortoVariado.wav
t37;
#X obj 45 58 inlet;
#X obj 45 191 outlet;
#X obj 45 121 bang;
#X obj 45 167 soundfiler;
#X obj 229 62 inlet;
#X obj 229 197 f;
#X obj 89 121 loadbang;
#X msg 45 97 set read -resize \$1 t37;
#X connect 0 0 9 0;
#X connect 1 0 5 0;
#X connect 2 0 0 0;
#X connect 4 0 1 0;
#X connect 5 0 3 0;
#X connect 5 0 7 1;
#X connect 6 0 7 0;
#X connect 7 0 3 0;
#X connect 8 0 1 0;
#X connect 9 0 1 0;
#X connect 9 0 4 0;
#X restore 81 62 pd openuno;
#N canvas 535 306 450 300 opendos 0;
#X obj 45 78 openpanel;
#X msg 45 144 read -resize /home/juan/Pd/samples/loops/88BEAT13.wav
t38;
#X obj 45 58 inlet;
#X obj 45 193 outlet;
#X obj 45 121 bang;
#X obj 45 170 soundfiler;
#X obj 239 72 inlet;
#X obj 239 207 f;
#X obj 93 121 loadbang;
#X msg 45 97 set read -resize \$1 t38;
#X connect 0 0 9 0;
#X connect 1 0 5 0;
#X connect 2 0 0 0;
#X connect 4 0 1 0;
#X connect 5 0 3 0;
#X connect 5 0 7 1;
#X connect 6 0 7 0;
#X connect 7 0 3 0;
#X connect 8 0 1 0;
#X connect 9 0 1 0;
#X connect 9 0 4 0;
#X restore 148 62 pd opendos;
#N canvas 446 328 450 300 opentres 0;
#X obj 45 78 openpanel;
#X msg 45 144 read -resize /home/juan/Pd/samples/loops/cata-06.aiff
t39;
#X obj 45 58 inlet;
#X obj 45 192 outlet;
#X obj 45 121 bang;
#X obj 45 170 soundfiler;
#X obj 249 82 inlet;
#X obj 249 217 f;
#X obj 91 123 loadbang;
#X msg 45 97 set read -resize \$1 t39;
#X connect 0 0 9 0;
#X connect 1 0 5 0;
#X connect 2 0 0 0;
#X connect 4 0 1 0;
#X connect 5 0 3 0;
#X connect 5 0 7 1;
#X connect 6 0 7 0;
#X connect 7 0 3 0;
#X connect 8 0 1 0;
#X connect 9 0 1 0;
#X connect 9 0 4 0;
#X restore 215 62 pd opentres;
#X obj 69 301 bang;
#X msg 139 218 2;
#X obj 89 18 sel 0 1 2 3;
#N canvas 567 50 659 270 analizador 0;
#X obj 294 29 inlet;
#X obj 30 61 < 0.1;
#X obj 30 81 sel 1;
#X obj 79 62 > 0.1;
#X obj 116 62 < 0.19;
#X obj 79 82 &&;
#X obj 79 101 sel 1;
#X obj 159 82 &&;
#X obj 159 101 sel 1;
#X obj 159 62 > 0.19;
#X obj 202 62 < 0.4;
#X obj 239 82 &&;
#X obj 239 101 sel 1;
#X obj 302 162 outlet;
#X obj 239 62 > 0.4;
#X obj 276 62 < 0.8;
#X obj 313 82 &&;
#X obj 313 101 sel 1;
#X obj 313 62 > 0.8;
#X obj 350 62 < 1.66;
#X obj 393 82 &&;
#X obj 393 101 sel 1;
#X obj 393 62 > 1.66;
#X obj 435 62 < 3;
#X obj 476 82 &&;
#X obj 476 101 sel 1;
#X obj 476 62 > 3;
#X obj 502 62 < 6.66;
#X obj 545 82 &&;
#X obj 545 101 sel 1;
#X obj 545 62 > 6.66;
#X obj 589 62 < 10;
#X msg 30 101 0;
#X msg 79 121 1;
#X msg 159 121 2;
#X msg 239 122 3;
#X msg 313 122 4;
#X msg 393 122 5;
#X msg 476 122 6;
#X msg 545 122 7;
#X connect 0 0 1 0;
#X connect 0 0 3 0;
#X connect 0 0 4 0;
#X connect 0 0 9 0;
#X connect 0 0 10 0;
#X connect 0 0 14 0;
#X connect 0 0 15 0;
#X connect 0 0 18 0;
#X connect 0 0 19 0;
#X connect 0 0 22 0;
#X connect 0 0 23 0;
#X connect 0 0 26 0;
#X connect 0 0 27 0;
#X connect 0 0 30 0;
#X connect 0 0 31 0;
#X connect 1 0 2 0;
#X connect 2 0 32 0;
#X connect 3 0 5 0;
#X connect 4 0 5 1;
#X connect 5 0 6 0;
#X connect 6 0 33 0;
#X connect 7 0 8 0;
#X connect 8 0 34 0;
#X connect 9 0 7 0;
#X connect 10 0 7 1;
#X connect 11 0 12 0;
#X connect 12 0 35 0;
#X connect 14 0 11 0;
#X connect 15 0 11 1;
#X connect 16 0 17 0;
#X connect 17 0 36 0;
#X connect 18 0 16 0;
#X connect 19 0 16 1;
#X connect 20 0 21 0;
#X connect 21 0 37 0;
#X connect 22 0 20 0;
#X connect 23 0 20 1;
#X connect 24 0 25 0;
#X connect 25 0 38 0;
#X connect 26 0 24 0;
#X connect 27 0 24 1;
#X connect 28 0 29 0;
#X connect 29 0 39 0;
#X connect 30 0 28 0;
#X connect 31 0 28 1;
#X connect 32 0 13 0;
#X connect 33 0 13 0;
#X connect 34 0 13 0;
#X connect 35 0 13 0;
#X connect 36 0 13 0;
#X connect 37 0 13 0;
#X connect 38 0 13 0;
#X connect 39 0 13 0;
#X restore 139 179 pd analizador;
#X obj 94 199 loadbang;
#X obj 239 234 line~;
#X obj 13 345 *~;
#X msg 238 173 0 10;
#X msg 239 202 1 10;
#X obj 13 324 tabread4~ t0;
#X obj 14 249 *~;
#X obj 162 20 r soundfilero;
#X obj 9 42 r cosador;
#X obj 79 259 + 36;
#X obj 57 232 + 0;
#X connect 4 0 38 0;
#X connect 5 0 6 0;
#X connect 5 0 8 0;
#X connect 5 0 36 0;
#X connect 5 1 7 0;
#X connect 5 1 35 0;
#X connect 6 0 4 1;
#X connect 7 0 4 0;
#X connect 8 0 10 0;
#X connect 9 0 4 0;
#X connect 10 0 9 0;
#X connect 10 1 9 1;
#X connect 11 0 12 0;
#X connect 11 1 12 1;
#X connect 12 0 10 1;
#X connect 13 0 11 1;
#X connect 14 0 37 0;
#X connect 15 0 14 0;
#X connect 15 0 28 0;
#X connect 16 0 21 0;
#X connect 16 1 25 0;
#X connect 16 2 26 0;
#X connect 16 3 27 0;
#X connect 17 0 30 0;
#X connect 17 0 41 0;
#X connect 18 0 5 0;
#X connect 19 0 31 0;
#X connect 20 0 19 0;
#X connect 20 1 19 1;
#X connect 21 0 20 0;
#X connect 21 0 42 0;
#X connect 22 0 13 0;
#X connect 23 0 16 0;
#X connect 25 0 20 0;
#X connect 25 0 42 0;
#X connect 26 0 20 0;
#X connect 26 0 42 0;
#X connect 27 0 20 0;
#X connect 27 0 42 0;
#X connect 28 0 14 0;
#X connect 29 0 11 0;
#X connect 30 0 21 1;
#X connect 30 1 25 1;
#X connect 30 2 26 1;
#X connect 30 3 27 1;
#X connect 31 0 13 0;
#X connect 32 0 29 0;
#X connect 33 0 34 1;
#X connect 34 0 24 0;
#X connect 35 0 33 0;
#X connect 36 0 33 0;
#X connect 37 0 34 0;
#X connect 38 0 37 0;
#X connect 39 0 20 1;
#X connect 40 0 8 1;
#X connect 41 0 15 0;
#X connect 42 0 38 1;
#X restore 892 64 pd lectorS9;
#N canvas 68 191 450 507 lectorS11 0;
#X obj 21 226 phasor~;
#X obj 98 107 sel 1 0;
#X msg 60 207 0;
#X msg 29 207 0;
#X obj 21 150 f;
#X obj 21 188 /;
#X obj 21 169 bondo;
#X obj 146 260 bondo;
#X obj 146 279 pow 2 0;
#X obj 173 223 - 4;
#X msg 28 326 set t44;
#X msg 28 306 set set t\$1;
#X obj 16 41 sel 0 1 2 3;
#X obj 92 20 inlet;
#X obj 130 20 inlet;
#X obj 146 182 /;
#X obj 146 162 bondo;
#N canvas 493 360 450 300 opencero 0;
#X obj 35 68 openpanel;
#X obj 35 48 inlet;
#X obj 35 217 outlet;
#X obj 35 111 bang;
#X msg 35 134 read -resize /home/juan/Pd/samples/loops/cata-12.aiff
t44;
#X obj 219 52 inlet;
#X obj 35 170 soundfiler;
#X obj 219 187 f;
#X obj 70 112 loadbang;
#X msg 35 87 set read -resize \$1 t44;
#X connect 0 0 9 0;
#X connect 1 0 0 0;
#X connect 3 0 4 0;
#X connect 4 0 6 0;
#X connect 5 0 7 0;
#X connect 6 0 2 0;
#X connect 6 0 7 1;
#X connect 7 0 2 0;
#X connect 8 0 4 0;
#X connect 9 0 4 0;
#X connect 9 0 3 0;
#X restore 16 85 pd opencero;
#X obj 206 20 inlet;
#X obj 54 20 inlet;
#X obj 21 394 outlet~;
#N canvas 9 339 450 300 openuno 0;
#X obj 45 78 openpanel;
#X msg 45 144 read -resize /home/juan/Pd/samples/loops/cuchitotamboraPambicheModerno.wav
t45;
#X obj 45 58 inlet;
#X obj 45 191 outlet;
#X obj 45 121 bang;
#X obj 45 167 soundfiler;
#X obj 229 62 inlet;
#X obj 229 197 f;
#X obj 89 121 loadbang;
#X msg 45 97 set read -resize \$1 t45;
#X connect 0 0 9 0;
#X connect 1 0 5 0;
#X connect 2 0 0 0;
#X connect 4 0 1 0;
#X connect 5 0 3 0;
#X connect 5 0 7 1;
#X connect 6 0 7 0;
#X connect 7 0 3 0;
#X connect 8 0 1 0;
#X connect 9 0 1 0;
#X connect 9 0 4 0;
#X restore 88 86 pd openuno;
#N canvas 539 303 450 300 opendos 0;
#X obj 45 78 openpanel;
#X msg 45 144 read -resize /home/juan/Pd/samples/loops/bachata--03.wav
t46;
#X obj 45 58 inlet;
#X obj 45 193 outlet;
#X obj 45 121 bang;
#X obj 45 170 soundfiler;
#X obj 239 72 inlet;
#X obj 239 207 f;
#X obj 93 121 loadbang;
#X msg 45 97 set read -resize \$1 t46;
#X connect 0 0 9 0;
#X connect 1 0 5 0;
#X connect 2 0 0 0;
#X connect 4 0 1 0;
#X connect 5 0 3 0;
#X connect 5 0 7 1;
#X connect 6 0 7 0;
#X connect 7 0 3 0;
#X connect 8 0 1 0;
#X connect 9 0 1 0;
#X connect 9 0 4 0;
#X restore 155 86 pd opendos;
#N canvas 12 356 450 300 opentres 0;
#X obj 45 78 openpanel;
#X msg 45 144 read -resize /home/juan/Pd/samples/loops/catareyarriba.wav
t47;
#X obj 45 58 inlet;
#X obj 45 192 outlet;
#X obj 45 121 bang;
#X obj 45 170 soundfiler;
#X obj 249 82 inlet;
#X obj 249 217 f;
#X obj 91 123 loadbang;
#X msg 45 97 set read -resize \$1 t47;
#X connect 0 0 9 0;
#X connect 1 0 5 0;
#X connect 2 0 0 0;
#X connect 4 0 1 0;
#X connect 5 0 3 0;
#X connect 5 0 7 1;
#X connect 6 0 7 0;
#X connect 7 0 3 0;
#X connect 8 0 1 0;
#X connect 9 0 1 0;
#X connect 9 0 4 0;
#X restore 222 86 pd opentres;
#X obj 76 325 bang;
#X msg 146 242 2;
#X obj 96 42 sel 0 1 2 3;
#N canvas 570 344 659 270 analizador 0;
#X obj 294 29 inlet;
#X obj 30 61 < 0.1;
#X obj 30 81 sel 1;
#X obj 79 62 > 0.1;
#X obj 79 82 &&;
#X obj 79 101 sel 1;
#X obj 159 82 &&;
#X obj 159 101 sel 1;
#X obj 159 62 > 0.19;
#X obj 202 62 < 0.4;
#X obj 239 82 &&;
#X obj 239 101 sel 1;
#X obj 302 162 outlet;
#X obj 239 62 > 0.4;
#X obj 276 62 < 0.8;
#X obj 313 82 &&;
#X obj 313 101 sel 1;
#X obj 313 62 > 0.8;
#X obj 350 62 < 1.66;
#X obj 393 82 &&;
#X obj 393 101 sel 1;
#X obj 393 62 > 1.66;
#X obj 435 62 < 3;
#X obj 476 82 &&;
#X obj 476 101 sel 1;
#X obj 476 62 > 3;
#X obj 502 62 < 6.66;
#X obj 545 82 &&;
#X obj 545 101 sel 1;
#X obj 545 62 > 6.66;
#X obj 589 62 < 10;
#X msg 30 101 0;
#X msg 79 121 1;
#X msg 159 121 2;
#X msg 239 122 3;
#X msg 313 122 4;
#X msg 393 122 5;
#X msg 476 122 6;
#X msg 545 122 7;
#X obj 116 62 < 0.19;
#X connect 0 0 1 0;
#X connect 0 0 3 0;
#X connect 0 0 8 0;
#X connect 0 0 9 0;
#X connect 0 0 13 0;
#X connect 0 0 14 0;
#X connect 0 0 17 0;
#X connect 0 0 18 0;
#X connect 0 0 21 0;
#X connect 0 0 22 0;
#X connect 0 0 25 0;
#X connect 0 0 26 0;
#X connect 0 0 29 0;
#X connect 0 0 30 0;
#X connect 0 0 39 0;
#X connect 1 0 2 0;
#X connect 2 0 31 0;
#X connect 3 0 4 0;
#X connect 4 0 5 0;
#X connect 5 0 32 0;
#X connect 6 0 7 0;
#X connect 7 0 33 0;
#X connect 8 0 6 0;
#X connect 9 0 6 1;
#X connect 10 0 11 0;
#X connect 11 0 34 0;
#X connect 13 0 10 0;
#X connect 14 0 10 1;
#X connect 15 0 16 0;
#X connect 16 0 35 0;
#X connect 17 0 15 0;
#X connect 18 0 15 1;
#X connect 19 0 20 0;
#X connect 20 0 36 0;
#X connect 21 0 19 0;
#X connect 22 0 19 1;
#X connect 23 0 24 0;
#X connect 24 0 37 0;
#X connect 25 0 23 0;
#X connect 26 0 23 1;
#X connect 27 0 28 0;
#X connect 28 0 38 0;
#X connect 29 0 27 0;
#X connect 30 0 27 1;
#X connect 31 0 12 0;
#X connect 32 0 12 0;
#X connect 33 0 12 0;
#X connect 34 0 12 0;
#X connect 35 0 12 0;
#X connect 36 0 12 0;
#X connect 37 0 12 0;
#X connect 38 0 12 0;
#X connect 39 0 4 1;
#X restore 146 203 pd analizador;
#X obj 101 223 loadbang;
#X obj 246 258 line~;
#X obj 20 369 *~;
#X msg 245 197 0 10;
#X msg 246 226 1 10;
#X obj 20 348 tabread4~ t0;
#X obj 21 273 *~;
#X obj 170 41 r soundfilero;
#X obj 21 63 r cosador;
#X obj 121 391 table t44;
#X obj 182 391 table t45;
#X obj 242 391 table t46;
#X obj 307 391 table t47;
#X obj 76 281 + 44;
#X obj 65 256 + 0;
#X floatatom 237 161 5 0 0 0 - - -;
#X connect 0 0 34 0;
#X connect 1 0 2 0;
#X connect 1 0 4 0;
#X connect 1 0 32 0;
#X connect 1 1 3 0;
#X connect 1 1 31 0;
#X connect 2 0 0 1;
#X connect 3 0 0 0;
#X connect 4 0 6 0;
#X connect 5 0 0 0;
#X connect 6 0 5 0;
#X connect 6 1 5 1;
#X connect 7 0 8 0;
#X connect 7 1 8 1;
#X connect 8 0 6 1;
#X connect 9 0 7 1;
#X connect 10 0 33 0;
#X connect 11 0 10 0;
#X connect 11 0 24 0;
#X connect 12 0 17 0;
#X connect 12 1 21 0;
#X connect 12 2 22 0;
#X connect 12 3 23 0;
#X connect 13 0 26 0;
#X connect 13 0 41 0;
#X connect 14 0 1 0;
#X connect 15 0 27 0;
#X connect 15 0 43 0;
#X connect 16 0 15 0;
#X connect 16 1 15 1;
#X connect 17 0 16 0;
#X connect 17 0 42 0;
#X connect 18 0 9 0;
#X connect 19 0 12 0;
#X connect 21 0 16 0;
#X connect 21 0 42 0;
#X connect 22 0 16 0;
#X connect 22 0 42 0;
#X connect 23 0 16 0;
#X connect 23 0 42 0;
#X connect 24 0 10 0;
#X connect 25 0 7 0;
#X connect 26 0 17 1;
#X connect 26 1 21 1;
#X connect 26 2 22 1;
#X connect 26 3 23 1;
#X connect 27 0 9 0;
#X connect 28 0 25 0;
#X connect 29 0 30 1;
#X connect 30 0 20 0;
#X connect 31 0 29 0;
#X connect 32 0 29 0;
#X connect 33 0 30 0;
#X connect 34 0 33 0;
#X connect 35 0 16 1;
#X connect 36 0 4 1;
#X connect 41 0 11 0;
#X connect 42 0 34 1;
#X restore 1058 65 pd lectorS11;
#N canvas 1 140 450 470 lectorS10 0;
#X obj 152 394 table t40;
#X obj 213 394 table t41;
#X obj 273 394 table t42;
#X obj 338 387 table t43;
#X obj 11 216 phasor~;
#X obj 88 97 sel 1 0;
#X msg 50 197 0;
#X msg 19 197 0;
#X obj 11 140 f;
#X obj 11 178 /;
#X obj 11 159 bondo;
#X obj 136 250 bondo;
#X obj 136 269 pow 2 0;
#X obj 163 213 - 4;
#X msg 18 316 set t40;
#X msg 18 296 set set t\$1;
#X obj 6 31 sel 0 1 2 3;
#X obj 84 9 inlet;
#X obj 120 10 inlet;
#X obj 136 172 /;
#X obj 136 152 bondo;
#N canvas 6 365 450 300 opencero 0;
#X obj 35 68 openpanel;
#X obj 35 48 inlet;
#X obj 35 217 outlet;
#X obj 35 111 bang;
#X msg 35 134 read -resize /home/juan/Pd/samples/loops/cata-10.aiff
t40;
#X obj 219 52 inlet;
#X obj 35 170 soundfiler;
#X obj 219 187 f;
#X obj 70 112 loadbang;
#X msg 35 87 set read -resize \$1 t40;
#X connect 0 0 9 0;
#X connect 1 0 0 0;
#X connect 3 0 4 0;
#X connect 4 0 6 0;
#X connect 5 0 7 0;
#X connect 6 0 2 0;
#X connect 6 0 7 1;
#X connect 7 0 2 0;
#X connect 8 0 4 0;
#X connect 9 0 4 0;
#X connect 9 0 3 0;
#X restore 6 75 pd opencero;
#X obj 196 10 inlet;
#X obj 44 10 inlet;
#X obj 11 384 outlet~;
#N canvas 11 333 450 300 openuno 0;
#X obj 45 78 openpanel;
#X msg 45 144 read -resize /home/juan/Pd/samples/loops/cuchitotamboraPambiche.wav
t41;
#X obj 45 58 inlet;
#X obj 45 191 outlet;
#X obj 45 121 bang;
#X obj 45 167 soundfiler;
#X obj 229 62 inlet;
#X obj 229 197 f;
#X obj 89 121 loadbang;
#X msg 45 97 set read -resize \$1 t41;
#X connect 0 0 9 0;
#X connect 1 0 5 0;
#X connect 2 0 0 0;
#X connect 4 0 1 0;
#X connect 5 0 3 0;
#X connect 5 0 7 1;
#X connect 6 0 7 0;
#X connect 7 0 3 0;
#X connect 8 0 1 0;
#X connect 9 0 1 0;
#X connect 9 0 4 0;
#X restore 78 76 pd openuno;
#N canvas 10 310 450 300 opendos 0;
#X obj 45 78 openpanel;
#X msg 45 144 read -resize /home/juan/Pd/samples/loops/bachata--01.wav
t42;
#X obj 45 58 inlet;
#X obj 45 193 outlet;
#X obj 45 121 bang;
#X obj 45 170 soundfiler;
#X obj 239 72 inlet;
#X obj 239 207 f;
#X obj 93 121 loadbang;
#X msg 45 97 set read -resize \$1 t42;
#X connect 0 0 9 0;
#X connect 1 0 5 0;
#X connect 2 0 0 0;
#X connect 4 0 1 0;
#X connect 5 0 3 0;
#X connect 5 0 7 1;
#X connect 6 0 7 0;
#X connect 7 0 3 0;
#X connect 8 0 1 0;
#X connect 9 0 1 0;
#X connect 9 0 4 0;
#X restore 145 76 pd opendos;
#N canvas 10 362 450 300 opentres 0;
#X obj 45 78 openpanel;
#X msg 45 144 read -resize /home/juan/Pd/samples/loops/cata-06.aiff
t43;
#X obj 45 58 inlet;
#X obj 45 192 outlet;
#X obj 45 121 bang;
#X obj 45 170 soundfiler;
#X obj 249 82 inlet;
#X obj 249 217 f;
#X obj 91 123 loadbang;
#X msg 45 97 set read -resize \$1 t43;
#X connect 0 0 9 0;
#X connect 1 0 5 0;
#X connect 2 0 0 0;
#X connect 4 0 1 0;
#X connect 5 0 3 0;
#X connect 5 0 7 1;
#X connect 6 0 7 0;
#X connect 7 0 3 0;
#X connect 8 0 1 0;
#X connect 9 0 1 0;
#X connect 9 0 4 0;
#X restore 212 76 pd opentres;
#X obj 66 315 bang;
#X msg 136 232 2;
#X obj 86 32 sel 0 1 2 3;
#N canvas 567 50 659 270 analizador 0;
#X obj 294 29 inlet;
#X obj 30 61 < 0.1;
#X obj 30 81 sel 1;
#X obj 79 62 > 0.1;
#X obj 116 62 < 0.19;
#X obj 79 82 &&;
#X obj 79 101 sel 1;
#X obj 159 82 &&;
#X obj 159 101 sel 1;
#X obj 159 62 > 0.19;
#X obj 202 62 < 0.4;
#X obj 239 82 &&;
#X obj 239 101 sel 1;
#X obj 302 162 outlet;
#X obj 239 62 > 0.4;
#X obj 276 62 < 0.8;
#X obj 313 82 &&;
#X obj 313 101 sel 1;
#X obj 313 62 > 0.8;
#X obj 350 62 < 1.66;
#X obj 393 82 &&;
#X obj 393 101 sel 1;
#X obj 393 62 > 1.66;
#X obj 435 62 < 3;
#X obj 476 82 &&;
#X obj 476 101 sel 1;
#X obj 476 62 > 3;
#X obj 502 62 < 6.66;
#X obj 545 82 &&;
#X obj 545 101 sel 1;
#X obj 545 62 > 6.66;
#X obj 589 62 < 10;
#X msg 30 101 0;
#X msg 79 121 1;
#X msg 159 121 2;
#X msg 239 122 3;
#X msg 313 122 4;
#X msg 393 122 5;
#X msg 476 122 6;
#X msg 545 122 7;
#X connect 0 0 1 0;
#X connect 0 0 3 0;
#X connect 0 0 4 0;
#X connect 0 0 9 0;
#X connect 0 0 10 0;
#X connect 0 0 14 0;
#X connect 0 0 15 0;
#X connect 0 0 18 0;
#X connect 0 0 19 0;
#X connect 0 0 22 0;
#X connect 0 0 23 0;
#X connect 0 0 26 0;
#X connect 0 0 27 0;
#X connect 0 0 30 0;
#X connect 0 0 31 0;
#X connect 1 0 2 0;
#X connect 2 0 32 0;
#X connect 3 0 5 0;
#X connect 4 0 5 1;
#X connect 5 0 6 0;
#X connect 6 0 33 0;
#X connect 7 0 8 0;
#X connect 8 0 34 0;
#X connect 9 0 7 0;
#X connect 10 0 7 1;
#X connect 11 0 12 0;
#X connect 12 0 35 0;
#X connect 14 0 11 0;
#X connect 15 0 11 1;
#X connect 16 0 17 0;
#X connect 17 0 36 0;
#X connect 18 0 16 0;
#X connect 19 0 16 1;
#X connect 20 0 21 0;
#X connect 21 0 37 0;
#X connect 22 0 20 0;
#X connect 23 0 20 1;
#X connect 24 0 25 0;
#X connect 25 0 38 0;
#X connect 26 0 24 0;
#X connect 27 0 24 1;
#X connect 28 0 29 0;
#X connect 29 0 39 0;
#X connect 30 0 28 0;
#X connect 31 0 28 1;
#X connect 32 0 13 0;
#X connect 33 0 13 0;
#X connect 34 0 13 0;
#X connect 35 0 13 0;
#X connect 36 0 13 0;
#X connect 37 0 13 0;
#X connect 38 0 13 0;
#X connect 39 0 13 0;
#X restore 136 193 pd analizador;
#X obj 91 213 loadbang;
#X obj 236 248 line~;
#X obj 10 359 *~;
#X msg 235 187 0 10;
#X msg 236 216 1 10;
#X obj 10 338 tabread4~ t0;
#X obj 11 263 *~;
#X obj 160 31 r soundfilero;
#X obj 11 53 r cosador;
#X obj 64 270 + 40;
#X obj 54 246 + 0;
#X connect 4 0 38 0;
#X connect 5 0 6 0;
#X connect 5 0 8 0;
#X connect 5 0 36 0;
#X connect 5 1 7 0;
#X connect 5 1 35 0;
#X connect 6 0 4 1;
#X connect 7 0 4 0;
#X connect 8 0 10 0;
#X connect 9 0 4 0;
#X connect 10 0 9 0;
#X connect 10 1 9 1;
#X connect 11 0 12 0;
#X connect 11 1 12 1;
#X connect 12 0 10 1;
#X connect 13 0 11 1;
#X connect 14 0 37 0;
#X connect 15 0 14 0;
#X connect 15 0 28 0;
#X connect 16 0 21 0;
#X connect 16 1 25 0;
#X connect 16 2 26 0;
#X connect 16 3 27 0;
#X connect 17 0 30 0;
#X connect 17 0 41 0;
#X connect 18 0 5 0;
#X connect 19 0 31 0;
#X connect 20 0 19 0;
#X connect 20 1 19 1;
#X connect 21 0 20 0;
#X connect 21 0 42 0;
#X connect 22 0 13 0;
#X connect 23 0 16 0;
#X connect 25 0 20 0;
#X connect 25 0 42 0;
#X connect 26 0 20 0;
#X connect 26 0 42 0;
#X connect 27 0 20 0;
#X connect 27 0 42 0;
#X connect 28 0 14 0;
#X connect 29 0 11 0;
#X connect 30 0 21 1;
#X connect 30 1 25 1;
#X connect 30 2 26 1;
#X connect 30 3 27 1;
#X connect 31 0 13 0;
#X connect 32 0 29 0;
#X connect 33 0 34 1;
#X connect 34 0 24 0;
#X connect 35 0 33 0;
#X connect 36 0 33 0;
#X connect 37 0 34 0;
#X connect 38 0 37 0;
#X connect 39 0 20 1;
#X connect 40 0 8 1;
#X connect 41 0 15 0;
#X connect 42 0 38 1;
#X restore 973 64 pd lectorS10;
#X floatatom 810 46 5 0 0 0 - - -;
#X floatatom 892 46 5 0 0 0 - - -;
#X floatatom 973 46 5 0 0 0 - - -;
#X floatatom 1058 47 5 0 0 0 - - -;
#X obj 222 123 hradio 20 1 0 4 selectorSampleador empty empty 0 -8
0 10 -204800 -1 -1 0;
#X floatatom 343 27 5 0 0 0 - selectorSampleador -;
#X floatatom 437 28 5 0 0 0 - selectorSampleador -;
#X floatatom 521 27 5 0 0 0 - selectorSampleador -;
#X floatatom 618 28 5 0 0 0 - selectorSampleador -;
#X floatatom 690 28 5 0 0 0 - selectorSampleador -;
#X floatatom 752 28 5 0 0 0 - selectorSampleador -;
#X floatatom 831 28 5 0 0 0 - selectorSampleador -;
#X floatatom 161 43 5 0 0 0 - selectorSampleador -;
#X floatatom 913 28 5 0 0 0 - selectorSampleador -;
#X floatatom 996 28 5 0 0 0 - selectorSampleador -;
#X floatatom 1081 29 5 0 0 0 - selectorSampleador -;
#N canvas 471 175 450 635 lectorS7 0;
#X obj 142 421 table t28;
#X obj 197 421 table t29;
#X obj 252 421 table t30;
#X obj 307 421 table t31;
#X obj -26 253 phasor~;
#X obj 51 134 sel 1 0;
#X msg 13 234 0;
#X msg -18 234 0;
#X obj -26 177 f;
#X obj -26 215 /;
#X obj -26 196 bondo;
#X obj 99 287 bondo;
#X obj 99 306 pow 2 0;
#X obj 126 250 - 4;
#X msg -19 353 set t28;
#X msg -16 331 set set t\$1;
#X obj -31 68 sel 0 1 2 3;
#X obj 45 47 inlet;
#X obj 83 47 inlet;
#X obj 99 209 /;
#X obj 99 189 bondo;
#N canvas 480 301 450 300 opencero 0;
#X obj 35 68 openpanel;
#X obj 35 48 inlet;
#X obj 35 217 outlet;
#X obj 35 111 bang;
#X msg 35 134 read -resize /home/juan/Pd/samples/loops/cata-08.aiff
t28;
#X obj 219 52 inlet;
#X obj 35 170 soundfiler;
#X obj 219 187 f;
#X obj 70 112 loadbang;
#X msg 35 87 set read -resize \$1 t28;
#X connect 0 0 9 0;
#X connect 1 0 0 0;
#X connect 3 0 4 0;
#X connect 4 0 6 0;
#X connect 5 0 7 0;
#X connect 6 0 2 0;
#X connect 6 0 7 1;
#X connect 7 0 2 0;
#X connect 8 0 4 0;
#X connect 9 0 4 0;
#X connect 9 0 3 0;
#X restore -31 112 pd opencero;
#X obj 159 47 inlet;
#X obj 7 47 inlet;
#X obj -26 421 outlet~;
#N canvas 11 333 450 300 openuno 0;
#X obj 45 78 openpanel;
#X msg 45 144 read -resize /home/juan/Pd/samples/loops/cuchitotamboraCorto.wav
t29;
#X obj 45 58 inlet;
#X obj 45 191 outlet;
#X obj 45 121 bang;
#X obj 45 167 soundfiler;
#X obj 229 62 inlet;
#X obj 229 197 f;
#X obj 89 121 loadbang;
#X msg 45 97 set read -resize \$1 t29;
#X connect 0 0 9 0;
#X connect 1 0 5 0;
#X connect 2 0 0 0;
#X connect 4 0 1 0;
#X connect 5 0 3 0;
#X connect 5 0 7 1;
#X connect 6 0 7 0;
#X connect 7 0 3 0;
#X connect 8 0 1 0;
#X connect 9 0 1 0;
#X connect 9 0 4 0;
#X restore 41 113 pd openuno;
#N canvas 10 310 450 300 opendos 0;
#X obj 45 78 openpanel;
#X msg 45 144 read -resize /home/juan/Pd/samples/loops/LaGuira-01.wav
t30;
#X obj 45 58 inlet;
#X obj 45 193 outlet;
#X obj 45 121 bang;
#X obj 45 170 soundfiler;
#X obj 239 72 inlet;
#X obj 239 207 f;
#X obj 93 121 loadbang;
#X msg 45 97 set read -resize \$1 t30;
#X connect 0 0 9 0;
#X connect 1 0 5 0;
#X connect 2 0 0 0;
#X connect 4 0 1 0;
#X connect 5 0 3 0;
#X connect 5 0 7 1;
#X connect 6 0 7 0;
#X connect 7 0 3 0;
#X connect 8 0 1 0;
#X connect 9 0 1 0;
#X connect 9 0 4 0;
#X restore 108 113 pd opendos;
#N canvas 12 356 450 300 opentres 0;
#X obj 45 78 openpanel;
#X msg 45 144 read -resize /home/juan/Pd/samples/loops/cata-04.aiff
t31;
#X obj 45 58 inlet;
#X obj 45 192 outlet;
#X obj 45 121 bang;
#X obj 45 170 soundfiler;
#X obj 249 82 inlet;
#X obj 249 217 f;
#X obj 91 123 loadbang;
#X msg 45 97 set read -resize \$1 t31;
#X connect 0 0 9 0;
#X connect 1 0 5 0;
#X connect 2 0 0 0;
#X connect 4 0 1 0;
#X connect 5 0 3 0;
#X connect 5 0 7 1;
#X connect 6 0 7 0;
#X connect 7 0 3 0;
#X connect 8 0 1 0;
#X connect 9 0 1 0;
#X connect 9 0 4 0;
#X restore 175 113 pd opentres;
#X obj 96 359 bang;
#X msg 99 269 2;
#X obj 49 69 sel 0 1 2 3;
#N canvas 567 50 659 270 analizador 0;
#X obj 294 29 inlet;
#X obj 30 61 < 0.1;
#X obj 30 81 sel 1;
#X obj 79 62 > 0.1;
#X obj 116 62 < 0.19;
#X obj 79 82 &&;
#X obj 79 101 sel 1;
#X obj 159 82 &&;
#X obj 159 101 sel 1;
#X obj 159 62 > 0.19;
#X obj 202 62 < 0.4;
#X obj 239 82 &&;
#X obj 239 101 sel 1;
#X obj 302 162 outlet;
#X obj 239 62 > 0.4;
#X obj 276 62 < 0.8;
#X obj 313 82 &&;
#X obj 313 101 sel 1;
#X obj 313 62 > 0.8;
#X obj 350 62 < 1.66;
#X obj 393 82 &&;
#X obj 393 101 sel 1;
#X obj 393 62 > 1.66;
#X obj 435 62 < 3;
#X obj 476 82 &&;
#X obj 476 101 sel 1;
#X obj 476 62 > 3;
#X obj 502 62 < 6.66;
#X obj 545 82 &&;
#X obj 545 101 sel 1;
#X obj 545 62 > 6.66;
#X obj 589 62 < 10;
#X msg 30 101 0;
#X msg 79 121 1;
#X msg 159 121 2;
#X msg 239 122 3;
#X msg 313 122 4;
#X msg 393 122 5;
#X msg 476 122 6;
#X msg 545 122 7;
#X connect 0 0 1 0;
#X connect 0 0 3 0;
#X connect 0 0 4 0;
#X connect 0 0 9 0;
#X connect 0 0 10 0;
#X connect 0 0 14 0;
#X connect 0 0 15 0;
#X connect 0 0 18 0;
#X connect 0 0 19 0;
#X connect 0 0 22 0;
#X connect 0 0 23 0;
#X connect 0 0 26 0;
#X connect 0 0 27 0;
#X connect 0 0 30 0;
#X connect 0 0 31 0;
#X connect 1 0 2 0;
#X connect 2 0 32 0;
#X connect 3 0 5 0;
#X connect 4 0 5 1;
#X connect 5 0 6 0;
#X connect 6 0 33 0;
#X connect 7 0 8 0;
#X connect 8 0 34 0;
#X connect 9 0 7 0;
#X connect 10 0 7 1;
#X connect 11 0 12 0;
#X connect 12 0 35 0;
#X connect 14 0 11 0;
#X connect 15 0 11 1;
#X connect 16 0 17 0;
#X connect 17 0 36 0;
#X connect 18 0 16 0;
#X connect 19 0 16 1;
#X connect 20 0 21 0;
#X connect 21 0 37 0;
#X connect 22 0 20 0;
#X connect 23 0 20 1;
#X connect 24 0 25 0;
#X connect 25 0 38 0;
#X connect 26 0 24 0;
#X connect 27 0 24 1;
#X connect 28 0 29 0;
#X connect 29 0 39 0;
#X connect 30 0 28 0;
#X connect 31 0 28 1;
#X connect 32 0 13 0;
#X connect 33 0 13 0;
#X connect 34 0 13 0;
#X connect 35 0 13 0;
#X connect 36 0 13 0;
#X connect 37 0 13 0;
#X connect 38 0 13 0;
#X connect 39 0 13 0;
#X restore 99 230 pd analizador;
#X obj 54 250 loadbang;
#X obj 199 285 line~;
#X obj -27 396 *~;
#X msg 198 224 0 10;
#X msg 199 253 1 10;
#X obj -27 375 tabread4~ t0;
#X obj -26 300 *~;
#X obj 121 71 r soundfilero;
#X obj -28 90 r cosador;
#X obj 18 311 + 28;
#X obj 17 283 + 0;
#X floatatom 62 322 5 0 0 0 - - -;
#X connect 4 0 38 0;
#X connect 5 0 6 0;
#X connect 5 0 8 0;
#X connect 5 0 36 0;
#X connect 5 1 7 0;
#X connect 5 1 35 0;
#X connect 6 0 4 1;
#X connect 7 0 4 0;
#X connect 8 0 10 0;
#X connect 9 0 4 0;
#X connect 10 0 9 0;
#X connect 10 1 9 1;
#X connect 11 0 12 0;
#X connect 11 1 12 1;
#X connect 12 0 10 1;
#X connect 13 0 11 1;
#X connect 14 0 37 0;
#X connect 15 0 14 0;
#X connect 15 0 28 0;
#X connect 16 0 21 0;
#X connect 16 1 25 0;
#X connect 16 2 26 0;
#X connect 16 3 27 0;
#X connect 17 0 30 0;
#X connect 17 0 41 0;
#X connect 18 0 5 0;
#X connect 19 0 31 0;
#X connect 20 0 19 0;
#X connect 20 1 19 1;
#X connect 21 0 20 0;
#X connect 21 0 42 0;
#X connect 22 0 13 0;
#X connect 23 0 16 0;
#X connect 25 0 20 0;
#X connect 25 0 42 0;
#X connect 26 0 20 0;
#X connect 26 0 42 0;
#X connect 27 0 20 0;
#X connect 27 0 42 0;
#X connect 28 0 14 0;
#X connect 29 0 11 0;
#X connect 30 0 21 1;
#X connect 30 1 25 1;
#X connect 30 2 26 1;
#X connect 30 3 27 1;
#X connect 31 0 13 0;
#X connect 32 0 29 0;
#X connect 33 0 34 1;
#X connect 34 0 24 0;
#X connect 35 0 33 0;
#X connect 36 0 33 0;
#X connect 37 0 34 0;
#X connect 38 0 37 0;
#X connect 39 0 20 1;
#X connect 40 0 8 1;
#X connect 41 0 15 0;
#X connect 42 0 38 1;
#X connect 43 0 15 0;
#X restore 731 64 pd lectorS7;
#X obj 222 85 loadbang;
#X msg 222 104 0;
#X obj 6 185 expr 60000/$f1;
#X floatatom 6 204 10 0 0 0 - - -;
#X obj 6 23 r b1p10;
#X obj 193 25 sel 1;
#X obj 193 44 tgl 15 0 empty empty empty 17 7 0 10 -262144 -1 -1 0
1;
#X obj 285 39 tgl 15 0 empty empty empty 17 7 0 10 -262144 -1 -1 0
1;
#X obj 377 45 tgl 15 0 empty empty empty 17 7 0 10 -262144 -1 -1 0
1;
#X obj 286 7 r b1p11;
#X obj 377 7 r b1p12;
#X obj 458 45 r b1p7;
#X obj 542 44 r b1p8;
#X obj 623 46 r b1p9;
#X obj 695 46 r b1p4;
#X obj 773 46 r b1p5;
#X obj 852 46 r b1p6;
#X obj 934 46 r b1p1;
#X obj 1019 46 r b1p2;
#X obj 1104 47 r b1p3;
#X obj 82 46 r sb8;
#X obj 30 85 r soundfilero;
#X obj 6 148 expr ((1000/$f1)/16);
#X obj 6 111 expr (44100/$f1);
#X connect 0 0 66 0;
#X connect 1 0 3 0;
#X connect 2 0 1 1;
#X connect 4 0 14 0;
#X connect 5 0 15 0;
#X connect 6 0 16 0;
#X connect 7 0 17 0;
#X connect 8 0 19 0;
#X connect 9 0 20 0;
#X connect 10 0 45 0;
#X connect 11 0 14 1;
#X connect 12 0 1 0;
#X connect 13 0 12 0;
#X connect 14 0 1 0;
#X connect 15 0 1 0;
#X connect 16 0 1 0;
#X connect 17 0 1 0;
#X connect 19 0 1 0;
#X connect 20 0 1 0;
#X connect 21 0 42 0;
#X connect 22 0 1 0;
#X connect 23 0 1 0;
#X connect 24 0 1 0;
#X connect 25 0 1 0;
#X connect 26 0 22 0;
#X connect 27 0 23 0;
#X connect 28 0 25 0;
#X connect 29 0 24 0;
#X connect 31 0 15 1;
#X connect 32 0 16 1;
#X connect 33 0 17 1;
#X connect 34 0 19 1;
#X connect 35 0 20 1;
#X connect 36 0 42 1;
#X connect 37 0 22 1;
#X connect 38 0 12 1;
#X connect 39 0 23 1;
#X connect 40 0 25 1;
#X connect 41 0 24 1;
#X connect 42 0 1 0;
#X connect 43 0 44 0;
#X connect 44 0 30 0;
#X connect 45 0 46 0;
#X connect 47 0 0 0;
#X connect 47 0 48 0;
#X connect 48 0 49 0;
#X connect 49 0 12 2;
#X connect 50 0 14 2;
#X connect 51 0 15 2;
#X connect 52 0 50 0;
#X connect 53 0 51 0;
#X connect 54 0 16 2;
#X connect 55 0 17 2;
#X connect 56 0 19 2;
#X connect 57 0 20 2;
#X connect 58 0 42 2;
#X connect 59 0 22 2;
#X connect 60 0 23 2;
#X connect 61 0 25 2;
#X connect 62 0 24 2;
#X connect 63 0 48 0;
#X connect 64 0 66 0;
#X connect 65 0 10 0;
#X connect 66 0 18 0;
#X connect 66 0 65 0;
