#N canvas 96 347 326 362 10;
#X obj 11 200 phasor~;
#X obj 11 219 *~;
#X obj 93 97 sel 1 0;
#X msg 50 181 0;
#X msg 19 181 0;
#X obj 11 124 f;
#X obj 11 162 /;
#X obj 11 143 bondo;
#X obj 11 279 tabread4~ t4;
#X obj 141 237 bondo;
#X obj 141 256 pow 2 0;
#X obj 168 200 - 4;
#X obj 11 31 sel 0 1 2 3;
#X obj 87 10 inlet;
#X obj 125 10 inlet;
#X obj 141 159 /;
#X obj 141 139 bondo;
#X obj 163 10 inlet;
#N canvas 543 409 450 300 opencero 0;
#X obj 35 68 openpanel;
#X obj 35 48 inlet;
#X obj 35 217 outlet;
#X obj 35 111 bang;
#X msg 35 134 read -resize /home/juan/pd-externals/samples/loops/LaGuira-01.wav
p32;
#X obj 219 52 inlet;
#X obj 35 170 soundfiler;
#X obj 219 187 f;
#X obj 68 111 loadbang;
#X msg 35 87 set read -resize \$1 p32;
#X connect 0 0 9 0;
#X connect 1 0 0 0;
#X connect 3 0 4 0;
#X connect 4 0 6 0;
#X connect 5 0 7 0;
#X connect 6 0 2 0;
#X connect 6 0 7 1;
#X connect 7 0 2 0;
#X connect 8 0 4 0;
#X connect 9 0 4 0;
#X connect 9 0 3 0;
#X restore 11 75 pd opencero;
#X obj 201 10 inlet;
#X obj 49 10 inlet;
#X obj 11 10 inlet;
#X obj 11 328 outlet~;
#N canvas 915 121 450 300 openuno 0;
#X obj 45 78 openpanel;
#X msg 45 144 read -resize /home/juan/pd-externals/samples/loops/LaGuira-03.wav
p33;
#X obj 45 58 inlet;
#X obj 45 191 outlet;
#X obj 45 121 bang;
#X obj 45 167 soundfiler;
#X obj 229 62 inlet;
#X obj 229 197 f;
#X obj 80 121 loadbang;
#X msg 45 97 set read -resize \$1 p33;
#X connect 0 0 9 0;
#X connect 1 0 5 0;
#X connect 2 0 0 0;
#X connect 4 0 1 0;
#X connect 5 0 3 0;
#X connect 5 0 7 1;
#X connect 6 0 7 0;
#X connect 7 0 3 0;
#X connect 8 0 1 0;
#X connect 9 0 1 0;
#X connect 9 0 4 0;
#X restore 83 76 pd openuno;
#N canvas 498 127 450 300 opendos 0;
#X obj 45 78 openpanel;
#X msg 45 144 read -resize /home/juan/pd-externals/vocal/Pack5/rizosVocal010.wav
t10;
#X obj 45 58 inlet;
#X obj 45 193 outlet;
#X obj 45 121 bang;
#X obj 45 170 soundfiler;
#X obj 239 72 inlet;
#X obj 239 207 f;
#X obj 88 122 loadbang;
#X msg 45 97 set read -resize \$1 p34;
#X connect 0 0 9 0;
#X connect 1 0 5 0;
#X connect 2 0 0 0;
#X connect 4 0 1 0;
#X connect 5 0 3 0;
#X connect 5 0 7 1;
#X connect 6 0 7 0;
#X connect 7 0 3 0;
#X connect 8 0 1 0;
#X connect 9 0 1 0;
#X connect 9 0 4 0;
#X restore 150 76 pd opendos;
#N canvas 915 409 450 300 opentres 0;
#X obj 45 78 openpanel;
#X msg 45 144 read -resize /home/juan/pd-externals/vocal/Pack5/rizosVocal011.wav
t11;
#X obj 45 58 inlet;
#X obj 45 192 outlet;
#X obj 45 121 bang;
#X obj 45 170 soundfiler;
#X obj 249 82 inlet;
#X obj 249 217 f;
#X obj 82 121 loadbang;
#X msg 45 97 set read -resize \$1 p35;
#X connect 0 0 9 0;
#X connect 1 0 5 0;
#X connect 2 0 0 0;
#X connect 4 0 1 0;
#X connect 5 0 3 0;
#X connect 5 0 7 1;
#X connect 6 0 7 0;
#X connect 7 0 3 0;
#X connect 8 0 1 0;
#X connect 9 0 1 0;
#X connect 9 0 4 0;
#X restore 217 76 pd opentres;
#X obj 66 260 bang;
#X msg 141 219 2;
#X obj 91 32 sel 0 1 2 3;
#N canvas 566 27 659 270 analizador 0;
#X obj 294 29 inlet;
#X obj 30 61 < 0.1;
#X obj 30 81 sel 1;
#X obj 79 62 > 0.1;
#X obj 116 62 < 0.19;
#X obj 79 82 &&;
#X obj 79 101 sel 1;
#X obj 159 82 &&;
#X obj 159 101 sel 1;
#X obj 159 62 > 0.19;
#X obj 202 62 < 0.4;
#X obj 239 82 &&;
#X obj 239 101 sel 1;
#X obj 302 162 outlet;
#X obj 239 62 > 0.4;
#X obj 276 62 < 0.8;
#X obj 313 82 &&;
#X obj 313 101 sel 1;
#X obj 313 62 > 0.8;
#X obj 350 62 < 1.66;
#X obj 393 82 &&;
#X obj 393 101 sel 1;
#X obj 393 62 > 1.66;
#X obj 435 62 < 3;
#X obj 476 82 &&;
#X obj 476 101 sel 1;
#X obj 476 62 > 3;
#X obj 502 62 < 6.66;
#X obj 545 82 &&;
#X obj 545 101 sel 1;
#X obj 545 62 > 6.66;
#X obj 589 62 < 10;
#X msg 30 101 0;
#X msg 79 121 1;
#X msg 159 121 2;
#X msg 239 122 3;
#X msg 313 122 4;
#X msg 393 122 5;
#X msg 476 122 6;
#X msg 545 122 7;
#X connect 0 0 1 0;
#X connect 0 0 3 0;
#X connect 0 0 4 0;
#X connect 0 0 9 0;
#X connect 0 0 10 0;
#X connect 0 0 14 0;
#X connect 0 0 15 0;
#X connect 0 0 18 0;
#X connect 0 0 19 0;
#X connect 0 0 22 0;
#X connect 0 0 23 0;
#X connect 0 0 26 0;
#X connect 0 0 27 0;
#X connect 0 0 30 0;
#X connect 0 0 31 0;
#X connect 1 0 2 0;
#X connect 2 0 32 0;
#X connect 3 0 5 0;
#X connect 4 0 5 1;
#X connect 5 0 6 0;
#X connect 6 0 33 0;
#X connect 7 0 8 0;
#X connect 8 0 34 0;
#X connect 9 0 7 0;
#X connect 10 0 7 1;
#X connect 11 0 12 0;
#X connect 12 0 35 0;
#X connect 14 0 11 0;
#X connect 15 0 11 1;
#X connect 16 0 17 0;
#X connect 17 0 36 0;
#X connect 18 0 16 0;
#X connect 19 0 16 1;
#X connect 20 0 21 0;
#X connect 21 0 37 0;
#X connect 22 0 20 0;
#X connect 23 0 20 1;
#X connect 24 0 25 0;
#X connect 25 0 38 0;
#X connect 26 0 24 0;
#X connect 27 0 24 1;
#X connect 28 0 29 0;
#X connect 29 0 39 0;
#X connect 30 0 28 0;
#X connect 31 0 28 1;
#X connect 32 0 13 0;
#X connect 33 0 13 0;
#X connect 34 0 13 0;
#X connect 35 0 13 0;
#X connect 36 0 13 0;
#X connect 37 0 13 0;
#X connect 38 0 13 0;
#X connect 39 0 13 0;
#X restore 141 180 pd analizador;
#X obj 96 200 loadbang;
#X obj 58 131 + 32;
#X obj 242 237 line~;
#X obj 11 304 *~;
#X msg 241 176 0 10;
#X msg 242 205 1 10;
#X msg 18 259 set p33;
#X obj 63 300 table p32;
#X obj 118 300 table p33;
#X obj 173 300 table p34;
#X obj 234 300 table p35;
#X msg 18 239 set set p\$1;
#X connect 0 0 1 0;
#X connect 1 0 8 0;
#X connect 2 0 3 0;
#X connect 2 0 5 0;
#X connect 2 0 35 0;
#X connect 2 1 4 0;
#X connect 2 1 34 0;
#X connect 3 0 0 1;
#X connect 4 0 0 0;
#X connect 5 0 7 0;
#X connect 6 0 0 0;
#X connect 7 0 6 0;
#X connect 7 1 6 1;
#X connect 8 0 33 0;
#X connect 9 0 10 0;
#X connect 9 1 10 1;
#X connect 10 0 7 1;
#X connect 11 0 9 1;
#X connect 12 0 18 0;
#X connect 12 1 23 0;
#X connect 12 2 24 0;
#X connect 12 3 25 0;
#X connect 13 0 28 0;
#X connect 13 0 31 0;
#X connect 14 0 2 0;
#X connect 15 0 29 0;
#X connect 16 0 15 0;
#X connect 16 1 15 1;
#X connect 17 0 16 1;
#X connect 18 0 1 1;
#X connect 18 0 16 0;
#X connect 19 0 11 0;
#X connect 20 0 12 0;
#X connect 21 0 5 1;
#X connect 23 0 1 1;
#X connect 23 0 16 0;
#X connect 24 0 16 0;
#X connect 24 0 1 1;
#X connect 25 0 16 0;
#X connect 25 0 1 1;
#X connect 26 0 36 0;
#X connect 27 0 9 0;
#X connect 28 0 18 1;
#X connect 28 1 23 1;
#X connect 28 2 24 1;
#X connect 28 3 25 1;
#X connect 29 0 11 0;
#X connect 30 0 27 0;
#X connect 31 0 41 0;
#X connect 32 0 33 1;
#X connect 33 0 22 0;
#X connect 34 0 32 0;
#X connect 35 0 32 0;
#X connect 36 0 8 0;
#X connect 41 0 36 0;
#X connect 41 0 26 0;
