#N canvas 61 299 450 386 10;
#X obj 29 17 bng 15 250 50 0 empty empty empty 17 7 0 10 -262144 -1
-1;
#X obj 28 120 soundfiler;
#N canvas 0 0 450 300 (subpatch) 0;
#X array t1 120844 float 2;
#X coords 0 1 120844 -1 200 140 1;
#X restore 228 151 graph;
#X obj 31 46 openpanel;
#X msg 29 94 read -resize /home/juan/pd-externals/88BEAT13.wav t1;
#X msg 30 69 set read -resize \$1 t1;
#X obj 31 276 phasor~;
#X obj 32 300 *~;
#X floatatom 87 148 8 0 0 0 - - -;
#X obj 35 345 dac~;
#X obj 32 216 bondo ---------------;
#X floatatom 155 180 5 0 0 0 - - -;
#X obj 32 319 tabread4~ t1;
#X obj 32 240 expr $f2/($f1/44100) \; $f1/44.1;
#X obj 131 276 r mb4;
#X obj 116 299 sel 1 0;
#X msg 3 261 0;
#X msg 125 323 0;
#X connect 0 0 3 0;
#X connect 1 0 7 1;
#X connect 1 0 8 0;
#X connect 1 0 10 0;
#X connect 3 0 5 0;
#X connect 4 0 1 0;
#X connect 5 0 4 0;
#X connect 6 0 7 0;
#X connect 7 0 12 0;
#X connect 10 0 13 0;
#X connect 10 1 13 1;
#X connect 11 0 10 1;
#X connect 12 0 9 0;
#X connect 12 0 9 1;
#X connect 13 0 6 0;
#X connect 14 0 15 0;
#X connect 15 0 10 0;
#X connect 15 0 17 0;
#X connect 15 1 16 0;
#X connect 16 0 6 0;
#X connect 17 0 6 1;
