#N canvas 694 117 325 362 10;
#X obj 21 210 phasor~;
#X obj 21 229 *~;
#X obj 103 107 sel 1 0;
#X msg 60 191 0;
#X msg 29 191 0;
#X obj 21 134 f;
#X obj 21 172 /;
#X obj 21 153 bondo;
#X obj 21 289 tabread4~ t4;
#X obj 151 247 bondo;
#X obj 151 266 pow 2 0;
#X obj 178 210 - 4;
#X msg 28 249 set set t\$1;
#X obj 21 41 sel 0 1 2 3;
#X obj 97 20 inlet;
#X obj 135 20 inlet;
#X obj 151 169 /;
#X obj 151 149 bondo;
#X obj 173 20 inlet;
#N canvas 15 321 450 300 opencero 0;
#X obj 35 68 openpanel;
#X obj 35 48 inlet;
#X obj 35 217 outlet;
#X obj 35 111 bang;
#X msg 35 134 read -resize /home/juan/pd-externals/samples/loops/changasinte-06.wav
t40;
#X obj 219 52 inlet;
#X obj 35 170 soundfiler;
#X obj 219 187 f;
#X obj 72 111 loadbang;
#X msg 35 87 set read -resize \$1 p40;
#X connect 0 0 9 0;
#X connect 1 0 0 0;
#X connect 3 0 4 0;
#X connect 4 0 6 0;
#X connect 5 0 7 0;
#X connect 6 0 2 0;
#X connect 6 0 7 1;
#X connect 7 0 2 0;
#X connect 8 0 4 0;
#X connect 9 0 4 0;
#X connect 9 0 3 0;
#X restore 21 85 pd opencero;
#X obj 211 20 inlet;
#X obj 59 20 inlet;
#X obj 21 20 inlet;
#X obj 21 330 outlet~;
#N canvas 11 293 450 300 openuno 0;
#X obj 45 78 openpanel;
#X msg 45 144 read -resize /home/juan/pd-externals/samples/loops/faylan4.wav
t41;
#X obj 45 58 inlet;
#X obj 45 191 outlet;
#X obj 45 121 bang;
#X obj 45 167 soundfiler;
#X obj 229 62 inlet;
#X obj 229 197 f;
#X obj 86 120 loadbang;
#X msg 45 97 set read -resize \$1 p41;
#X connect 0 0 9 0;
#X connect 1 0 5 0;
#X connect 2 0 0 0;
#X connect 4 0 1 0;
#X connect 5 0 3 0;
#X connect 5 0 7 1;
#X connect 6 0 7 0;
#X connect 7 0 3 0;
#X connect 8 0 1 0;
#X connect 9 0 1 0;
#X connect 9 0 4 0;
#X restore 93 86 pd openuno;
#N canvas 11 293 450 300 opendos 0;
#X obj 45 78 openpanel;
#X msg 45 144 read -resize /home/juan/pd-externals/sonidos/bossa1.wav
t2;
#X obj 45 58 inlet;
#X obj 45 193 outlet;
#X obj 45 121 bang;
#X obj 45 170 soundfiler;
#X obj 239 72 inlet;
#X obj 239 207 f;
#X obj 89 120 loadbang;
#X msg 45 97 set read -resize \$1 p42;
#X connect 0 0 9 0;
#X connect 1 0 5 0;
#X connect 2 0 0 0;
#X connect 4 0 1 0;
#X connect 5 0 3 0;
#X connect 5 0 7 1;
#X connect 6 0 7 0;
#X connect 7 0 3 0;
#X connect 8 0 1 0;
#X connect 9 0 1 0;
#X connect 9 0 4 0;
#X restore 160 86 pd opendos;
#N canvas 11 293 450 300 opentres 0;
#X obj 45 78 openpanel;
#X msg 45 144 read -resize /home/juan/pd-externals/sonidos/88beat8.wav
t3;
#X obj 45 58 inlet;
#X obj 45 192 outlet;
#X obj 45 121 bang;
#X obj 45 170 soundfiler;
#X obj 249 82 inlet;
#X obj 249 217 f;
#X obj 81 120 loadbang;
#X msg 45 97 set read -resize \$1 p43;
#X connect 0 0 9 0;
#X connect 1 0 5 0;
#X connect 2 0 0 0;
#X connect 4 0 1 0;
#X connect 5 0 3 0;
#X connect 5 0 7 1;
#X connect 6 0 7 0;
#X connect 7 0 3 0;
#X connect 8 0 1 0;
#X connect 9 0 1 0;
#X connect 9 0 4 0;
#X restore 227 86 pd opentres;
#X obj 76 270 bang;
#X msg 151 229 2;
#X obj 101 42 sel 0 1 2 3;
#N canvas 566 27 659 270 analizador 0;
#X obj 294 29 inlet;
#X obj 30 61 < 0.1;
#X obj 30 81 sel 1;
#X obj 79 62 > 0.1;
#X obj 116 62 < 0.19;
#X obj 79 82 &&;
#X obj 79 101 sel 1;
#X obj 159 82 &&;
#X obj 159 101 sel 1;
#X obj 159 62 > 0.19;
#X obj 202 62 < 0.4;
#X obj 239 82 &&;
#X obj 239 101 sel 1;
#X obj 302 162 outlet;
#X obj 239 62 > 0.4;
#X obj 276 62 < 0.8;
#X obj 313 82 &&;
#X obj 313 101 sel 1;
#X obj 313 62 > 0.8;
#X obj 350 62 < 1.66;
#X obj 393 82 &&;
#X obj 393 101 sel 1;
#X obj 393 62 > 1.66;
#X obj 435 62 < 3;
#X obj 476 82 &&;
#X obj 476 101 sel 1;
#X obj 476 62 > 3;
#X obj 502 62 < 6.66;
#X obj 545 82 &&;
#X obj 545 101 sel 1;
#X obj 545 62 > 6.66;
#X obj 589 62 < 10;
#X msg 30 101 0;
#X msg 79 121 1;
#X msg 159 121 2;
#X msg 239 122 3;
#X msg 313 122 4;
#X msg 393 122 5;
#X msg 476 122 6;
#X msg 545 122 7;
#X connect 0 0 1 0;
#X connect 0 0 3 0;
#X connect 0 0 4 0;
#X connect 0 0 9 0;
#X connect 0 0 10 0;
#X connect 0 0 14 0;
#X connect 0 0 15 0;
#X connect 0 0 18 0;
#X connect 0 0 19 0;
#X connect 0 0 22 0;
#X connect 0 0 23 0;
#X connect 0 0 26 0;
#X connect 0 0 27 0;
#X connect 0 0 30 0;
#X connect 0 0 31 0;
#X connect 1 0 2 0;
#X connect 2 0 32 0;
#X connect 3 0 5 0;
#X connect 4 0 5 1;
#X connect 5 0 6 0;
#X connect 6 0 33 0;
#X connect 7 0 8 0;
#X connect 8 0 34 0;
#X connect 9 0 7 0;
#X connect 10 0 7 1;
#X connect 11 0 12 0;
#X connect 12 0 35 0;
#X connect 14 0 11 0;
#X connect 15 0 11 1;
#X connect 16 0 17 0;
#X connect 17 0 36 0;
#X connect 18 0 16 0;
#X connect 19 0 16 1;
#X connect 20 0 21 0;
#X connect 21 0 37 0;
#X connect 22 0 20 0;
#X connect 23 0 20 1;
#X connect 24 0 25 0;
#X connect 25 0 38 0;
#X connect 26 0 24 0;
#X connect 27 0 24 1;
#X connect 28 0 29 0;
#X connect 29 0 39 0;
#X connect 30 0 28 0;
#X connect 31 0 28 1;
#X connect 32 0 13 0;
#X connect 33 0 13 0;
#X connect 34 0 13 0;
#X connect 35 0 13 0;
#X connect 36 0 13 0;
#X connect 37 0 13 0;
#X connect 38 0 13 0;
#X connect 39 0 13 0;
#X restore 151 190 pd analizador;
#X obj 106 210 loadbang;
#X obj 60 120 + 40;
#X obj 252 242 line~;
#X obj 21 309 *~;
#X msg 251 181 0 10;
#X msg 252 210 1 10;
#X msg 28 269 set p40;
#X obj 73 310 table p40;
#X obj 134 310 table p41;
#X obj 194 310 table p42;
#X obj 259 310 table p43;
#X connect 0 0 1 0;
#X connect 1 0 8 0;
#X connect 2 0 3 0;
#X connect 2 0 5 0;
#X connect 2 0 36 0;
#X connect 2 1 4 0;
#X connect 2 1 35 0;
#X connect 3 0 0 1;
#X connect 4 0 0 0;
#X connect 5 0 7 0;
#X connect 6 0 0 0;
#X connect 7 0 6 0;
#X connect 7 1 6 1;
#X connect 8 0 34 0;
#X connect 9 0 10 0;
#X connect 9 1 10 1;
#X connect 10 0 7 1;
#X connect 11 0 9 1;
#X connect 12 0 37 0;
#X connect 12 0 27 0;
#X connect 13 0 19 0;
#X connect 13 1 24 0;
#X connect 13 2 25 0;
#X connect 13 3 26 0;
#X connect 14 0 29 0;
#X connect 14 0 32 0;
#X connect 15 0 2 0;
#X connect 16 0 30 0;
#X connect 17 0 16 0;
#X connect 17 1 16 1;
#X connect 18 0 17 1;
#X connect 19 0 1 1;
#X connect 19 0 17 0;
#X connect 20 0 11 0;
#X connect 21 0 13 0;
#X connect 22 0 5 1;
#X connect 24 0 1 1;
#X connect 24 0 17 0;
#X connect 25 0 17 0;
#X connect 25 0 1 1;
#X connect 26 0 17 0;
#X connect 26 0 1 1;
#X connect 27 0 37 0;
#X connect 28 0 9 0;
#X connect 29 0 19 1;
#X connect 29 1 24 1;
#X connect 29 2 25 1;
#X connect 29 3 26 1;
#X connect 30 0 11 0;
#X connect 31 0 28 0;
#X connect 32 0 12 0;
#X connect 33 0 34 1;
#X connect 34 0 23 0;
#X connect 35 0 33 0;
#X connect 36 0 33 0;
#X connect 37 0 8 0;
