#N canvas 537 258 578 300 10;
#X obj 51 214 line~;
#X obj 52 275 outlet~;
#X obj 51 98 soundfiler;
#X obj 51 17 openpanel;
#X msg 188 69 read -resize /home/juan/pd-externals/samples/sonidos/tips/laRazon.wav
ts;
#X obj 51 195 pack;
#X obj 51 176 bondo;
#X msg 51 36 set read -resize \$1 ts;
#X obj 52 236 tabread~ ts;
#X obj 197 114 table ts;
#X obj 51 56 bang;
#X obj 51 -3 inlet;
#X obj 86 57 loadbang;
#X obj 183 9 inlet;
#X obj 52 255 *~;
#X obj 126 0 bng 15 250 50 0 empty empty empty 17 7 0 10 -262144 -1
-1;
#X obj 51 138 expr ($f1)*$f2;
#X obj 52 118 r 1f1;
#X floatatom 144 250 5 0 0 0 - 1f2 -;
#X floatatom 168 190 5 0 0 0 - 1f1 -;
#X floatatom 179 220 10 0 0 0 - - -;
#X obj 78 157 expr (($f1/44100)*10000)/76;
#X connect 0 0 8 0;
#X connect 2 0 16 1;
#X connect 2 0 21 0;
#X connect 3 0 7 0;
#X connect 4 0 2 0;
#X connect 5 0 0 0;
#X connect 6 0 5 0;
#X connect 6 1 5 1;
#X connect 7 0 4 0;
#X connect 7 0 10 0;
#X connect 8 0 14 0;
#X connect 10 0 4 0;
#X connect 11 0 3 0;
#X connect 12 0 4 0;
#X connect 13 0 14 1;
#X connect 14 0 1 0;
#X connect 15 0 3 0;
#X connect 16 0 6 0;
#X connect 17 0 16 0;
#X connect 18 0 14 1;
#X connect 21 0 6 1;
#X connect 21 0 20 0;
