#N canvas 0 0 1134 780 10;
#X obj 111 91 cnv 15 220 80 empty empty empty 20 12 0 14 -232576 -66577
0;
#X obj 112 115 tgl 15 0 empty inicio empty 0 -6 0 10 -258113 -1 -1
0 1;
#X obj 109 177 supermegamasterimprovisador;
#X obj 152 115 vsl 10 50 0 100 0 0 empty empty empty 0 -9 0 10 -262144
-1 -1 2700 1;
#X obj 163 115 vsl 10 50 0 100 0 0 empty empty empty 0 -9 0 10 -262144
-1 -1 0 1;
#X obj 174 115 vsl 10 50 0 100 0 0 empty empty empty 0 -9 0 10 -262144
-1 -1 2500 1;
#X obj 185 115 vsl 10 50 0 100 0 0 empty empty empty 0 -9 0 10 -262144
-1 -1 0 1;
#X obj 196 115 vsl 10 50 0 100 0 0 empty empty empty 0 -9 0 10 -262144
-1 -1 2200 1;
#X obj 207 115 vsl 10 50 0 100 0 0 empty empty empty 0 -9 0 10 -262144
-1 -1 0 1;
#X obj 218 115 vsl 10 50 0 100 0 0 empty empty empty 0 -9 0 10 -262144
-1 -1 2400 1;
#X obj 229 115 vsl 10 50 0 100 0 0 empty empty empty 0 -9 0 10 -262144
-1 -1 0 1;
#X obj 240 115 vsl 10 50 0 100 0 0 empty empty empty 0 -9 0 10 -262144
-1 -1 2400 1;
#X obj 251 115 vsl 10 50 0 100 0 0 empty empty empty 0 -9 0 10 -262144
-1 -1 0 1;
#X obj 262 115 vsl 10 50 0 100 0 0 empty empty empty 0 -9 0 10 -262144
-1 -1 2700 1;
#X obj 273 115 vsl 10 50 0 100 0 0 empty empty empty 0 -9 0 10 -262144
-1 -1 0 1;
#X obj 284 115 vsl 10 50 0 100 0 0 empty empty empty 0 -9 0 10 -262144
-1 -1 2500 1;
#X obj 295 115 vsl 10 50 0 100 0 0 empty empty empty 0 -9 0 10 -262144
-1 -1 0 1;
#X obj 306 115 vsl 10 50 0 100 0 0 empty empty empty 0 -9 0 10 -262144
-1 -1 2800 1;
#X obj 317 115 vsl 10 50 0 100 0 0 empty empty empty 0 -9 0 10 -262144
-1 -1 0 1;
#X floatatom 112 132 5 0 0 1 v - -;
#X floatatom 112 151 5 0 0 1 t sectiempo -;
#X obj 200 94 hradio 15 1 0 4 empty empty empty 0 -8 0 10 -262144 -1
-1 0;
#X obj 267 94 hradio 15 1 0 4 empty empty empty 0 -8 0 10 -262144 -1
-1 0;
#X obj 53 633 *~;
#X obj 120 94 hsl 70 15 0 1 0 0 empty empty empty -2 -8 0 10 -262144
-1 -1 6900 1;
#X obj 115 66 unpack f f f f f f f f f f f f f f f f f f f;
#X obj 117 40 r selecciones;
#X obj 197 496 osc~;
#X obj 146 387 line~;
#X obj 195 523 *~;
#X obj 246 495 line~;
#X msg 270 444 0;
#X obj 249 339 t b;
#X obj 50 714 dac~;
#X obj 388 320 t b f;
#X floatatom 366 203 5 0 0 0 - - -;
#X msg 388 364 addcomma;
#X msg 388 403 84 \, 77 474;
#X msg 415 384 set \$1;
#X obj 388 280 pack a a a;
#X obj 388 260 bondo 3;
#X msg 388 343 add2 \$2 \$3;
#X msg 388 300 \$1;
#X floatatom 407 199 5 0 0 0 - - -;
#X floatatom 446 205 5 0 0 0 - - -;
#X obj 516 321 t b f;
#X floatatom 494 204 5 0 0 0 - - -;
#X msg 516 365 addcomma;
#X msg 543 385 set \$1;
#X obj 516 281 pack a a a;
#X obj 516 261 bondo 3;
#X msg 516 344 add2 \$2 \$3;
#X msg 516 301 \$1;
#X floatatom 535 200 5 0 0 0 - - -;
#X floatatom 574 206 5 0 0 0 - - -;
#X msg 516 404 393 \, 268.06 308;
#X obj 52 661 clip~ 1 -1;
#X floatatom 129 635 5 0 0 0 - - -;
#X floatatom 84 631 5 0 0 0 - - -;
#X obj 206 253 random 24;
#X obj 118 690 *~;
#X obj 186 664 metro;
#X obj 154 686 tgl 15 0 empty empty empty 17 7 0 10 -262144 -1 -1 0
1;
#X floatatom 271 637 5 0 0 0 - - -;
#X obj 195 638 tgl 15 0 empty empty empty 17 7 0 10 -262144 -1 -1 0
1;
#X obj 228 611 * 2;
#X obj 218 293 + 60;
#X obj 156 498 osc~;
#X obj 138 414 ftom~;
#X obj 139 438 +~ 7;
#X obj 138 462 mtof~;
#X obj 130 741 grabador;
#X floatatom 201 703 5 0 0 0 - - -;
#X obj 132 718 bng 15 250 50 0 empty empty empty 17 7 0 10 -262144
-1 -1;
#X connect 1 0 2 0;
#X connect 1 0 64 0;
#X connect 2 0 32 0;
#X connect 2 2 59 0;
#X connect 3 0 2 2;
#X connect 4 0 2 3;
#X connect 5 0 2 4;
#X connect 6 0 2 5;
#X connect 7 0 2 6;
#X connect 8 0 2 7;
#X connect 9 0 2 8;
#X connect 10 0 2 9;
#X connect 11 0 2 10;
#X connect 12 0 2 11;
#X connect 13 0 2 12;
#X connect 14 0 2 13;
#X connect 15 0 2 14;
#X connect 16 0 2 15;
#X connect 17 0 2 16;
#X connect 18 0 2 17;
#X connect 20 0 2 1;
#X connect 20 0 65 0;
#X connect 23 0 56 0;
#X connect 24 0 23 1;
#X connect 25 0 24 0;
#X connect 25 1 22 0;
#X connect 25 2 19 0;
#X connect 25 3 3 0;
#X connect 25 4 4 0;
#X connect 25 5 5 0;
#X connect 25 6 6 0;
#X connect 25 7 7 0;
#X connect 25 8 8 0;
#X connect 25 9 9 0;
#X connect 25 10 10 0;
#X connect 25 11 11 0;
#X connect 25 12 12 0;
#X connect 25 13 13 0;
#X connect 25 14 14 0;
#X connect 25 15 15 0;
#X connect 25 16 16 0;
#X connect 25 17 17 0;
#X connect 25 18 18 0;
#X connect 26 0 25 0;
#X connect 27 0 29 0;
#X connect 28 0 68 0;
#X connect 28 0 27 0;
#X connect 29 0 23 0;
#X connect 30 0 29 1;
#X connect 31 0 27 1;
#X connect 32 0 31 0;
#X connect 32 0 37 0;
#X connect 32 0 55 0;
#X connect 34 0 36 0;
#X connect 34 1 38 0;
#X connect 35 0 40 0;
#X connect 36 0 37 0;
#X connect 37 0 28 0;
#X connect 38 0 37 0;
#X connect 39 0 42 0;
#X connect 39 0 41 0;
#X connect 40 0 39 0;
#X connect 40 1 39 1;
#X connect 40 2 39 2;
#X connect 41 0 37 0;
#X connect 42 0 34 0;
#X connect 43 0 40 1;
#X connect 44 0 40 2;
#X connect 45 0 47 0;
#X connect 45 1 48 0;
#X connect 46 0 50 0;
#X connect 47 0 55 0;
#X connect 48 0 55 0;
#X connect 49 0 52 0;
#X connect 49 0 51 0;
#X connect 50 0 49 0;
#X connect 50 1 49 1;
#X connect 50 2 49 2;
#X connect 51 0 55 0;
#X connect 52 0 45 0;
#X connect 53 0 50 1;
#X connect 54 0 50 2;
#X connect 55 0 30 0;
#X connect 56 0 60 0;
#X connect 57 0 56 2;
#X connect 58 0 56 1;
#X connect 59 0 66 0;
#X connect 60 0 33 0;
#X connect 60 0 71 2;
#X connect 61 0 62 0;
#X connect 62 0 60 1;
#X connect 63 0 61 1;
#X connect 64 0 61 0;
#X connect 65 0 63 0;
#X connect 66 0 43 0;
#X connect 67 0 29 0;
#X connect 68 0 69 0;
#X connect 69 0 70 0;
#X connect 70 0 67 0;
#X connect 72 0 71 1;
#X connect 73 0 71 0;
