#N canvas 494 366 467 424 10;
#X floatatom 318 365 5 0 0 0 - - sectiempo;
#X obj 394 297 tgl 60 0 inicio empty empty 17 7 0 10 -262144 -1 -1
1 1;
#X obj 14 367 *~;
#X obj 14 388 outlet~;
#X obj 318 324 r tiempos;
#X floatatom 344 345 5 0 0 0 - divisorSeccionador -;
#X obj 29 344 inlet;
#X obj 318 344 / 4;
#X obj 394 278 r sb8;
#X obj 355 364 s cambioDeTiempo;
#X obj 312 76 mandado1;
#X obj 293 157 mandado2;
#X obj 317 238 mandado3;
#X obj 257 329 mandado4;
#N canvas 666 291 450 338 cuchara 1;
#X obj 7 314 outlet;
#X obj 57 314 outlet;
#X obj 107 314 outlet;
#X obj 157 314 outlet;
#X obj 7 293 route 1 2 3 4, f 34;
#X obj 227 314 outlet;
#X obj 277 314 outlet;
#X obj 327 314 outlet;
#X obj 377 314 outlet;
#X obj 227 293 route 1 2 3 4, f 34;
#X obj 227 273 spigot;
#X msg 7 252 1 \$1 \, 2 \$2 \, 3 \$3 \, 4 \$4;
#X msg 7 232 0 0 0 0;
#X msg 7 212 set \$1 \$2 \$3 \$4;
#X obj 7 191 pack 0 0 0 0;
#X obj 7 170 bondo 4, f 12;
#X obj 7 47 vradio 15 1 0 8 empty empty empty 0 -8 0 10 -262144 -1
-1 0;
#X obj 27 47 vradio 15 1 0 8 empty empty empty 0 -8 0 10 -262144 -1
-1 0;
#X obj 47 47 vradio 15 1 0 8 empty empty empty 0 -8 0 10 -262144 -1
-1 0;
#X obj 67 47 vradio 15 1 0 8 empty empty empty 0 -8 0 10 -262144 -1
-1 0;
#X obj 7 273 spigot;
#X obj 85 192 tgl 15 0 empty empty empty 17 7 0 10 -262144 -1 -1 0
1;
#X obj 167 240 expr abs($f1-1) \; $f1+0;
#X obj 86 232 t b;
#X obj 118 225 == 1;
#X obj 85 277 spigot;
#X obj 60 232 t b;
#X obj 7 6 r elbambino;
#X obj 7 27 unpack f f f f;
#X obj 86 151 loadbang;
#X msg 86 171 0;
#X connect 4 0 0 0;
#X connect 4 1 1 0;
#X connect 4 2 2 0;
#X connect 4 3 3 0;
#X connect 9 0 5 0;
#X connect 9 1 6 0;
#X connect 9 2 7 0;
#X connect 9 3 8 0;
#X connect 10 0 9 0;
#X connect 11 0 10 0;
#X connect 11 0 20 0;
#X connect 12 0 11 0;
#X connect 12 0 23 0;
#X connect 13 0 12 0;
#X connect 13 0 26 0;
#X connect 14 0 13 0;
#X connect 15 0 14 0;
#X connect 15 1 14 1;
#X connect 15 2 14 2;
#X connect 15 3 14 3;
#X connect 16 0 15 0;
#X connect 17 0 15 1;
#X connect 18 0 15 2;
#X connect 19 0 15 3;
#X connect 20 0 4 0;
#X connect 21 0 22 0;
#X connect 21 0 24 0;
#X connect 22 0 20 1;
#X connect 22 1 10 1;
#X connect 23 0 25 0;
#X connect 24 0 25 1;
#X connect 25 0 21 0;
#X connect 26 0 12 0;
#X connect 27 0 28 0;
#X connect 28 0 16 0;
#X connect 28 1 17 0;
#X connect 28 2 18 0;
#X connect 28 3 19 0;
#X connect 29 0 30 0;
#X connect 29 0 19 0;
#X connect 30 0 21 0;
#X restore 375 14 pd cuchara;
#X f 12;
#X obj 13 158 repro2, f 33;
#X obj 13 118 control2, f 46;
#X obj 13 75 repro1, f 33;
#X obj 13 35 control1, f 46;
#X obj 13 201 control3, f 46;
#X obj 13 241 repro3, f 33;
#X obj 14 282 control4, f 45;
#X obj 13 322 repro4, f 33;
#N canvas 0 96 566 679 memoria 0;
#X obj 20 39 route 0 1 2 3 4 5 6 7;
#X msg 20 96 0.832824 109.678 2 100 0 0 0 0 0 0 0 100 0 0 0 0 0 0 0
0 0 0 0 0 0 0 0 0;
#X msg 30 166 1 58 2 100 100 100 0 100 100 0 0 100 100 100 100 100
100 100 0 0 0 0 0 0 0 0 0 0;
#X msg 40 236 1 58 2 100 0 0 0 100 0 0 0 100 0 0 0 100 0 0 0 0 0 0
0 0 0 0 0 0;
#X msg 50 306 0.347826 454.754 69 100 100 100 0 100 100 0 0 100 100
100 100 100 100 100 0 0 0 0 0 0 0 0 0 0;
#X msg 80 516 0.347826 0 69 100 100 100 0 100 100 0 0 100 100 100 100
100 100 100 0 0 0 0 0 0 0 0 0 0;
#X msg 90 586 1 58 2 100 0 0 0 100 0 0 0 100 0 0 0 100 0 0 0 0 0 0
0 0 0 0 0 0;
#X obj 191 37 sel 0 1 2 3 4 5 6 7;
#X msg 20 61 set \$1 \$2 \$3 \$4 \$5 \$6 \$7 \$8 \$9 \$10 \$11 \$12
\$13 \$14 \$15 \$16 \$17 \$18 \$19 \$20 \$21 \$22 \$23 \$24 \$25 \$26
\$27 \$28;
#X msg 30 131 set \$1 \$2 \$3 \$4 \$5 \$6 \$7 \$8 \$9 \$10 \$11 \$12
\$13 \$14 \$15 \$16 \$17 \$18 \$19 \$20 \$21 \$22 \$23 \$24 \$25 \$26
\$27 \$28;
#X msg 40 201 set \$1 \$2 \$3 \$4 \$5 \$6 \$7 \$8 \$9 \$10 \$11 \$12
\$13 \$14 \$15 \$16 \$17 \$18 \$19 \$20 \$21 \$22 \$23 \$24 \$25 \$26
\$27 \$28;
#X msg 50 271 set \$1 \$2 \$3 \$4 \$5 \$6 \$7 \$8 \$9 \$10 \$11 \$12
\$13 \$14 \$15 \$16 \$17 \$18 \$19 \$20 \$21 \$22 \$23 \$24 \$25 \$26
\$27 \$28;
#X msg 60 341 set \$1 \$2 \$3 \$4 \$5 \$6 \$7 \$8 \$9 \$10 \$11 \$12
\$13 \$14 \$15 \$16 \$17 \$18 \$19 \$20 \$21 \$22 \$23 \$24 \$25 \$26
\$27 \$28;
#X msg 60 376 0.347826 0 69 100 100 100 0 100 100 0 0 100 100 100 100
100 100 100 0 0 0 0 0 0 0 0 0 0;
#X msg 70 446 0.347826 0 69 100 100 100 0 100 100 0 0 100 100 100 100
100 100 100 0 0 0 0 0 0 0 0 0 0;
#X msg 70 411 set \$1 \$2 \$3 \$4 \$5 \$6 \$7 \$8 \$9 \$10 \$11 \$12
\$13 \$14 \$15 \$16 \$17 \$18 \$19 \$20 \$21 \$22 \$23 \$24 \$25 \$26
\$27 \$28;
#X msg 80 481 set \$1 \$2 \$3 \$4 \$5 \$6 \$7 \$8 \$9 \$10 \$11 \$12
\$13 \$14 \$15 \$16 \$17 \$18 \$19 \$20 \$21 \$22 \$23 \$24 \$25 \$26
\$27 \$28;
#X msg 90 551 set \$1 \$2 \$3 \$4 \$5 \$6 \$7 \$8 \$9 \$10 \$11 \$12
\$13 \$14 \$15 \$16 \$17 \$18 \$19 \$20 \$21 \$22 \$23 \$24 \$25 \$26
\$27 \$28;
#X obj 20 19 inlet;
#X obj 191 16 inlet;
#X obj 169 646 outlet;
#X connect 0 0 8 0;
#X connect 0 1 9 0;
#X connect 0 2 10 0;
#X connect 0 3 11 0;
#X connect 0 4 12 0;
#X connect 0 5 15 0;
#X connect 0 6 16 0;
#X connect 0 7 17 0;
#X connect 1 0 20 0;
#X connect 2 0 20 0;
#X connect 3 0 20 0;
#X connect 4 0 20 0;
#X connect 5 0 20 0;
#X connect 6 0 20 0;
#X connect 7 0 1 0;
#X connect 7 1 2 0;
#X connect 7 2 3 0;
#X connect 7 3 4 0;
#X connect 7 4 13 0;
#X connect 7 5 14 0;
#X connect 7 6 5 0;
#X connect 7 7 6 0;
#X connect 8 0 1 0;
#X connect 9 0 2 0;
#X connect 10 0 3 0;
#X connect 11 0 4 0;
#X connect 12 0 13 0;
#X connect 13 0 20 0;
#X connect 14 0 20 0;
#X connect 15 0 14 0;
#X connect 16 0 5 0;
#X connect 17 0 6 0;
#X connect 18 0 0 0;
#X connect 19 0 7 0;
#X restore 293 15 pd memoria;
#N canvas 0 96 450 300 memoria 0;
#X obj 20 39 route 0 1 2 3 4 5 6 7;
#X msg 20 96 0.498845 144.21 0 0 0 0 0 0 0 100 0 0 0 0 0 100 0 0 0
0 0 0 0 0 0 0 0 0;
#X msg 30 166 1 58 2 100 100 100 0 100 100 0 0 100 100 100 100 100
100 100 0 0 0 0 0 0 0 0 0 0;
#X msg 40 236 1 58 2 100 0 0 0 100 0 0 0 100 0 0 0 100 0 0 0 0 0 0
0 0 0 0 0 0;
#X msg 50 306 0.347826 454.754 69 100 100 100 0 100 100 0 0 100 100
100 100 100 100 100 0 0 0 0 0 0 0 0 0 0;
#X msg 80 516 0.347826 0 69 100 100 100 0 100 100 0 0 100 100 100 100
100 100 100 0 0 0 0 0 0 0 0 0 0;
#X msg 90 586 0 0 0 0 0 0 0 0 0 0 0 0 0 0 0 0 0 0 0 0 0 0 0 0 0 0 0
0;
#X obj 191 37 sel 0 1 2 3 4 5 6 7;
#X msg 20 61 set \$1 \$2 \$3 \$4 \$5 \$6 \$7 \$8 \$9 \$10 \$11 \$12
\$13 \$14 \$15 \$16 \$17 \$18 \$19 \$20 \$21 \$22 \$23 \$24 \$25 \$26
\$27 \$28;
#X msg 30 131 set \$1 \$2 \$3 \$4 \$5 \$6 \$7 \$8 \$9 \$10 \$11 \$12
\$13 \$14 \$15 \$16 \$17 \$18 \$19 \$20 \$21 \$22 \$23 \$24 \$25 \$26
\$27 \$28;
#X msg 40 201 set \$1 \$2 \$3 \$4 \$5 \$6 \$7 \$8 \$9 \$10 \$11 \$12
\$13 \$14 \$15 \$16 \$17 \$18 \$19 \$20 \$21 \$22 \$23 \$24 \$25 \$26
\$27 \$28;
#X msg 50 271 set \$1 \$2 \$3 \$4 \$5 \$6 \$7 \$8 \$9 \$10 \$11 \$12
\$13 \$14 \$15 \$16 \$17 \$18 \$19 \$20 \$21 \$22 \$23 \$24 \$25 \$26
\$27 \$28;
#X msg 60 341 set \$1 \$2 \$3 \$4 \$5 \$6 \$7 \$8 \$9 \$10 \$11 \$12
\$13 \$14 \$15 \$16 \$17 \$18 \$19 \$20 \$21 \$22 \$23 \$24 \$25 \$26
\$27 \$28;
#X msg 60 376 0.347826 0 69 100 100 100 0 100 100 0 0 100 100 100 100
100 100 100 0 0 0 0 0 0 0 0 0 0;
#X msg 70 446 0.347826 0 69 100 100 100 0 100 100 0 0 100 100 100 100
100 100 100 0 0 0 0 0 0 0 0 0 0;
#X msg 70 411 set \$1 \$2 \$3 \$4 \$5 \$6 \$7 \$8 \$9 \$10 \$11 \$12
\$13 \$14 \$15 \$16 \$17 \$18 \$19 \$20 \$21 \$22 \$23 \$24 \$25 \$26
\$27 \$28;
#X msg 80 481 set \$1 \$2 \$3 \$4 \$5 \$6 \$7 \$8 \$9 \$10 \$11 \$12
\$13 \$14 \$15 \$16 \$17 \$18 \$19 \$20 \$21 \$22 \$23 \$24 \$25 \$26
\$27 \$28;
#X msg 90 551 set \$1 \$2 \$3 \$4 \$5 \$6 \$7 \$8 \$9 \$10 \$11 \$12
\$13 \$14 \$15 \$16 \$17 \$18 \$19 \$20 \$21 \$22 \$23 \$24 \$25 \$26
\$27 \$28;
#X obj 20 19 inlet;
#X obj 191 16 inlet;
#X obj 169 646 outlet;
#X connect 0 0 8 0;
#X connect 0 1 9 0;
#X connect 0 2 10 0;
#X connect 0 3 11 0;
#X connect 0 4 12 0;
#X connect 0 5 15 0;
#X connect 0 6 16 0;
#X connect 0 7 17 0;
#X connect 1 0 20 0;
#X connect 2 0 20 0;
#X connect 3 0 20 0;
#X connect 4 0 20 0;
#X connect 5 0 20 0;
#X connect 6 0 20 0;
#X connect 7 0 1 0;
#X connect 7 1 2 0;
#X connect 7 2 3 0;
#X connect 7 3 4 0;
#X connect 7 4 13 0;
#X connect 7 5 14 0;
#X connect 7 6 5 0;
#X connect 7 7 6 0;
#X connect 8 0 1 0;
#X connect 9 0 2 0;
#X connect 10 0 3 0;
#X connect 11 0 4 0;
#X connect 12 0 13 0;
#X connect 13 0 20 0;
#X connect 14 0 20 0;
#X connect 15 0 14 0;
#X connect 16 0 5 0;
#X connect 17 0 6 0;
#X connect 18 0 0 0;
#X connect 19 0 7 0;
#X restore 293 96 pd memoria;
#N canvas 0 96 450 300 memoria 0;
#X obj 20 39 route 0 1 2 3 4 5 6 7;
#X msg 20 96 0.594999 80.922 2 100 0 100 0 100 0 0 0 100 0 100 0 100
0 0 0 0 0 0 0 0 0 0 0 0;
#X msg 30 166 1 58 2 100 100 100 0 100 100 0 0 100 100 100 100 100
100 100 0 0 0 0 0 0 0 0 0 0;
#X msg 40 236 1 58 2 100 0 0 0 100 0 0 0 100 0 0 0 100 0 0 0 0 0 0
0 0 0 0 0 0;
#X msg 50 306 0.347826 454.754 69 100 100 100 0 100 100 0 0 100 100
100 100 100 100 100 0 0 0 0 0 0 0 0 0 0;
#X msg 80 516 0.347826 0 69 100 100 100 0 100 100 0 0 100 100 100 100
100 100 100 0 0 0 0 0 0 0 0 0 0;
#X msg 90 586 0 0 0 0 0 0 0 0 0 0 0 0 0 0 0 0 0 0 0 0 0 0 0 0 0 0 0
0;
#X obj 191 37 sel 0 1 2 3 4 5 6 7;
#X msg 20 61 set \$1 \$2 \$3 \$4 \$5 \$6 \$7 \$8 \$9 \$10 \$11 \$12
\$13 \$14 \$15 \$16 \$17 \$18 \$19 \$20 \$21 \$22 \$23 \$24 \$25 \$26
\$27 \$28;
#X msg 30 131 set \$1 \$2 \$3 \$4 \$5 \$6 \$7 \$8 \$9 \$10 \$11 \$12
\$13 \$14 \$15 \$16 \$17 \$18 \$19 \$20 \$21 \$22 \$23 \$24 \$25 \$26
\$27 \$28;
#X msg 40 201 set \$1 \$2 \$3 \$4 \$5 \$6 \$7 \$8 \$9 \$10 \$11 \$12
\$13 \$14 \$15 \$16 \$17 \$18 \$19 \$20 \$21 \$22 \$23 \$24 \$25 \$26
\$27 \$28;
#X msg 50 271 set \$1 \$2 \$3 \$4 \$5 \$6 \$7 \$8 \$9 \$10 \$11 \$12
\$13 \$14 \$15 \$16 \$17 \$18 \$19 \$20 \$21 \$22 \$23 \$24 \$25 \$26
\$27 \$28;
#X msg 60 341 set \$1 \$2 \$3 \$4 \$5 \$6 \$7 \$8 \$9 \$10 \$11 \$12
\$13 \$14 \$15 \$16 \$17 \$18 \$19 \$20 \$21 \$22 \$23 \$24 \$25 \$26
\$27 \$28;
#X msg 60 376 0.347826 0 69 100 100 100 0 100 100 0 0 100 100 100 100
100 100 100 0 0 0 0 0 0 0 0 0 0;
#X msg 70 446 0.347826 0 69 100 100 100 0 100 100 0 0 100 100 100 100
100 100 100 0 0 0 0 0 0 0 0 0 0;
#X msg 70 411 set \$1 \$2 \$3 \$4 \$5 \$6 \$7 \$8 \$9 \$10 \$11 \$12
\$13 \$14 \$15 \$16 \$17 \$18 \$19 \$20 \$21 \$22 \$23 \$24 \$25 \$26
\$27 \$28;
#X msg 80 481 set \$1 \$2 \$3 \$4 \$5 \$6 \$7 \$8 \$9 \$10 \$11 \$12
\$13 \$14 \$15 \$16 \$17 \$18 \$19 \$20 \$21 \$22 \$23 \$24 \$25 \$26
\$27 \$28;
#X msg 90 551 set \$1 \$2 \$3 \$4 \$5 \$6 \$7 \$8 \$9 \$10 \$11 \$12
\$13 \$14 \$15 \$16 \$17 \$18 \$19 \$20 \$21 \$22 \$23 \$24 \$25 \$26
\$27 \$28;
#X obj 20 19 inlet;
#X obj 191 16 inlet;
#X obj 169 646 outlet;
#X connect 0 0 8 0;
#X connect 0 1 9 0;
#X connect 0 2 10 0;
#X connect 0 3 11 0;
#X connect 0 4 12 0;
#X connect 0 5 15 0;
#X connect 0 6 16 0;
#X connect 0 7 17 0;
#X connect 1 0 20 0;
#X connect 2 0 20 0;
#X connect 3 0 20 0;
#X connect 4 0 20 0;
#X connect 5 0 20 0;
#X connect 6 0 20 0;
#X connect 7 0 1 0;
#X connect 7 1 2 0;
#X connect 7 2 3 0;
#X connect 7 3 4 0;
#X connect 7 4 13 0;
#X connect 7 5 14 0;
#X connect 7 6 5 0;
#X connect 7 7 6 0;
#X connect 8 0 1 0;
#X connect 9 0 2 0;
#X connect 10 0 3 0;
#X connect 11 0 4 0;
#X connect 12 0 13 0;
#X connect 13 0 20 0;
#X connect 14 0 20 0;
#X connect 15 0 14 0;
#X connect 16 0 5 0;
#X connect 17 0 6 0;
#X connect 18 0 0 0;
#X connect 19 0 7 0;
#X restore 292 179 pd memoria;
#N canvas 0 96 450 300 memoria 0;
#X obj 20 39 route 0 1 2 3 4 5 6 7;
#X msg 20 96 0.756141 109.678 3 0 0 0 0 0 0 0 0 0 0 0 100 0 0 100 0
0 0 0 0 0 0 0 0 0;
#X msg 30 166 1 58 2 100 100 100 0 100 100 0 0 100 100 100 100 100
100 100 0 0 0 0 0 0 0 0 0 0;
#X msg 40 236 1 58 2 100 0 0 0 100 0 0 0 100 0 0 0 100 0 0 0 0 0 0
0 0 0 0 0 0;
#X msg 50 306 0.347826 454.754 69 100 100 100 0 100 100 0 0 100 100
100 100 100 100 100 0 0 0 0 0 0 0 0 0 0;
#X msg 80 516 0.347826 0 69 100 100 100 0 100 100 0 0 100 100 100 100
100 100 100 0 0 0 0 0 0 0 0 0 0;
#X msg 90 586 0 0 0 0 0 0 0 0 0 0 0 0 0 0 0 0 0 0 0 0 0 0 0 0 0 0 0
0;
#X obj 191 37 sel 0 1 2 3 4 5 6 7;
#X msg 20 61 set \$1 \$2 \$3 \$4 \$5 \$6 \$7 \$8 \$9 \$10 \$11 \$12
\$13 \$14 \$15 \$16 \$17 \$18 \$19 \$20 \$21 \$22 \$23 \$24 \$25 \$26
\$27 \$28;
#X msg 30 131 set \$1 \$2 \$3 \$4 \$5 \$6 \$7 \$8 \$9 \$10 \$11 \$12
\$13 \$14 \$15 \$16 \$17 \$18 \$19 \$20 \$21 \$22 \$23 \$24 \$25 \$26
\$27 \$28;
#X msg 40 201 set \$1 \$2 \$3 \$4 \$5 \$6 \$7 \$8 \$9 \$10 \$11 \$12
\$13 \$14 \$15 \$16 \$17 \$18 \$19 \$20 \$21 \$22 \$23 \$24 \$25 \$26
\$27 \$28;
#X msg 50 271 set \$1 \$2 \$3 \$4 \$5 \$6 \$7 \$8 \$9 \$10 \$11 \$12
\$13 \$14 \$15 \$16 \$17 \$18 \$19 \$20 \$21 \$22 \$23 \$24 \$25 \$26
\$27 \$28;
#X msg 60 341 set \$1 \$2 \$3 \$4 \$5 \$6 \$7 \$8 \$9 \$10 \$11 \$12
\$13 \$14 \$15 \$16 \$17 \$18 \$19 \$20 \$21 \$22 \$23 \$24 \$25 \$26
\$27 \$28;
#X msg 60 376 0.347826 0 69 100 100 100 0 100 100 0 0 100 100 100 100
100 100 100 0 0 0 0 0 0 0 0 0 0;
#X msg 70 446 0.347826 0 69 100 100 100 0 100 100 0 0 100 100 100 100
100 100 100 0 0 0 0 0 0 0 0 0 0;
#X msg 70 411 set \$1 \$2 \$3 \$4 \$5 \$6 \$7 \$8 \$9 \$10 \$11 \$12
\$13 \$14 \$15 \$16 \$17 \$18 \$19 \$20 \$21 \$22 \$23 \$24 \$25 \$26
\$27 \$28;
#X msg 80 481 set \$1 \$2 \$3 \$4 \$5 \$6 \$7 \$8 \$9 \$10 \$11 \$12
\$13 \$14 \$15 \$16 \$17 \$18 \$19 \$20 \$21 \$22 \$23 \$24 \$25 \$26
\$27 \$28;
#X msg 90 551 set \$1 \$2 \$3 \$4 \$5 \$6 \$7 \$8 \$9 \$10 \$11 \$12
\$13 \$14 \$15 \$16 \$17 \$18 \$19 \$20 \$21 \$22 \$23 \$24 \$25 \$26
\$27 \$28;
#X obj 20 19 inlet;
#X obj 191 16 inlet;
#X obj 169 646 outlet;
#X connect 0 0 8 0;
#X connect 0 1 9 0;
#X connect 0 2 10 0;
#X connect 0 3 11 0;
#X connect 0 4 12 0;
#X connect 0 5 15 0;
#X connect 0 6 16 0;
#X connect 0 7 17 0;
#X connect 1 0 20 0;
#X connect 2 0 20 0;
#X connect 3 0 20 0;
#X connect 4 0 20 0;
#X connect 5 0 20 0;
#X connect 6 0 20 0;
#X connect 7 0 1 0;
#X connect 7 1 2 0;
#X connect 7 2 3 0;
#X connect 7 3 4 0;
#X connect 7 4 13 0;
#X connect 7 5 14 0;
#X connect 7 6 5 0;
#X connect 7 7 6 0;
#X connect 8 0 1 0;
#X connect 9 0 2 0;
#X connect 10 0 3 0;
#X connect 11 0 4 0;
#X connect 12 0 13 0;
#X connect 13 0 20 0;
#X connect 14 0 20 0;
#X connect 15 0 14 0;
#X connect 16 0 5 0;
#X connect 17 0 6 0;
#X connect 18 0 0 0;
#X connect 19 0 7 0;
#X restore 290 261 pd memoria;
#X obj 13 55 pad bombo, f 52;
#X obj 70 390 hradio 16 1 0 24 metrica empty empty 0 -8 0 10 -262144
-1 -1 16;
#X msg 70 370 16;
#X obj 70 350 loadbang;
#X obj 13 138 pad caja, f 49;
#X obj 13 221 pad laures, f 49;
#X obj 13 302 pad tambores, f 49;
#X connect 2 0 3 0;
#X connect 4 0 7 0;
#X connect 5 0 7 1;
#X connect 6 0 2 1;
#X connect 7 0 0 0;
#X connect 7 0 9 0;
#X connect 8 0 1 0;
#X connect 14 0 23 1;
#X connect 14 1 24 1;
#X connect 14 2 25 1;
#X connect 14 3 26 1;
#X connect 14 4 27 28;
#X connect 14 5 31 28;
#X connect 14 6 32 28;
#X connect 14 7 33 28;
#X connect 15 0 2 0;
#X connect 16 0 31 0;
#X connect 16 1 31 1;
#X connect 16 2 31 2;
#X connect 16 3 31 3;
#X connect 16 4 31 4;
#X connect 16 5 31 5;
#X connect 16 6 31 6;
#X connect 16 7 31 7;
#X connect 16 8 31 8;
#X connect 16 9 31 9;
#X connect 16 10 31 10;
#X connect 16 11 31 11;
#X connect 16 12 31 12;
#X connect 16 13 31 13;
#X connect 16 14 31 14;
#X connect 16 15 31 15;
#X connect 16 16 31 16;
#X connect 16 17 31 17;
#X connect 16 18 31 18;
#X connect 16 19 31 19;
#X connect 16 20 31 20;
#X connect 16 21 31 21;
#X connect 16 22 31 22;
#X connect 16 23 31 23;
#X connect 16 24 31 24;
#X connect 16 25 31 25;
#X connect 16 26 31 26;
#X connect 17 0 2 0;
#X connect 18 0 27 0;
#X connect 18 1 27 1;
#X connect 18 2 27 2;
#X connect 18 3 27 3;
#X connect 18 4 27 4;
#X connect 18 5 27 5;
#X connect 18 6 27 6;
#X connect 18 7 27 7;
#X connect 18 8 27 8;
#X connect 18 9 27 9;
#X connect 18 10 27 10;
#X connect 18 11 27 11;
#X connect 18 12 27 12;
#X connect 18 13 27 13;
#X connect 18 14 27 14;
#X connect 18 15 27 15;
#X connect 18 16 27 16;
#X connect 18 17 27 17;
#X connect 18 18 27 18;
#X connect 18 19 27 19;
#X connect 18 20 27 20;
#X connect 18 21 27 21;
#X connect 18 22 27 22;
#X connect 18 23 27 23;
#X connect 18 24 27 24;
#X connect 18 25 27 25;
#X connect 18 26 27 26;
#X connect 19 0 32 0;
#X connect 19 1 32 1;
#X connect 19 2 32 2;
#X connect 19 3 32 3;
#X connect 19 4 32 4;
#X connect 19 5 32 5;
#X connect 19 6 32 6;
#X connect 19 7 32 7;
#X connect 19 8 32 8;
#X connect 19 9 32 9;
#X connect 19 10 32 10;
#X connect 19 11 32 11;
#X connect 19 12 32 12;
#X connect 19 13 32 13;
#X connect 19 14 32 14;
#X connect 19 15 32 15;
#X connect 19 16 32 16;
#X connect 19 17 32 17;
#X connect 19 18 32 18;
#X connect 19 19 32 19;
#X connect 19 20 32 20;
#X connect 19 21 32 21;
#X connect 19 22 32 22;
#X connect 19 23 32 23;
#X connect 19 24 32 24;
#X connect 19 25 32 25;
#X connect 19 26 32 26;
#X connect 20 0 2 0;
#X connect 21 0 33 0;
#X connect 21 1 33 1;
#X connect 21 2 33 2;
#X connect 21 3 33 3;
#X connect 21 4 33 4;
#X connect 21 5 33 5;
#X connect 21 6 33 6;
#X connect 21 7 33 7;
#X connect 21 8 33 8;
#X connect 21 9 33 9;
#X connect 21 10 33 10;
#X connect 21 11 33 11;
#X connect 21 12 33 12;
#X connect 21 13 33 13;
#X connect 21 14 33 14;
#X connect 21 15 33 15;
#X connect 21 16 33 16;
#X connect 21 17 33 17;
#X connect 21 18 33 18;
#X connect 21 19 33 19;
#X connect 21 20 33 20;
#X connect 21 21 33 21;
#X connect 21 22 33 22;
#X connect 21 23 33 23;
#X connect 21 24 33 24;
#X connect 21 25 33 25;
#X connect 21 26 33 26;
#X connect 22 0 2 0;
#X connect 23 0 27 27;
#X connect 23 0 10 0;
#X connect 24 0 31 27;
#X connect 24 0 11 0;
#X connect 25 0 32 27;
#X connect 25 0 12 0;
#X connect 26 0 33 27;
#X connect 26 0 13 0;
#X connect 27 0 17 0;
#X connect 27 1 17 1;
#X connect 27 2 17 2;
#X connect 27 3 17 3;
#X connect 27 4 17 4;
#X connect 27 5 23 0;
#X connect 29 0 28 0;
#X connect 30 0 29 0;
#X connect 31 0 15 0;
#X connect 31 1 15 1;
#X connect 31 2 15 2;
#X connect 31 3 15 3;
#X connect 31 4 15 4;
#X connect 31 5 24 0;
#X connect 32 0 20 0;
#X connect 32 1 20 1;
#X connect 32 2 20 2;
#X connect 32 3 20 3;
#X connect 32 4 20 4;
#X connect 32 5 25 0;
#X connect 33 0 22 0;
#X connect 33 1 22 1;
#X connect 33 2 22 2;
#X connect 33 3 22 3;
#X connect 33 4 22 4;
#X connect 33 5 26 0;
