#N canvas 208 252 944 449 10;
#X obj 144 165 bondo;
#X obj 144 184 pow 2 0;
#X obj 171 128 - 4;
#X msg 17 217 set r7;
#X obj 90 -53 inlet;
#X obj 144 87 /;
#X obj 144 67 bondo;
#X obj 171 -59 inlet;
#N canvas 8 421 450 300 opencero 0;
#X obj 35 68 openpanel;
#X obj 35 48 inlet;
#X obj 35 217 outlet;
#X obj 35 111 bang;
#X msg 35 134 read -resize /home/juan/Pd/samples/loops/88BEAT13.wav
r0;
#X obj 219 52 inlet;
#X obj 35 170 soundfiler;
#X obj 219 187 f;
#X obj 70 112 loadbang;
#X msg 35 87 set read -resize \$1 r0;
#X connect 0 0 9 0;
#X connect 1 0 0 0;
#X connect 3 0 4 0;
#X connect 4 0 6 0;
#X connect 5 0 7 0;
#X connect 6 0 2 0;
#X connect 6 0 7 1;
#X connect 7 0 2 0;
#X connect 8 0 4 0;
#X connect 9 0 4 0;
#X connect 9 0 3 0;
#X restore 15 23 pd opencero;
#X obj 29 -56 inlet;
#N canvas 10 362 450 300 openuno 0;
#X obj 45 78 openpanel;
#X msg 45 144 read -resize /home/juan/Pd/samples/loops/bachata--01.wav
r1;
#X obj 45 58 inlet;
#X obj 45 191 outlet;
#X obj 45 121 bang;
#X obj 45 167 soundfiler;
#X obj 229 62 inlet;
#X obj 229 197 f;
#X obj 89 121 loadbang;
#X msg 45 97 set read -resize \$1 r1;
#X connect 0 0 9 0;
#X connect 1 0 5 0;
#X connect 2 0 0 0;
#X connect 4 0 1 0;
#X connect 5 0 3 0;
#X connect 5 0 7 1;
#X connect 6 0 7 0;
#X connect 7 0 3 0;
#X connect 8 0 1 0;
#X connect 9 0 1 0;
#X connect 9 0 4 0;
#X restore 92 25 pd openuno;
#N canvas 13 379 450 300 opendos 0;
#X obj 45 78 openpanel;
#X msg 45 144 read -resize /home/juan/Pd/samples/loops/cata-01.aiff
r2;
#X obj 45 58 inlet;
#X obj 45 193 outlet;
#X obj 45 121 bang;
#X obj 45 170 soundfiler;
#X obj 239 72 inlet;
#X obj 239 207 f;
#X obj 93 121 loadbang;
#X msg 45 97 set read -resize \$1 r2;
#X connect 0 0 9 0;
#X connect 1 0 5 0;
#X connect 2 0 0 0;
#X connect 4 0 1 0;
#X connect 5 0 3 0;
#X connect 5 0 7 1;
#X connect 6 0 7 0;
#X connect 7 0 3 0;
#X connect 8 0 1 0;
#X connect 9 0 1 0;
#X connect 9 0 4 0;
#X restore 159 25 pd opendos;
#N canvas 14 421 450 300 opentres 0;
#X obj 45 78 openpanel;
#X msg 45 144 read -resize /home/juan/Pd/samples/loops/cata-02.aiff
r3;
#X obj 45 58 inlet;
#X obj 45 192 outlet;
#X obj 45 121 bang;
#X obj 45 170 soundfiler;
#X obj 249 82 inlet;
#X obj 249 217 f;
#X obj 91 123 loadbang;
#X msg 45 97 set read -resize \$1 r3;
#X connect 0 0 9 0;
#X connect 1 0 5 0;
#X connect 2 0 0 0;
#X connect 4 0 1 0;
#X connect 5 0 3 0;
#X connect 5 0 7 1;
#X connect 6 0 7 0;
#X connect 7 0 3 0;
#X connect 8 0 1 0;
#X connect 9 0 1 0;
#X connect 9 0 4 0;
#X restore 226 25 pd opentres;
#X obj 65 216 bang;
#X msg 144 147 2;
#N canvas 49 309 659 270 analizador 0;
#X obj 294 29 inlet;
#X obj 30 61 < 0.1;
#X obj 30 81 sel 1;
#X obj 79 62 > 0.1;
#X obj 116 62 < 0.19;
#X obj 79 82 &&;
#X obj 79 101 sel 1;
#X obj 159 82 &&;
#X obj 159 101 sel 1;
#X obj 159 62 > 0.19;
#X obj 202 62 < 0.4;
#X obj 239 82 &&;
#X obj 239 101 sel 1;
#X obj 302 162 outlet;
#X obj 239 62 > 0.4;
#X obj 276 62 < 0.8;
#X obj 313 82 &&;
#X obj 313 101 sel 1;
#X obj 313 62 > 0.8;
#X obj 350 62 < 1.66;
#X obj 393 82 &&;
#X obj 393 101 sel 1;
#X obj 393 62 > 1.66;
#X obj 435 62 < 3;
#X obj 476 82 &&;
#X obj 476 101 sel 1;
#X obj 476 62 > 3;
#X obj 502 62 < 6.66;
#X obj 545 82 &&;
#X obj 545 101 sel 1;
#X obj 545 62 > 6.66;
#X obj 589 62 < 10;
#X msg 30 101 0;
#X msg 79 121 1;
#X msg 159 121 2;
#X msg 239 122 3;
#X msg 313 122 4;
#X msg 393 122 5;
#X msg 476 122 6;
#X msg 545 122 7;
#X connect 0 0 1 0;
#X connect 0 0 3 0;
#X connect 0 0 4 0;
#X connect 0 0 9 0;
#X connect 0 0 10 0;
#X connect 0 0 14 0;
#X connect 0 0 15 0;
#X connect 0 0 18 0;
#X connect 0 0 19 0;
#X connect 0 0 22 0;
#X connect 0 0 23 0;
#X connect 0 0 26 0;
#X connect 0 0 27 0;
#X connect 0 0 30 0;
#X connect 0 0 31 0;
#X connect 1 0 2 0;
#X connect 2 0 32 0;
#X connect 3 0 5 0;
#X connect 4 0 5 1;
#X connect 5 0 6 0;
#X connect 6 0 33 0;
#X connect 7 0 8 0;
#X connect 8 0 34 0;
#X connect 9 0 7 0;
#X connect 10 0 7 1;
#X connect 11 0 12 0;
#X connect 12 0 35 0;
#X connect 14 0 11 0;
#X connect 15 0 11 1;
#X connect 16 0 17 0;
#X connect 17 0 36 0;
#X connect 18 0 16 0;
#X connect 19 0 16 1;
#X connect 20 0 21 0;
#X connect 21 0 37 0;
#X connect 22 0 20 0;
#X connect 23 0 20 1;
#X connect 24 0 25 0;
#X connect 25 0 38 0;
#X connect 26 0 24 0;
#X connect 27 0 24 1;
#X connect 28 0 29 0;
#X connect 29 0 39 0;
#X connect 30 0 28 0;
#X connect 31 0 28 1;
#X connect 32 0 13 0;
#X connect 33 0 13 0;
#X connect 34 0 13 0;
#X connect 35 0 13 0;
#X connect 36 0 13 0;
#X connect 37 0 13 0;
#X connect 38 0 13 0;
#X connect 39 0 13 0;
#X restore 144 108 pd analizador;
#X obj 99 128 loadbang;
#X obj 17 176 + 0;
#X obj 12 360 table r0;
#X obj 67 360 table r1;
#X obj 122 360 table r2;
#X obj 177 360 table r3;
#X msg 17 197 set set r\$1;
#X obj 17 237 outlet;
#X obj 118 321 outlet;
#X obj 182 324 outlet;
#X obj 233 359 table r4;
#X obj 288 359 table r5;
#X obj 343 359 table r6;
#X obj 398 360 table r7;
#N canvas 1 86 450 300 opencuatro 0;
#X obj 55 88 openpanel;
#X msg 55 154 read -resize /home/juan/Pd/samples/loops/cata-03.aiff
r4;
#X obj 55 68 inlet;
#X obj 55 202 outlet;
#X obj 55 131 bang;
#X obj 55 180 soundfiler;
#X obj 259 92 inlet;
#X obj 259 227 f;
#X obj 101 133 loadbang;
#X msg 55 107 set read -resize \$1 r4;
#X connect 0 0 9 0;
#X connect 1 0 5 0;
#X connect 2 0 0 0;
#X connect 4 0 1 0;
#X connect 5 0 3 0;
#X connect 5 0 7 1;
#X connect 6 0 7 0;
#X connect 7 0 3 0;
#X connect 8 0 1 0;
#X connect 9 0 1 0;
#X connect 9 0 4 0;
#X restore 305 25 pd opencuatro;
#N canvas 1 92 450 300 opencinco 0;
#X obj 55 88 openpanel;
#X msg 55 154 read -resize /home/juan/Pd/samples/loops/cata-04.aiff
r5;
#X obj 55 68 inlet;
#X obj 55 202 outlet;
#X obj 55 131 bang;
#X obj 55 180 soundfiler;
#X obj 259 92 inlet;
#X obj 259 227 f;
#X obj 101 133 loadbang;
#X msg 55 107 set read -resize \$1 r5;
#X connect 0 0 9 0;
#X connect 1 0 5 0;
#X connect 2 0 0 0;
#X connect 4 0 1 0;
#X connect 5 0 3 0;
#X connect 5 0 7 1;
#X connect 6 0 7 0;
#X connect 7 0 3 0;
#X connect 8 0 1 0;
#X connect 9 0 1 0;
#X connect 9 0 4 0;
#X restore 391 25 pd opencinco;
#N canvas 1 92 450 300 openseis 0;
#X obj 55 88 openpanel;
#X msg 55 154 read -resize /home/juan/Pd/samples/loops/cata-05.aiff
r6;
#X obj 55 68 inlet;
#X obj 55 202 outlet;
#X obj 55 131 bang;
#X obj 55 180 soundfiler;
#X obj 259 92 inlet;
#X obj 259 227 f;
#X obj 101 133 loadbang;
#X msg 55 107 set read -resize \$1 r6;
#X connect 0 0 9 0;
#X connect 1 0 5 0;
#X connect 2 0 0 0;
#X connect 4 0 1 0;
#X connect 5 0 3 0;
#X connect 5 0 7 1;
#X connect 6 0 7 0;
#X connect 7 0 3 0;
#X connect 8 0 1 0;
#X connect 9 0 1 0;
#X connect 9 0 4 0;
#X restore 472 26 pd openseis;
#N canvas 1 92 450 300 opensiete 0;
#X obj 55 88 openpanel;
#X msg 55 154 read -resize /home/juan/Pd/samples/loops/cata-06.aiff
r7;
#X obj 55 68 inlet;
#X obj 55 202 outlet;
#X obj 55 131 bang;
#X obj 55 180 soundfiler;
#X obj 259 92 inlet;
#X obj 259 227 f;
#X obj 101 133 loadbang;
#X msg 56 107 set read -resize \$1 r7;
#X connect 0 0 9 0;
#X connect 1 0 5 0;
#X connect 2 0 0 0;
#X connect 4 0 1 0;
#X connect 5 0 3 0;
#X connect 5 0 7 1;
#X connect 6 0 7 0;
#X connect 7 0 3 0;
#X connect 8 0 1 0;
#X connect 9 0 1 0;
#X connect 9 0 4 0;
#X restore 547 29 pd opensiete;
#X obj 295 -28 sel 0 1 2 3 4 5 6 7;
#X obj 139 -26 sel 0 1 2 3 4 5 6 7;
#X connect 0 0 1 0;
#X connect 0 1 1 1;
#X connect 1 0 25 0;
#X connect 2 0 0 1;
#X connect 3 0 23 0;
#X connect 4 0 17 0;
#X connect 4 0 34 0;
#X connect 5 0 15 0;
#X connect 6 0 5 0;
#X connect 6 0 24 0;
#X connect 6 1 5 1;
#X connect 7 0 6 1;
#X connect 8 0 6 0;
#X connect 9 0 35 0;
#X connect 10 0 6 0;
#X connect 11 0 6 0;
#X connect 12 0 6 0;
#X connect 13 0 3 0;
#X connect 14 0 0 0;
#X connect 15 0 2 0;
#X connect 16 0 14 0;
#X connect 17 0 22 0;
#X connect 22 0 3 0;
#X connect 22 0 13 0;
#X connect 30 0 6 0;
#X connect 31 0 6 0;
#X connect 32 0 6 0;
#X connect 33 0 6 0;
#X connect 34 0 8 1;
#X connect 34 1 10 1;
#X connect 34 2 11 1;
#X connect 34 3 12 1;
#X connect 34 4 30 1;
#X connect 34 5 31 1;
#X connect 34 6 32 1;
#X connect 34 7 33 1;
#X connect 35 0 8 0;
#X connect 35 1 10 0;
#X connect 35 2 11 0;
#X connect 35 3 12 0;
#X connect 35 4 30 0;
#X connect 35 5 31 0;
#X connect 35 6 32 0;
#X connect 35 7 33 0;
