#N canvas 33 107 1039 744 10;
#X obj 23 336 divisionizador;
#X obj 273 439 counter 0 0 7;
#X obj 587 353 metro;
#X obj 267 510 sel 0 1 2 3 4 5 6 7;
#X obj 399 439 tgl 15 0 empty empty empty 17 7 0 10 -262144 -1 -1 0
1;
#X obj 267 530 s faseuno;
#X obj 280 549 s fasedos;
#X obj 294 568 s fasetres;
#X obj 307 587 s fasecuatro;
#X obj 322 530 s fasecinco;
#X obj 335 549 s faseseis;
#X obj 349 568 s fasesiete;
#X obj 362 587 s faseocho;
#X obj 333 69 sel 1;
#X obj 370 69 sel 1;
#X obj 408 69 sel 1;
#X obj 445 69 sel 1;
#X obj 482 69 sel 1;
#X obj 519 69 sel 1;
#X obj 557 69 sel 1;
#X obj 594 69 sel 1;
#X obj 339 131 expr $f1+$f2+$f3+$f4+$f5+$f6+$f7+$f8;
#X obj 341 111 bondo 8 ------------------------------------;
#X msg 333 90 0;
#X msg 370 90 1;
#X msg 408 90 2;
#X msg 445 90 3;
#X msg 482 90 4;
#X msg 519 90 5;
#X msg 557 90 6;
#X msg 594 90 7;
#X obj 345 172 route 1 2 3 4 5 6 7 8;
#X msg 345 193 set \$1;
#X msg 360 213 set \$1;
#X msg 376 233 set \$1;
#X msg 391 253 set \$1;
#X msg 406 193 set \$1;
#X msg 421 213 set \$1;
#X msg 437 233 set \$1;
#X msg 452 253 set \$1;
#X msg 518 643 0;
#X msg 533 663 4;
#X msg 549 683 5;
#X msg 564 703 6;
#X msg 579 643 2;
#X msg 594 663 7;
#X msg 610 683 3;
#X msg 625 703 1;
#X obj 342 149 pack;
#X obj 227 484 r cont;
#X obj 533 733 s cont;
#X obj 507 573 spigot;
#X obj 509 614 sel 1 2 3 4 5 6 7 8;
#X obj 509 593 counter 0 1 8;
#X obj 114 520 inlet;
#X obj 621 276 r tiempos;
#X obj 537 337 sel 1;
#X obj 273 466 spigot;
#X obj 321 466 loadbang;
#X msg 322 487 1;
#X msg 540 357 set 0;
#X obj 558 171 sel 1;
#X obj 596 171 sel 1;
#X obj 633 171 sel 1;
#X obj 586 483 t b;
#X obj 647 489 t b;
#X obj 686 489 t b;
#X msg 558 192 2;
#X msg 597 192 3;
#X msg 633 192 4;
#X obj 581 295 sel 1;
#X obj 581 319 tgl 15 0 empty empty empty 17 7 0 10 -262144 -1 -1 1
1;
#X obj 29 585 *~;
#X obj 22 302 hradio 15 1 0 8 empty empty carga 0 -8 0 10 -258113 -1
-1 0;
#X obj 21 274 hradio 15 1 0 8 empty empty sel 0 -8 0 10 -204786 -1
-1 0;
#X obj 65 188 r soundfilero;
#X floatatom 57 531 5 0 0 0 - - -;
#X obj 681 274 r divisorS;
#X obj 624 297 bondo;
#X obj 624 317 *;
#X obj 183 206 counter 0 0 7;
#X obj 150 301 f;
#X obj 713 218 loadbang;
#X msg 727 247 1;
#X msg 235 173 inc;
#X msg 189 177 dec;
#X obj 246 145 sel 1;
#X obj 200 143 sel 1;
#X obj 339 299 < 1;
#X obj 28 616 outlet~;
#X floatatom 677 388 5 0 0 0 - - -;
#X floatatom 668 317 5 0 0 0 - - -;
#X obj 548 471 t b;
#X obj 501 553 switch 5;
#X obj 683 171 sel 1;
#X msg 683 192 5;
#X obj 503 253 expr if($f1+$f2+$f3+$f4==0 \, 1 \, $f5);
#X obj 561 222 bondo 5;
#X obj 165 495 print;
#X obj 191 241 r f0;
#X obj 255 266 sel 1 0;
#X obj 187 321 unpack 0 0 0 0;
#X obj 66 360 expr if ($f1<0.2 \, 1 \, 0) \; if ($f1>0.2 && $f1<0.4
\, 1 \, 0) \; if ($f1>0.4 && $f1<0.6 \, 1 \, 0) \; if ($f1>0.6 && $f1<0.8
\, 1 \, 0) \; if ($f1>0.8 && $f1<1 \, 1 \, 0) \;;
#X obj 83 455 change;
#X obj 130 456 change;
#X obj 176 457 change;
#X obj 224 458 change;
#X obj 333 326 expr if ($f1<0.2 \, 1 \, 0) \; if ($f1>0.2 && $f1<0.4
\, 1 \, 0) \; if ($f1>0.4 && $f1<0.6 \, 1 \, 0) \; if ($f1>0.6 && $f1<0.8
\, 1 \, 0) \; if ($f1>0.8 && $f1<1 \, 1 \, 0) \;;
#X obj 303 408 change;
#X obj 350 409 change;
#X obj 396 410 change;
#X obj 444 411 change;
#X obj 267 351 / 6.162;
#X obj 87 28 r ps2;
#X obj 124 28 r ps1;
#X obj 161 28 r ps5;
#X obj 204 28 r ps6;
#X obj 247 28 r ps7;
#X obj 289 28 r ps8;
#X obj 547 148 r psidb;
#X obj 594 149 r psib;
#X obj 631 149 r psiib;
#X obj 182 116 r psi;
#X obj 251 114 r psd;
#X obj 581 273 r ps9;
#X obj 535 301 r ps12;
#X obj 681 149 r psii;
#X obj 12 28 r ps3;
#X obj 49 28 r ps4;
#X obj 720 487 t b;
#X obj 549 384 counter 0 0 23;
#X obj 549 437 sel 0 3 4 6 8 9 12 15 16 18 20 21;
#X obj 637 341 / 24;
#X obj 202 656 hradio 15 1 0 8 empty empty empty 0 -8 0 10 -262144
-1 -1 3;
#X obj 651 585 hradio 15 1 0 8 empty cont empty 0 -8 0 10 -262144 -1
-1 6;
#X floatatom 742 304 5 0 0 0 - - -;
#X obj 336 26 r 4m1;
#X obj 376 26 r 4m2;
#X obj 416 26 r 4m3;
#X obj 456 26 r 4m4;
#X obj 496 26 r 4m5;
#X obj 536 26 r 4m6;
#X obj 576 26 r 4m7;
#X obj 616 26 r 4m8;
#X obj 761 70 print;
#X connect 0 0 72 0;
#X connect 1 0 57 0;
#X connect 2 0 130 0;
#X connect 3 0 5 0;
#X connect 3 1 6 0;
#X connect 3 2 7 0;
#X connect 3 3 8 0;
#X connect 3 4 9 0;
#X connect 3 5 10 0;
#X connect 3 6 11 0;
#X connect 3 7 12 0;
#X connect 4 0 57 1;
#X connect 13 0 23 0;
#X connect 14 0 24 0;
#X connect 15 0 25 0;
#X connect 16 0 26 0;
#X connect 17 0 27 0;
#X connect 18 0 28 0;
#X connect 19 0 29 0;
#X connect 20 0 30 0;
#X connect 21 0 51 1;
#X connect 21 0 53 4;
#X connect 21 0 48 0;
#X connect 21 0 88 0;
#X connect 22 0 21 0;
#X connect 22 1 21 1;
#X connect 22 2 21 2;
#X connect 22 3 21 3;
#X connect 22 4 21 4;
#X connect 22 5 21 5;
#X connect 22 6 21 6;
#X connect 22 7 21 7;
#X connect 23 0 48 1;
#X connect 24 0 48 1;
#X connect 25 0 48 1;
#X connect 26 0 48 1;
#X connect 27 0 48 1;
#X connect 28 0 48 1;
#X connect 29 0 48 1;
#X connect 30 0 48 1;
#X connect 31 0 32 0;
#X connect 31 1 33 0;
#X connect 31 2 34 0;
#X connect 31 3 35 0;
#X connect 31 4 36 0;
#X connect 31 5 37 0;
#X connect 31 6 38 0;
#X connect 31 7 39 0;
#X connect 32 0 40 0;
#X connect 33 0 41 0;
#X connect 34 0 42 0;
#X connect 35 0 43 0;
#X connect 36 0 44 0;
#X connect 37 0 45 0;
#X connect 38 0 46 0;
#X connect 39 0 47 0;
#X connect 40 0 50 0;
#X connect 41 0 50 0;
#X connect 42 0 50 0;
#X connect 43 0 50 0;
#X connect 44 0 50 0;
#X connect 45 0 50 0;
#X connect 46 0 50 0;
#X connect 47 0 50 0;
#X connect 48 0 31 0;
#X connect 49 0 3 0;
#X connect 51 0 53 0;
#X connect 52 0 40 0;
#X connect 52 1 41 0;
#X connect 52 2 42 0;
#X connect 52 3 43 0;
#X connect 52 4 44 0;
#X connect 52 5 45 0;
#X connect 52 6 46 0;
#X connect 52 7 47 0;
#X connect 53 0 52 0;
#X connect 54 0 72 1;
#X connect 55 0 78 0;
#X connect 55 0 135 0;
#X connect 56 0 60 0;
#X connect 57 0 3 0;
#X connect 57 0 133 0;
#X connect 58 0 59 0;
#X connect 59 0 4 0;
#X connect 60 0 1 0;
#X connect 60 0 130 0;
#X connect 61 0 67 0;
#X connect 62 0 68 0;
#X connect 63 0 69 0;
#X connect 64 0 93 2;
#X connect 65 0 93 3;
#X connect 66 0 93 4;
#X connect 67 0 97 4;
#X connect 68 0 97 4;
#X connect 69 0 97 4;
#X connect 70 0 71 0;
#X connect 71 0 2 0;
#X connect 71 0 56 0;
#X connect 72 0 89 0;
#X connect 73 0 0 0;
#X connect 73 0 74 0;
#X connect 74 0 0 1;
#X connect 74 0 81 0;
#X connect 75 0 0 2;
#X connect 76 0 72 1;
#X connect 77 0 78 1;
#X connect 78 0 79 0;
#X connect 78 1 79 1;
#X connect 79 0 0 3;
#X connect 79 0 91 0;
#X connect 79 0 132 0;
#X connect 80 0 74 0;
#X connect 81 0 0 1;
#X connect 82 0 83 0;
#X connect 83 0 78 1;
#X connect 84 0 80 0;
#X connect 85 0 80 0;
#X connect 86 0 84 0;
#X connect 87 0 85 0;
#X connect 88 0 4 0;
#X connect 92 0 93 1;
#X connect 93 0 51 0;
#X connect 94 0 95 0;
#X connect 95 0 97 4;
#X connect 96 0 93 0;
#X connect 97 0 96 0;
#X connect 97 1 96 1;
#X connect 97 2 96 2;
#X connect 97 3 96 3;
#X connect 97 4 96 4;
#X connect 99 0 101 0;
#X connect 99 0 100 0;
#X connect 100 0 71 0;
#X connect 100 1 71 0;
#X connect 101 1 102 0;
#X connect 101 3 112 0;
#X connect 102 1 103 0;
#X connect 102 2 104 0;
#X connect 102 3 105 0;
#X connect 102 4 106 0;
#X connect 103 0 13 0;
#X connect 103 0 22 0;
#X connect 104 0 14 0;
#X connect 104 0 22 1;
#X connect 105 0 15 0;
#X connect 105 0 22 2;
#X connect 106 0 16 0;
#X connect 106 0 22 3;
#X connect 107 1 108 0;
#X connect 107 2 109 0;
#X connect 107 3 110 0;
#X connect 107 4 111 0;
#X connect 108 0 61 0;
#X connect 108 0 97 0;
#X connect 109 0 62 0;
#X connect 109 0 97 1;
#X connect 110 0 63 0;
#X connect 110 0 97 2;
#X connect 111 0 94 0;
#X connect 111 0 97 3;
#X connect 112 0 107 0;
#X connect 113 0 15 0;
#X connect 113 0 22 2;
#X connect 114 0 16 0;
#X connect 114 0 22 3;
#X connect 115 0 17 0;
#X connect 115 0 22 4;
#X connect 116 0 18 0;
#X connect 116 0 22 5;
#X connect 117 0 19 0;
#X connect 117 0 22 6;
#X connect 118 0 20 0;
#X connect 118 0 22 7;
#X connect 119 0 61 0;
#X connect 119 0 97 0;
#X connect 120 0 62 0;
#X connect 120 0 97 1;
#X connect 121 0 63 0;
#X connect 121 0 97 2;
#X connect 122 0 87 0;
#X connect 123 0 86 0;
#X connect 124 0 70 0;
#X connect 125 0 56 0;
#X connect 125 0 2 0;
#X connect 126 0 94 0;
#X connect 126 0 97 3;
#X connect 127 0 13 0;
#X connect 127 0 22 0;
#X connect 128 0 14 0;
#X connect 128 0 22 1;
#X connect 129 0 93 5;
#X connect 130 0 131 0;
#X connect 131 0 1 0;
#X connect 131 0 92 0;
#X connect 131 0 64 0;
#X connect 131 0 65 0;
#X connect 131 0 66 0;
#X connect 131 0 129 0;
#X connect 131 2 129 0;
#X connect 131 3 65 0;
#X connect 131 4 66 0;
#X connect 131 4 129 0;
#X connect 131 6 64 0;
#X connect 131 6 65 0;
#X connect 131 6 129 0;
#X connect 131 8 66 0;
#X connect 131 8 129 0;
#X connect 131 9 65 0;
#X connect 131 10 129 0;
#X connect 132 0 2 1;
#X connect 132 0 90 0;
#X connect 136 0 13 0;
#X connect 136 0 22 0;
#X connect 136 0 144 0;
#X connect 137 0 14 0;
#X connect 137 0 22 1;
#X connect 137 0 144 0;
#X connect 138 0 144 0;
#X connect 138 0 15 0;
#X connect 138 0 22 2;
#X connect 139 0 16 0;
#X connect 139 0 22 3;
#X connect 139 0 144 0;
#X connect 140 0 17 0;
#X connect 140 0 22 4;
#X connect 140 0 144 0;
#X connect 141 0 18 0;
#X connect 141 0 22 5;
#X connect 141 0 144 0;
#X connect 142 0 19 0;
#X connect 142 0 22 6;
#X connect 142 0 144 0;
#X connect 143 0 20 0;
#X connect 143 0 22 7;
#X connect 143 0 144 0;
