#N canvas 694 107 426 512 10;
#X msg 7 33 open \$1 \, 1;
#X obj 73 373 change;
#X obj 128 373 change;
#X obj 85 110 change;
#X obj 124 110 change;
#X obj 163 110 change;
#X obj 202 110 change;
#X obj 241 110 change;
#X obj 280 110 change;
#X obj 319 110 change;
#X obj 194 427 change;
#X obj 237 427 change;
#X obj 204 167 change;
#X obj 149 167 change;
#X obj 177 186 bondo;
#X obj 127 205 expr if ($f1==1 && $f2==0 \, 1 \, 0) \; if ($f1==1 &&
$f2==1 \, 1 \, 0) \; if ($f1==0 && $f2==1 \, 1 \, 0) \; if ($f1==-1
&& $f2==1 \, 1 \, 0) \; if ($f1==-1 && $f2==0 \, 1 \, 0) \; if ($f1==-1
&& $f2==-1 \, 1 \, 0) \; if ($f1==0 && $f2==-1 \, 1 \, 0) \; if ($f1==1
&& $f2==-1 \, 1 \, 0) \;;
#X obj 7 14 inlet;
#X msg 46 14 refresh;
#X obj 73 186 route msc_scan;
#X obj 7 71 route key abs msc;
#X obj 73 206 bondo;
#X obj 73 226 pack;
#X obj 73 354 route 589825 589826;
#X obj 40 148 route abs_x abs_y abs_hat0x abs_hat0y;
#X obj 7 90 route btn_0 btn_1 btn_2 btn_3 btn_4 btn_5 btn_6 btn_7 btn_8
;
#X obj 280 427 change;
#X obj 323 427 change;
#X obj 103 14 bng 15 250 50 0 empty refresh empty 17 7 0 10 -262144
-1 -1;
#X obj 7 52 hid;
#X obj 81 315 change;
#X obj 113 315 change;
#X obj 151 315 change;
#X obj 183 315 change;
#X obj 220 315 change;
#X obj 251 315 change;
#X obj 288 315 change;
#X obj 320 315 change;
#X obj 194 354 expr if ($f1<-450 \, 1 \, 0) \; if ($f1>450 \, 1 \,
0) \; if ($f2>450 \, 1 \, 0) \; if ($f2<-450 \, 1 \, 0) \;;
#X obj 85 129 s 2sb3;
#X obj 124 129 s 2sb4;
#X obj 163 129 s 2sb5;
#X obj 202 129 s 2sb6;
#X obj 241 129 s 2sb7;
#X obj 280 129 s 2sb8;
#X obj 319 129 s 2sb9;
#X obj 40 167 s 2sex;
#X obj 96 167 s 2sey;
#X obj 73 392 s 2sb1;
#X obj 128 392 s 2sb2;
#X obj 81 334 s 2sd;
#X obj 113 334 s 2sdb;
#X obj 151 334 s 2sb;
#X obj 183 334 s 2sib;
#X obj 220 334 s 2si;
#X obj 251 334 s 2sia;
#X obj 288 334 s 2sa;
#X obj 320 334 s 2sda;
#X obj 323 446 s 2sb13;
#X obj 280 446 s 2sb11;
#X obj 237 446 s 2sb12;
#X obj 194 446 s 2sb10;
#X connect 0 0 28 0;
#X connect 1 0 47 0;
#X connect 2 0 48 0;
#X connect 3 0 38 0;
#X connect 4 0 39 0;
#X connect 5 0 40 0;
#X connect 6 0 41 0;
#X connect 7 0 42 0;
#X connect 8 0 43 0;
#X connect 9 0 44 0;
#X connect 10 0 60 0;
#X connect 11 0 59 0;
#X connect 12 0 14 1;
#X connect 13 0 14 0;
#X connect 14 0 15 0;
#X connect 14 1 15 1;
#X connect 15 0 29 0;
#X connect 15 1 30 0;
#X connect 15 2 31 0;
#X connect 15 3 32 0;
#X connect 15 4 33 0;
#X connect 15 5 34 0;
#X connect 15 6 35 0;
#X connect 15 7 36 0;
#X connect 16 0 0 0;
#X connect 17 0 28 0;
#X connect 18 0 20 0;
#X connect 19 0 24 0;
#X connect 19 1 23 0;
#X connect 19 2 18 0;
#X connect 20 0 21 0;
#X connect 20 1 21 1;
#X connect 21 0 22 0;
#X connect 22 0 1 0;
#X connect 22 1 2 0;
#X connect 23 0 37 0;
#X connect 23 0 45 0;
#X connect 23 1 37 1;
#X connect 23 1 46 0;
#X connect 23 2 13 0;
#X connect 23 3 12 0;
#X connect 24 0 20 1;
#X connect 24 1 20 1;
#X connect 24 2 3 0;
#X connect 24 3 4 0;
#X connect 24 4 5 0;
#X connect 24 5 6 0;
#X connect 24 6 7 0;
#X connect 24 7 8 0;
#X connect 24 8 9 0;
#X connect 25 0 58 0;
#X connect 26 0 57 0;
#X connect 27 0 17 0;
#X connect 28 0 19 0;
#X connect 29 0 49 0;
#X connect 30 0 50 0;
#X connect 31 0 51 0;
#X connect 32 0 52 0;
#X connect 33 0 53 0;
#X connect 34 0 54 0;
#X connect 35 0 55 0;
#X connect 36 0 56 0;
#X connect 37 0 10 0;
#X connect 37 1 11 0;
#X connect 37 2 25 0;
#X connect 37 3 26 0;
