#N canvas 603 163 365 608 10;
#X msg -15 -6 open \$1 \, 1;
#X obj 172 418 change;
#X obj 215 418 change;
#X obj 182 158 change;
#X obj 127 158 change;
#X obj 155 177 bondo;
#X obj 105 196 expr if ($f1==1 && $f2==0 \, 1 \, 0) \; if ($f1==1 &&
$f2==1 \, 1 \, 0) \; if ($f1==0 && $f2==1 \, 1 \, 0) \; if ($f1==-1
&& $f2==1 \, 1 \, 0) \; if ($f1==-1 && $f2==0 \, 1 \, 0) \; if ($f1==-1
&& $f2==-1 \, 1 \, 0) \; if ($f1==0 && $f2==-1 \, 1 \, 0) \; if ($f1==1
&& $f2==-1 \, 1 \, 0) \;;
#X obj -15 -25 inlet;
#X msg 24 -25 refresh;
#X obj 51 177 route msc_scan;
#X obj -15 32 route key abs msc;
#X obj 51 197 bondo;
#X obj 51 217 pack;
#X obj 51 345 route 589825 589826;
#X obj 18 139 route abs_x abs_y abs_hat0x abs_hat0y;
#X obj 172 437 s sb10;
#X obj 215 437 s sb12;
#X obj 18 158 s sex;
#X obj 74 158 s sey;
#X obj -15 51 route btn_0 btn_1 btn_2 btn_3 btn_4 btn_5 btn_6 btn_7
btn_8;
#X obj 172 345 expr if ($f1<-450 \, 1 \, 0) \; if ($f1>450 \, 1 \,
0) \; if ($f2>450 \, 1 \, 0) \; if ($f2<-450 \, 1 \, 0) \;;
#X obj 258 418 change;
#X obj 301 418 change;
#X obj 258 437 s sb11;
#X obj 301 437 s sb13;
#X obj -15 13 hid;
#X obj 59 325 s sd;
#X obj 91 325 s sdb;
#X obj 129 325 s sb;
#X obj 161 325 s sib;
#X obj 198 325 s si;
#X obj 229 325 s sia;
#X obj 266 325 s sa;
#X obj 298 325 s sda;
#X obj 59 306 change;
#X obj 91 306 change;
#X obj 129 306 change;
#X obj 161 306 change;
#X obj 198 306 change;
#X obj 229 306 change;
#X obj 266 306 change;
#X obj 298 306 change;
#X obj 63 113 s sb3;
#X obj 102 113 s sb4;
#X obj 141 113 s sb5;
#X obj 219 113 s sb7;
#X obj 180 113 s sb6;
#X obj 258 113 s sb8;
#X obj 297 113 s sb9;
#X obj 51 403 s sb1;
#X obj 106 403 s sb2;
#X obj 63 93 change;
#X obj 102 93 change;
#X obj 140 93 change;
#X obj 180 93 change;
#X obj 219 93 change;
#X obj 258 93 change;
#X obj 297 93 change;
#X obj 63 71 > 0;
#X obj 102 71 > 0;
#X obj 141 71 > 0;
#X obj 180 71 > 0;
#X obj 219 71 > 0;
#X obj 258 71 > 0;
#X obj 297 71 > 0;
#X obj 51 364 > 0;
#X obj 106 364 > 0;
#X obj 51 383 change;
#X obj 106 383 change;
#X connect 0 0 25 0;
#X connect 1 0 15 0;
#X connect 2 0 16 0;
#X connect 3 0 5 1;
#X connect 4 0 5 0;
#X connect 5 0 6 0;
#X connect 5 1 6 1;
#X connect 6 0 34 0;
#X connect 6 1 35 0;
#X connect 6 2 36 0;
#X connect 6 3 37 0;
#X connect 6 4 38 0;
#X connect 6 5 39 0;
#X connect 6 6 40 0;
#X connect 6 7 41 0;
#X connect 7 0 0 0;
#X connect 8 0 25 0;
#X connect 9 0 11 0;
#X connect 10 0 19 0;
#X connect 10 1 14 0;
#X connect 10 2 9 0;
#X connect 11 0 12 0;
#X connect 11 1 12 1;
#X connect 12 0 13 0;
#X connect 13 0 65 0;
#X connect 13 1 66 0;
#X connect 14 0 17 0;
#X connect 14 0 20 0;
#X connect 14 1 18 0;
#X connect 14 1 20 1;
#X connect 14 2 4 0;
#X connect 14 3 3 0;
#X connect 19 0 11 1;
#X connect 19 1 11 1;
#X connect 19 2 58 0;
#X connect 19 3 59 0;
#X connect 19 4 60 0;
#X connect 19 5 61 0;
#X connect 19 6 62 0;
#X connect 19 7 63 0;
#X connect 19 8 64 0;
#X connect 20 0 1 0;
#X connect 20 1 2 0;
#X connect 20 2 21 0;
#X connect 20 3 22 0;
#X connect 21 0 23 0;
#X connect 22 0 24 0;
#X connect 25 0 10 0;
#X connect 34 0 26 0;
#X connect 35 0 27 0;
#X connect 36 0 28 0;
#X connect 37 0 29 0;
#X connect 38 0 30 0;
#X connect 39 0 31 0;
#X connect 40 0 32 0;
#X connect 41 0 33 0;
#X connect 51 0 42 0;
#X connect 52 0 43 0;
#X connect 53 0 44 0;
#X connect 54 0 46 0;
#X connect 55 0 45 0;
#X connect 56 0 47 0;
#X connect 57 0 48 0;
#X connect 58 0 51 0;
#X connect 59 0 52 0;
#X connect 60 0 53 0;
#X connect 61 0 54 0;
#X connect 62 0 55 0;
#X connect 63 0 56 0;
#X connect 64 0 57 0;
#X connect 65 0 67 0;
#X connect 66 0 68 0;
#X connect 67 0 49 0;
#X connect 68 0 50 0;
#X coords 0 0 1 1 150 30 0;
