#N canvas 657 271 627 300 10;
#X obj 62 107 reverberador~;
#X obj 92 253 dac~;
#X obj 265 254 *~;
#X obj 281 47 mtof;
#X obj 286 3 key;
#X obj 281 138 route 1 2 3 4;
#X obj 279 118 pack f f f;
#X obj 280 226 line~;
#X obj 266 165 unpack;
#X msg 279 68 \$1 1;
#X obj 279 92 poly 4 1;
#X obj 338 255 *~;
#X obj 353 227 line~;
#X obj 339 166 unpack;
#X obj 415 257 *~;
#X obj 430 229 line~;
#X obj 416 168 unpack;
#X obj 492 255 *~;
#X obj 507 227 line~;
#X obj 493 166 unpack;
#X obj 284 23 +;
#X floatatom 334 30 5 0 0 0 - - -;
#X msg 280 188 0.5 \, 0 100;
#X msg 353 189 0.5 \, 0 100;
#X msg 430 191 0.5 \, 0 100;
#X msg 507 189 0.5 \, 0 100;
#X obj 267 206 osc~;
#X obj 340 207 osc~;
#X obj 417 209 osc~;
#X obj 494 207 osc~;
#X connect 0 0 1 0;
#X connect 0 1 1 1;
#X connect 2 0 0 0;
#X connect 2 0 0 1;
#X connect 3 0 9 0;
#X connect 4 0 20 0;
#X connect 5 0 8 0;
#X connect 5 1 13 0;
#X connect 5 2 16 0;
#X connect 5 3 19 0;
#X connect 6 0 5 0;
#X connect 7 0 2 1;
#X connect 8 0 26 0;
#X connect 8 1 22 0;
#X connect 9 0 10 0;
#X connect 10 0 6 0;
#X connect 10 1 6 1;
#X connect 10 2 6 2;
#X connect 11 0 0 1;
#X connect 11 0 0 0;
#X connect 12 0 11 1;
#X connect 13 0 27 0;
#X connect 13 1 23 0;
#X connect 14 0 0 0;
#X connect 14 0 0 1;
#X connect 15 0 14 1;
#X connect 16 0 28 0;
#X connect 16 1 24 0;
#X connect 17 0 0 0;
#X connect 17 0 0 1;
#X connect 18 0 17 1;
#X connect 19 0 29 0;
#X connect 19 1 25 0;
#X connect 20 0 3 0;
#X connect 21 0 20 1;
#X connect 22 0 7 0;
#X connect 23 0 12 0;
#X connect 24 0 15 0;
#X connect 25 0 18 0;
#X connect 26 0 2 0;
#X connect 27 0 11 0;
#X connect 28 0 14 0;
#X connect 29 0 17 0;
