#N canvas 608 160 474 629 10;
#X msg 12 36 open \$1 \, 1;
#X obj 54 127 change;
#X obj 75 165 change;
#X obj 96 127 change;
#X obj 117 165 change;
#X obj 138 126 change;
#X obj 159 165 change;
#X obj 180 126 change;
#X obj 12 17 inlet;
#X obj 54 146 s ps3;
#X obj 75 184 s ps4;
#X obj 96 146 s ps5;
#X obj 117 184 s ps6;
#X obj 138 145 s ps7;
#X obj 159 184 s ps8;
#X obj 180 145 s ps9;
#X obj 12 127 change;
#X obj 33 165 change;
#X obj 12 146 s ps1;
#X obj 33 184 s ps2;
#X obj 201 164 change;
#X obj 222 126 change;
#X obj 242 164 change;
#X obj 264 126 change;
#X obj 44 203 route abs_x abs_y abs_rx abs_ry abs_z abs_rz;
#X obj 12 93 route btn_0 btn_1 btn_3 btn_4 btn_6 btn_7 btn_8 btn_9
btn_10 btn_11 btn_12 btn_13 btn_14 syn_32 syn_33 syn_34 syn_35;
#X obj 285 164 change;
#X obj 306 126 change;
#X obj 326 164 change;
#X obj 348 126 change;
#X obj 285 183 s psb;
#X obj 306 145 s psa;
#X obj 326 183 s psi;
#X obj 348 145 s psd;
#X obj 44 225 s psx;
#X obj 131 225 s psrx;
#X obj 87 225 s psy;
#X obj 174 225 s psry;
#X obj 218 225 s psz;
#X obj 261 225 s psrz;
#X obj 44 414 s psid;
#X obj 97 414 s psidb;
#X obj 151 414 s psib;
#X obj 204 414 s psiib;
#X obj 258 414 s psii;
#X obj 311 414 s psiia;
#X obj 365 414 s psia;
#X obj 419 414 s psida;
#X obj 45 602 s psdd;
#X obj 98 602 s psddb;
#X obj 152 602 s psdb;
#X obj 205 602 s psdib;
#X obj 259 602 s psdi;
#X obj 312 602 s psdia;
#X obj 366 602 s psda;
#X obj 420 602 s psdda;
#X obj 12 55 hid;
#X obj 44 246 bondo;
#X obj 44 266 expr if ($f1>180 && ($f2>86 && $f2<180) \, 1 \, 0) \;
if ($f1>180 && ($f2>180) \, 1 \, 0) \; if (($f1>86 && $f1<180) && ($f2>180)
\, 1 \, 0) \; if ($f1<86 && ($f2>180) \, 1 \, 0) \; if ($f1<86 && ($f2>86
&& $f2<180) \, 1 \, 0) \; if ($f1<86 && ($f2<86) \, 1 \, 0) \; if (($f1>86
&& $f1<180) && ($f2<86) \, 1 \, 0) \; if ($f1>180 && ($f2<86) \, 1
\, 0) \;, f 63;
#X obj 44 392 change;
#X obj 97 392 change;
#X obj 151 392 change;
#X obj 204 392 change;
#X obj 258 392 change;
#X obj 311 392 change;
#X obj 365 392 change;
#X obj 419 392 change;
#X obj 45 435 bondo;
#X obj 45 455 expr if ($f1>180 && ($f2>86 && $f2<180) \, 1 \, 0) \;
if ($f1>180 && ($f2>180) \, 1 \, 0) \; if (($f1>86 && $f1<180) && ($f2>180)
\, 1 \, 0) \; if ($f1<86 && ($f2>180) \, 1 \, 0) \; if ($f1<86 && ($f2>86
&& $f2<180) \, 1 \, 0) \; if ($f1<86 && ($f2<86) \, 1 \, 0) \; if (($f1>86
&& $f1<180) && ($f2<86) \, 1 \, 0) \; if ($f1>180 && ($f2<86) \, 1
\, 0) \;, f 63;
#X obj 45 581 change;
#X obj 98 581 change;
#X obj 152 581 change;
#X obj 205 581 change;
#X obj 259 581 change;
#X obj 312 581 change;
#X obj 366 581 change;
#X obj 420 581 change;
#X obj 12 74 route key abs;
#X obj 201 183 s ps10;
#X obj 222 145 s ps11;
#X obj 242 183 s ps12;
#X obj 264 145 s ps13;
#X connect 0 0 56 0;
#X connect 1 0 9 0;
#X connect 2 0 10 0;
#X connect 3 0 11 0;
#X connect 4 0 12 0;
#X connect 5 0 13 0;
#X connect 6 0 14 0;
#X connect 7 0 15 0;
#X connect 8 0 0 0;
#X connect 16 0 18 0;
#X connect 17 0 19 0;
#X connect 20 0 78 0;
#X connect 21 0 79 0;
#X connect 22 0 80 0;
#X connect 23 0 81 0;
#X connect 24 0 34 0;
#X connect 24 0 57 0;
#X connect 24 1 36 0;
#X connect 24 1 57 1;
#X connect 24 2 35 0;
#X connect 24 2 67 0;
#X connect 24 3 37 0;
#X connect 24 3 67 1;
#X connect 24 4 38 0;
#X connect 24 5 39 0;
#X connect 25 0 16 0;
#X connect 25 1 17 0;
#X connect 25 2 1 0;
#X connect 25 3 2 0;
#X connect 25 4 3 0;
#X connect 25 5 4 0;
#X connect 25 6 5 0;
#X connect 25 7 6 0;
#X connect 25 8 7 0;
#X connect 25 9 20 0;
#X connect 25 10 21 0;
#X connect 25 11 22 0;
#X connect 25 12 23 0;
#X connect 25 13 26 0;
#X connect 25 14 27 0;
#X connect 25 15 28 0;
#X connect 25 16 29 0;
#X connect 26 0 30 0;
#X connect 27 0 31 0;
#X connect 28 0 32 0;
#X connect 29 0 33 0;
#X connect 56 0 77 0;
#X connect 57 0 58 0;
#X connect 57 1 58 1;
#X connect 58 0 59 0;
#X connect 58 1 60 0;
#X connect 58 2 61 0;
#X connect 58 3 62 0;
#X connect 58 4 63 0;
#X connect 58 5 64 0;
#X connect 58 6 65 0;
#X connect 58 7 66 0;
#X connect 59 0 40 0;
#X connect 60 0 41 0;
#X connect 61 0 42 0;
#X connect 62 0 43 0;
#X connect 63 0 44 0;
#X connect 64 0 45 0;
#X connect 65 0 46 0;
#X connect 66 0 47 0;
#X connect 67 0 68 0;
#X connect 67 1 68 1;
#X connect 68 0 69 0;
#X connect 68 1 70 0;
#X connect 68 2 71 0;
#X connect 68 3 72 0;
#X connect 68 4 73 0;
#X connect 68 5 74 0;
#X connect 68 6 75 0;
#X connect 68 7 76 0;
#X connect 69 0 48 0;
#X connect 70 0 49 0;
#X connect 71 0 50 0;
#X connect 72 0 51 0;
#X connect 73 0 52 0;
#X connect 74 0 53 0;
#X connect 75 0 54 0;
#X connect 76 0 55 0;
#X connect 77 0 25 0;
#X connect 77 1 24 0;
