#N canvas 2 46 617 326 10;
#X obj 81 196 dinamizador;
#X obj 223 196 dinamizador;
#X obj 152 196 dinamizador;
#X obj 262 179 dinamizador;
#X obj 222 162 dinamizador;
#X obj 191 179 dinamizador;
#X obj 183 145 dinamizador;
#X obj 153 162 dinamizador;
#X obj 120 179 dinamizador;
#X obj 112 145 dinamizador;
#X obj 84 162 dinamizador;
#X obj 49 179 dinamizador;
#X obj 44 70 inlet;
#X obj 86 70 inlet;
#X obj 77 244 sig~;
#X obj 81 271 outlet~;
#X obj 365 196 dinamizador;
#X obj 404 179 dinamizador;
#X obj 364 162 dinamizador;
#X obj 333 179 dinamizador;
#X obj 86 96 unpack 0 0 0 0 0 0 0 0 0 0 0 0 0 0 0 0;
#X obj 83 118 sel 1 2 3 4 5 6 7 8 9 10 11 12 13 14 15 16;
#X connect 0 0 14 0;
#X connect 1 0 14 0;
#X connect 2 0 14 0;
#X connect 3 0 14 0;
#X connect 4 0 14 0;
#X connect 5 0 14 0;
#X connect 6 0 14 0;
#X connect 7 0 14 0;
#X connect 8 0 14 0;
#X connect 9 0 14 0;
#X connect 10 0 14 0;
#X connect 11 0 14 0;
#X connect 12 0 21 0;
#X connect 13 0 20 0;
#X connect 14 0 15 0;
#X connect 16 0 14 0;
#X connect 17 0 14 0;
#X connect 18 0 14 0;
#X connect 19 0 14 0;
#X connect 20 0 9 1;
#X connect 20 1 6 1;
#X connect 20 2 10 1;
#X connect 20 3 7 1;
#X connect 20 4 4 1;
#X connect 20 5 11 1;
#X connect 20 6 8 1;
#X connect 20 7 5 1;
#X connect 20 8 3 1;
#X connect 20 9 0 1;
#X connect 20 10 2 1;
#X connect 20 11 1 1;
#X connect 20 12 18 1;
#X connect 20 13 19 1;
#X connect 20 14 17 1;
#X connect 20 15 16 1;
#X connect 21 0 9 0;
#X connect 21 1 6 0;
#X connect 21 2 10 0;
#X connect 21 3 7 0;
#X connect 21 4 4 0;
#X connect 21 5 11 0;
#X connect 21 6 8 0;
#X connect 21 7 5 0;
#X connect 21 8 3 0;
#X connect 21 9 0 0;
#X connect 21 10 2 0;
#X connect 21 11 1 0;
#X connect 21 12 18 0;
#X connect 21 13 19 0;
#X connect 21 14 17 0;
#X connect 21 15 16 0;
