#N canvas 527 40 838 669 10;
#X obj 136 111 inlet;
#X obj 484 72 inlet;
#X obj 449 92 inlet;
#X obj 413 110 inlet;
#X obj 107 89 inlet;
#X obj 377 90 inlet;
#X obj 343 71 inlet;
#X obj 309 90 inlet;
#X obj 274 71 inlet;
#X obj 240 90 inlet;
#X obj 205 109 inlet;
#X obj 170 90 inlet;
#X obj 49 389 probable;
#X obj 102 460 probable;
#X obj 49 460 probable;
#X obj 136 442 probable;
#X obj 83 442 probable;
#X obj 30 442 probable;
#X obj 102 389 probable;
#X obj 100 424 probable;
#X obj 47 424 probable;
#X obj 82 407 probable;
#X obj 29 407 probable;
#X obj 128 296 metro;
#X obj 164 653 bng 15 250 50 0 empty empty empty 0 -6 0 10 -262144
-1 -1;
#X obj 6 559 gate;
#X obj 17 589 gate;
#X obj 32 607 gate;
#X obj 47 589 gate;
#X obj 62 572 gate;
#X obj 76 555 gate;
#X obj 91 573 gate;
#X obj 106 592 gate;
#X obj 121 609 gate;
#X obj 135 591 gate;
#X obj 150 574 gate;
#X obj 165 555 gate;
#X obj 6 512 tgl 15 0 empty empty empty 0 -6 0 10 -262144 -1 -1 0 1
;
#X obj 22 512 tgl 15 0 empty empty empty 0 -6 0 10 -262144 -1 -1 0
1;
#X obj 38 512 tgl 15 0 empty empty empty 0 -6 0 10 -262144 -1 -1 0
1;
#X obj 54 512 tgl 15 0 empty empty empty 0 -6 0 10 -262144 -1 -1 0
1;
#X obj 70 512 tgl 15 0 empty empty empty 0 -6 0 10 -262144 -1 -1 0
1;
#X obj 86 512 tgl 15 0 empty empty empty 0 -6 0 10 -262144 -1 -1 0
1;
#X obj 102 512 tgl 15 0 empty empty empty 0 -6 0 10 -262144 -1 -1 0
1;
#X obj 118 512 tgl 15 0 empty empty empty 0 -6 0 10 -262144 -1 -1 0
1;
#X obj 134 512 tgl 15 0 empty empty empty 0 -6 0 10 -262144 -1 -1 0
1;
#X obj 150 512 tgl 15 0 empty empty empty 0 -6 0 10 -262144 -1 -1 0
1;
#X obj 166 512 tgl 15 0 empty empty empty 0 -6 0 10 -262144 -1 -1 0
1;
#X obj 23 343 bng 15 250 50 0 empty empty empty 0 -6 0 10 -262144 -1
-1;
#X obj 63 92 inlet;
#X obj 15 92 inlet;
#X obj 164 675 outlet;
#X obj 182 512 tgl 15 0 empty empty empty 0 -6 0 10 -262144 -1 -1 0
1;
#X obj 22 527 bng 15 50 10 0 empty empty empty 17 7 0 10 -262144 -1
-1;
#X obj 38 527 bng 15 50 10 0 empty empty empty 17 7 0 10 -262144 -1
-1;
#X obj 54 527 bng 15 50 10 0 empty empty empty 17 7 0 10 -262144 -1
-1;
#X obj 86 527 bng 15 50 10 0 empty empty empty 17 7 0 10 -262144 -1
-1;
#X obj 71 527 bng 15 50 10 0 empty empty empty 17 7 0 10 -262144 -1
-1;
#X obj 6 527 bng 15 50 10 0 empty empty empty 17 7 0 10 -262144 -1
-1;
#X obj 118 527 bng 15 50 10 0 empty empty empty 17 7 0 10 -262144 -1
-1;
#X obj 134 527 bng 15 50 10 0 empty empty empty 17 7 0 10 -262144 -1
-1;
#X obj 150 527 bng 15 50 10 0 empty empty empty 17 7 0 10 -262144 -1
-1;
#X obj 167 527 bng 15 50 10 0 empty empty empty 17 7 0 10 -262144 -1
-1;
#X obj 182 527 bng 15 50 10 0 empty empty empty 17 7 0 10 -262144 -1
-1;
#X obj 102 527 bng 15 50 10 0 empty empty empty 17 7 0 10 -262144 -1
-1;
#X obj 179 612 gate;
#X obj 203 592 gate;
#X obj 218 575 gate;
#X obj 233 556 gate;
#X obj 198 512 tgl 15 0 empty empty empty 0 -6 0 10 -262144 -1 -1 0
1;
#X obj 214 512 tgl 15 0 empty empty empty 0 -6 0 10 -262144 -1 -1 0
1;
#X obj 230 512 tgl 15 0 empty empty empty 0 -6 0 10 -262144 -1 -1 0
1;
#X obj 246 512 tgl 15 0 empty empty empty 0 -6 0 10 -262144 -1 -1 0
1;
#X obj 198 527 bng 15 50 10 0 empty empty empty 17 7 0 10 -262144 -1
-1;
#X obj 214 527 bng 15 50 10 0 empty empty empty 17 7 0 10 -262144 -1
-1;
#X obj 231 527 bng 15 50 10 0 empty empty empty 17 7 0 10 -262144 -1
-1;
#X obj 246 527 bng 15 50 10 0 empty empty empty 17 7 0 10 -262144 -1
-1;
#X obj 5 483 sel 1 2 3 4 5 6 7 8 9 10 11 12 13 14 15 16;
#X obj 135 407 probable;
#X obj 194 411 probable;
#X obj 212 429 probable;
#X obj 229 447 probable;
#X obj 256 463 probable;
#X obj 612 79 inlet;
#X obj 577 99 inlet;
#X obj 541 117 inlet;
#X obj 505 97 inlet;
#X obj 142 335 counter 0 1 16;
#X obj 40 260 sel 1;
#X msg 64 308 jam 1;
#X obj 673 87 r metrica;
#X connect 0 0 18 1;
#X connect 1 0 13 1;
#X connect 2 0 14 1;
#X connect 3 0 15 1;
#X connect 4 0 12 1;
#X connect 5 0 16 1;
#X connect 6 0 17 1;
#X connect 7 0 19 1;
#X connect 8 0 20 1;
#X connect 9 0 78 1;
#X connect 10 0 21 1;
#X connect 11 0 22 1;
#X connect 12 0 37 0;
#X connect 13 0 52 0;
#X connect 14 0 47 0;
#X connect 15 0 46 0;
#X connect 16 0 45 0;
#X connect 17 0 44 0;
#X connect 18 0 38 0;
#X connect 19 0 43 0;
#X connect 20 0 42 0;
#X connect 21 0 40 0;
#X connect 22 0 39 0;
#X connect 23 0 87 0;
#X connect 23 0 48 0;
#X connect 24 0 51 0;
#X connect 25 0 24 0;
#X connect 26 0 24 0;
#X connect 27 0 24 0;
#X connect 28 0 24 0;
#X connect 29 0 24 0;
#X connect 30 0 24 0;
#X connect 31 0 24 0;
#X connect 32 0 24 0;
#X connect 33 0 24 0;
#X connect 34 0 24 0;
#X connect 35 0 24 0;
#X connect 36 0 24 0;
#X connect 37 0 25 0;
#X connect 38 0 26 0;
#X connect 39 0 27 0;
#X connect 40 0 28 0;
#X connect 41 0 29 0;
#X connect 42 0 30 0;
#X connect 43 0 31 0;
#X connect 44 0 32 0;
#X connect 45 0 33 0;
#X connect 46 0 34 0;
#X connect 47 0 35 0;
#X connect 48 0 12 0;
#X connect 48 0 18 0;
#X connect 48 0 22 0;
#X connect 48 0 21 0;
#X connect 48 0 20 0;
#X connect 48 0 19 0;
#X connect 48 0 17 0;
#X connect 48 0 16 0;
#X connect 48 0 15 0;
#X connect 48 0 14 0;
#X connect 48 0 13 0;
#X connect 48 0 78 0;
#X connect 49 0 23 1;
#X connect 50 0 23 0;
#X connect 50 0 88 0;
#X connect 52 0 36 0;
#X connect 58 0 48 0;
#X connect 65 0 24 0;
#X connect 66 0 24 0;
#X connect 67 0 24 0;
#X connect 68 0 24 0;
#X connect 69 0 65 0;
#X connect 70 0 66 0;
#X connect 71 0 67 0;
#X connect 72 0 68 0;
#X connect 77 0 25 1;
#X connect 77 0 58 0;
#X connect 77 1 26 1;
#X connect 77 1 53 0;
#X connect 77 2 27 1;
#X connect 77 2 54 0;
#X connect 77 3 28 1;
#X connect 77 3 55 0;
#X connect 77 4 29 1;
#X connect 77 4 57 0;
#X connect 77 5 30 1;
#X connect 77 5 56 0;
#X connect 77 6 31 1;
#X connect 77 6 64 0;
#X connect 77 7 32 1;
#X connect 77 7 59 0;
#X connect 77 8 33 1;
#X connect 77 8 60 0;
#X connect 77 9 34 1;
#X connect 77 9 61 0;
#X connect 77 10 35 1;
#X connect 77 10 62 0;
#X connect 77 11 36 1;
#X connect 77 11 63 0;
#X connect 77 12 79 0;
#X connect 77 12 65 1;
#X connect 77 12 73 0;
#X connect 77 13 80 0;
#X connect 77 13 66 1;
#X connect 77 13 74 0;
#X connect 77 14 81 0;
#X connect 77 14 67 1;
#X connect 77 14 75 0;
#X connect 77 15 82 0;
#X connect 77 15 68 1;
#X connect 77 15 76 0;
#X connect 78 0 41 0;
#X connect 79 0 69 0;
#X connect 80 0 70 0;
#X connect 81 0 71 0;
#X connect 82 0 72 0;
#X connect 83 0 82 1;
#X connect 84 0 81 1;
#X connect 85 0 80 1;
#X connect 86 0 79 1;
#X connect 87 0 77 0;
#X connect 88 0 89 0;
#X connect 89 0 87 0;
#X connect 90 0 87 4;
