#N canvas 216 115 864 597 10;
#X obj 140 85 inlet;
#X obj 304 205 inlet;
#X obj 289 185 inlet;
#X obj 267 205 inlet;
#X obj 125 65 inlet;
#X obj 252 185 inlet;
#X obj 230 205 inlet;
#X obj 215 185 inlet;
#X obj 200 165 inlet;
#X obj 185 145 inlet;
#X obj 170 125 inlet;
#X obj 155 105 inlet;
#X obj 77 270 probable;
#X obj 269 387 probable;
#X obj 254 367 probable;
#X obj 239 347 probable;
#X obj 223 328 probable;
#X obj 209 308 probable;
#X obj 92 289 probable;
#X obj 194 288 probable;
#X obj 152 368 probable;
#X obj 122 328 probable;
#X obj 107 308 probable;
#X obj 14 48 metro;
#X obj 29 720 bng 15 250 50 0 empty empty empty 0 -6 0 10 -262144 -1
-1;
#X obj 17 628 gate;
#X obj 17 649 gate;
#X obj 17 670 gate;
#X obj 17 691 gate;
#X obj 58 627 gate;
#X obj 58 646 gate;
#X obj 58 665 gate;
#X obj 58 684 gate;
#X obj 109 626 gate;
#X obj 109 647 gate;
#X obj 109 666 gate;
#X obj 107 687 gate;
#X obj 315 243 bng 15 250 50 0 empty empty empty 0 -6 0 10 -262144
-1 -1;
#X obj 110 45 inlet;
#X obj 95 6 inlet;
#X obj 29 742 outlet;
#X obj 76 742 outlet;
#X obj 152 626 gate;
#X obj 150 646 gate;
#X obj 151 666 gate;
#X obj 148 687 gate;
#X obj 137 348 probable;
#X obj 309 367 probable;
#X obj 329 348 probable;
#X obj 349 329 probable;
#X obj 369 310 probable;
#X obj 402 185 inlet;
#X obj 364 185 inlet;
#X obj 341 205 inlet;
#X obj 327 185 inlet;
#X obj 54 152 counter 0 1 16;
#X msg 56 128 jam 1;
#X obj 54 192 s cerosec;
#X obj 54 172 sel 1;
#X obj 93 131 r metrica;
#X obj 14 309 spigot;
#X msg 14 65 1;
#X obj 27 277 spigot;
#X obj 292 40 sel 0 1;
#X msg 292 63 1;
#X msg 311 99 0;
#X obj 14 88 metro;
#X msg 171 64 1;
#X msg 200 65 0;
#X obj 14 109 spigot;
#X msg 33 344 1;
#X obj 41 67 / 2;
#X obj 170 44 sel 0 1;
#X obj 227 18 loadbang;
#X obj 291 17 r sa;
#X obj 170 21 r sb;
#X obj 3 447 sel 1 2 3 4 5 6 7 8 9 10 11 12 13 14 15 16 17 18 19 20
21 22 23 24;
#X obj 196 625 gate;
#X obj 196 644 gate;
#X obj 197 663 gate;
#X obj 197 682 gate;
#X obj 243 625 gate;
#X obj 243 644 gate;
#X obj 242 664 gate;
#X obj 242 685 gate;
#X obj 389 291 probable;
#X obj 409 272 probable;
#X obj 439 353 probable;
#X obj 478 315 probable;
#X obj 447 125 inlet;
#X obj 432 145 inlet;
#X obj 417 165 inlet;
#X obj 378 205 inlet;
#X obj 459 334 probable;
#X obj 498 296 probable;
#X obj 518 277 probable;
#X obj 538 258 probable;
#X obj 507 45 inlet;
#X obj 492 65 inlet;
#X obj 477 85 inlet;
#X obj 462 105 inlet;
#X obj 68 100 bng 15 250 50 0 empty empty empty 17 7 0 10 -262144 -1
-1;
#X floatatom 112 25 5 0 0 0 - - -, f 5;
#X obj 82 75 sel 1 0;
#X connect 0 0 18 1;
#X connect 1 0 13 1;
#X connect 2 0 14 1;
#X connect 3 0 15 1;
#X connect 4 0 12 1;
#X connect 5 0 16 1;
#X connect 6 0 17 1;
#X connect 7 0 19 1;
#X connect 8 0 20 1;
#X connect 9 0 46 1;
#X connect 10 0 21 1;
#X connect 11 0 22 1;
#X connect 12 0 25 0;
#X connect 13 0 36 0;
#X connect 14 0 35 0;
#X connect 15 0 34 0;
#X connect 16 0 33 0;
#X connect 17 0 32 0;
#X connect 18 0 26 0;
#X connect 19 0 31 0;
#X connect 20 0 30 0;
#X connect 21 0 28 0;
#X connect 22 0 27 0;
#X connect 23 0 55 0;
#X connect 23 0 37 0;
#X connect 23 0 61 0;
#X connect 24 0 40 0;
#X connect 25 0 24 0;
#X connect 26 0 24 0;
#X connect 27 0 24 0;
#X connect 28 0 24 0;
#X connect 29 0 24 0;
#X connect 30 0 24 0;
#X connect 31 0 24 0;
#X connect 32 0 24 0;
#X connect 33 0 24 0;
#X connect 34 0 24 0;
#X connect 35 0 24 0;
#X connect 36 0 24 0;
#X connect 37 0 12 0;
#X connect 37 0 18 0;
#X connect 37 0 22 0;
#X connect 37 0 21 0;
#X connect 37 0 20 0;
#X connect 37 0 19 0;
#X connect 37 0 17 0;
#X connect 37 0 16 0;
#X connect 37 0 15 0;
#X connect 37 0 14 0;
#X connect 37 0 13 0;
#X connect 37 0 46 0;
#X connect 37 0 93 0;
#X connect 37 0 87 0;
#X connect 37 0 96 0;
#X connect 37 0 95 0;
#X connect 37 0 94 0;
#X connect 37 0 88 0;
#X connect 37 0 86 0;
#X connect 37 0 85 0;
#X connect 37 0 50 0;
#X connect 37 0 49 0;
#X connect 37 0 48 0;
#X connect 37 0 47 0;
#X connect 38 0 23 1;
#X connect 38 0 71 0;
#X connect 39 0 23 0;
#X connect 39 0 66 0;
#X connect 39 0 102 0;
#X connect 39 0 103 0;
#X connect 42 0 24 0;
#X connect 43 0 24 0;
#X connect 44 0 24 0;
#X connect 45 0 24 0;
#X connect 46 0 29 0;
#X connect 47 0 42 0;
#X connect 48 0 43 0;
#X connect 49 0 44 0;
#X connect 50 0 45 0;
#X connect 51 0 85 1;
#X connect 52 0 49 1;
#X connect 53 0 48 1;
#X connect 54 0 47 1;
#X connect 55 0 41 0;
#X connect 55 0 58 0;
#X connect 55 0 76 0;
#X connect 56 0 55 0;
#X connect 58 0 57 0;
#X connect 59 0 55 4;
#X connect 60 0 76 0;
#X connect 61 0 60 0;
#X connect 62 0 76 0;
#X connect 63 0 64 0;
#X connect 63 1 65 0;
#X connect 64 0 62 1;
#X connect 65 0 62 1;
#X connect 66 0 69 0;
#X connect 67 0 62 1;
#X connect 68 0 62 1;
#X connect 69 0 70 0;
#X connect 70 0 76 0;
#X connect 71 0 66 1;
#X connect 72 0 67 0;
#X connect 72 1 68 0;
#X connect 73 0 67 0;
#X connect 74 0 60 1;
#X connect 74 0 63 0;
#X connect 75 0 69 1;
#X connect 75 0 72 0;
#X connect 76 0 25 1;
#X connect 76 1 26 1;
#X connect 76 2 27 1;
#X connect 76 3 28 1;
#X connect 76 4 29 1;
#X connect 76 5 30 1;
#X connect 76 6 31 1;
#X connect 76 7 32 1;
#X connect 76 8 33 1;
#X connect 76 9 34 1;
#X connect 76 10 35 1;
#X connect 76 11 36 1;
#X connect 76 12 42 1;
#X connect 76 13 43 1;
#X connect 76 14 44 1;
#X connect 76 15 45 1;
#X connect 76 16 77 1;
#X connect 76 17 78 1;
#X connect 76 18 79 1;
#X connect 76 19 80 1;
#X connect 76 20 81 1;
#X connect 76 21 82 1;
#X connect 76 22 83 1;
#X connect 76 23 84 1;
#X connect 77 0 24 0;
#X connect 78 0 24 0;
#X connect 79 0 24 0;
#X connect 80 0 24 0;
#X connect 81 0 24 0;
#X connect 82 0 24 0;
#X connect 83 0 24 0;
#X connect 84 0 24 0;
#X connect 85 0 77 0;
#X connect 86 0 78 0;
#X connect 87 0 79 0;
#X connect 88 0 81 0;
#X connect 89 0 93 1;
#X connect 90 0 87 1;
#X connect 91 0 86 1;
#X connect 92 0 50 1;
#X connect 93 0 80 0;
#X connect 94 0 82 0;
#X connect 95 0 83 0;
#X connect 96 0 84 0;
#X connect 97 0 96 1;
#X connect 98 0 95 1;
#X connect 99 0 94 1;
#X connect 100 0 88 1;
#X connect 103 0 56 0;
#X connect 103 0 101 0;
#X connect 103 1 55 2;
