#N canvas 620 172 450 300 10;
#X obj 166 92 hid;
#X msg 166 72 refresh;
#X msg 166 52 open \$1 \, 1;
#X obj 166 112 route abs key;
#X obj 166 132 route abs_x abs_y abs_pressure;
#X obj 166 152 s tex;
#X obj 225 152 s tey;
#X obj 284 151 s tep;
#X obj 203 187 route btn_10 btn_11 btn_12;
#X obj 203 207 s tb1;
#X obj 255 207 s tb2;
#X obj 304 207 s tb3;
#X obj 166 32 inlet;
#X obj 100 145 print;
#X connect 0 0 3 0;
#X connect 0 0 13 0;
#X connect 1 0 0 0;
#X connect 2 0 0 0;
#X connect 3 0 4 0;
#X connect 3 1 8 0;
#X connect 4 0 5 0;
#X connect 4 1 6 0;
#X connect 4 2 7 0;
#X connect 8 0 9 0;
#X connect 8 1 10 0;
#X connect 8 2 11 0;
#X connect 12 0 2 0;
