#N canvas 1 27 1364 682 10;
#X obj 97 53 r f28;
#X obj 155 276 *~;
#X obj 47 171 sel 1 0;
#X msg 50 210 0.8;
#X msg 62 236 0;
#X obj 96 100 expr $f1 \; $f2*800 \; $f3*800 \; $f4/6;
#X obj 97 76 unpack 0 0 0 0 0 0 0;
#X obj 215 145 t f b;
#X obj 216 178 + 1;
#X obj 203 201 *;
#X obj 166 219 f;
#X obj 287 81 openpanel;
#X obj 286 57 bng 15 250 50 0 empty empty empty 17 7 0 10 -262144 -1
-1;
#X msg 282 107 set read -resize \$1 tatata;
#X msg 283 131 read -resize /home/juan/pd-externals/samples/loops/raptor1.wav
tatata;
#X obj 284 165 soundfiler;
#N canvas 0 0 450 300 (subpatch) 0;
#X array tatata 72162 float 2;
#X coords 0 1 72162 -1 200 140 1;
#X restore 422 183 graph;
#X obj 264 247 tabread4~ tatata;
#X obj 265 199 phasor~;
#X obj 264 224 *~;
#X obj 184 231 / 1e+06;
#X msg 66 270 0;
#X obj 225 105 * -0.5;
#X msg 149 188 1;
#X obj 149 165 loadbang;
#X obj 159 322 reverberador~;
#X obj 286 282 expr ($f1* -1)+1;
#X obj 401 336 r c0;
#X obj 444 54 reactableador;
#X obj 309 317 bp~ 0 3;
#X obj 335 425 expr ($f1* 20000)-200;
#X obj 330 374 i;
#X obj 400 363 unpack;
#X obj 1003 250 openpanel;
#X obj 1002 226 bng 15 250 50 0 empty empty empty 17 7 0 10 -262144
-1 -1;
#X msg 999 300 read -resize /home/juan/pd-externals/samples/loops/tambora.wav
papapa;
#X obj 1000 334 soundfiler;
#X obj 981 368 phasor~;
#X obj 980 393 *~;
#X msg 998 276 set read -resize \$1 papapa;
#X obj 980 416 tabread4~ papapa;
#X obj 714 152 sel 1 0;
#X msg 717 191 0.8;
#X msg 759 219 0;
#X obj 763 81 expr $f1 \; $f2*800 \; $f3*800 \; $f4/6;
#X obj 764 57 unpack 0 0 0 0 0 0 0;
#X msg 733 251 0;
#N canvas 0 0 450 300 (subpatch) 0;
#X array papapa 82041 float 2;
#X coords 0 1 82041 -1 200 140 1;
#X restore 672 437 graph;
#X obj 764 34 r f29;
#X obj 161 475 outlet~;
#X obj 234 479 outlet~;
#X floatatom 122 301 15 0 0 0 - - -;
#X connect 0 0 6 0;
#X connect 1 0 25 0;
#X connect 2 0 3 0;
#X connect 2 0 21 0;
#X connect 2 1 4 0;
#X connect 3 0 1 1;
#X connect 4 0 1 1;
#X connect 5 0 2 0;
#X connect 6 0 5 0;
#X connect 6 1 5 1;
#X connect 6 1 25 2;
#X connect 6 2 5 2;
#X connect 6 2 25 5;
#X connect 6 2 26 0;
#X connect 6 3 5 3;
#X connect 6 6 22 0;
#X connect 7 0 8 0;
#X connect 7 1 10 0;
#X connect 8 0 9 1;
#X connect 9 0 10 1;
#X connect 10 0 9 0;
#X connect 10 0 20 0;
#X connect 11 0 13 0;
#X connect 12 0 11 0;
#X connect 13 0 14 0;
#X connect 14 0 15 0;
#X connect 15 0 19 1;
#X connect 17 0 1 0;
#X connect 18 0 19 0;
#X connect 19 0 17 0;
#X connect 20 0 18 0;
#X connect 20 0 37 0;
#X connect 20 0 51 0;
#X connect 21 0 18 1;
#X connect 22 0 7 0;
#X connect 23 0 10 0;
#X connect 24 0 23 0;
#X connect 25 0 49 0;
#X connect 25 1 50 0;
#X connect 26 0 25 6;
#X connect 27 0 32 0;
#X connect 30 0 29 1;
#X connect 30 0 31 0;
#X connect 32 1 30 0;
#X connect 33 0 39 0;
#X connect 34 0 33 0;
#X connect 35 0 36 0;
#X connect 36 0 38 1;
#X connect 37 0 38 0;
#X connect 38 0 40 0;
#X connect 39 0 35 0;
#X connect 40 0 1 0;
#X connect 41 0 42 0;
#X connect 41 0 46 0;
#X connect 41 1 43 0;
#X connect 42 0 1 1;
#X connect 43 0 1 1;
#X connect 44 0 41 0;
#X connect 45 0 44 0;
#X connect 45 1 44 1;
#X connect 45 1 25 2;
#X connect 45 2 44 2;
#X connect 45 2 25 5;
#X connect 45 3 44 3;
#X connect 45 6 22 0;
#X connect 46 0 37 1;
#X connect 48 0 45 0;
