#N canvas 389 232 450 461 10;
#X obj 0 3 key;
#X obj 27 3 keyup;
#X obj 0 25 sel 122 120 99 118 98 110 109 97 115 100 102 103 104 106
107 108;
#X msg 0 57 1;
#X msg 20 76 1;
#X msg 41 57 1;
#X msg 62 76 1;
#X msg 83 57 1;
#X msg 103 76 1;
#X msg 124 57 1;
#X msg 145 76 1;
#X msg 166 57 1;
#X msg 186 76 1;
#X msg 207 57 1;
#X msg 228 76 1;
#X msg 249 57 1;
#X msg 269 76 1;
#X msg 290 57 1;
#X msg 311 76 1;
#X obj 0 95 sel 122 120 99 118 98 110 109 97 115 100 102 103 104 106
107 108;
#X msg 0 127 0;
#X msg 20 146 0;
#X msg 41 127 0;
#X msg 62 146 0;
#X msg 83 127 0;
#X msg 103 146 0;
#X msg 124 127 0;
#X msg 145 146 0;
#X msg 166 127 0;
#X msg 186 146 0;
#X msg 207 127 0;
#X msg 228 146 0;
#X msg 249 127 0;
#X msg 269 146 0;
#X msg 290 127 0;
#X msg 311 146 0;
#X obj 0 217 poly 4;
#X msg 0 165 0 \$1;
#X msg 20 185 1 \$1;
#X msg 41 165 2 \$1;
#X msg 62 185 3 \$1;
#X msg 83 165 4 \$1;
#X msg 103 185 5 \$1;
#X msg 124 165 6 \$1;
#X msg 145 185 7 \$1;
#X msg 166 165 8 \$1;
#X msg 186 185 9 \$1;
#X msg 207 165 10 \$1;
#X msg 228 185 11 \$1;
#X msg 249 165 12 \$1;
#X msg 269 185 13 \$1;
#X msg 290 165 14 \$1;
#X msg 311 185 15 \$1;
#X obj 0 236 pack 0 0 0;
#X obj 0 255 route 1 2 3 4;
#X obj 0 274 route 0 1 2 3 4 5 6 7 8 9 10 11 12 13 14 15;
#X obj 0 295 s mb1;
#X connect 0 0 2 0;
#X connect 1 0 19 0;
#X connect 2 0 3 0;
#X connect 2 1 4 0;
#X connect 2 2 5 0;
#X connect 2 3 6 0;
#X connect 2 4 7 0;
#X connect 2 5 8 0;
#X connect 2 6 9 0;
#X connect 2 7 10 0;
#X connect 2 8 11 0;
#X connect 2 9 12 0;
#X connect 2 10 13 0;
#X connect 2 11 14 0;
#X connect 2 12 15 0;
#X connect 2 13 16 0;
#X connect 2 14 17 0;
#X connect 2 15 18 0;
#X connect 3 0 37 0;
#X connect 4 0 38 0;
#X connect 5 0 39 0;
#X connect 6 0 40 0;
#X connect 7 0 41 0;
#X connect 8 0 25 0;
#X connect 9 0 43 0;
#X connect 10 0 44 0;
#X connect 11 0 45 0;
#X connect 12 0 46 0;
#X connect 13 0 47 0;
#X connect 14 0 48 0;
#X connect 15 0 49 0;
#X connect 16 0 50 0;
#X connect 17 0 51 0;
#X connect 18 0 52 0;
#X connect 19 0 20 0;
#X connect 19 1 21 0;
#X connect 19 2 22 0;
#X connect 19 3 23 0;
#X connect 19 4 24 0;
#X connect 19 5 25 0;
#X connect 19 6 26 0;
#X connect 19 7 27 0;
#X connect 19 8 28 0;
#X connect 19 9 29 0;
#X connect 19 10 30 0;
#X connect 19 11 31 0;
#X connect 19 12 32 0;
#X connect 19 13 33 0;
#X connect 19 14 34 0;
#X connect 19 15 35 0;
#X connect 20 0 37 0;
#X connect 21 0 38 0;
#X connect 22 0 39 0;
#X connect 23 0 40 0;
#X connect 24 0 41 0;
#X connect 25 0 42 0;
#X connect 26 0 43 0;
#X connect 27 0 44 0;
#X connect 28 0 45 0;
#X connect 29 0 46 0;
#X connect 30 0 47 0;
#X connect 31 0 48 0;
#X connect 32 0 49 0;
#X connect 33 0 50 0;
#X connect 34 0 51 0;
#X connect 35 0 52 0;
#X connect 36 0 53 0;
#X connect 36 1 53 1;
#X connect 36 2 53 2;
#X connect 37 0 36 0;
#X connect 38 0 36 0;
#X connect 39 0 36 0;
#X connect 40 0 36 0;
#X connect 41 0 36 0;
#X connect 42 0 36 0;
#X connect 43 0 36 0;
#X connect 44 0 36 0;
#X connect 45 0 36 0;
#X connect 46 0 36 0;
#X connect 47 0 36 0;
#X connect 48 0 36 0;
#X connect 49 0 36 0;
#X connect 50 0 36 0;
#X connect 51 0 36 0;
#X connect 52 0 36 0;
#X connect 53 0 54 0;
#X connect 54 0 55 0;
#X connect 54 1 55 0;
#X connect 54 2 55 0;
#X connect 54 3 55 0;
#X connect 55 0 56 0;
