#N canvas 220 95 450 397 10;
#X obj 78 113 pix_movie;
#X obj 78 83 gemhead;
#X obj 78 238 pix_texture;
#X obj 80 282 rectangle 4 3;
#X obj 206 234 gemwin;
#X msg 207 211 create \, 1;
#X obj 175 75 openpanel;
#X msg 175 101 open \$1;
#X obj 182 46 bng 15 250 50 0 empty empty empty 17 7 0 10 -262144 -1
-1;
#X floatatom 133 47 5 0 0 0 - - -;
#X obj 244 65 dumpOSC 9999;
#X floatatom 287 172 5 0 0 0 - - -;
#X obj 180 130 unpack 0 0 0;
#X floatatom 339 49 5 0 0 0 - - -;
#X floatatom 384 62 5 0 0 0 - - -;
#X floatatom 183 165 5 0 0 0 - - -;
#X obj 275 144 expr (($f1*$f2)*$f3)+$f4;
#X obj 78 216 color;
#X obj 105 197 pack 0 0 0;
#X obj 263 269 color;
#X obj 290 250 pack 0 0 0;
#X obj 78 59 tgl 15 0 empty empty empty 17 7 0 10 -262144 -1 -1 1 1
;
#X obj 225 86 OSCroute /seccionador /pulso /rota;
#X obj 365 190 s otro;
#X floatatom 253 308 5 0 0 0 - - -;
#X obj 152 334 text3d 100% Perico;
#X obj 307 321 r otro;
#X connect 0 0 17 0;
#X connect 0 1 12 0;
#X connect 1 0 0 0;
#X connect 1 0 19 0;
#X connect 2 0 3 0;
#X connect 5 0 4 0;
#X connect 6 0 7 0;
#X connect 7 0 0 0;
#X connect 8 0 6 0;
#X connect 9 0 0 1;
#X connect 10 0 22 0;
#X connect 12 0 15 0;
#X connect 13 0 16 2;
#X connect 14 0 16 3;
#X connect 15 0 16 1;
#X connect 16 0 9 0;
#X connect 16 0 11 0;
#X connect 17 0 2 0;
#X connect 18 0 17 1;
#X connect 19 0 25 0;
#X connect 20 0 19 1;
#X connect 21 0 1 0;
#X connect 22 0 16 0;
#X connect 22 1 18 0;
#X connect 22 1 18 2;
#X connect 22 1 18 1;
#X connect 22 1 20 1;
#X connect 22 1 20 0;
#X connect 22 2 23 0;
#X connect 24 0 25 1;
#X connect 26 0 24 0;
