#N canvas 53 547 476 375 10;
#X obj 335 269 pantallero;
#X obj 8 137 gemhead;
#N canvas 192 288 1345 573 videa 1;
#X obj 100 244 openpanel;
#X msg 100 263 set open \$1;
#X obj 100 477 outlet;
#X obj 223 225 sel 0 1 2 3 4 5 6 7;
#X obj 100 100 hradio 15 1 0 8 empty empty empty 0 -8 0 10 -258113
-262144 -1 0;
#X obj 100 225 sel 0 1 2 3 4 5 6 7;
#X obj 100 116 hradio 15 1 0 8 empty empty empty 0 -8 0 10 -262144
-1 -1 1;
#X msg 100 282 open /home/juan/Escritorio/Tibi Ft Pitbull/video/tibisayVideo.mp4
;
#X obj 113 301 openpanel;
#X msg 113 320 set open \$1;
#X msg 113 339 open /home/juan/Descargas/Indonesian baby on 40 cigarettes
a day(720p_VP8-Vorbis).webm;
#X obj 127 358 openpanel;
#X msg 127 377 set open \$1;
#X msg 127 396;
#X obj 141 416 openpanel;
#X msg 141 435 set open \$1;
#X msg 141 454;
#X obj 181 246 openpanel;
#X msg 181 265 set open \$1;
#X msg 181 284;
#X obj 194 303 openpanel;
#X msg 194 322 set open \$1;
#X msg 194 341;
#X obj 208 360 openpanel;
#X msg 208 379 set open \$1;
#X msg 208 398;
#X obj 222 418 openpanel;
#X msg 222 437 set open \$1;
#X msg 222 456;
#X obj 348 244 openpanel;
#X msg 348 263 set open \$1;
#X obj 348 477 outlet;
#X obj 471 225 sel 0 1 2 3 4 5 6 7;
#X obj 348 225 sel 0 1 2 3 4 5 6 7;
#X msg 348 282 open /home/juan/pd-externals/videos/Video-0005.mp4;
#X obj 361 301 openpanel;
#X msg 361 320 set open \$1;
#X msg 361 339;
#X obj 375 358 openpanel;
#X msg 375 377 set open \$1;
#X msg 375 396;
#X obj 389 416 openpanel;
#X msg 389 435 set open \$1;
#X msg 389 454;
#X obj 429 246 openpanel;
#X msg 429 265 set open \$1;
#X msg 429 284;
#X obj 442 303 openpanel;
#X msg 442 322 set open \$1;
#X msg 442 341;
#X obj 456 360 openpanel;
#X msg 456 379 set open \$1;
#X msg 456 398;
#X obj 470 418 openpanel;
#X msg 470 437 set open \$1;
#X msg 470 456;
#X obj 595 244 openpanel;
#X msg 595 263 set open \$1;
#X obj 595 477 outlet;
#X obj 718 225 sel 0 1 2 3 4 5 6 7;
#X obj 595 225 sel 0 1 2 3 4 5 6 7;
#X msg 595 282 open /home/juan/pd-externals/videos/Video-0004.mp4;
#X obj 608 301 openpanel;
#X msg 608 320 set open \$1;
#X msg 608 339;
#X obj 622 358 openpanel;
#X msg 622 377 set open \$1;
#X msg 622 396;
#X obj 636 416 openpanel;
#X msg 636 435 set open \$1;
#X msg 636 454;
#X obj 676 246 openpanel;
#X msg 676 265 set open \$1;
#X msg 676 284;
#X obj 689 303 openpanel;
#X msg 689 322 set open \$1;
#X msg 689 341;
#X obj 703 360 openpanel;
#X msg 703 379 set open \$1;
#X msg 703 398;
#X obj 717 418 openpanel;
#X msg 717 437 set open \$1;
#X msg 717 456;
#X obj 841 244 openpanel;
#X msg 841 263 set open \$1;
#X obj 841 477 outlet;
#X obj 964 225 sel 0 1 2 3 4 5 6 7;
#X obj 841 225 sel 0 1 2 3 4 5 6 7;
#X msg 841 282 open /home/juan/pd-externals/videos/Video-0002.mp4;
#X obj 854 301 openpanel;
#X msg 854 320 set open \$1;
#X msg 854 339;
#X obj 868 358 openpanel;
#X msg 868 377 set open \$1;
#X msg 868 396;
#X obj 882 416 openpanel;
#X msg 882 435 set open \$1;
#X msg 882 454;
#X obj 922 246 openpanel;
#X msg 922 265 set open \$1;
#X msg 922 284;
#X obj 935 303 openpanel;
#X msg 935 322 set open \$1;
#X msg 935 341;
#X obj 949 360 openpanel;
#X msg 949 379 set open \$1;
#X msg 949 398;
#X obj 963 418 openpanel;
#X msg 963 437 set open \$1;
#X msg 963 456;
#X obj 100 132 hradio 15 1 0 8 empty empty empty 0 -8 0 10 -262144
-1 -1 0;
#X obj 100 148 hradio 15 1 0 8 empty empty empty 0 -8 0 10 -262144
-1 -1 0;
#X obj 100 164 hradio 15 1 0 8 empty empty empty 0 -8 0 10 -262144
-1 -1 0;
#X connect 0 0 1 0;
#X connect 1 0 7 0;
#X connect 3 0 7 0;
#X connect 3 1 10 0;
#X connect 3 2 13 0;
#X connect 3 3 16 0;
#X connect 3 4 19 0;
#X connect 3 5 22 0;
#X connect 3 6 25 0;
#X connect 3 7 28 0;
#X connect 4 0 3 0;
#X connect 4 0 32 0;
#X connect 4 0 59 0;
#X connect 4 0 86 0;
#X connect 5 0 0 0;
#X connect 5 1 8 0;
#X connect 5 2 11 0;
#X connect 5 3 14 0;
#X connect 5 4 17 0;
#X connect 5 5 20 0;
#X connect 5 6 23 0;
#X connect 5 7 26 0;
#X connect 6 0 5 0;
#X connect 7 0 2 0;
#X connect 8 0 9 0;
#X connect 9 0 10 0;
#X connect 10 0 2 0;
#X connect 11 0 12 0;
#X connect 12 0 13 0;
#X connect 13 0 2 0;
#X connect 14 0 15 0;
#X connect 15 0 16 0;
#X connect 16 0 2 0;
#X connect 17 0 18 0;
#X connect 18 0 19 0;
#X connect 19 0 2 0;
#X connect 20 0 21 0;
#X connect 21 0 22 0;
#X connect 22 0 2 0;
#X connect 23 0 24 0;
#X connect 24 0 25 0;
#X connect 25 0 2 0;
#X connect 26 0 27 0;
#X connect 27 0 28 0;
#X connect 28 0 2 0;
#X connect 29 0 30 0;
#X connect 30 0 34 0;
#X connect 32 0 34 0;
#X connect 32 1 37 0;
#X connect 32 2 40 0;
#X connect 32 3 43 0;
#X connect 32 4 46 0;
#X connect 32 5 49 0;
#X connect 32 6 52 0;
#X connect 32 7 55 0;
#X connect 33 0 29 0;
#X connect 33 1 35 0;
#X connect 33 2 38 0;
#X connect 33 3 41 0;
#X connect 33 4 44 0;
#X connect 33 5 47 0;
#X connect 33 6 50 0;
#X connect 33 7 53 0;
#X connect 34 0 31 0;
#X connect 35 0 36 0;
#X connect 36 0 37 0;
#X connect 37 0 31 0;
#X connect 38 0 39 0;
#X connect 39 0 40 0;
#X connect 40 0 31 0;
#X connect 41 0 42 0;
#X connect 42 0 43 0;
#X connect 43 0 31 0;
#X connect 44 0 45 0;
#X connect 45 0 46 0;
#X connect 46 0 31 0;
#X connect 47 0 48 0;
#X connect 48 0 49 0;
#X connect 49 0 31 0;
#X connect 50 0 51 0;
#X connect 51 0 52 0;
#X connect 52 0 31 0;
#X connect 53 0 54 0;
#X connect 54 0 55 0;
#X connect 55 0 31 0;
#X connect 56 0 57 0;
#X connect 57 0 61 0;
#X connect 59 0 61 0;
#X connect 59 1 64 0;
#X connect 59 2 67 0;
#X connect 59 3 70 0;
#X connect 59 4 73 0;
#X connect 59 5 76 0;
#X connect 59 6 79 0;
#X connect 59 7 82 0;
#X connect 60 0 56 0;
#X connect 60 1 62 0;
#X connect 60 2 65 0;
#X connect 60 3 68 0;
#X connect 60 4 71 0;
#X connect 60 5 74 0;
#X connect 60 6 77 0;
#X connect 60 7 80 0;
#X connect 61 0 58 0;
#X connect 62 0 63 0;
#X connect 63 0 64 0;
#X connect 64 0 58 0;
#X connect 65 0 66 0;
#X connect 66 0 67 0;
#X connect 67 0 58 0;
#X connect 68 0 69 0;
#X connect 69 0 70 0;
#X connect 70 0 58 0;
#X connect 71 0 72 0;
#X connect 72 0 73 0;
#X connect 73 0 58 0;
#X connect 74 0 75 0;
#X connect 75 0 76 0;
#X connect 76 0 58 0;
#X connect 77 0 78 0;
#X connect 78 0 79 0;
#X connect 79 0 58 0;
#X connect 80 0 81 0;
#X connect 81 0 82 0;
#X connect 82 0 58 0;
#X connect 83 0 84 0;
#X connect 84 0 88 0;
#X connect 86 0 88 0;
#X connect 86 1 91 0;
#X connect 86 2 94 0;
#X connect 86 3 97 0;
#X connect 86 4 100 0;
#X connect 86 5 103 0;
#X connect 86 6 106 0;
#X connect 86 7 109 0;
#X connect 87 0 83 0;
#X connect 87 1 89 0;
#X connect 87 2 92 0;
#X connect 87 3 95 0;
#X connect 87 4 98 0;
#X connect 87 5 101 0;
#X connect 87 6 104 0;
#X connect 87 7 107 0;
#X connect 88 0 85 0;
#X connect 89 0 90 0;
#X connect 90 0 91 0;
#X connect 91 0 85 0;
#X connect 92 0 93 0;
#X connect 93 0 94 0;
#X connect 94 0 85 0;
#X connect 95 0 96 0;
#X connect 96 0 97 0;
#X connect 97 0 85 0;
#X connect 98 0 99 0;
#X connect 99 0 100 0;
#X connect 100 0 85 0;
#X connect 101 0 102 0;
#X connect 102 0 103 0;
#X connect 103 0 85 0;
#X connect 104 0 105 0;
#X connect 105 0 106 0;
#X connect 106 0 85 0;
#X connect 107 0 108 0;
#X connect 108 0 109 0;
#X connect 109 0 85 0;
#X connect 110 0 33 0;
#X connect 111 0 60 0;
#X connect 112 0 87 0;
#X coords 0 -1 1 1 120 80 1 100 100;
#X restore 8 5 pd videa;
#X obj 8 176 pix_texture;
#X obj 8 156 pix_movie;
#X msg 59 137 1;
#X obj 95 176 pix_texture;
#X obj 95 156 pix_movie;
#X msg 157 137 1;
#X obj 95 137 gemhead 1;
#X obj 186 176 pix_texture;
#X obj 186 156 pix_movie;
#X msg 237 137 1;
#X obj 273 176 pix_texture;
#X obj 273 156 pix_movie;
#X msg 335 137 1;
#X obj 186 137 gemhead 2;
#X obj 273 137 gemhead 3;
#X obj 394 155 r secc;
#X obj 366 41 random 4;
#X obj 215 29 sel 0 1 2 3;
#X obj 8 118 tgl 15 0 empty empty empty 17 7 0 10 -262144 -1 -1 1 1
;
#X obj 95 119 tgl 15 0 empty empty empty 17 7 0 10 -262144 -1 -1 0
1;
#X obj 186 117 tgl 15 0 empty empty empty 17 7 0 10 -262144 -1 -1 0
1;
#X obj 269 114 tgl 15 0 empty empty empty 17 7 0 10 -262144 -1 -1 0
1;
#X obj 188 95 unpack f f f f;
#X msg 237 50 1 0 0 0;
#X msg 293 49 0 1 0 0;
#X msg 141 52 0 0 1 0;
#X msg 190 52 0 0 0 1;
#X obj 365 19 bng 15 250 50 0 empty empty empty 17 7 0 10 -262144 -1
-1;
#X obj 337 91 route /secc;
#X obj 364 173 int;
#X obj 327 114 expr ($f1*$f2)+$f3;
#X floatatom 398 4 5 0 0 0 - - -;
#X floatatom 428 22 5 0 0 0 - - -;
#X msg 47 116 auto 1;
#X obj 8 340 rectangle 5.6 4.2;
#X obj 95 196 rectangle 5.6 4.2;
#X obj 186 196 rectangle 5.6 4.2;
#X obj 273 196 rectangle 5.6 4.2;
#X obj 332 231 controladora;
#X obj 8 321 rotateXYZ;
#X obj 85 214 r a1;
#X obj 122 216 r a2;
#X obj 160 215 r a3;
#X floatatom 200 216 5 0 0 0 - - -;
#X obj 85 234 expr (($f1/127)*$f4)-$f5 \; (($f2/127)*$f4)-$f5 \; (($f3/127)*$f4)-$f5
;
#X floatatom 248 218 5 0 0 0 - - -;
#X obj 74 300 line;
#X obj 116 300 line;
#X obj 159 300 line;
#X msg 74 280 \$1 100;
#X msg 116 280 \$1 100;
#X msg 159 280 \$1 100;
#X obj 306 61 udpreceive 3334;
#X obj 272 327 print;
#X obj 291 88 change;
#X connect 1 0 4 0;
#X connect 2 0 4 0;
#X connect 2 1 7 0;
#X connect 2 2 11 0;
#X connect 2 3 14 0;
#X connect 3 0 42 0;
#X connect 4 0 3 0;
#X connect 4 2 5 0;
#X connect 5 0 4 1;
#X connect 6 0 38 0;
#X connect 7 0 6 0;
#X connect 7 2 8 0;
#X connect 8 0 7 1;
#X connect 9 0 7 0;
#X connect 10 0 39 0;
#X connect 11 0 10 0;
#X connect 11 2 12 0;
#X connect 12 0 11 1;
#X connect 13 0 40 0;
#X connect 14 0 13 0;
#X connect 14 2 15 0;
#X connect 15 0 14 1;
#X connect 16 0 11 0;
#X connect 17 0 14 0;
#X connect 19 0 20 0;
#X connect 20 0 28 0;
#X connect 20 1 29 0;
#X connect 20 2 26 0;
#X connect 20 3 27 0;
#X connect 21 0 1 0;
#X connect 22 0 9 0;
#X connect 23 0 16 0;
#X connect 24 0 17 0;
#X connect 25 0 21 0;
#X connect 25 1 22 0;
#X connect 25 2 23 0;
#X connect 25 3 24 0;
#X connect 26 0 25 0;
#X connect 27 0 25 0;
#X connect 28 0 25 0;
#X connect 29 0 25 0;
#X connect 30 0 19 0;
#X connect 31 0 33 0;
#X connect 32 0 14 1;
#X connect 32 0 11 1;
#X connect 32 0 7 1;
#X connect 32 0 4 1;
#X connect 33 0 32 0;
#X connect 34 0 33 1;
#X connect 35 0 33 2;
#X connect 36 0 4 0;
#X connect 36 0 7 0;
#X connect 36 0 11 0;
#X connect 36 0 14 0;
#X connect 42 0 37 0;
#X connect 43 0 47 0;
#X connect 44 0 47 1;
#X connect 45 0 47 2;
#X connect 46 0 47 3;
#X connect 47 0 52 0;
#X connect 47 1 53 0;
#X connect 47 2 54 0;
#X connect 48 0 47 4;
#X connect 49 0 42 1;
#X connect 50 0 42 2;
#X connect 51 0 42 3;
#X connect 52 0 49 0;
#X connect 53 0 50 0;
#X connect 54 0 51 0;
#X connect 55 0 31 0;
#X connect 55 0 57 0;
#X connect 57 0 56 0;
#X connect 57 0 33 0;
