#N canvas 64 123 947 676 10;
#X obj -144 49 metro;
#X obj -144 -35 tgl 15 0 empty empty empty 17 7 0 10 -262144 -1 -1
0 1;
#X obj -52 175 tabread mayor;
#X obj 40 177 tabread menor;
#X obj 518 236 counter 0 0 128;
#X obj 518 255 % 12;
#X obj 517 406 tabwrite mayor;
#X obj 517 349 bondo;
#X obj 518 217 metro;
#X obj 518 199 tgl 15 0 empty empty empty 17 7 0 10 -262144 -1 -1 0
1;
#X obj 558 216 sel 127;
#X obj 517 294 > 0;
#X obj 517 313 spigot;
#X obj 560 313 sel 1;
#X obj 560 332 counter 0 0 31;
#X obj 517 275 expr if($f1==1||$f1==$f3||$f1==8 \, $f2 \, 0);
#X msg 617 255 5;
#X msg 646 256 4;
#X obj 517 387 spigot;
#X obj 517 368 pack;
#X obj 562 387 spigot;
#X obj 595 366 == 4;
#X obj 562 366 == 5;
#X obj 610 406 tabwrite menor;
#X obj 618 234 loadbang;
#X obj -66 339 table mayor;
#X obj -66 359 table menor;
#X msg 518 180 1;
#X obj 548 181 del 1000;
#X obj 83 144 spigot;
#X obj -52 156 spigot;
#X obj -120 -24 sel 1;
#X obj -83 -24 sel 1;
#X obj -46 -24 sel 1;
#X obj -9 -24 sel 1;
#X obj 28 -24 sel 1;
#X obj 65 -24 sel 1;
#X obj 102 -24 sel 1;
#X msg -120 -5 0;
#X msg -83 -5 2;
#X msg -46 -5 4;
#X msg -9 -5 5;
#X msg 28 -5 7;
#X msg 65 -5 9;
#X msg 102 -5 11;
#X obj -144 222 mtof;
#N canvas 1 27 450 300 (subpatch) 0;
#X array timbre 100 float 3;
#A 0 -0.0843772 0.09562 0.09562 0.09562 0.09562 0.09562 0.09562 0.09562
0.09562 0.09562 0.09562 0.09562 0.09562 0.09562 0.09562 0.09562 0.0922867
0.0889534 0.0856201 0.0822869 0.0789536 0.0756203 0.072287 0.0689537
0.0656204 0.0622872 0.0589539 0.0556206 0.0556206 0.0556206 0.0556206
0.0556206 0.0556206 0.0556206 0.0556206 0.0556206 0.0556206 0.0556206
0.0556206 0.0556206 0.0556206 0.0556206 -0.884365 -0.944364 -0.324374
-0.284374 -0.194376 -0.204375 0.0556206 0.0556206 0.0556206 0.0556206
0.0556206 0.0556206 0.0556206 0.0556206 0.0556206 0.0556206 0.0556206
0.0556206 0.0556206 0.0556206 0.0556206 0.0556206 0.0556206 0.0556206
0.0556206 0.0556206 0.0556206 0.0556206 0.195619 0.215618 0.255618
0.275617 0.395615 0.575613 0.875608 0.895608 0.935607 0.0556206 0.0556206
0.0556206 0.0556206 0.0556206 0.0556206 0.0556206 0.0556206 0.0556206
0.0556206 0.0556206 0.0556206 0.0556206 0.0556206 0.0556206 0.0556206
0.0556206 0.0556206 0.0556206 0.0556206 0.0556206;
#X coords 0 1 100 -1 150 100 1;
#X restore 308 313 graph;
#X obj -144 264 phasor~;
#X obj -144 304 tabread4~ timbre;
#X obj -143 342 *~;
#X obj -35 286 line~;
#X obj -35 226 change;
#X obj -35 245 bang;
#X obj -144 13 metro;
#X obj -144 -108 tgl 15 0 empty empty empty 17 7 0 10 -262144 -1 -1
0 1;
#X obj -142 -144 == 1;
#X obj -104 -144 == 2;
#X obj -55 -101 inlet;
#X obj -143 418 outlet~;
#X obj 59 -58 inlet;
#X obj 127 -59 inlet;
#X obj -144 93 bondo;
#X obj -144 129 expr $f1+$f2;
#X obj -144 185 bondo 3;
#X obj -144 204 expr $f1+$f2+$f3;
#X obj -144 284 *~ 100;
#X obj 322 -195 r 3x;
#X floatatom 324 -172 5 0 0 0 - - -;
#X obj 308 -44 r 3y;
#X floatatom 290 4 5 0 0 0 - - -;
#X obj 61 85 expr ((($f1+512)/1024)*21) \;;
#X obj 169 139 spigot;
#X obj 301 -21 expr abs($f1-1);
#X obj 51 -156 expr if($f1<0.142857 \, 1 \, 0) \; if($f1>0.142857 &&
$f1<0.285714 \, 1 \, 0) \; if($f1>0.285714 && $f1<0.42857 \, 1 \, 0)
\; if($f1>0.42857 && $f1<0.57142 \, 1 \, 0) \;;
#X obj 223 137 spigot;
#X obj 280 147 spigot;
#X obj 366 142 spigot;
#X obj 420 140 spigot;
#X msg -35 266 1 \, 0 500;
#X obj -142 376 *~;
#X obj 118 272 sendOSC;
#X msg 141 205 send /3/toggle1 0;
#X msg 209 185 send /3/toggle2 0;
#X msg 278 207 send /3/toggle3 0;
#X obj 212 162 sel 0 1 2;
#X obj 408 195 loadbang;
#X obj 408 222 del 1000;
#X obj 36 253 line;
#X msg 33 225 \$1 \$2;
#X obj 33 203 pack;
#X obj 75 203 / 4;
#X obj -144 69 counter 0 0 3;
#X obj -144 32 random 3;
#X msg 240 273 disconnect;
#X obj 359 -147 expr if($f1>0.57142 && $f1<0.71428 \, 1 \, 0) \; if($f1>0.71428
&& $f1<0.85714 \, 1 \, 0) \; if($f1>0.85714 \, 1 \, 0) \;;
#X obj 96 58 expr 3+($f1*18);
#X obj 12 -90 s mb6;
#X obj 90 -92 s mb7;
#X obj 167 -89 s mb8;
#X obj 226 -83 s mb9;
#X obj 289 -81 s mb10;
#X obj 386 -78 s mb11;
#X obj 515 -68 s mb12;
#X obj -141 397 *~;
#X obj 674 -149 inlet;
#X msg 167 234 connect 192.168.0.100 9000;
#X obj -60 -130 hradio 15 1 0 3 empty mw&y empty 0 -8 0 10 -262144
-1 -1 0;
#X obj -65 -200 r 3t1;
#X obj -66 -180 sel 1;
#X obj -26 -178 sel 1;
#X obj 18 -179 sel 1;
#X obj -25 -198 r 3t2;
#X obj 19 -199 r 3t3;
#X msg -66 -159 0;
#X msg -26 -157 1;
#X msg 17 -159 2;
#X obj -142 -164 t f;
#X connect 0 0 91 0;
#X connect 1 0 0 0;
#X connect 2 0 63 0;
#X connect 3 0 63 0;
#X connect 4 0 5 0;
#X connect 4 0 10 0;
#X connect 4 0 15 1;
#X connect 5 0 15 0;
#X connect 7 0 19 0;
#X connect 7 1 19 1;
#X connect 8 0 4 0;
#X connect 9 0 8 0;
#X connect 10 0 17 0;
#X connect 11 0 12 1;
#X connect 11 0 13 0;
#X connect 12 0 7 0;
#X connect 13 0 14 0;
#X connect 14 0 7 1;
#X connect 15 0 11 0;
#X connect 15 0 12 0;
#X connect 16 0 15 2;
#X connect 16 0 21 0;
#X connect 16 0 22 0;
#X connect 17 0 15 2;
#X connect 17 0 21 0;
#X connect 17 0 22 0;
#X connect 18 0 6 0;
#X connect 19 0 18 0;
#X connect 19 0 20 0;
#X connect 20 0 23 0;
#X connect 21 0 20 1;
#X connect 22 0 18 1;
#X connect 24 0 16 0;
#X connect 24 0 27 0;
#X connect 24 0 28 0;
#X connect 27 0 9 0;
#X connect 28 0 9 0;
#X connect 29 0 3 0;
#X connect 30 0 2 0;
#X connect 31 0 38 0;
#X connect 32 0 39 0;
#X connect 33 0 40 0;
#X connect 34 0 41 0;
#X connect 35 0 42 0;
#X connect 36 0 43 0;
#X connect 37 0 44 0;
#X connect 38 0 63 1;
#X connect 39 0 63 1;
#X connect 40 0 63 1;
#X connect 41 0 63 1;
#X connect 42 0 63 1;
#X connect 43 0 63 1;
#X connect 44 0 63 1;
#X connect 45 0 89 0;
#X connect 47 0 65 0;
#X connect 48 0 49 0;
#X connect 49 0 79 0;
#X connect 50 0 49 1;
#X connect 51 0 52 0;
#X connect 52 0 78 0;
#X connect 53 0 92 0;
#X connect 54 0 53 0;
#X connect 55 0 54 0;
#X connect 56 0 1 0;
#X connect 57 0 53 1;
#X connect 57 0 0 1;
#X connect 57 0 90 0;
#X connect 59 0 63 2;
#X connect 60 0 79 1;
#X connect 61 0 62 0;
#X connect 61 1 62 1;
#X connect 62 0 30 0;
#X connect 62 0 29 0;
#X connect 62 0 71 0;
#X connect 62 0 74 0;
#X connect 62 0 75 0;
#X connect 62 0 76 0;
#X connect 62 0 77 0;
#X connect 63 0 64 0;
#X connect 63 1 64 1;
#X connect 63 2 64 2;
#X connect 64 0 45 0;
#X connect 64 0 51 0;
#X connect 65 0 48 0;
#X connect 66 0 67 0;
#X connect 67 0 73 0;
#X connect 67 0 94 0;
#X connect 68 0 72 0;
#X connect 69 0 95 0;
#X connect 70 0 61 1;
#X connect 71 0 3 0;
#X connect 72 0 69 0;
#X connect 73 0 31 0;
#X connect 73 0 30 1;
#X connect 73 0 96 0;
#X connect 73 1 32 0;
#X connect 73 1 29 1;
#X connect 73 1 97 0;
#X connect 73 2 33 0;
#X connect 73 2 71 1;
#X connect 73 2 98 0;
#X connect 73 3 74 1;
#X connect 73 3 34 0;
#X connect 73 3 99 0;
#X connect 74 0 2 0;
#X connect 75 0 2 0;
#X connect 76 0 3 0;
#X connect 77 0 3 0;
#X connect 78 0 50 0;
#X connect 79 0 103 0;
#X connect 81 0 80 0;
#X connect 82 0 80 0;
#X connect 83 0 80 0;
#X connect 84 0 82 0;
#X connect 84 0 83 0;
#X connect 84 1 81 0;
#X connect 84 1 83 0;
#X connect 84 2 81 0;
#X connect 84 2 82 0;
#X connect 85 0 86 0;
#X connect 86 0 105 0;
#X connect 87 0 47 0;
#X connect 88 0 87 0;
#X connect 89 0 88 0;
#X connect 90 0 89 1;
#X connect 91 0 61 0;
#X connect 92 0 61 0;
#X connect 93 0 80 0;
#X connect 94 0 75 1;
#X connect 94 0 35 0;
#X connect 94 0 100 0;
#X connect 94 1 76 1;
#X connect 94 1 36 0;
#X connect 94 1 101 0;
#X connect 94 2 77 1;
#X connect 94 2 37 0;
#X connect 94 2 102 0;
#X connect 95 0 61 1;
#X connect 103 0 58 0;
#X connect 104 0 103 1;
#X connect 105 0 80 0;
#X connect 106 0 116 0;
#X connect 107 0 108 0;
#X connect 108 0 113 0;
#X connect 109 0 114 0;
#X connect 110 0 115 0;
#X connect 111 0 109 0;
#X connect 112 0 110 0;
#X connect 113 0 106 0;
#X connect 114 0 106 0;
#X connect 115 0 106 0;
#X connect 116 0 56 0;
#X connect 116 0 55 0;
#X connect 116 0 84 0;
#X coords 0 0 1 1 200 160 0;
