#N canvas 0 87 1360 681 10;
#X obj 16 262 metro;
#X obj 16 188 tgl 15 0 empty empty empty 17 7 0 10 -262144 -1 -1 0
1;
#X obj 128 393 tabread mayor;
#X obj 214 394 tabread menor;
#X obj 873 452 counter 0 0 128;
#X obj 873 471 % 12;
#X obj 872 622 tabwrite mayor;
#X obj 872 565 bondo;
#X obj 873 433 metro;
#X obj 873 415 tgl 15 0 empty empty empty 17 7 0 10 -262144 -1 -1 0
1;
#X obj 913 432 sel 127;
#X obj 872 510 > 0;
#X obj 872 529 spigot;
#X obj 915 529 sel 1;
#X obj 915 548 counter 0 0 31;
#X obj 872 491 expr if($f1==1||$f1==$f3||$f1==8 \, $f2 \, 0);
#X msg 972 471 5;
#X msg 1001 472 4;
#X obj 872 603 spigot;
#X obj 872 584 pack;
#X obj 917 603 spigot;
#X obj 950 582 == 4;
#X obj 917 582 == 5;
#X obj 965 622 tabwrite menor;
#X obj 973 450 loadbang;
#X obj 872 641 table mayor;
#X obj 872 661 table menor;
#X msg 873 396 1;
#X obj 903 397 del 1000;
#X obj 175 372 spigot;
#X obj 129 373 spigot;
#X obj 74 189 sel 1;
#X obj 111 189 sel 1;
#X obj 148 189 sel 1;
#X obj 185 189 sel 1;
#X obj 222 189 sel 1;
#X obj 259 189 sel 1;
#X obj 296 189 sel 1;
#X msg 74 210 0;
#X msg 111 210 2;
#X msg 148 210 4;
#X msg 185 210 5;
#X msg 222 210 7;
#X msg 259 210 9;
#X msg 296 210 11;
#X obj 16 463 mtof;
#N canvas 1 27 450 300 (subpatch) 0;
#X array timbre 100 float 3;
#A 0 -1.19209e-07 -1.19209e-07 -1.19209e-07 -1.19209e-07 -1.19209e-07
-1.19209e-07 -1.19209e-07 -1.19209e-07 -1.19209e-07 -1.19209e-07 -1.19209e-07
-1.19209e-07 -1.19209e-07 -1.19209e-07 -1.19209e-07 -1.19209e-07 -1.19209e-07
-1.19209e-07 -1.19209e-07 -1.19209e-07 -1.19209e-07 -1.19209e-07 -1.19209e-07
-1.19209e-07 -1.19209e-07 -1.19209e-07 -1.19209e-07 -1.19209e-07 -1.19209e-07
-1.19209e-07 -1.19209e-07 -1.19209e-07 -1.19209e-07 -1.19209e-07 -1.19209e-07
-1.19209e-07 -1.19209e-07 -1.19209e-07 -1.19209e-07 -1.19209e-07 -1.19209e-07
-1.19209e-07 -1.19209e-07 -1.19209e-07 -1.19209e-07 -1.19209e-07 -1.19209e-07
-1.19209e-07 -1.19209e-07 -8.86917e-08 -5.81742e-08 0.0999999 0.18
3.33785e-08 -1.19209e-07 -1.19209e-07 -1.19209e-07 -1.19209e-07 -1.19209e-07
-1.19209e-07 -1.19209e-07 -1.19209e-07 -1.19209e-07 -1.19209e-07 -1.19209e-07
-1.19209e-07 -1.19209e-07 -1.19209e-07 -1.19209e-07 -1.19209e-07 -1.19209e-07
-1.19209e-07 -1.19209e-07 -1.19209e-07 -1.19209e-07 -1.19209e-07 -1.19209e-07
-1.19209e-07 -1.19209e-07 -1.19209e-07 -1.19209e-07 -1.19209e-07 -1.19209e-07
-1.19209e-07 -1.19209e-07 -1.19209e-07 -1.19209e-07 -1.19209e-07 -1.19209e-07
-1.19209e-07 -1.19209e-07 -1.19209e-07 -1.19209e-07 -1.19209e-07 -1.19209e-07
-1.19209e-07 -1.19209e-07 -1.19209e-07 -1.19209e-07 -1.19209e-07;
#X coords 0 1 100 -1 150 100 1;
#X restore 947 252 graph;
#X obj 55 510 phasor~;
#X obj 12 560 tabread4~ timbre;
#X obj 21 612 *~;
#X obj 136 474 line~;
#X obj 136 414 change;
#X obj 136 433 bang;
#X obj 153 99 inlet;
#X obj 301 665 outlet~;
#X obj 205 153 inlet;
#X obj 16 305 bondo;
#X obj 16 341 expr $f1+$f2;
#X obj 16 397 bondo 3;
#X obj 16 445 expr $f1+$f2+$f3;
#X obj 12 540 *~ 100;
#X floatatom 739 55 5 0 0 0 - - -, f 5;
#X obj 485 47 expr if($f1<0.142857 \, 1 \, 0) \; if($f1>0.142857 &&
$f1<0.285714 \, 1 \, 0) \; if($f1>0.285714 && $f1<0.42857 \, 1 \, 0)
\; if($f1>0.42857 && $f1<0.57142 \, 1 \, 0) \;;
#X obj 354 372 sel 0 1 2;
#X obj 521 517 loadbang;
#X msg 237 441 \$1 \$2;
#X obj 231 414 pack;
#X obj 779 65 expr if($f1>0.57142 && $f1<0.71428 \, 1 \, 0) \; if($f1>0.71428
&& $f1<0.85714 \, 1 \, 0) \; if($f1>0.85714 \, 1 \, 0) \;;
#X obj 17 634 *~;
#X obj 1059 51 inlet;
#X obj 280 82 hradio 15 1 0 3 empty mw&y empty 0 -8 0 10 -262144 -1
-1 1;
#X obj 274 32 sel 1;
#X obj 314 34 sel 1;
#X obj 358 33 sel 1;
#X msg 274 53 0;
#X msg 314 55 1;
#X msg 357 53 2;
#X obj 381 675 outlet~;
#X obj 180 618 *~;
#X obj 134 615 *~;
#X obj 125 543 *~ 100;
#N canvas 1 27 450 300 (subpatch) 0;
#X array timbre2 100 float 3;
#A 0 0.2 0.22 0.24 0.24 0.24 0.24 0.24 0.24 0.24 0.24 0.24 0.24 0.24
0.24 0.24 0.24 0.24 0.24 0.24 0.24 0.24 0.24 0.24 0.24 0.24 0.24 0.2375
0.235 0.2325 0.23 0.2275 0.225 0.2225 0.22 0.213333 0.206667 0.2 0.193333
0.186667 0.18 0.18 0.18 0.18 0.18 0.18 0.18 0.18 0.18 -0.140002 -0.120002
-0.0800014 -0.0800014 -0.0650013 -0.0500012 -0.0350011 -0.0200011 -0.010001
-9.53674e-07 0.0099991 0.0199991 0.0599993 0.0799994 0.0799994 0.12
0.14 0.14 0.18 0.18 0.18 0.18 0.18 0.18 0.18 0.18 0.18 0.18 0.18 0.18
0.18 0.18 0.18 0.18 0.18 0.18 0.18 0.18 0.18 0.18 0.18 0.18 0.18 0.18
0.18 0.18 0.18 0.18 0.18 0.18 0.18 0.12;
#X coords 0 1 100 -1 150 100 1;
#X restore 787 255 graph;
#X obj 125 563 tabread4~ timbre2;
#X obj 234 467 line~;
#X obj 179 524 phasor~;
#X obj 303 643 compresiones;
#X msg 518 545 50 2 70;
#X obj 22 661 delwrite~ wy 1000;
#X obj 156 657 delwrite~ WY 1000;
#X obj 386 558 delread~ WY 50;
#X obj 276 567 delread~ wy 40;
#X obj 387 584 delread~ WY 80;
#X obj 275 586 delread~ wy 100;
#X obj 263 510 osc~;
#X obj 241 491 *~ 8;
#X obj 245 533 *~ 0.1;
#X obj 365 194 sel 0;
#X obj 33 155 spigot;
#X obj 83 136 == 0;
#X obj 302 447 packOSC;
#X obj 303 474 s touch;
#X obj 37 133 r bxyz;
#X obj 315 14 r b4t2;
#X obj 275 12 r b4t1;
#X obj 359 13 r b4t3;
#X msg 436 420 send /4/toggle3 0;
#X msg 301 417 send /4/toggle1 0;
#X msg 369 397 send /4/toggle2 0;
#X obj 16 111 r b4t4;
#X obj 742 17 r b4y;
#X obj 474 210 r b4x;
#X msg 135 451 1 20;
#X obj 172 432 del 150;
#X obj 541 181 r sey;
#X obj 22 20 r sb8;
#X obj 209 21 r sb7;
#X obj 23 72 expr if($f1 == 0 && $f2 ==0 \, 0 \, 1);
#X obj 24 49 bondo, f 31;
#X obj 272 414 / 16;
#X obj 866 17 r sex;
#X obj 856 38 expr ($f1+512)/1024;
#X obj 740 85 s Mm;
#X msg 195 454 0 100;
#X msg 340 218 12;
#X msg 400 222 12;
#X obj 16 281 counter 2 0 4;
#X floatatom 505 298 5 0 0 0 - - -, f 5;
#X obj 465 250 expr if($f1<0.5 \, abs(-0.5+$f1)*2 \, abs($f1-0.5)*2
);
#X obj 279 280 expr (8+((1-$f1)*$f2));
#X obj 17 483 spigot;
#X obj 403 319 > 0.5;
#X obj 463 323 < 0.5;
#X msg 225 241 0 1;
#X obj 202 271 unpack;
#X msg 195 241 1 0;
#X obj 480 142 change;
#X obj 539 142 change;
#X obj 598 142 change;
#X obj 657 142 change;
#X obj 716 142 change;
#X obj 781 142 change;
#X obj 846 142 change;
#X obj 543 207 expr (($f1+512)/1024);
#X obj 179 290 bondo 3;
#X obj 150 239 r sb4;
#X obj 130 316 expr if($f1==0 \, $f2 \, abs($f2-1)) \; if($f1==0 \,
$f3 \, abs($f3-1));
#X obj 602 1 tgl 15 0 empty empty empty 17 7 0 10 -262144 -1 -1 0 1
;
#X obj 619 1 tgl 15 0 empty empty empty 17 7 0 10 -262144 -1 -1 0 1
;
#X obj 636 1 tgl 15 0 empty empty empty 17 7 0 10 -262144 -1 -1 0 1
;
#X obj 653 1 tgl 15 0 empty empty empty 17 7 0 10 -262144 -1 -1 0 1
;
#X obj 670 1 tgl 15 0 empty empty empty 17 7 0 10 -262144 -1 -1 0 1
;
#X obj 687 1 tgl 15 0 empty empty empty 17 7 0 10 -262144 -1 -1 0 1
;
#X obj 704 1 tgl 15 0 empty empty empty 17 7 0 10 -262144 -1 -1 1 1
;
#X obj 281 369 tgl 15 0 empty empty empty 17 7 0 10 -262144 -1 -1 0
1;
#X obj 315 368 tgl 15 0 empty empty empty 17 7 0 10 -262144 -1 -1 1
1;
#X obj 27 206 t b f;
#X msg 66 239 set 0;
#X msg 83 110 0;
#X floatatom 121 116 5 0 0 0 - - -, f 5;
#X connect 0 0 125 0;
#X connect 1 0 0 0;
#X connect 1 0 96 0;
#X connect 1 0 129 1;
#X connect 1 0 155 0;
#X connect 2 0 58 0;
#X connect 3 0 58 0;
#X connect 4 0 5 0;
#X connect 4 0 10 0;
#X connect 4 0 15 1;
#X connect 5 0 15 0;
#X connect 7 0 19 0;
#X connect 7 1 19 1;
#X connect 8 0 4 0;
#X connect 9 0 8 0;
#X connect 10 0 17 0;
#X connect 11 0 12 1;
#X connect 11 0 13 0;
#X connect 12 0 7 0;
#X connect 13 0 14 0;
#X connect 14 0 7 1;
#X connect 15 0 11 0;
#X connect 15 0 12 0;
#X connect 16 0 15 2;
#X connect 16 0 21 0;
#X connect 16 0 22 0;
#X connect 17 0 15 2;
#X connect 17 0 21 0;
#X connect 17 0 22 0;
#X connect 18 0 6 0;
#X connect 19 0 18 0;
#X connect 19 0 20 0;
#X connect 20 0 23 0;
#X connect 21 0 20 1;
#X connect 22 0 18 1;
#X connect 24 0 16 0;
#X connect 24 0 27 0;
#X connect 24 0 28 0;
#X connect 27 0 9 0;
#X connect 28 0 9 0;
#X connect 29 0 3 0;
#X connect 30 0 2 0;
#X connect 31 0 38 0;
#X connect 31 0 134 0;
#X connect 32 0 39 0;
#X connect 32 0 132 0;
#X connect 33 0 40 0;
#X connect 33 0 132 0;
#X connect 34 0 41 0;
#X connect 34 0 134 0;
#X connect 35 0 42 0;
#X connect 35 0 134 0;
#X connect 36 0 43 0;
#X connect 36 0 132 0;
#X connect 37 0 44 0;
#X connect 37 0 132 0;
#X connect 38 0 58 1;
#X connect 39 0 58 1;
#X connect 40 0 58 1;
#X connect 41 0 58 1;
#X connect 42 0 58 1;
#X connect 43 0 58 1;
#X connect 44 0 58 1;
#X connect 45 0 129 0;
#X connect 47 0 60 0;
#X connect 48 0 49 0;
#X connect 49 0 68 0;
#X connect 50 0 49 1;
#X connect 50 0 79 1;
#X connect 51 0 52 0;
#X connect 52 0 111 0;
#X connect 52 0 112 0;
#X connect 53 0 0 1;
#X connect 53 0 112 1;
#X connect 53 0 118 0;
#X connect 55 0 58 2;
#X connect 56 0 57 0;
#X connect 56 1 57 1;
#X connect 57 0 30 0;
#X connect 57 0 29 0;
#X connect 58 0 59 0;
#X connect 58 1 59 1;
#X connect 58 2 59 2;
#X connect 59 0 45 0;
#X connect 60 0 48 0;
#X connect 61 0 62 0;
#X connect 61 0 67 0;
#X connect 62 0 135 0;
#X connect 62 1 136 0;
#X connect 62 2 137 0;
#X connect 62 3 138 0;
#X connect 63 0 107 0;
#X connect 63 0 105 0;
#X connect 63 1 106 0;
#X connect 63 1 105 0;
#X connect 63 2 106 0;
#X connect 63 2 107 0;
#X connect 64 0 86 0;
#X connect 64 0 157 0;
#X connect 65 0 83 0;
#X connect 66 0 65 0;
#X connect 67 0 139 0;
#X connect 67 1 140 0;
#X connect 67 2 141 0;
#X connect 68 0 87 0;
#X connect 68 0 85 0;
#X connect 69 0 68 1;
#X connect 69 0 78 1;
#X connect 70 0 63 0;
#X connect 70 0 125 1;
#X connect 71 0 74 0;
#X connect 72 0 75 0;
#X connect 73 0 76 0;
#X connect 74 0 70 0;
#X connect 75 0 70 0;
#X connect 76 0 70 0;
#X connect 78 0 88 0;
#X connect 78 0 85 1;
#X connect 79 0 78 0;
#X connect 80 0 82 0;
#X connect 82 0 79 0;
#X connect 83 0 47 0;
#X connect 83 0 84 0;
#X connect 83 0 94 0;
#X connect 84 0 80 0;
#X connect 85 0 54 0;
#X connect 85 1 77 0;
#X connect 86 0 85 2;
#X connect 89 0 85 1;
#X connect 90 0 85 0;
#X connect 91 0 85 1;
#X connect 92 0 85 0;
#X connect 93 0 95 0;
#X connect 94 0 93 0;
#X connect 95 0 49 0;
#X connect 95 0 79 0;
#X connect 96 0 123 0;
#X connect 96 1 124 0;
#X connect 97 0 1 0;
#X connect 98 0 97 1;
#X connect 99 0 100 0;
#X connect 101 0 97 0;
#X connect 102 0 72 0;
#X connect 103 0 71 0;
#X connect 104 0 73 0;
#X connect 105 0 99 0;
#X connect 106 0 99 0;
#X connect 107 0 99 0;
#X connect 108 0 1 0;
#X connect 108 0 98 0;
#X connect 109 0 61 0;
#X connect 110 0 127 0;
#X connect 110 0 130 0;
#X connect 110 0 131 0;
#X connect 111 0 50 0;
#X connect 112 0 122 0;
#X connect 113 0 142 0;
#X connect 114 0 117 0;
#X connect 115 0 117 1;
#X connect 116 0 1 0;
#X connect 117 0 116 0;
#X connect 117 1 116 1;
#X connect 118 0 66 1;
#X connect 119 0 120 0;
#X connect 120 0 61 0;
#X connect 122 0 50 0;
#X connect 123 0 128 1;
#X connect 124 0 128 1;
#X connect 125 0 56 0;
#X connect 125 0 51 0;
#X connect 127 0 126 0;
#X connect 127 0 128 0;
#X connect 128 0 56 1;
#X connect 129 0 66 0;
#X connect 130 0 30 1;
#X connect 131 0 29 1;
#X connect 132 0 133 0;
#X connect 133 0 143 1;
#X connect 133 1 143 2;
#X connect 134 0 133 0;
#X connect 135 0 31 0;
#X connect 135 0 146 0;
#X connect 136 0 32 0;
#X connect 136 0 147 0;
#X connect 137 0 33 0;
#X connect 137 0 148 0;
#X connect 138 0 34 0;
#X connect 138 0 149 0;
#X connect 139 0 35 0;
#X connect 139 0 150 0;
#X connect 140 0 36 0;
#X connect 140 0 151 0;
#X connect 141 0 37 0;
#X connect 141 0 152 0;
#X connect 142 0 128 0;
#X connect 143 0 145 0;
#X connect 143 1 145 1;
#X connect 143 2 145 2;
#X connect 144 0 143 0;
#X connect 145 0 30 1;
#X connect 145 0 153 0;
#X connect 145 1 29 1;
#X connect 145 1 154 0;
#X connect 155 0 156 0;
#X connect 155 1 0 0;
#X connect 156 0 125 0;
#X connect 157 0 98 0;
#X connect 158 0 98 0;
#X coords 0 -1 1 1 120 17 1 600 0;
